<?xml version="1.0" encoding="UTF-8"?>
<!-- Generated by jsxcad -->
<!DOCTYPE svg PUBLIC "-//W3C//DTD SVG 1.1 Tiny//EN" "http://www.w3.org/Graphics/SVG/1.1/DTD/svg11-tiny.dtd">
<svg viewBox="-250 -250 500 500" width="500" height="500" xmlns="http://www.w3.org/2000/svg"><path d="M-19.543615177027483,-106.46254024814218L-28.550022635122076,-102.93472310353542L-37.44363019382599,-99.06200241130784zM-1.286808115999503,-112.44144221169L-10.447919380971227,-109.63485611675887L-19.543615177027483,-106.46254024814218zM17.134125778600847,-116.91856503590924L-1.286808115999503,-112.44144221169L-19.543615177027483,-106.46254024814218zM17.134125778600847,-116.91856503590924L7.915446658135561,-114.87248430301962L-1.286808115999503,-112.44144221169zM35.5193977736125,-119.82036382444909L26.34402153696713,-118.57069958973052L17.134125778600847,-116.91856503590924zM-37.44363019382599,-99.06200241130784L-42.09146014987866,-96.82947587979521L-44.2686346428284,-47.98636025780176zM-19.543615177027483,-106.46254024814218L-37.44363019382599,-99.06200241130784L-44.2686346428284,-47.98636025780176zM17.134125778600847,-116.91856503590924L-19.543615177027483,-106.46254024814218L-44.2686346428284,-47.98636025780176zM42.47880548939925,-71.6014828582893L35.5193977736125,-119.82036382444909L17.134125778600847,-116.91856503590924z" style="fill:rgb(83,212,212)"/><path d="M43.826830880998116,-112.10827201332155L40.346647496692796,-120.26480076385484L42.47880548939925,-71.6014828582893z" style="fill:rgb(247,158,158)"/><path d="M42.47880548939925,-71.6014828582893L40.346647496692796,-120.26480076385484L35.5193977736125,-119.82036382444909zM43.31841925010117,-67.25866247492037L17.134125778600847,-116.91856503590924L-44.2686346428284,-47.98636025780176z" style="fill:rgb(83,212,212)"/><path d="M42.47880548939925,-71.6014828582893L46.12578939320511,-63.37666658518917L43.826830880998116,-112.10827201332155z" style="fill:rgb(247,158,158)"/><path d="M43.31841925010117,-67.25866247492037L42.47880548939925,-71.6014828582893L17.134125778600847,-116.91856503590924zM-77.64977187847644,-15.719069017500548L-147.68180252588482,2.9366205292651357L-149.57601116905346,6.998403985320737zM-149.57601116905346,6.998403985320737L-152.6290829369406,14.689716219445762L-155.1559549646408,22.41536047725883zM-77.64977187847644,-15.719069017500548L-149.57601116905346,6.998403985320737L-155.1559549646408,22.41536047725883zM48.73208292296523,-60.156364003754646L-44.2686346428284,-47.98636025780176L-45.08494451358564,-43.29156133620434zM-71.35178199858032,-17.85341712616854L-77.64977187847644,-15.719069017500548L-155.1559549646408,22.41536047725883zM48.73208292296523,-60.156364003754646L-45.08494451358564,-43.29156133620434L-47.110031830595204,-38.40497432773472zM48.73208292296523,-60.156364003754646L-47.110031830595204,-38.40497432773472L-50.27646388499428,-33.52127670067498zM45.42370184086049,-63.391505212003835L43.31841925010117,-67.25866247492037L-44.2686346428284,-47.98636025780176z" style="fill:rgb(83,212,212)"/><path d="M43.31841925010117,-67.25866247492037L46.97660935410395,-59.026767600712695L46.12578939320511,-63.37666658518917z" style="fill:rgb(246,167,149)"/><path d="M-155.1559549646408,22.41536047725883L-157.13780998360204,30.15031556023055L-158.55667158482044,37.868443758166975z" style="fill:rgb(83,212,212)"/><path d="M46.12578939320511,-63.37666658518917L42.47880548939925,-71.6014828582893L43.31841925010117,-67.25866247492037z" style="fill:rgb(246,167,149)"/><path d="M48.73208292296523,-60.156364003754646L45.42370184086049,-63.391505212003835L-44.2686346428284,-47.98636025780176zM-155.1559549646408,22.41536047725883L-158.55667158482044,37.868443758166975L-159.6388965778692,53.144133502077196zM-17.3386540328293,-25.044730867939997L48.73208292296523,-60.156364003754646L-50.27646388499428,-33.52127670067498zM-23.090373307541388,-21.179760962228162L-17.3386540328293,-25.044730867939997L-50.27646388499428,-33.52127670067498zM-28.251049597605874,-16.787070740854563L-23.090373307541388,-21.179760962228162L-50.27646388499428,-33.52127670067498zM-32.68106980855179,-11.980207094784468L-28.251049597605874,-16.787070740854563L-50.27646388499428,-33.52127670067498z" style="fill:rgb(83,212,212)"/><path d="M-17.3386540328293,-25.044730867939997L-13.18512878730049,-17.03949718573911L-7.04160648067108,-20.252799530605067z" style="fill:rgb(167,52,222)"/><path d="M-11.148462606955581,-28.28192473901051L-7.04160648067108,-20.252799530605067L-0.6207987584639281,-22.752025105881316z" style="fill:rgb(147,43,221)"/><path d="M-23.090373307541388,-21.179760962228162L-18.889939220585955,-13.196423950493855L-13.18512878730049,-17.03949718573911z" style="fill:rgb(185,63,221)"/><path d="M-50.27646388499428,-33.52127670067498L-36.25683177135676,-6.884286854171655L-32.68106980855179,-11.980207094784468z" style="fill:rgb(83,212,212)"/><path d="M-4.682339182396297,-30.806469710310406L-0.6207987584639281,-22.752025105881316L5.908892288821984,-24.469690227236z" style="fill:rgb(127,37,217)"/><path d="M-28.251049597605874,-16.787070740854563L-24.004597116524465,-8.823141147309233L-18.889939220585955,-13.196423950493855z" style="fill:rgb(202,76,217)"/><path d="M-7.04160648067108,-20.252799530605067L-11.148462606955581,-28.28192473901051L-17.3386540328293,-25.044730867939997z" style="fill:rgb(167,52,222)"/><path d="M-158.55667158482044,37.868443758166975L-159.39559757952736,45.54249505033618L-159.6388965778692,53.144133502077196z" style="fill:rgb(83,212,212)"/><path d="M-13.18512878730049,-17.03949718573911L-17.3386540328293,-25.044730867939997L-23.090373307541388,-21.179760962228162z" style="fill:rgb(185,63,221)"/><path d="M-0.6207987584639281,-22.752025105881316L-4.682339182396297,-30.806469710310406L-11.148462606955581,-28.28192473901051z" style="fill:rgb(147,43,221)"/><path d="M1.8902436389135575,-32.55025292305518L5.908892288821984,-24.469690227236L12.37520274611196,-25.35658501635163z" style="fill:rgb(107,33,211)"/><path d="M-50.27646388499428,-33.52127670067498L-38.87380952401022,-1.6338188836378291L-36.25683177135676,-6.884286854171655zM-50.27646388499428,-33.52127670067498L-54.466674960778306,-28.839197001100693L-82.87110155025701,53.23076738164249z" style="fill:rgb(83,212,212)"/><path d="M-18.889939220585955,-13.196423950493855L-23.090373307541388,-21.179760962228162L-28.251049597605874,-16.787070740854563z" style="fill:rgb(202,76,217)"/><path d="M-32.68106980855179,-11.980207094784468L-28.39065482914981,-4.0327610438400265L-24.004597116524465,-8.823141147309233z" style="fill:rgb(217,91,210)"/><path d="M5.908892288821984,-24.469690227236L1.8902436389135575,-32.55025292305518L-4.682339182396297,-30.806469710310406z" style="fill:rgb(127,37,217)"/><path d="M-17.3386540328293,-25.044730867939997L-11.148462606955581,-28.28192473901051L48.73208292296523,-60.156364003754646zM-11.148462606955581,-28.28192473901051L-4.682339182396297,-30.806469710310406L48.73208292296523,-60.156364003754646zM-54.466674960778306,-28.839197001100693L-59.51675130211703,-24.552156494051925L-82.87110155025701,53.23076738164249zM-71.35178199858032,-17.85341712616854L-155.1559549646408,22.41536047725883L-82.87110155025701,53.23076738164249zM-4.682339182396297,-30.806469710310406L1.8902436389135575,-32.55025292305518L48.73208292296523,-60.156364003754646z" style="fill:rgb(83,212,212)"/><path d="M8.395995007781544,-33.463379110190225L12.37520274611196,-25.35658501635163L18.605291485999587,-25.3831366263063z" style="fill:rgb(87,32,202)"/><path d="M-24.004597116524465,-8.823141147309233L-28.251049597605874,-16.787070740854563L-32.68106980855179,-11.980207094784468z" style="fill:rgb(217,91,210)"/><path d="M-59.51675130211703,-24.552156494051925L-65.22310996880141,-20.838699444395786L-82.87110155025701,53.23076738164249zM-65.22310996880141,-20.838699444395786L-71.35178199858032,-17.85341712616854L-82.87110155025701,53.23076738164249zM-50.27646388499428,-33.52127670067498L-40.44966063249662,3.629832273713202L-38.87380952401022,-1.6338188836378291z" style="fill:rgb(83,212,212)"/><path d="M12.37520274611196,-25.35658501635163L8.395995007781544,-33.463379110190225L1.8902436389135575,-32.55025292305518z" style="fill:rgb(107,33,211)"/><path d="M1.8902436389135575,-32.55025292305518L8.395995007781544,-33.463379110190225L48.73208292296523,-60.156364003754646z" style="fill:rgb(83,212,212)"/><path d="M-36.25683177135676,-6.884286854171655L-31.925660410960642,1.0499595081854134L-28.39065482914981,-4.0327610438400265zM-28.39065482914981,-4.0327610438400265L-32.68106980855179,-11.980207094784468L-36.25683177135676,-6.884286854171655z" style="fill:rgb(229,106,201)"/><path d="M8.395995007781544,-33.463379110190225L14.661096440039461,-33.51554641394629L48.73208292296523,-60.156364003754646z" style="fill:rgb(83,212,212)"/><path d="M14.661096440039461,-33.51554641394629L18.605291485999587,-25.3831366263063L24.429257304889852,-24.540650346139326z" style="fill:rgb(69,33,191)"/><path d="M-50.27646388499428,-33.52127670067498L-40.92727111703735,8.761405938879527L-40.44966063249662,3.629832273713202z" style="fill:rgb(83,212,212)"/><path d="M18.605291485999587,-25.3831366263063L14.661096440039461,-33.51554641394629L8.395995007781544,-33.463379110190225z" style="fill:rgb(87,32,202)"/><path d="M-38.87380952401022,-1.6338188836378291L-34.506236438891456,6.29080622876158L-31.925660410960642,1.0499595081854134z" style="fill:rgb(238,122,189)"/><path d="M14.661096440039461,-33.51554641394629L20.514739612425302,-32.697304519284835L48.73208292296523,-60.156364003754646z" style="fill:rgb(83,212,212)"/><path d="M-31.925660410960642,1.0499595081854134L-36.25683177135676,-6.884286854171655L-38.87380952401022,-1.6338188836378291z" style="fill:rgb(238,122,189)"/><path d="M-50.27646388499428,-33.52127670067498L-40.277606186694904,13.615163230426148L-40.92727111703735,8.761405938879527z" style="fill:rgb(83,212,212)"/><path d="M24.429257304889852,-24.540650346139326L20.514739612425302,-32.697304519284835L14.661096440039461,-33.51554641394629z" style="fill:rgb(69,33,191)"/><path d="M20.514739612425302,-32.697304519284835L24.429257304889852,-24.540650346139326L29.68396557221895,-22.842354119802195z" style="fill:rgb(52,37,178)"/><path d="M-155.1559549646408,22.41536047725883L-159.6388965778692,53.144133502077196L-82.87110155025701,53.23076738164249zM20.514739612425302,-32.697304519284835L25.79294794569147,-31.021121429295977L48.73208292296523,-60.156364003754646z" style="fill:rgb(83,212,212)"/><path d="M-40.44966063249662,3.629832273713202L-36.05113445755729,11.548644127482412L-34.506236438891456,6.29080622876158zM-34.506236438891456,6.29080622876158L-38.87380952401022,-1.6338188836378291L-40.44966063249662,3.629832273713202z" style="fill:rgb(244,138,176)"/><path d="M25.79294794569147,-31.021121429295977L30.34272856973238,-28.522191326959906L48.73208292296523,-60.156364003754646z" style="fill:rgb(83,212,212)"/><path d="M29.68396557221895,-22.842354119802195L25.79294794569147,-31.021121429295977L20.514739612425302,-32.697304519284835z" style="fill:rgb(52,37,178)"/><path d="M25.79294794569147,-31.021121429295977L29.68396557221895,-22.842354119802195L34.2171504390435,-20.324179324408504z" style="fill:rgb(37,44,163)"/><path d="M-159.6388965778692,53.144133502077196L-159.27230282828899,60.64396058606802L-158.2831745033681,68.01159265068263z" style="fill:rgb(83,212,212)"/><path d="M-40.92727111703735,8.761405938879527L-36.504258949538425,16.678376326622555L-36.05113445755729,11.548644127482412zM-36.05113445755729,11.548644127482412L-40.44966063249662,3.629832273713202L-40.92727111703735,8.761405938879527z" style="fill:rgb(247,154,162)"/><path d="M34.2171504390435,-20.324179324408504L30.34272856973238,-28.522191326959906L25.79294794569147,-31.021121429295977z" style="fill:rgb(37,44,163)"/><path d="M-50.27646388499428,-33.52127670067498L-69.88355226681473,52.06409136313011L-40.277606186694904,13.615163230426148z" style="fill:rgb(83,212,212)"/><path d="M30.34272856973238,-28.522191326959906L34.2171504390435,-20.324179324408504L37.89181969857918,-17.04511943309749z" style="fill:rgb(25,53,148)"/><path d="M-40.277606186694904,13.615163230426148L-35.8374664704299,21.53435663705794L-36.504258949538425,16.678376326622555zM-36.504258949538425,16.678376326622555L-40.92727111703735,8.761405938879527L-40.277606186694904,13.615163230426148z" style="fill:rgb(246,169,146)"/><path d="M37.89181969857918,-17.04511943309749L34.02646704229893,-25.258824241635264L30.34272856973238,-28.522191326959906z" style="fill:rgb(25,53,148)"/><path d="M-50.27646388499428,-33.52127670067498L-82.87110155025701,53.23076738164249L-76.22933218886052,52.09603434206388z" style="fill:rgb(83,212,212)"/><path d="M34.02646704229893,-25.258824241635264L37.89181969857918,-17.04511943309749L40.590794131494825,-13.087029967660376z" style="fill:rgb(16,65,132)"/><path d="M-159.6388965778692,53.144133502077196L-158.2831745033681,68.01159265068263L-82.87110155025701,53.23076738164249zM-50.27646388499428,-33.52127670067498L-76.22933218886052,52.09603434206388L-69.88355226681473,52.06409136313011z" style="fill:rgb(83,212,212)"/><path d="M-38.50217804491338,18.048766328564202L-34.05299975326532,25.97426479246528L-35.8374664704299,21.53435663705794z" style="fill:rgb(242,183,130)"/><path d="M-157.42544170835976,71.82038719865542L-152.09347637921692,79.27619259612024L-78.02186251556604,60.97402574825523z" style="fill:rgb(127,37,217)"/><path d="M-35.8374664704299,21.53435663705794L-40.277606186694904,13.615163230426148L-38.50217804491338,18.048766328564202z" style="fill:rgb(242,183,130)"/><path d="M40.590794131494825,-13.087029967660376L36.726531199211536,-21.31227932451696L34.02646704229893,-25.258824241635264z" style="fill:rgb(16,65,132)"/><path d="M-158.2831745033681,68.01159265068263L-157.42544170835976,71.82038719865542L-82.87110155025701,53.23076738164249z" style="fill:rgb(83,212,212)"/><path d="M-78.02186251556604,60.97402574825523L-82.87110155025701,53.23076738164249L-157.42544170835976,71.82038719865542z" style="fill:rgb(127,37,217)"/><path d="M-69.88355226681473,52.06409136313011L-38.50217804491338,18.048766328564202L-40.277606186694904,13.615163230426148z" style="fill:rgb(83,212,212)"/><path d="M-82.87110155025701,53.23076738164249L-78.02186251556604,60.97402574825523L-71.42179590304654,59.86488405234435z" style="fill:rgb(115,34,214)"/><path d="M-69.88355226681473,52.06409136313011L-35.63491617249701,21.92756799227771L-38.50217804491338,18.048766328564202zM112.1425266618798,26.87300601586376L53.13159646259543,-57.68925945793213L48.73208292296523,-60.156364003754646zM162.03385055953876,-68.28944148081116L158.494628429039,-74.78670590085012L156.30235501832956,-78.0411099117146z" style="fill:rgb(83,212,212)"/><path d="M-76.22933218886052,52.09603434206388L-71.42179590304654,59.86488405234435L-65.11135783869523,59.85684346790389z" style="fill:rgb(92,32,204)"/><path d="M-71.42179590304654,59.86488405234435L-76.22933218886052,52.09603434206388L-82.87110155025701,53.23076738164249z" style="fill:rgb(115,34,214)"/><path d="M112.1425266618798,26.87300601586376L58.462774830461406,-56.098928503714134L53.13159646259543,-57.68925945793213zM-69.88355226681473,52.06409136313011L-31.743179366677087,25.129195146344863L-35.63491617249701,21.92756799227771zM112.1425266618798,26.87300601586376L64.52310484549766,-55.460499693236834L58.462774830461406,-56.098928503714134z" style="fill:rgb(83,212,212)"/><path d="M-65.11135783869523,59.85684346790389L-69.88355226681473,52.06409136313011L-76.22933218886052,52.09603434206388z" style="fill:rgb(92,32,204)"/><path d="M-69.88355226681473,52.06409136313011L-26.927627326434635,27.54823197892447L-31.743179366677087,25.129195146344863z" style="fill:rgb(83,212,212)"/><path d="M-65.11135783869523,59.85684346790389L-59.321295569243,60.96016763012636L-64.06575063253425,53.14616068716286z" style="fill:rgb(71,33,192)"/><path d="M112.1425266618798,26.87300601586376L71.07430711053058,-55.810377080243356L64.52310484549766,-55.460499693236834z" style="fill:rgb(83,212,212)"/><path d="M-64.06575063253425,53.14616068716286L-69.88355226681473,52.06409136313011L-65.11135783869523,59.85684346790389z" style="fill:rgb(71,33,192)"/><path d="M-69.88355226681473,52.06409136313011L-21.32075428626658,29.100768848167498L-26.927627326434635,27.54823197892447zM112.1425266618798,26.87300601586376L77.85221691210906,-57.14293167092305L71.07430711053058,-55.810377080243356z" style="fill:rgb(83,212,212)"/><path d="M-64.06575063253425,53.14616068716286L-59.321295569243,60.96016763012636L-54.269320134776294,63.14713562005389zM-54.269320134776294,63.14713562005389L-58.994705915113364,55.31545102586334L-64.06575063253425,53.14616068716286z" style="fill:rgb(51,38,177)"/><path d="M-58.994705915113364,55.31545102586334L-54.269320134776294,63.14713562005389L-50.15257863597398,66.35107639111101z" style="fill:rgb(34,46,160)"/><path d="M33.11748104055576,18.051353870405286L29.26967258826701,9.682728257245424L29.2697109744388,9.682812442576616z" style="fill:rgb(246,145,168)"/><path d="M167.26878948824694,-54.207952534170566L170.21628074127096,-45.450411755955336L167.91040762160486,-52.67631527698974zM167.91040762160486,-52.67631527698974L164.96755715699655,-61.42306287257998L167.26878948824694,-54.207952534170566z" style="fill:rgb(246,166,149)"/><path d="M167.26878948824694,-54.207952534170566L164.96755715699655,-61.42306287257998L162.03385055953876,-68.28944148081116zM156.30235501832956,-78.0411099117146L77.85221691210906,-57.14293167092305L121.79683351886413,26.716531671379702z" style="fill:rgb(83,212,212)"/><path d="M-50.15257863597398,66.35107639111101L-54.86839830027104,58.50612013394788L-58.994705915113364,55.31545102586334z" style="fill:rgb(34,46,160)"/><path d="M30.34272856973238,-28.522191326959906L130.25606707827765,59.50451551060816L48.73208292296523,-60.156364003754646z" style="fill:rgb(83,212,212)"/><path d="M-54.86839830027104,58.50612013394788L-50.15257863597398,66.35107639111101L-47.139776821719266,70.46636079950288zM-47.139776821719266,70.46636079950288L-51.856133930984186,62.61325967856274L-54.86839830027104,58.50612013394788z" style="fill:rgb(21,57,142)"/><path d="M168.91245942029457,-46.66720305681765L171.86956450490698,-37.90249893898323L170.21628074127096,-45.450411755955336zM170.21628074127096,-45.450411755955336L167.26878948824694,-54.207952534170566L168.91245942029457,-46.66720305681765z" style="fill:rgb(247,161,155)"/><path d="M169.87572562821074,-38.82667259421756L167.26878948824694,-54.207952534170566L162.03385055953876,-68.28944148081116zM30.34272856973238,-28.522191326959906L34.02646704229893,-25.258824241635264L130.25606707827765,59.50451551060816zM162.03385055953876,-68.28944148081116L156.30235501832956,-78.0411099117146L121.79683351886413,26.716531671379702zM34.02646704229893,-25.258824241635264L36.726531199211536,-21.31227932451696L130.25606707827765,59.50451551060816z" style="fill:rgb(83,212,212)"/><path d="M169.87572562821074,-38.82667259421756L172.847624001182,-30.058583424594804L171.86956450490698,-37.90249893898323zM171.86956450490698,-37.90249893898323L168.91245942029457,-46.66720305681765L169.87572562821074,-38.82667259421756z" style="fill:rgb(247,155,161)"/><path d="M169.87572562821074,-38.82667259421756L168.91245942029457,-46.66720305681765L167.26878948824694,-54.207952534170566zM36.726531199211536,-21.31227932451696L38.34984217552338,-16.785889523911962L130.25606707827765,59.50451551060816zM-69.88355226681473,52.06409136313011L71.74575653277263,65.63354431358297L-21.32075428626658,29.100768848167498zM38.34984217552338,-16.785889523911962L38.83224828000073,-11.803324574645742L130.25606707827765,59.50451551060816zM-69.88355226681473,52.06409136313011L-64.06575063253425,53.14616068716286L71.74575653277263,65.63354431358297zM71.74575653277263,65.63354431358297L-15.083927097387031,29.72850449098655L-21.32075428626658,29.100768848167498zM166.56771163835205,-5.0811586383183975L169.87572562821074,-38.82667259421756L162.03385055953876,-68.28944148081116z" style="fill:rgb(83,212,212)"/><path d="M170.1383904894131,-30.715009766683927L173.13044807677886,-21.947435153960875L172.847624001182,-30.058583424594804zM172.847624001182,-30.058583424594804L169.87572562821074,-38.82667259421756L170.1383904894131,-30.715009766683927z" style="fill:rgb(246,149,166)"/><path d="M111.43922590332062,24.76119793613017L114.00546943149548,23.086550362199944L77.85221691210906,-57.14293167092305zM77.85221691210906,-57.14293167092305L114.00546943149548,23.086550362199944L114.44349086386302,23.29062415421738zM-64.06575063253425,53.14616068716286L-58.994705915113364,55.31545102586334L71.74575653277263,65.63354431358297zM38.83224828000073,-11.803324574645742L38.14234291585629,-6.505890112194387L130.25606707827765,59.50451551060816zM71.74575653277263,65.63354431358297L-8.402851539859153,29.40207677273331L-15.083927097387031,29.72850449098655zM112.1425266618798,26.87300601586376L111.43922590332062,24.76119793613017L77.85221691210906,-57.14293167092305zM71.74575653277263,65.63354431358297L-1.4815800667158963,28.123326382015275L-8.402851539859153,29.40207677273331zM71.74575653277263,65.63354431358297L25.72613573227334,13.211452544646528L24.3083307266121,14.623331084439284zM38.14234291585629,-6.505890112194387L36.284440186419864,-1.04881504915703L130.25606707827765,59.50451551060816zM119.94093840469466,30.538021789725615L77.85221691210906,-57.14293167092305L114.44349086386302,23.29062415421738zM71.74575653277263,65.63354431358297L24.3083307266121,14.623331084439284L18.565362972997814,19.0684047657891zM71.74575653277263,65.63354431358297L5.464726802189778,25.92622464469112L-1.4815800667158963,28.123326382015275zM71.74575653277263,65.63354431358297L18.565362972997814,19.0684047657891L12.217917156552675,22.876277377868366zM71.74575653277263,65.63354431358297L12.217917156552675,22.876277377868366L5.464726802189778,25.92622464469112zM119.21560596317114,28.40373135881275L121.79683351886413,26.716531671379702L77.85221691210906,-57.14293167092305zM119.94093840469466,30.538021789725615L119.21560596317114,28.40373135881275L77.85221691210906,-57.14293167092305zM36.284440186419864,-1.04881504915703L33.300353579136726,4.4034426332286865L130.25606707827765,59.50451551060816z" style="fill:rgb(83,212,212)"/><path d="M130.25606707827765,59.50451551060816L29.092053635112745,9.859603867251781L33.11748104055576,18.051353870405286z" style="fill:rgb(42,41,169)"/><path d="M169.68323785091073,-22.363652333893604L172.7009623081395,-13.600582579772954L173.13044807677886,-21.947435153960875zM173.13044807677886,-21.947435153960875L170.1383904894131,-30.715009766683927L169.68323785091073,-22.363652333893604z" style="fill:rgb(245,143,172)"/><path d="M169.68323785091073,-22.363652333893604L170.1383904894131,-30.715009766683927L169.87572562821074,-38.82667259421756zM33.300353579136726,4.4034426332286865L29.26967258826701,9.682728257245424L130.25606707827765,59.50451551060816zM130.25606707827765,59.50451551060816L112.1425266618798,26.87300601586376L48.73208292296523,-60.156364003754646zM29.26967258826701,9.682728257245424L29.092053635112745,9.859603867251781L130.25606707827765,59.50451551060816z" style="fill:rgb(83,212,212)"/><path d="M168.49638060456425,-13.806764813030112L171.54546969528002,-5.0522469090497975L172.7009623081395,-13.600582579772954zM172.7009623081395,-13.600582579772954L169.68323785091073,-22.363652333893604L168.49638060456425,-13.806764813030112z" style="fill:rgb(244,137,177)"/><path d="M166.56771163835205,-5.0811586383183975L169.68323785091073,-22.363652333893604L169.87572562821074,-38.82667259421756zM162.03385055953876,-68.28944148081116L121.79683351886413,26.716531671379702L124.12551501905789,27.80145993603413zM-58.994705915113364,55.31545102586334L-54.86839830027104,58.50612013394788L67.13425822855228,109.92669408281293zM-54.86839830027104,58.50612013394788L-51.856133930984186,62.61325967856274L67.13425822855228,109.92669408281293z" style="fill:rgb(83,212,212)"/><path d="M166.56771163835205,-5.0811586383183975L169.65387826734928,3.660739073530387L171.54546969528002,-5.0522469090497975z" style="fill:rgb(242,131,182)"/><path d="M-50.090603486887275,67.49425430157724L-49.660329735458426,72.97187605290695L-24.705572783969206,140.40300113791469z" style="fill:rgb(83,212,212)"/><path d="M171.54546969528002,-5.0522469090497975L168.49638060456425,-13.806764813030112L166.56771163835205,-5.0811586383183975z" style="fill:rgb(242,131,182)"/><path d="M166.56771163835205,-5.0811586383183975L168.49638060456425,-13.806764813030112L169.68323785091073,-22.363652333893604z" style="fill:rgb(83,212,212)"/><path d="M112.1425266618798,26.87300601586376L118.49551485872215,42.079208255275006L121.46813466682725,41.728580773408574z" style="fill:rgb(108,33,211)"/><path d="M115.15381400880797,26.501202706505477L121.46813466682725,41.728580773408574L122.59022822836005,39.3960893201247z" style="fill:rgb(234,114,195)"/><path d="M-51.856133930984186,62.61325967856274L-50.090603486887275,67.49425430157724L67.13425822855228,109.92669408281293zM130.25606707827765,59.50451551060816L166.56771163835205,-5.0811586383183975L162.03385055953876,-68.28944148081116zM71.12144152627313,63.401567524028685L73.7414419746093,61.68788410515748L25.72613573227334,13.211452544646528zM25.72613573227334,13.211452544646528L73.7414419746093,61.68788410515748L74.17079427041502,61.910212075198665z" style="fill:rgb(83,212,212)"/><path d="M118.68530127243899,35.0176074255496L119.36606674863012,33.61407869038396L119.81920642409824,32.6798326787604z" style="fill:rgb(84,212,212)"/><path d="M118.68530127243899,35.0176074255496L119.31568335464355,33.71795696612892L119.36606674863012,33.61407869038396z" style="fill:rgb(192,162,231)"/><path d="M111.43922590332062,24.76119793613017L114.99047095049268,33.26486300728022L117.53413871602552,31.60155762134234z" style="fill:rgb(181,61,221)"/><path d="M114.00546943149548,23.086550362199944L117.53413871602552,31.60155762134234L119.81920642409824,32.6798326787604z" style="fill:rgb(42,41,169)"/><path d="M71.74575653277263,65.63354431358297L71.12144152627313,63.401567524028685L25.72613573227334,13.211452544646528z" style="fill:rgb(83,212,212)"/><path d="M167.02023119728128,12.499074152531177L169.65387826734928,3.660739073530387L166.56771163835205,-5.0811586383183975z" style="fill:rgb(240,125,187)"/><path d="M112.1425266618798,26.87300601586376L115.69563305181728,35.37754207324421L114.99047095049268,33.26486300728022z" style="fill:rgb(245,172,143)"/><path d="M130.25606707827765,59.50451551060816L162.03385055953876,-68.28944148081116L124.12551501905789,27.80145993603413z" style="fill:rgb(83,212,212)"/><path d="M117.53413871602552,31.60155762134234L114.00546943149548,23.086550362199944L111.43922590332062,24.76119793613017z" style="fill:rgb(181,61,221)"/><path d="M122.59022822836005,39.3960893201247L116.3027414420253,24.15684718731484L115.26887411920444,26.266446949554847z" style="fill:rgb(234,114,195)"/><path d="M121.46813466682725,41.728580773408574L112.44336903218522,26.835853822044392L112.1425266618798,26.87300601586376z" style="fill:rgb(108,33,211)"/><path d="M115.15381400880797,26.501202706505477L122.59022822836005,39.3960893201247L115.26887411920444,26.266446949554847z" style="fill:rgb(234,114,195)"/><path d="M115.15378248740501,26.50111875635384L112.44336903218522,26.835853822044392L121.46813466682725,41.728580773408574z" style="fill:rgb(108,33,211)"/><path d="M114.99047095049268,33.26486300728022L111.43922590332062,24.76119793613017L112.1425266618798,26.87300601586376z" style="fill:rgb(245,172,143)"/><path d="M114.00546943149548,23.086550362199944L119.81920642409824,32.6798326787604L116.3027705686496,24.156928196579376z" style="fill:rgb(42,41,169)"/><path d="M119.36606674863012,33.61407869038396L116.3027672357778,24.15689171359348L116.3027705686496,24.156928196579376z" style="fill:rgb(18,65,148)"/><path d="M116.3027414420253,24.15684718731484L119.36606674863012,33.61407869038396L116.3027705686496,24.156928196579376z" style="fill:rgb(249,157,151)"/><path d="M85.57655372506133,72.85777472642567L25.72613573227334,13.211452544646528L74.17079427041502,61.910212075198665z" style="fill:rgb(83,212,212)"/><path d="M119.94093840469466,30.538021789725615L126.2189507821516,45.79108647432224L129.21957705773337,45.44195524149159z" style="fill:rgb(108,33,211)"/><path d="M122.98097233347073,30.167453844112366L129.21957705773337,45.44195524149159L130.33724793333985,43.08807312135748z" style="fill:rgb(234,114,195)"/><path d="M119.31568335464355,33.71795696612892L115.15379824810708,26.50116073143129L115.15381400880797,26.501202706505477zM119.31568335464355,33.71795696612892L115.15378248740501,26.50111875635384L115.15379824810708,26.50116073143129z" style="fill:rgb(233,111,197)"/><path d="M115.15378248740501,26.50111875635384L117.4886851946002,35.16167021220257L115.15381400880797,26.501202706505477z" style="fill:rgb(65,37,192)"/><path d="M166.56771163835205,-5.0811586383183975L163.89116205103858,3.7738458657026084L167.02023119728128,12.499074152531177z" style="fill:rgb(240,125,187)"/><path d="M115.15378248740501,26.50111875635384L115.15381400880797,26.501202706505477L118.68530127243899,35.0176074255496z" style="fill:rgb(227,103,202)"/><path d="M116.3027414420253,24.15684718731484L114.00546943149548,23.086550362199944L111.43922590332062,24.76119793613017z" style="fill:rgb(83,212,212)"/><path d="M116.3027705686496,24.156928196579376L114.44349086386302,23.29062415421738L114.00546943149548,23.086550362199944zM114.00546943149548,23.086550362199944L116.3027705686496,24.156928196579376L114.44349086386302,23.29062415421738z" style="fill:rgb(41,44,171)"/><path d="M119.21560596317114,28.40373135881275L122.72533181922047,36.934116636401605L125.28372886803338,35.25843557768352z" style="fill:rgb(181,61,221)"/><path d="M116.3027705686496,24.156928196579376L116.3027414420253,24.15684718731484L114.44349086386302,23.29062415421738z" style="fill:rgb(44,39,166)"/><path d="M111.43922590332062,24.76119793613017L112.1425266618798,26.87300601586376L112.44336903218522,26.835853822044392z" style="fill:rgb(83,212,212)"/><path d="M121.79683351886413,26.716531671379702L125.28372886803338,35.25843557768352L127.5997649898761,36.35132651599976z" style="fill:rgb(42,41,169)"/><path d="M111.43922590332062,24.76119793613017L115.26887411920444,26.266446949554847L116.3027414420253,24.15684718731484z" style="fill:rgb(83,212,212)"/><path d="M116.3027705686496,24.156928196579376L116.3027672357778,24.15689171359348L116.3027414420253,24.15684718731484zM116.3027414420253,24.15684718731484L116.3027705686496,24.156928196579376L116.3027672357778,24.15689171359348z" style="fill:rgb(49,36,171)"/><path d="M111.43922590332062,24.76119793613017L112.44336903218522,26.835853822044392L115.15378248740501,26.50111875635384zM111.43922590332062,24.76119793613017L115.15378248740501,26.50111875635384L115.26887411920444,26.266446949554847zM84.91316290500042,70.58154019301293L87.56146093972112,68.84409970436515L25.72613573227334,13.211452544646528z" style="fill:rgb(83,212,212)"/><path d="M119.94093840469466,30.538021789725615L123.45227055817551,39.069152891749056L122.72533181922047,36.934116636401605z" style="fill:rgb(245,172,143)"/><path d="M116.3027414420253,24.15684718731484L115.15381400880797,26.501202706505477L115.26887411920444,26.266446949554847z" style="fill:rgb(236,109,191)"/><path d="M116.3027414420253,24.15684718731484L115.15378248740501,26.50111875635384L115.15381400880797,26.501202706505477z" style="fill:rgb(234,113,195)"/><path d="M25.72613573227334,13.211452544646528L87.56146093972112,68.84409970436515L89.87007696338001,70.03953476482492z" style="fill:rgb(83,212,212)"/><path d="M115.15378248740501,26.50111875635384L115.15379824810708,26.50116073143129L115.15381400880797,26.501202706505477z" style="fill:rgb(127,127,127)"/><path d="M85.57655372506133,72.85777472642567L84.91316290500042,70.58154019301293L25.72613573227334,13.211452544646528z" style="fill:rgb(83,212,212)"/><path d="M125.28372886803338,35.25843557768352L121.79683351886413,26.716531671379702L119.21560596317114,28.40373135881275z" style="fill:rgb(181,61,221)"/><path d="M119.94093840469466,30.538021789725615L114.44349086386302,23.29062415421738L112.44336903218522,26.835853822044392z" style="fill:rgb(83,212,212)"/><path d="M33.11748104055576,18.051353870405286L133.78301275749263,68.03964282123599L130.25606707827765,59.50451551060816z" style="fill:rgb(42,41,169)"/><path d="M160.46506387949236,12.716606917626054L163.6428559894864,21.421176268944613L167.02023119728128,12.499074152531177z" style="fill:rgb(237,120,191)"/><path d="M130.33724793333985,43.08807312135748L124.12551501905789,27.80145993603413L122.98097233347073,30.167453844112366z" style="fill:rgb(234,114,195)"/><path d="M129.21957705773337,45.44195524149159L120.24465393473425,30.500999365222675L119.94093840469466,30.538021789725615z" style="fill:rgb(108,33,211)"/><path d="M119.94093840469466,30.538021789725615L112.44336903218522,26.835853822044392L112.1425266618798,26.87300601586376z" style="fill:rgb(83,212,212)"/><path d="M167.02023119728128,12.499074152531177L163.89116205103858,3.7738458657026084L160.46506387949236,12.716606917626054z" style="fill:rgb(237,120,191)"/><path d="M122.98097233347073,30.167453844112366L120.24465393473425,30.500999365222675L129.21957705773337,45.44195524149159z" style="fill:rgb(108,33,211)"/><path d="M122.72533181922047,36.934116636401605L119.21560596317114,28.40373135881275L119.94093840469466,30.538021789725615z" style="fill:rgb(245,172,143)"/><path d="M121.79683351886413,26.716531671379702L127.5997649898761,36.35132651599976L124.12553340925227,27.801541141643767z" style="fill:rgb(42,41,169)"/><path d="M160.46506387949236,12.716606917626054L163.89116205103858,3.7738458657026084L166.56771163835205,-5.0811586383183975z" style="fill:rgb(83,212,212)"/><path d="M127.09820827200494,37.398998964722594L124.12551501905789,27.80145993603413L124.12553340925227,27.801541141643767z" style="fill:rgb(12,72,138)"/><path d="M121.79683351886413,26.716531671379702L119.21560596317114,28.40373135881275L119.94093840469466,30.538021789725615zM-58.994705915113364,55.31545102586334L67.13425822855228,109.92669408281293L71.74575653277263,65.63354431358297z" style="fill:rgb(83,212,212)"/><path d="M124.12553340925227,27.801541141643767L124.12551501905789,27.80145993603413L121.79683351886413,26.716531671379702z" style="fill:rgb(41,43,171)"/><path d="M159.52474148578094,30.38340976311046L163.6428559894864,21.421176268944613L160.46506387949236,12.716606917626054z" style="fill:rgb(234,114,195)"/><path d="M71.74575653277263,65.63354431358297L78.81353292986655,80.48876484713168L81.79138105168809,80.17282974528786z" style="fill:rgb(108,33,211)"/><path d="M124.12551501905789,27.80145993603413L121.79683351886413,26.716531671379702L122.98097233347073,30.167453844112366z" style="fill:rgb(83,212,212)"/><path d="M74.76221847398166,65.29700324089139L81.79138105168809,80.17282974528786L82.99285889453378,77.74386005964894z" style="fill:rgb(234,114,195)"/><path d="M119.94093840469466,30.538021789725615L122.98097233347073,30.167453844112366L121.79683351886413,26.716531671379702z" style="fill:rgb(83,212,212)"/><path d="M78.69392185790824,73.61766942361454L79.42307944079539,72.15561547001104L79.90842177431189,71.18243408677444z" style="fill:rgb(29,204,156)"/><path d="M-49.660329735458426,72.97187605290695L-52.71935306892221,141.59854371348376L-47.015132722517684,141.75008919810693zM107.51175262924845,81.88272331773598L25.72613573227334,13.211452544646528L89.87007696338001,70.03953476482492z" style="fill:rgb(83,212,212)"/><path d="M71.12144152627313,63.401567524028685L75.0712846517014,71.71125093503532L77.66777552437065,70.00948444806811z" style="fill:rgb(181,61,221)"/><path d="M75.69904159383601,73.94265882524147L77.495210398686,73.74774838318142L78.69392185790824,73.61766942361454z" style="fill:rgb(84,213,210)"/><path d="M73.7414419746093,61.68788410515748L77.66777552437065,70.00948444806811L79.90842177431189,71.18243408677444z" style="fill:rgb(42,41,169)"/><path d="M151.38136197006597,30.688654142446868L160.46506387949236,12.716606917626054L166.56771163835205,-5.0811586383183975zM124.69360960213912,65.66023162429387L126.82404877498854,63.3025736797803L25.72613573227334,13.211452544646528z" style="fill:rgb(83,212,212)"/><path d="M71.74575653277263,65.63354431358297L75.69904159383601,73.94265882524147L75.0712846517014,71.71125093503532z" style="fill:rgb(245,172,143)"/><path d="M77.66777552437065,70.00948444806811L73.7414419746093,61.68788410515748L71.12144152627313,63.401567524028685z" style="fill:rgb(181,61,221)"/><path d="M160.46506387949236,12.716606917626054L156.29247354785178,21.703388923771662L159.52474148578094,30.38340976311046zM82.99285889453378,77.74386005964894L75.99330686337393,62.853935240601345L74.88550521884639,65.05235471463611z" style="fill:rgb(234,114,195)"/><path d="M81.79138105168809,80.17282974528786L72.04711101151128,65.5999132630595L71.74575653277263,65.63354431358297z" style="fill:rgb(108,33,211)"/><path d="M74.76221847398166,65.29700324089139L82.99285889453378,77.74386005964894L74.88550521884639,65.05235471463611z" style="fill:rgb(234,114,195)"/><path d="M-49.660329735458426,72.97187605290695L-47.015132722517684,141.75008919810693L-24.705572783969206,140.40300113791469z" style="fill:rgb(83,212,212)"/><path d="M74.7621788576037,65.29691651650191L72.04711101151128,65.5999132630595L81.79138105168809,80.17282974528786z" style="fill:rgb(108,33,211)"/><path d="M75.0712846517014,71.71125093503532L71.12144152627313,63.401567524028685L71.74575653277263,65.63354431358297z" style="fill:rgb(245,172,143)"/><path d="M107.51175262924845,81.88272331773598L124.69360960213912,65.66023162429387L25.72613573227334,13.211452544646528z" style="fill:rgb(83,212,212)"/><path d="M73.7414419746093,61.68788410515748L79.90842177431189,71.18243408677444L75.99333529563162,62.85401629447732z" style="fill:rgb(42,41,169)"/><path d="M79.42307944079539,72.15561547001104L75.9933287769901,62.85397833337944L75.99333529563162,62.85401629447732z" style="fill:rgb(29,55,165)"/><path d="M75.99330686337393,62.853935240601345L75.99333529563162,62.85401629447732L79.42307944079539,72.15561547001104z" style="fill:rgb(9,79,127)"/><path d="M151.38136197006597,30.688654142446868L154.67376458573423,39.340379649174395L159.52474148578094,30.38340976311046z" style="fill:rgb(230,108,199)"/><path d="M74.7621788576037,65.29691651650191L77.495210398686,73.74774838318142L74.76221847398166,65.29700324089139z" style="fill:rgb(106,33,211)"/><path d="M74.7621788576037,65.29691651650191L74.76221847398166,65.29700324089139L78.69392185790824,73.61766942361454z" style="fill:rgb(127,37,217)"/><path d="M75.99330686337393,62.853935240601345L73.7414419746093,61.68788410515748L71.12144152627313,63.401567524028685z" style="fill:rgb(83,212,212)"/><path d="M75.99333529563162,62.85401629447732L74.17079427041502,61.910212075198665L73.7414419746093,61.68788410515748zM73.7414419746093,61.68788410515748L75.99333529563162,62.85401629447732L74.17079427041502,61.910212075198665z" style="fill:rgb(48,32,159)"/><path d="M159.52474148578094,30.38340976311046L156.29247354785178,21.703388923771662L151.38136197006597,30.688654142446868z" style="fill:rgb(230,108,199)"/><path d="M130.25606707827765,59.50451551060816L119.94093840469466,30.538021789725615L112.1425266618798,26.87300601586376z" style="fill:rgb(83,212,212)"/><path d="M75.99333529563162,62.85401629447732L75.99330686337393,62.853935240601345L74.17079427041502,61.910212075198665z" style="fill:rgb(42,42,170)"/><path d="M71.12144152627313,63.401567524028685L71.74575653277263,65.63354431358297L72.04711101151128,65.5999132630595zM71.12144152627313,63.401567524028685L74.88550521884639,65.05235471463611L75.99330686337393,62.853935240601345z" style="fill:rgb(83,212,212)"/><path d="M75.99333529563162,62.85401629447732L75.9933287769901,62.85397833337944L75.99330686337393,62.853935240601345zM75.99330686337393,62.853935240601345L75.99333529563162,62.85401629447732L75.9933287769901,62.85397833337944z" style="fill:rgb(94,28,200)"/><path d="M151.38136197006597,30.688654142446868L156.29247354785178,21.703388923771662L160.46506387949236,12.716606917626054zM71.12144152627313,63.401567524028685L72.04711101151128,65.5999132630595L74.7621788576037,65.29691651650191zM71.12144152627313,63.401567524028685L74.7621788576037,65.29691651650191L74.88550521884639,65.05235471463611z" style="fill:rgb(83,212,212)"/><path d="M75.99330686337393,62.853935240601345L74.76221847398166,65.29700324089139L74.88550521884639,65.05235471463611z" style="fill:rgb(236,109,191)"/><path d="M75.99330686337393,62.853935240601345L74.7621788576037,65.29691651650191L74.76221847398166,65.29700324089139z" style="fill:rgb(234,113,195)"/><path d="M130.25606707827765,59.50451551060816L120.24465393473425,30.500999365222675L119.94093840469466,30.538021789725615z" style="fill:rgb(83,212,212)"/><path d="M74.7621788576037,65.29691651650191L74.76219646492055,65.29696020047709L74.76221847398166,65.29700324089139z" style="fill:rgb(241,127,184)"/><path d="M130.25606707827765,59.50451551060816L124.12551501905789,27.80145993603413L122.98097233347073,30.167453844112366z" style="fill:rgb(83,212,212)"/><path d="M149.1028710161587,48.245252812387236L154.67376458573423,39.340379649174395L151.38136197006597,30.688654142446868z" style="fill:rgb(226,102,203)"/><path d="M130.25606707827765,59.50451551060816L122.98097233347073,30.167453844112366L120.24465393473425,30.500999365222675zM-50.090603486887275,67.49425430157724L-24.705572783969206,140.40300113791469L67.13425822855228,109.92669408281293zM130.25606707827765,59.50451551060816L151.38136197006597,30.688654142446868L166.56771163835205,-5.0811586383183975z" style="fill:rgb(83,212,212)"/><path d="M85.57655372506133,72.85777472642567L92.51846708176815,87.78509580250689L95.54764377931959,87.4729938324929z" style="fill:rgb(108,33,211)"/><path d="M88.64572846912321,72.52470264876403L95.54764377931959,87.4729938324929L96.74228115334161,85.00254107011126z" style="fill:rgb(234,114,195)"/><path d="M85.57655372506133,72.85777472642567L74.17079427041502,61.910212075198665L72.32135364245207,65.56930966015172zM85.57655372506133,72.85777472642567L72.04711101151128,65.5999132630595L71.74575653277263,65.63354431358297zM85.57655372506133,72.85777472642567L72.32135364245207,65.56930966015172L72.04711101151128,65.5999132630595z" style="fill:rgb(83,212,212)"/><path d="M84.91316290500042,70.58154019301293L88.79338282369523,78.93255034818732L91.41766394672072,77.20736556018788z" style="fill:rgb(181,61,221)"/><path d="M87.56146093972112,68.84409970436515L91.41766394672072,77.20736556018788L93.71429042139277,78.40961770346227z" style="fill:rgb(42,41,169)"/><path d="M79.38908219573892,78.00998525519908L139.72516954773164,12.365565917287347L109.76869334020641,-1.0102164458639884z" style="fill:rgb(83,212,212)"/><path d="M-52.71935306892221,141.59854371348376L-47.65459830586234,149.33994453527407L-41.986159156955665,149.5106874563709z" style="fill:rgb(94,32,205)"/><path d="M151.38136197006597,30.688654142446868L145.74483929500533,39.62538552876982L149.1028710161587,48.245252812387236z" style="fill:rgb(226,102,203)"/><path d="M85.57655372506133,72.85777472642567L89.45977030801285,81.20792022239694L88.79338282369523,78.93255034818732z" style="fill:rgb(245,172,143)"/><path d="M109.76869334020641,-1.0102164458639884L50.12604473913891,62.50410678071423L79.38908219573892,78.00998525519908z" style="fill:rgb(83,212,212)"/><path d="M91.41766394672072,77.20736556018788L87.56146093972112,68.84409970436515L84.91316290500042,70.58154019301293z" style="fill:rgb(181,61,221)"/><path d="M96.74228115334161,85.00254107011126L89.87007696338001,70.03953476482492L88.64572846912321,72.52470264876403z" style="fill:rgb(234,114,195)"/><path d="M95.54764377931959,87.4729938324929L85.883175264575,72.82449878892997L85.57655372506133,72.85777472642567z" style="fill:rgb(108,33,211)"/><path d="M139.40131940992976,48.46546075147126L142.83024696227986,57.050130781434646L149.1028710161587,48.245252812387236z" style="fill:rgb(222,96,207)"/><path d="M88.64572846912321,72.52470264876403L85.883175264575,72.82449878892997L95.54764377931959,87.4729938324929z" style="fill:rgb(108,33,211)"/><path d="M88.79338282369523,78.93255034818732L84.91316290500042,70.58154019301293L85.57655372506133,72.85777472642567z" style="fill:rgb(245,172,143)"/><path d="M87.56146093972112,68.84409970436515L93.71429042139277,78.40961770346227L89.87009917128506,70.0396109216215z" style="fill:rgb(42,41,169)"/><path d="M-47.015132722517684,141.75008919810693L-41.986159156955665,149.5106874563709L-31.02905485594884,149.19733798858692z" style="fill:rgb(101,32,208)"/><path d="M149.1028710161587,48.245252812387236L145.74483929500533,39.62538552876982L139.40131940992976,48.46546075147126z" style="fill:rgb(222,96,207)"/><path d="M-41.986159156955665,149.5106874563709L-47.015132722517684,141.75008919810693L-52.71935306892221,141.59854371348376z" style="fill:rgb(94,32,205)"/><path d="M93.17800651277847,79.50953997886171L89.87007696338001,70.03953476482492L89.87009917128506,70.0396109216215z" style="fill:rgb(11,75,134)"/><path d="M83.85274672202104,87.42787307614529L50.12604473913891,62.50410678071423L54.75176510648473,71.82379013682039z" style="fill:rgb(42,41,169)"/><path d="M139.40131940992976,48.46546075147126L145.74483929500533,39.62538552876982L151.38136197006597,30.688654142446868z" style="fill:rgb(83,212,212)"/><path d="M143.4846558981386,22.127957302196837L139.72516954773164,12.365565917287347L79.38908219573892,78.00998525519908z" style="fill:rgb(212,85,213)"/><path d="M87.56146093972112,68.84409970436515L84.91316290500042,70.58154019301293L85.57655372506133,72.85777472642567z" style="fill:rgb(83,212,212)"/><path d="M89.87009917128506,70.0396109216215L89.87007696338001,70.03953476482492L87.56146093972112,68.84409970436515z" style="fill:rgb(42,42,170)"/><path d="M88.64571894668309,72.52471378130743L89.87007696338001,70.03953476482492L87.56146093972112,68.84409970436515zM85.57655372506133,72.85777472642567L88.64572846912321,72.52470264876403L87.56146093972112,68.84409970436515z" style="fill:rgb(83,212,212)"/><path d="M132.37454753251066,57.16008649069194L135.87934531235905,65.70648101839846L142.83024696227986,57.050130781434646z" style="fill:rgb(217,91,210)"/><path d="M88.64571894668309,72.52471378130743L88.64572846912321,72.52470264876403L89.87007696338001,70.03953476482492z" style="fill:rgb(198,157,228)"/><path d="M-35.98537581070056,141.3983346363636L-31.02905485594884,149.19733798858692L-19.827079779077643,148.24261224879842z" style="fill:rgb(108,33,211)"/><path d="M85.57655372506133,72.85777472642567L88.64571894668309,72.52471378130743L88.64572846912321,72.52470264876403z" style="fill:rgb(88,230,191)"/><path d="M-31.02905485594884,149.19733798858692L-35.98537581070056,141.3983346363636L-47.015132722517684,141.75008919810693z" style="fill:rgb(101,32,208)"/><path d="M130.25606707827765,59.50451551060816L139.40131940992976,48.46546075147126L151.38136197006597,30.688654142446868z" style="fill:rgb(83,212,212)"/><path d="M142.83024696227986,57.050130781434646L139.40131940992976,48.46546075147126L132.37454753251066,57.16008649069194z" style="fill:rgb(217,91,210)"/><path d="M130.25606707827765,59.50451551060816L133.78301275749263,68.03964282123599L135.87934531235905,65.70648101839846z" style="fill:rgb(212,85,213)"/><path d="M67.13425822855228,109.92669408281293L85.57655372506133,72.85777472642567L71.74575653277263,65.63354431358297z" style="fill:rgb(83,212,212)"/><path d="M-24.705572783969206,140.40300113791469L-19.827079779077643,148.24261224879842L-8.438076490503686,146.64377918415423z" style="fill:rgb(116,34,214)"/><path d="M135.87934531235905,65.70648101839846L132.37454753251066,57.16008649069194L130.25606707827765,59.50451551060816zM124.69360960213912,65.66023162429387L128.278894903239,74.1655675140987L130.38695792620342,71.81935523226899z" style="fill:rgb(212,85,213)"/><path d="M-19.827079779077643,148.24261224879842L-24.705572783969206,140.40300113791469L-35.98537581070056,141.3983346363636z" style="fill:rgb(108,33,211)"/><path d="M-47.015132722517684,141.75008919810693L-35.98537581070056,141.3983346363636L-24.705572783969206,140.40300113791469z" style="fill:rgb(83,212,212)"/><path d="M143.4846558981386,22.127957302196837L79.38908219573892,78.00998525519908L83.85274672202104,87.42787307614529z" style="fill:rgb(212,85,213)"/><path d="M107.51175262924845,81.88272331773598L89.87007696338001,70.03953476482492L88.64572846912321,72.52470264876403zM130.25606707827765,59.50451551060816L132.37454753251066,57.16008649069194L139.40131940992976,48.46546075147126z" style="fill:rgb(83,212,212)"/><path d="M107.51175262924845,81.88272331773598L88.64572846912321,72.52470264876403L88.6457076520334,72.52471305742571z" style="fill:rgb(84,213,211)"/><path d="M130.38695792620342,71.81935523226899L126.82404877498854,63.3025736797803L124.69360960213912,65.66023162429387z" style="fill:rgb(212,85,213)"/><path d="M116.39286786491776,73.91711682188506L120.06282655220481,82.37893591623533L128.278894903239,74.1655675140987z" style="fill:rgb(206,80,215)"/><path d="M67.13425822855228,109.92669408281293L85.883175264575,72.82449878892997L85.57655372506133,72.85777472642567z" style="fill:rgb(83,212,212)"/><path d="M-13.234044588890052,138.76149408050554L-8.438076490503686,146.64377918415423L3.0775697886867395,144.40261415136388z" style="fill:rgb(123,36,216)"/><path d="M67.13425822855228,109.92669408281293L88.6457076520334,72.52471305742571L85.883175264575,72.82449878892997z" style="fill:rgb(83,212,212)"/><path d="M-8.438076490503686,146.64377918415423L-13.234044588890052,138.76149408050554L-24.705572783969206,140.40300113791469z" style="fill:rgb(116,34,214)"/><path d="M128.278894903239,74.1655675140987L124.69360960213912,65.66023162429387L116.39286786491776,73.91711682188506z" style="fill:rgb(206,80,215)"/><path d="M83.85274672202104,87.42787307614529L79.38908219573892,78.00998525519908L50.12604473913891,62.50410678071423z" style="fill:rgb(42,41,169)"/><path d="M107.51175262924845,81.88272331773598L111.27010962152363,90.29891207392204L120.06282655220481,82.37893591623533z" style="fill:rgb(200,75,217)"/><path d="M-1.6317173560262783,136.4757606306044L3.0775697886867395,144.40261415136388L14.65746176333915,141.5254891008151z" style="fill:rgb(131,38,218)"/><path d="M3.0775697886867395,144.40261415136388L-1.6317173560262783,136.4757606306044L-13.234044588890052,138.76149408050554z" style="fill:rgb(123,36,216)"/><path d="M101.94448149163267,97.87910774897325L111.27010962152363,90.29891207392204L107.51175262924845,81.88272331773598z" style="fill:rgb(194,70,219)"/><path d="M120.06282655220481,82.37893591623533L116.39286786491776,73.91711682188506L107.51175262924845,81.88272331773598z" style="fill:rgb(200,75,217)"/><path d="M-24.705572783969206,140.40300113791469L-13.234044588890052,138.76149408050554L-1.6317173560262783,136.4757606306044z" style="fill:rgb(83,212,212)"/><path d="M10.038422141896133,133.5523795539977L14.65746176333915,141.5254891008151L26.237770985618006,138.02341574642793z" style="fill:rgb(138,40,220)"/><path d="M67.13425822855228,109.92669408281293L107.51175262924845,81.88272331773598L88.6457076520334,72.52471305742571zM107.51175262924845,81.88272331773598L116.39286786491776,73.91711682188506L124.69360960213912,65.66023162429387z" style="fill:rgb(83,212,212)"/><path d="M14.65746176333915,141.5254891008151L10.038422141896133,133.5523795539977L-1.6317173560262783,136.4757606306044z" style="fill:rgb(131,38,218)"/><path d="M88.1900383557853,96.75481368366542L92.13413927479051,105.07492303461088L101.94448149163267,97.87910774897325z" style="fill:rgb(188,65,220)"/><path d="M-24.705572783969206,140.40300113791469L-1.6317173560262783,136.4757606306044L21.7119086302042,130.00260391523042z" style="fill:rgb(83,212,212)"/><path d="M21.7119086302042,130.00260391523042L26.237770985618006,138.02341574642793L37.75385230920684,133.91206947196505z" style="fill:rgb(146,43,221)"/><path d="M107.51175262924845,81.88272331773598L98.09455061120681,89.51027783118951L101.94448149163267,97.87910774897325z" style="fill:rgb(194,70,219)"/><path d="M77.85111433849836,103.57360170702373L81.89132075342185,111.8440238945236L92.13413927479051,105.07492303461088z" style="fill:rgb(181,61,221)"/><path d="M33.32342802130615,125.84238354082136L37.75385230920684,133.91206947196505L49.14090323367964,129.21171692822992z" style="fill:rgb(153,46,222)"/><path d="M26.237770985618006,138.02341574642793L21.7119086302042,130.00260391523042L10.038422141896133,133.5523795539977z" style="fill:rgb(138,40,220)"/><path d="M67.13425822855228,109.92669408281293L71.27186182036672,118.14685248587583L81.89132075342185,111.8440238945236z" style="fill:rgb(175,57,222)"/><path d="M101.94448149163267,97.87910774897325L98.09455061120681,89.51027783118951L88.1900383557853,96.75481368366542z" style="fill:rgb(188,65,220)"/><path d="M44.80747595755513,121.09229016455473L49.14090323367964,129.21171692822992L60.33461909047558,123.94701780879251z" style="fill:rgb(160,49,222)"/><path d="M56.09903927015048,115.77731534697578L60.33461909047558,123.94701780879251L71.27186182036672,118.14685248587583z" style="fill:rgb(168,53,222)"/><path d="M-24.705572783969206,140.40300113791469L21.7119086302042,130.00260391523042L67.13425822855228,109.92669408281293zM-1.6317173560262783,136.4757606306044L10.038422141896133,133.5523795539977L21.7119086302042,130.00260391523042z" style="fill:rgb(83,212,212)"/><path d="M37.75385230920684,133.91206947196505L33.32342802130615,125.84238354082136L21.7119086302042,130.00260391523042z" style="fill:rgb(146,43,221)"/><path d="M92.13413927479051,105.07492303461088L88.1900383557853,96.75481368366542L77.85111433849836,103.57360170702373z" style="fill:rgb(181,61,221)"/><path d="M88.1900383557853,96.75481368366542L98.09455061120681,89.51027783118951L107.51175262924845,81.88272331773598z" style="fill:rgb(83,212,212)"/><path d="M49.14090323367964,129.21171692822992L44.80747595755513,121.09229016455473L33.32342802130615,125.84238354082136z" style="fill:rgb(153,46,222)"/><path d="M81.89132075342185,111.8440238945236L77.85111433849836,103.57360170702373L67.13425822855228,109.92669408281293z" style="fill:rgb(175,57,222)"/><path d="M60.33461909047558,123.94701780879251L56.09903927015048,115.77731534697578L44.80747595755513,121.09229016455473z" style="fill:rgb(160,49,222)"/><path d="M71.27186182036672,118.14685248587583L67.13425822855228,109.92669408281293L56.09903927015048,115.77731534697578z" style="fill:rgb(168,53,222)"/><path d="M67.13425822855228,109.92669408281293L88.1900383557853,96.75481368366542L107.51175262924845,81.88272331773598zM21.7119086302042,130.00260391523042L33.32342802130615,125.84238354082136L44.80747595755513,121.09229016455473zM21.7119086302042,130.00260391523042L44.80747595755513,121.09229016455473L67.13425822855228,109.92669408281293zM67.13425822855228,109.92669408281293L77.85111433849836,103.57360170702373L88.1900383557853,96.75481368366542zM44.80747595755513,121.09229016455473L56.09903927015048,115.77731534697578L67.13425822855228,109.92669408281293z" style="fill:rgb(83,212,212)"/></svg>
