<?xml version="1.0" encoding="UTF-8"?>
<!-- Generated by jsxcad -->
<!DOCTYPE svg PUBLIC "-//W3C//DTD SVG 1.1 Tiny//EN" "http://www.w3.org/Graphics/SVG/1.1/DTD/svg11-tiny.dtd">
<svg viewBox="-250 -250 500 500" width="500" height="500" xmlns="http://www.w3.org/2000/svg"><path d="M-1.1202403112691923,-112.0837299427791L-42.24858333967562,-88.9217081987602L-44.0805398964867,-47.63322660492408zM42.64225011929537,-71.23287768896017L40.83329784921843,-112.37689645445167L-1.1202403112691923,-112.0837299427791zM-1.1202403112691923,-112.0837299427791L-44.0805398964867,-47.63322660492408L-44.63477891387352,-43.89874949657888zM-1.1202403112691923,-112.0837299427791L-44.63477891387352,-43.89874949657888L-45.9681145842546,-40.01728340906144zM-1.1202403112691923,-112.0837299427791L-45.9681145842546,-40.01728340906144L-48.05389310542599,-36.087198086704554z" style="fill:rgb(83,212,212)"/><path d="M42.941581702492364,-107.46442273100459L40.83329784921843,-112.37689645445167L42.64225011929537,-71.23287768896017z" style="fill:rgb(247,158,158)"/><path d="M46.77184516811777,-61.643710202498404L-1.1202403112691923,-112.0837299427791L-48.05389310542599,-36.087198086704554zM43.21199307211888,-67.72560469845534L42.64225011929537,-71.23287768896017L-1.1202403112691923,-112.0837299427791zM44.59667005493861,-64.50166676862861L43.21199307211888,-67.72560469845534L-1.1202403112691923,-112.0837299427791z" style="fill:rgb(83,212,212)"/><path d="M42.941581702492364,-107.46442273100459L42.64225011929537,-71.23287768896017L44.83547691094242,-66.28662952766794z" style="fill:rgb(247,158,158)"/><path d="M46.77184516811777,-61.643710202498404L44.59667005493861,-64.50166676862861L-1.1202403112691923,-112.0837299427791zM-77.44776570600516,-15.371066555735709L-136.32688262898907,0.3076618588499808L-119.4863427220614,18.01492991505181zM-124.22772468534558,20.609986822025277L-119.4863427220614,18.01492991505181L-136.32688262898907,0.3076618588499808zM-128.168203611054,24.17801772912468L-124.22772468534558,20.609986822025277L-136.32688262898907,0.3076618588499808zM-72.4055880271414,-17.00629868863238L-77.44776570600516,-15.371066555735709L-119.4863427220614,18.01492991505181zM-67.4387965540782,-19.19981200133867L-72.4055880271414,-17.00629868863238L-119.4863427220614,18.01492991505181zM-62.678873643948435,-21.89418986549283L-67.4387965540782,-19.19981200133867L-119.4863427220614,18.01492991505181zM-58.25148511270217,-25.017839428025678L-62.678873643948435,-21.89418986549283L-114.56564973651184,16.732419874597362zM-130.7854046315832,28.253541781899273L-128.168203611054,24.17801772912468L-136.32688262898907,0.3076618588499808z" style="fill:rgb(83,212,212)"/><path d="M44.83547691094242,-66.28662952766794L43.21199307211888,-67.72560469845534L45.41104868325116,-62.7761373007385zM44.83547691094242,-66.28662952766794L42.64225011929537,-71.23287768896017L43.21199307211888,-67.72560469845534z" style="fill:rgb(246,165,151)"/><path d="M-54.2725342835791,-28.487299621694735L-58.25148511270217,-25.017839428025678L-106.71877156960083,18.608877837037223zM-131.7216043859758,32.299662498346414L-130.7854046315832,28.253541781899273L-136.32688262898907,0.3076618588499808zM62.187125319951214,-55.22554003575777L-48.05389310542599,-36.087198086704554L-50.84458630410585,-32.209985982401854zM-62.678873643948435,-21.89418986549283L-119.4863427220614,18.01492991505181L-114.56564973651184,16.732419874597362z" style="fill:rgb(83,212,212)"/><path d="M-116.555484763532,22.590972757912482L-124.22772468534558,20.609986822025277L-121.27520368589444,25.175132358980544z" style="fill:rgb(170,54,222)"/><path d="M62.187125319951214,-55.22554003575777L-50.84458630410585,-32.209985982401854L-54.2725342835791,-28.487299621694735z" style="fill:rgb(83,212,212)"/><path d="M45.41104868325116,-62.7761373007385L44.59667005493861,-64.50166676862861L46.79817435189672,-59.54715916304599z" style="fill:rgb(244,178,136)"/><path d="M-58.25148511270217,-25.017839428025678L-114.56564973651184,16.732419874597362L-110.11203507805092,16.935825704702722z" style="fill:rgb(83,212,212)"/><path d="M45.41104868325116,-62.7761373007385L43.21199307211888,-67.72560469845534L44.59667005493861,-64.50166676862861z" style="fill:rgb(244,178,136)"/><path d="M-116.555484763532,22.590972757912482L-111.65315415085954,21.319912147682793L-114.56564973651184,16.732419874597362z" style="fill:rgb(127,37,217)"/><path d="M-121.27520368589444,25.175132358980544L-128.168203611054,24.17801772912468L-125.19350816575525,28.734198142309015z" style="fill:rgb(208,81,214)"/><path d="M-116.555484763532,22.590972757912482L-119.4863427220614,18.01492991505181L-124.22772468534558,20.609986822025277z" style="fill:rgb(170,54,222)"/><path d="M-114.56564973651184,16.732419874597362L-119.4863427220614,18.01492991505181L-116.555484763532,22.590972757912482z" style="fill:rgb(127,37,217)"/><path d="M-107.2122819340853,21.533816184757317L-114.56564973651184,16.732419874597362L-111.65315415085954,21.319912147682793z" style="fill:rgb(84,32,200)"/><path d="M-121.27520368589444,25.175132358980544L-124.22772468534558,20.609986822025277L-128.168203611054,24.17801772912468z" style="fill:rgb(208,81,214)"/><path d="M49.69278040067451,-59.22720432284488L46.77184516811777,-61.643710202498404L-48.05389310542599,-36.087198086704554zM-58.25148511270217,-25.017839428025678L-110.11203507805092,16.935825704702722L-106.71877156960083,18.608877837037223z" style="fill:rgb(83,212,212)"/><path d="M-125.19350816575525,28.734198142309015L-130.7854046315832,28.253541781899273L-127.79087059769809,32.803804503586534zM-125.19350816575525,28.734198142309015L-128.168203611054,24.17801772912468L-130.7854046315832,28.253541781899273z" style="fill:rgb(234,114,195)"/><path d="M-107.2122819340853,21.533816184757317L-110.11203507805092,16.935825704702722L-114.56564973651184,16.732419874597362z" style="fill:rgb(84,32,200)"/><path d="M-54.2725342835791,-28.487299621694735L-106.71877156960083,18.608877837037223L-104.85017635271396,21.542205093829335z" style="fill:rgb(83,212,212)"/><path d="M-103.82444013594376,23.214965209273426L-110.11203507805092,16.935825704702722L-107.2122819340853,21.533816184757317z" style="fill:rgb(46,40,173)"/><path d="M53.29464102063809,-57.318142462164076L49.69278040067451,-59.22720432284488L-48.05389310542599,-36.087198086704554zM-13.90539932289539,-26.491197136381004L-8.923381563675095,-28.8084264193753L-54.2725342835791,-28.487299621694735zM-18.668422047130704,-23.75533274679595L-13.90539932289539,-26.491197136381004L-54.2725342835791,-28.487299621694735zM-23.134695810094847,-20.645040954921527L-18.668422047130704,-23.75533274679595L-54.2725342835791,-28.487299621694735zM-27.230584819024546,-17.210197241223693L-23.134695810094847,-20.645040954921527L-54.2725342835791,-28.487299621694735z" style="fill:rgb(83,212,212)"/><path d="M-127.79087059769809,32.803804503586534L-131.7216043859758,32.299662498346414L-128.7122389176828,36.847803427884244z" style="fill:rgb(246,149,166)"/><path d="M-136.32688262898907,0.3076618588499808L-158.3252728502067,38.202810007097476L-145.3456292050219,69.20340862413526z" style="fill:rgb(83,212,212)"/><path d="M-127.79087059769809,32.803804503586534L-130.7854046315832,28.253541781899273L-131.7216043859758,32.299662498346414z" style="fill:rgb(246,149,166)"/><path d="M-54.2725342835791,-28.487299621694735L-104.85017635271396,21.542205093829335L-104.77603373401978,25.353059247394967zM57.49334693072381,-55.970769154413865L53.29464102063809,-57.318142462164076L-48.05389310542599,-36.087198086704554zM-30.88748707843835,-13.505840009286779L-27.230584819024546,-17.210197241223693L-54.2725342835791,-28.487299621694735z" style="fill:rgb(83,212,212)"/><path d="M-103.82444013594376,23.214965209273426L-106.71877156960083,18.608877837037223L-110.11203507805092,16.935825704702722z" style="fill:rgb(46,40,173)"/><path d="M-101.95313141452343,26.152806548867346L-106.71877156960083,18.608877837037223L-103.82444013594376,23.214965209273426z" style="fill:rgb(20,59,140)"/><path d="M-8.923381563675095,-28.8084264193753L62.187125319951214,-55.22554003575777L-54.2725342835791,-28.487299621694735zM-34.04274100560683,-9.591590384666002L-30.88748707843835,-13.505840009286779L-54.2725342835791,-28.487299621694735zM-131.7216043859758,32.299662498346414L-136.32688262898907,0.3076618588499808L-145.3456292050219,69.20340862413526zM62.187125319951214,-55.22554003575777L57.49334693072381,-55.970769154413865L-48.05389310542599,-36.087198086704554zM-54.2725342835791,-28.487299621694735L-104.77603373401978,25.353059247394967L-106.52614939854435,29.529919298038195z" style="fill:rgb(83,212,212)"/><path d="M-6.462323581232316,-23.97490277967822L-13.90539932289539,-26.491197136381004L-11.422448420266681,-21.669314237610234z" style="fill:rgb(159,48,222)"/><path d="M-11.422448420266681,-21.669314237610234L-18.668422047130704,-23.75533274679595L-16.16326336819891,-18.944449984012934z" style="fill:rgb(174,56,222)"/><path d="M-1.363534235437504,-25.823353952691825L-8.923381563675095,-28.8084264193753L-6.462323581232316,-23.97490277967822z" style="fill:rgb(143,42,220)"/><path d="M-54.2725342835791,-28.487299621694735L-36.64056181791897,-5.531021542789907L-34.04274100560683,-9.591590384666002z" style="fill:rgb(83,212,212)"/><path d="M-128.7122389176828,36.847803427884244L-130.83405225920643,35.77354480910581L-127.81700163254497,40.32366434886397z" style="fill:rgb(242,181,132)"/><path d="M-16.16326336819891,-18.944449984012934L-23.134695810094847,-20.645040954921527L-20.607341535240074,-15.84435755563302z" style="fill:rgb(188,65,220)"/><path d="M-128.7122389176828,36.847803427884244L-131.7216043859758,32.299662498346414L-130.83405225920643,35.77354480910581z" style="fill:rgb(242,181,132)"/><path d="M-101.95313141452343,26.152806548867346L-104.85017635271396,21.542205093829335L-106.71877156960083,18.608877837037223z" style="fill:rgb(20,59,140)"/><path d="M3.7909724585724747,-27.1834317317068L-3.803336471962244,-30.668982534137736L-1.363534235437504,-25.823353952691825z" style="fill:rgb(127,37,217)"/><path d="M-11.422448420266681,-21.669314237610234L-13.90539932289539,-26.491197136381004L-18.668422047130704,-23.75533274679595z" style="fill:rgb(174,56,222)"/><path d="M-6.462323581232316,-23.97490277967822L-8.923381563675095,-28.8084264193753L-13.90539932289539,-26.491197136381004z" style="fill:rgb(159,48,222)"/><path d="M-54.2725342835791,-28.487299621694735L-106.52614939854435,29.529919298038195L-109.87594092672596,33.49972615921748z" style="fill:rgb(83,212,212)"/><path d="M-20.607341535240074,-15.84435755563302L-27.230584819024546,-17.210197241223693L-24.681386844317178,-12.418772884504031z" style="fill:rgb(201,75,217)"/><path d="M-16.16326336819891,-18.944449984012934L-18.668422047130704,-23.75533274679595L-23.134695810094847,-20.645040954921527z" style="fill:rgb(188,65,220)"/><path d="M-1.363534235437504,-25.823353952691825L-3.803336471962244,-30.668982534137736L-8.923381563675095,-28.8084264193753z" style="fill:rgb(143,42,220)"/><path d="M-54.2725342835791,-28.487299621694735L-38.632974244286466,-1.390946919920155L-36.64056181791897,-5.531021542789907z" style="fill:rgb(83,212,212)"/><path d="M8.916900067804725,-28.030984037730953L1.3714777696409581,-32.041447564416835L3.7909724585724747,-27.1834317317068z" style="fill:rgb(111,34,212)"/><path d="M-20.607341535240074,-15.84435755563302L-23.134695810094847,-20.645040954921527L-27.230584819024546,-17.210197241223693z" style="fill:rgb(201,75,217)"/><path d="M3.7909724585724747,-27.1834317317068L1.3714777696409581,-32.041447564416835L-3.803336471962244,-30.668982534137736z" style="fill:rgb(127,37,217)"/><path d="M-24.681386844317178,-12.418772884504031L-30.88748707843835,-13.505840009286779L-28.317130932708118,-8.72260378939149zM-24.681386844317178,-12.418772884504031L-27.230584819024546,-17.210197241223693L-30.88748707843835,-13.505840009286779z" style="fill:rgb(213,86,212)"/><path d="M13.929591790439192,-28.349334802862376L6.516463300207062,-32.90146147934765L8.916900067804725,-28.030984037730953z" style="fill:rgb(95,32,206)"/><path d="M-54.2725342835791,-28.487299621694735L-39.98074532815954,2.759379634515625L-38.632974244286466,-1.390946919920155z" style="fill:rgb(83,212,212)"/><path d="M8.916900067804725,-28.030984037730953L6.516463300207062,-32.90146147934765L1.3714777696409581,-32.041447564416835z" style="fill:rgb(111,34,212)"/><path d="M-28.317130932708118,-8.72260378939149L-34.04274100560683,-9.591590384666002L-31.45225533875394,-4.815361760729187zM-28.317130932708118,-8.72260378939149L-30.88748707843835,-13.505840009286779L-34.04274100560683,-9.591590384666002z" style="fill:rgb(223,98,205)"/><path d="M-8.923381563675095,-28.8084264193753L-3.803336471962244,-30.668982534137736L62.187125319951214,-55.22554003575777z" style="fill:rgb(83,212,212)"/><path d="M13.929591790439192,-28.349334802862376L11.546672879203516,-33.232138225294996L6.516463300207062,-32.90146147934765z" style="fill:rgb(95,32,206)"/><path d="M18.745079442652887,-28.129684599690435L11.546672879203516,-33.232138225294996L13.929591790439192,-28.349334802862376z" style="fill:rgb(80,32,198)"/><path d="M-54.2725342835791,-28.487299621694735L-40.65431596752392,6.849169334592048L-39.98074532815954,2.759379634515625zM-3.803336471962244,-30.668982534137736L1.3714777696409581,-32.041447564416835L62.187125319951214,-55.22554003575777z" style="fill:rgb(83,212,212)"/><path d="M-31.45225533875394,-4.815361760729187L-36.64056181791897,-5.531021542789907L-34.03131418622488,-0.7605228772782874z" style="fill:rgb(232,111,197)"/><path d="M1.3714777696409581,-32.041447564416835L6.516463300207062,-32.90146147934765L62.187125319951214,-55.22554003575777z" style="fill:rgb(83,212,212)"/><path d="M-31.45225533875394,-4.815361760729187L-34.04274100560683,-9.591590384666002L-36.64056181791897,-5.531021542789907z" style="fill:rgb(232,111,197)"/><path d="M18.745079442652887,-28.129684599690435L16.377863691556122,-33.02445644664039L11.546672879203516,-33.232138225294996z" style="fill:rgb(80,32,198)"/><path d="M-54.2725342835791,-28.487299621694735L-40.6346706845091,10.807112898877115L-40.65431596752392,6.849169334592048zM6.516463300207062,-32.90146147934765L11.546672879203516,-33.232138225294996L62.187125319951214,-55.22554003575777z" style="fill:rgb(83,212,212)"/><path d="M23.2811998868782,-27.371450845924578L16.377863691556122,-33.02445644664039L18.745079442652887,-28.129684599690435z" style="fill:rgb(66,34,189)"/><path d="M-34.03131418622488,-0.7605228772782874L-38.632974244286466,-1.390946919920155L-36.006662498994416,3.37517916428731z" style="fill:rgb(239,123,188)"/><path d="M11.546672879203516,-33.232138225294996L16.377863691556122,-33.02445644664039L62.187125319951214,-55.22554003575777z" style="fill:rgb(83,212,212)"/><path d="M-34.03131418622488,-0.7605228772782874L-36.64056181791897,-5.531021542789907L-38.632974244286466,-1.390946919920155z" style="fill:rgb(239,123,188)"/><path d="M-130.83405225920643,35.77354480910581L-131.7216043859758,32.299662498346414L-145.3456292050219,69.20340862413526zM-54.2725342835791,-28.487299621694735L-39.914129811803974,14.562507100199092L-40.6346706845091,10.807112898877115z" style="fill:rgb(83,212,212)"/><path d="M23.2811998868782,-27.371450845924578L20.927611026995258,-32.27761661764856L16.377863691556122,-33.02445644664039z" style="fill:rgb(66,34,189)"/><path d="M27.458779835582185,-26.08257273871788L20.927611026995258,-32.27761661764856L23.2811998868782,-27.371450845924578z" style="fill:rgb(53,37,179)"/><path d="M-54.2725342835791,-28.487299621694735L-109.87594092672596,33.49972615921748L-77.32567951902386,52.58386695266271z" style="fill:rgb(83,212,212)"/><path d="M-36.006662498994416,3.37517916428731L-39.98074532815954,2.759379634515625L-37.339392726562934,7.522554844135763zM-36.006662498994416,3.37517916428731L-38.632974244286466,-1.390946919920155L-39.98074532815954,2.759379634515625z" style="fill:rgb(244,136,178)"/><path d="M-128.22263153556526,38.19768662884812L-130.83405225920643,35.77354480910581L-145.3456292050219,69.20340862413526z" style="fill:rgb(83,212,212)"/><path d="M27.458779835582185,-26.08257273871788L25.11650519650411,-30.999327573326305L20.927611026995258,-32.27761661764856z" style="fill:rgb(53,37,179)"/><path d="M31.20290507909905,-24.279727594006324L25.11650519650411,-30.999327573326305L27.458779835582185,-26.08257273871788z" style="fill:rgb(41,42,168)"/><path d="M-124.22672779087748,39.22859767122557L-128.22263153556526,38.19768662884812L-145.3456292050219,69.20340862413526z" style="fill:rgb(83,212,212)"/><path d="M-37.339392726562934,7.522554844135763L-40.65431596752392,6.849169334592048L-38.00024851781574,11.610865719621211zM-37.339392726562934,7.522554844135763L-39.98074532815954,2.759379634515625L-40.65431596752392,6.849169334592048z" style="fill:rgb(246,149,167)"/><path d="M-119.38662741538424,38.711584402878074L-124.22672779087748,39.22859767122557L-145.3456292050219,69.20340862413526z" style="fill:rgb(83,212,212)"/><path d="M31.20290507909905,-24.279727594006324L28.869408232717408,-29.20605095307624L25.11650519650411,-30.999327573326305z" style="fill:rgb(41,42,168)"/><path d="M-109.87594092672596,33.49972615921748L-114.37036000620138,36.70988185607884L-145.3456292050219,69.20340862413526zM-114.37036000620138,36.70988185607884L-119.38662741538424,38.711584402878074L-145.3456292050219,69.20340862413526zM-54.2725342835791,-28.487299621694735L-77.32567951902386,52.58386695266271L-39.914129811803974,14.562507100199092z" style="fill:rgb(83,212,212)"/><path d="M34.44423804087841,-21.98846225666698L28.869408232717408,-29.20605095307624L31.20290507909905,-24.279727594006324z" style="fill:rgb(31,49,156)"/><path d="M-38.00024851781574,11.610865719621211L-40.6346706845091,10.807112898877115L-37.970484880177686,15.568836084628488zM-38.00024851781574,11.610865719621211L-40.65431596752392,6.849169334592048L-40.6346706845091,10.807112898877115z" style="fill:rgb(247,161,155)"/><path d="M34.44423804087841,-21.98846225666698L32.11679397269008,-26.92312653617261L28.869408232717408,-29.20605095307624z" style="fill:rgb(31,49,156)"/><path d="M37.12040002578081,-19.24318664758704L32.11679397269008,-26.92312653617261L34.44423804087841,-21.98846225666698z" style="fill:rgb(22,57,143)"/><path d="M-37.970484880177686,15.568836084628488L-39.914129811803974,14.562507100199092L-37.24267301331782,19.325781921152196zM-37.970484880177686,15.568836084628488L-40.6346706845091,10.807112898877115L-39.914129811803974,14.562507100199092z" style="fill:rgb(245,172,142)"/><path d="M37.12040002578081,-19.24318664758704L34.79612550584308,-24.184774286903078L32.11679397269008,-26.92312653617261z" style="fill:rgb(22,57,143)"/><path d="M39.17736000728813,-16.087021555839723L34.79612550584308,-24.184774286903078L37.12040002578081,-19.24318664758704z" style="fill:rgb(15,66,131)"/><path d="M-37.24267301331782,19.325781921152196L-38.49704252825815,18.046492564321596L-35.82136203156594,22.812841478454352zM-37.24267301331782,19.325781921152196L-39.914129811803974,14.562507100199092L-38.49704252825815,18.046492564321596z" style="fill:rgb(241,183,130)"/><path d="M-109.87594092672596,33.49972615921748L-145.3456292050219,69.20340862413526L-82.65368294045889,53.577944614430386z" style="fill:rgb(83,212,212)"/><path d="M39.17736000728813,-16.087021555839723L36.853249597787595,-21.03394820109226L34.79612550584308,-24.184774286903078z" style="fill:rgb(15,66,131)"/><path d="M109.78885061161789,-26.031837336617237L67.2588152683094,-55.107388843535766L62.187125319951214,-55.22554003575777zM16.377863691556122,-33.02445644664039L113.51493710103979,-23.703059218219284L62.187125319951214,-55.22554003575777z" style="fill:rgb(83,212,212)"/><path d="M-79.73704250291222,58.23523956289098L-145.3456292050219,69.20340862413526L-142.18401290821876,73.71488571689817z" style="fill:rgb(127,37,217)"/><path d="M109.78885061161789,-26.031837336617237L72.57886462497582,-55.6244112108927L67.2588152683094,-55.107388843535766zM16.377863691556122,-33.02445644664039L20.927611026995258,-32.27761661764856L118.54030368705891,-22.808621720297207zM109.78885061161789,-26.031837336617237L78.00894546743928,-56.76713108582961L72.57886462497582,-55.6244112108927zM20.927611026995258,-32.27761661764856L25.11650519650411,-30.999327573326305L118.54030368705891,-22.808621720297207zM143.57400273391207,-74.22623889043797L78.00894546743928,-56.76713108582961L118.81213535891061,-44.094164278261715zM-109.87594092672596,33.49972615921748L-82.65368294045889,53.577944614430386L-77.32567951902386,52.58386695266271zM-77.32567951902386,52.58386695266271L-38.49704252825815,18.046492564321596L-39.914129811803974,14.562507100199092zM25.11650519650411,-30.999327573326305L28.869408232717408,-29.20605095307624L118.54030368705891,-22.808621720297207z" style="fill:rgb(83,212,212)"/><path d="M-79.73704250291222,58.23523956289098L-82.65368294045889,53.577944614430386L-145.3456292050219,69.20340862413526z" style="fill:rgb(127,37,217)"/><path d="M28.869408232717408,-29.20605095307624L32.11679397269008,-26.92312653617261L118.54030368705891,-22.808621720297207zM-77.32567951902386,52.58386695266271L-36.40029422607641,21.193373518054504L-38.49704252825815,18.046492564321596zM113.8222008710924,-41.35182815106725L118.81213535891061,-44.094164278261715L78.00894546743928,-56.76713108582961zM110.0319049080602,-37.66833680428113L113.8222008710924,-41.35182815106725L78.00894546743928,-56.76713108582961zM-77.32567951902386,52.58386695266271L-33.6536179337788,23.942007214398593L-36.40029422607641,21.193373518054504zM107.94515709265387,-33.523492511573515L110.0319049080602,-37.66833680428113L78.00894546743928,-56.76713108582961z" style="fill:rgb(83,212,212)"/><path d="M-74.42936943183211,57.25355731318066L-82.65368294045889,53.577944614430386L-79.73704250291222,58.23523956289098z" style="fill:rgb(118,35,214)"/><path d="M-77.32567951902386,52.58386695266271L-30.299619247923903,26.237237386537892L-33.6536179337788,23.942007214398593z" style="fill:rgb(83,212,212)"/><path d="M-69.2783875752439,56.97348350199074L-77.32567951902386,52.58386695266271L-74.42936943183211,57.25355731318066z" style="fill:rgb(99,32,207)"/><path d="M107.85279542726283,-29.46294515577071L107.94515709265387,-33.523492511573515L78.00894546743928,-56.76713108582961z" style="fill:rgb(83,212,212)"/><path d="M-74.42936943183211,57.25355731318066L-77.32567951902386,52.58386695266271L-82.65368294045889,53.577944614430386z" style="fill:rgb(118,35,214)"/><path d="M143.57400273391207,-74.22623889043797L118.81213535891061,-44.094164278261715L124.34857356348758,-45.537159486451586zM-77.32567951902386,52.58386695266271L-26.393524947021707,28.031281297146585L-30.299619247923903,26.237237386537892z" style="fill:rgb(83,212,212)"/><path d="M-69.2783875752439,56.97348350199074L-72.15671403826578,52.29196709150032L-77.32567951902386,52.58386695266271z" style="fill:rgb(99,32,207)"/><path d="M-64.40392398895216,57.406154506405564L-72.15671403826578,52.29196709150032L-69.2783875752439,56.97348350199074z" style="fill:rgb(81,32,199)"/><path d="M143.57400273391207,-74.22623889043797L124.34857356348758,-45.537159486451586L129.70677236984622,-45.48641124845795zM109.78885061161789,-26.031837336617237L107.85279542726283,-29.46294515577071L78.00894546743928,-56.76713108582961z" style="fill:rgb(83,212,212)"/><path d="M120.79025781625452,-38.94730094197923L113.8222008710924,-41.35182815106725L115.82430785841045,-36.21712755558637z" style="fill:rgb(170,54,222)"/><path d="M113.51493710103979,-23.703059218219284L109.78885061161789,-26.031837336617237L62.187125319951214,-55.22554003575777z" style="fill:rgb(83,212,212)"/><path d="M120.79025781625452,-38.94730094197923L126.3030208708953,-40.37663736249207L124.34857356348758,-45.537159486451586z" style="fill:rgb(127,37,217)"/><path d="M115.82430785841045,-36.21712755558637L110.0319049080602,-37.66833680428113L112.05527581987333,-32.5427617843435z" style="fill:rgb(208,81,214)"/><path d="M-77.32567951902386,52.58386695266271L-22.00256340836994,29.28509957211113L-26.393524947021707,28.031281297146585zM143.57400273391207,-74.22623889043797L129.70677236984622,-45.48641124845795L134.17652789024297,-43.937251028677075z" style="fill:rgb(83,212,212)"/><path d="M-64.40392398895216,57.406154506405564L-67.26701518044186,52.71367805361068L-72.15671403826578,52.29196709150032z" style="fill:rgb(81,32,199)"/><path d="M120.79025781625452,-38.94730094197923L118.81213535891061,-44.094164278261715L113.8222008710924,-41.35182815106725z" style="fill:rgb(170,54,222)"/><path d="M124.34857356348758,-45.537159486451586L118.81213535891061,-44.094164278261715L120.79025781625452,-38.94730094197923z" style="fill:rgb(127,37,217)"/><path d="M-59.9216250097069,58.547403036429856L-67.26701518044186,52.71367805361068L-64.40392398895216,57.406154506405564z" style="fill:rgb(64,34,188)"/><path d="M131.6408814910274,-40.31251735411547L124.34857356348758,-45.537159486451586L126.3030208708953,-40.37663736249207z" style="fill:rgb(84,32,200)"/><path d="M16.377863691556122,-33.02445644664039L118.54030368705891,-22.808621720297207L113.51493710103979,-23.703059218219284z" style="fill:rgb(83,212,212)"/><path d="M115.82430785841045,-36.21712755558637L113.8222008710924,-41.35182815106725L110.0319049080602,-37.66833680428113z" style="fill:rgb(208,81,214)"/><path d="M-77.32567951902386,52.58386695266271L-17.204992565979886,29.969586971823322L-22.00256340836994,29.28509957211113z" style="fill:rgb(83,212,212)"/><path d="M112.05527581987333,-32.5427617843435L107.94515709265387,-33.523492511573515L109.98429141681426,-28.402882838854392z" style="fill:rgb(234,114,195)"/><path d="M143.57400273391207,-74.22623889043797L134.17652789024297,-43.937251028677075L137.15098806145613,-41.08117532395517z" style="fill:rgb(83,212,212)"/><path d="M112.05527581987333,-32.5427617843435L110.0319049080602,-37.66833680428113L107.94515709265387,-33.523492511573515z" style="fill:rgb(234,114,195)"/><path d="M131.6408814910274,-40.31251735411547L129.70677236984622,-45.48641124845795L124.34857356348758,-45.537159486451586z" style="fill:rgb(84,32,200)"/><path d="M-59.9216250097069,58.547403036429856L-62.77258539051357,53.84512560207584L-67.26701518044186,52.71367805361068z" style="fill:rgb(64,34,188)"/><path d="M-77.32567951902386,52.58386695266271L-72.15671403826578,52.29196709150032L4.185694867777907,26.83045620641707z" style="fill:rgb(83,212,212)"/><path d="M136.09625097265328,-38.75210117748695L129.70677236984622,-45.48641124845795L131.6408814910274,-40.31251735411547z" style="fill:rgb(46,40,173)"/><path d="M-77.32567951902386,52.58386695266271L-12.088741140511573,30.066610240366224L-17.204992565979886,29.969586971823322z" style="fill:rgb(83,212,212)"/><path d="M-55.94057115368189,60.37726308465761L-62.77258539051357,53.84512560207584L-59.9216250097069,58.547403036429856z" style="fill:rgb(49,38,176)"/><path d="M-72.15671403826578,52.29196709150032L-67.26701518044186,52.71367805361068L4.185694867777907,26.83045620641707zM-77.32567951902386,52.58386695266271L-6.749711415068946,29.569797603167242L-12.088741140511573,30.066610240366224zM143.57400273391207,-74.22623889043797L137.15098806145613,-41.08117532395517L138.21006355945394,-37.2890934685986z" style="fill:rgb(83,212,212)"/><path d="M109.98429141681426,-28.402882838854392L107.85279542726283,-29.46294515577071L109.90003152866409,-24.342512915684114zM109.98429141681426,-28.402882838854392L107.94515709265387,-33.523492511573515L107.85279542726283,-29.46294515577071z" style="fill:rgb(246,149,166)"/><path d="M136.09625097265328,-38.75210117748695L134.17652789024297,-43.937251028677075L129.70677236984622,-45.48641124845795z" style="fill:rgb(46,40,173)"/><path d="M-77.32567951902386,52.58386695266271L-1.2897399553030107,28.48499969326617L-6.749711415068946,29.569797603167242z" style="fill:rgb(83,212,212)"/><path d="M-55.94057115368189,60.37726308465761L-58.782818819130256,55.6666242305228L-62.77258539051357,53.84512560207584z" style="fill:rgb(49,38,176)"/><path d="M-67.26701518044186,52.71367805361068L-62.77258539051357,53.84512560207584L4.185694867777907,26.83045620641707z" style="fill:rgb(83,212,212)"/><path d="M139.06430505836994,-35.888490374736826L134.17652789024297,-43.937251028677075L136.09625097265328,-38.75210117748695z" style="fill:rgb(20,59,140)"/><path d="M-77.32567951902386,52.58386695266271L4.185694867777907,26.83045620641707L-1.2897399553030107,28.48499969326617z" style="fill:rgb(83,212,212)"/><path d="M-52.56076484739293,62.85973637433985L-58.782818819130256,55.6666242305228L-55.94057115368189,60.37726308465761z" style="fill:rgb(36,45,162)"/><path d="M-62.77258539051357,53.84512560207584L-58.782818819130256,55.6666242305228L4.185694867777907,26.83045620641707z" style="fill:rgb(83,212,212)"/><path d="M139.06430505836994,-35.888490374736826L137.15098806145613,-41.08117532395517L134.17652789024297,-43.937251028677075z" style="fill:rgb(20,59,140)"/><path d="M-52.56076484739293,62.85973637433985L-55.39796208890269,58.14243356086477L-58.782818819130256,55.6666242305228z" style="fill:rgb(36,45,162)"/><path d="M-49.870521465869466,65.94282463074552L-55.39796208890269,58.14243356086477L-52.56076484739293,62.85973637433985z" style="fill:rgb(25,54,148)"/><path d="M-58.782818819130256,55.6666242305228L9.569959093359309,24.636553293472325L4.185694867777907,26.83045620641707zM-58.782818819130256,55.6666242305228L-55.39796208890269,58.14243356086477L9.569959093359309,24.636553293472325z" style="fill:rgb(83,212,212)"/><path d="M-49.870521465869466,65.94282463074552L-52.70651988321531,61.22077975338605L-55.39796208890269,58.14243356086477z" style="fill:rgb(25,54,148)"/><path d="M-52.70651988321531,61.22077975338605L14.757843486389316,21.945232115011095L9.569959093359309,24.636553293472325zM-55.39796208890269,58.14243356086477L-52.70651988321531,61.22077975338605L9.569959093359309,24.636553293472325zM32.11679397269008,-26.92312653617261L34.79612550584308,-24.184774286903078L130.49515102445702,57.19737094218028zM34.79612550584308,-24.184774286903078L36.853249597787595,-21.03394820109226L130.49515102445702,57.19737094218028zM36.853249597787595,-21.03394820109226L38.24378219994834,-17.521997308215884L130.49515102445702,57.19737094218028zM38.24378219994834,-17.521997308215884L38.9344236070171,-13.708121721211233L130.49515102445702,57.19737094218028zM38.9344236070171,-13.708121721211233L38.90414082281881,-9.658593978219736L130.49515102445702,57.19737094218028zM38.90414082281881,-9.658593978219736L38.14518819603545,-5.445741324503107L130.49515102445702,57.19737094218028zM32.11679397269008,-26.92312653617261L130.49515102445702,57.19737094218028L118.54030368705891,-22.808621720297207zM38.14518819603545,-5.445741324503107L36.66385307611204,-1.1466830664479322L130.49515102445702,57.19737094218028zM130.49515102445702,57.19737094218028L143.57400273391207,-74.22623889043797L138.21006355945394,-37.2890934685986z" style="fill:rgb(83,212,212)"/><path d="M132.6118435993214,62.33477422410237L30.729095595882306,8.446716694513231L33.14104444052608,13.37768418963392z" style="fill:rgb(42,41,169)"/><path d="M36.66385307611204,-1.1466830664479322L34.480906036648385,3.1581525377528443L130.49515102445702,57.19737094218028zM130.49515102445702,57.19737094218028L169.04508031867732,-46.27415046740508L143.57400273391207,-74.22623889043797zM34.480906036648385,3.1581525377528443L31.631675416671655,7.386714405978853L130.49515102445702,57.19737094218028zM31.631675416671655,7.386714405978853L30.729095595882306,8.446716694513231L130.49515102445702,57.19737094218028zM-1.4203855837224615,136.83148103313744L24.194382748088735,15.243774160937745L24.146108958789853,15.28980334930398zM-1.4203855837224615,136.83148103313744L24.146108958789853,15.28980334930398L19.648140504298443,18.809030243830694zM-1.4203855837224615,136.83148103313744L19.648140504298443,18.809030243830694L14.757843486389316,21.945232115011095zM130.49515102445702,57.19737094218028L138.21006355945394,-37.2890934685986L137.18650972602077,-33.06908460675603zM-52.70651988321531,61.22077975338605L-1.4203855837224615,136.83148103313744L14.757843486389316,21.945232115011095z" style="fill:rgb(83,212,212)"/><path d="M170.82379161489303,-41.00213204012012L169.04508031867732,-46.27415046740508L130.49515102445702,57.19737094218028z" style="fill:rgb(238,121,190)"/><path d="M130.49515102445702,57.19737094218028L137.18650972602077,-33.06908460675603L134.20122259446606,-29.000112545198732zM130.49515102445702,57.19737094218028L124.18134870881113,-23.48566667317433L118.54030368705891,-22.808621720297207zM130.49515102445702,57.19737094218028L134.20122259446606,-29.000112545198732L129.65627073703118,-25.649220612277727zM130.49515102445702,57.19737094218028L129.65627073703118,-25.649220612277727L124.18134870881113,-23.48566667317433zM-52.70651988321531,61.22077975338605L-50.78264794933457,64.83423331351383L-1.4203855837224615,136.83148103313744zM-50.78264794933457,64.83423331351383L-49.683597308879335,68.9005618601363L-1.4203855837224615,136.83148103313744zM-49.683597308879335,68.9005618601363L-49.44737401827472,73.32402591875947L-1.4203855837224615,136.83148103313744z" style="fill:rgb(83,212,212)"/><path d="M132.6118435993214,62.33477422410237L130.49515102445702,57.19737094218028L30.729095595882306,8.446716694513231z" style="fill:rgb(42,41,169)"/><path d="M170.82379161489303,-41.00213204012012L130.49515102445702,57.19737094218028L132.6118435993214,62.33477422410237z" style="fill:rgb(238,121,190)"/><path d="M-49.44737401827472,73.32402591875947L-51.97549578472829,130.30261999791932L-1.4203855837224615,136.83148103313744zM-1.4203855837224615,136.83148103313744L123.63832284223832,64.77842240797703L24.194382748088735,15.243774160937745z" style="fill:rgb(83,212,212)"/><path d="M1.4128980892100695,141.60057292341125L-51.97549578472829,130.30261999791932L-48.960979952542765,134.97399835066108zM1.4128980892100695,141.60057292341125L-1.4203855837224615,136.83148103313744L-51.97549578472829,130.30261999791932z" style="fill:rgb(81,32,199)"/><path d="M125.79823609844325,69.89388963948683L123.63832284223832,64.77842240797703L-1.4203855837224615,136.83148103313744zM125.79823609844325,69.89388963948683L-1.4203855837224615,136.83148103313744L1.4128980892100695,141.60057292341125z" style="fill:rgb(173,56,222)"/></svg>
