<?xml version="1.0" encoding="UTF-8"?>
<!-- Generated by jsxcad -->
<!DOCTYPE svg PUBLIC "-//W3C//DTD SVG 1.1 Tiny//EN" "http://www.w3.org/Graphics/SVG/1.1/DTD/svg11-tiny.dtd">
<svg viewBox="-250 -250 500 500" width="500" height="500" xmlns="http://www.w3.org/2000/svg"><path d="M41.90681584580043,-72.8914569279516L-38.062204300205416,-100.29224369165513L-42.71493974313481,-98.05708903766696zM41.90681584580043,-72.8914569279516L-29.15947173670033,-104.17007681938829L-38.062204300205416,-100.29224369165513zM41.90681584580043,-72.8914569279516L-20.1440647224788,-107.70318976776319L-29.15947173670033,-104.17007681938829zM41.90681584580043,-72.8914569279516L-11.03950094937105,-110.88097502973672L-20.1440647224788,-107.70318976776319zM41.90681584580043,-72.8914569279516L-1.8696719878682786,-113.69317617358566L-11.03950094937105,-110.88097502973672zM41.90681584580043,-72.8914569279516L7.341141209330253,-116.12997448335423L-1.8696719878682786,-113.69317617358566zM41.90681584580043,-72.8914569279516L16.568209509633128,-118.18193078371671L7.341141209330253,-116.12997448335423zM41.90681584580043,-72.8914569279516L25.786307378819377,-119.84005808289228L16.568209509633128,-118.18193078371671zM41.90681584580043,-72.8914569279516L34.96968708201526,-121.09580893887886L25.786307378819377,-119.84005808289228z" style="fill:rgb(83,212,212)"/><path d="M41.90681584580043,-72.8914569279516L43.28887467691577,-113.36907817483032L39.801053185363,-121.54350836988418z" style="fill:rgb(247,158,158)"/><path d="M41.90681584580043,-72.8914569279516L39.801053185363,-121.54350836988418L34.96968708201526,-121.09580893887886zM41.90681584580043,-72.8914569279516L-42.71493974313481,-98.05708903766696L-44.92686931257914,-49.22215100077817z" style="fill:rgb(83,212,212)"/><path d="M41.90681584580043,-72.8914569279516L45.562226074650965,-64.64763727734322L43.28887467691577,-113.36907817483032z" style="fill:rgb(247,158,158)"/><path d="M42.03527988336914,-71.46043382829885L-44.92686931257914,-49.22215100077817L-45.05565328039652,-47.7522321581229zM42.29532888121334,-70.06655753404088L-45.05565328039652,-47.7522321581229L-45.31043047704974,-46.24958832733934zM42.68655875064165,-68.71541203935779L-45.31043047704974,-46.24958832733934L-45.690694756630215,-44.72020444202552zM43.20807827533729,-67.4124781635797L-45.690694756630215,-44.72020444202552L-46.19542710360869,-43.17021227790015zM-6.889168307361737,-31.531970944961575L-150.61801831072427,6.486663205015869L-150.68964635323474,6.666645916887345zM-9.291674448365269,-30.61638821651254L-150.68964635323474,6.666645916887345L-150.80877874917297,6.965956391639447zM-4.466456552333697,-32.342526880734354L-150.59413127496177,6.426603932253576L-150.61801831072427,6.486663205015869zM-11.665343471619934,-29.59918025083657L-150.80877874917297,6.965956391639447L-150.97497066428045,7.383576082252606zM43.85842139676696,-66.16309235164645L-46.19542710360869,-43.17021227790015L-46.82301322301553,-41.605912260682786zM-14.001661872319792,-28.484068875922233L-150.97497066428045,7.383576082252606L-151.18769519298036,7.918096085053162zM-16.292230316875813,-27.275090031503243L-151.18769519298036,7.918096085053162L-151.446217380224,8.567714296571319zM-18.528800320427766,-25.976586850785566L-151.446217380224,8.567714296571319L-151.74968259939098,9.330227278029117zM42.03527988336914,-71.46043382829885L41.90681584580043,-72.8914569279516L-44.92686931257914,-49.22215100077817zM44.635685812994836,-64.97243453544651L-46.82301322301553,-41.605912260682786L-47.57138012084313,-40.03368772438333zM-20.70330745652822,-24.593185855949233L-151.74968259939098,9.330227278029117L-152.09704138029872,10.20304641147121zM-22.807867690392797,-23.129806324255334L-152.09704138029872,10.20304641147121L-152.4871058459764,11.183185184395928zM42.29532888121334,-70.06655753404088L42.03527988336914,-71.46043382829885L-45.05565328039652,-47.7522321581229zM45.53735744370505,-63.845507602833976L-47.57138012084313,-40.03368772438333L-48.437835440424124,-38.46002325376589zM-24.83481760916336,-21.59162739280604L-152.4871058459764,11.183185184395928L-152.91854315873837,12.267286577528548zM-26.776709902913446,-19.98410990407786L-152.91854315873837,12.267286577528548L-153.38985551056402,13.45159289753329z" style="fill:rgb(83,212,212)"/><path d="M45.562226074650965,-64.64763727734322L42.03527988336914,-71.46043382829885L45.69522653254332,-63.214838818183864z" style="fill:rgb(247,161,155)"/><path d="M42.68655875064165,-68.71541203935779L42.29532888121334,-70.06655753404088L-45.31043047704974,-46.24958832733934zM46.56046817017479,-62.78709218369685L-48.437835440424124,-38.46002325376589L-49.419203520460215,-36.891439672257704zM-28.626379983704965,-18.312926486408237L-153.38985551056402,13.45159289753329L-153.41577699780848,13.51671721780524zM-28.626379983704965,-18.312926486408237L-153.41577699780848,13.51671721780524L-153.80644317672082,14.707479022288325z" style="fill:rgb(83,212,212)"/><path d="M45.69522653254332,-63.214838818183864L42.29532888121334,-70.06655753404088L45.95894483956457,-61.81869178714361z" style="fill:rgb(246,166,149)"/><path d="M47.70149421029723,-61.8017577802676L-49.419203520460215,-36.891439672257704L-50.51177558640549,-35.33449378451363zM43.20807827533729,-67.4124781635797L42.68655875064165,-68.71541203935779L-45.690694756630215,-44.72020444202552zM-30.37691505150409,-16.584012258911095L-153.80644317672082,14.707479022288325L-154.24750020754817,16.05189458836217z" style="fill:rgb(83,212,212)"/><path d="M45.562226074650965,-64.64763727734322L41.90681584580043,-72.8914569279516L42.03527988336914,-71.46043382829885z" style="fill:rgb(247,161,155)"/><path d="M48.95641060061597,-60.893790847279654L-50.51177558640549,-35.33449378451363L-51.71133118439614,-33.795705356833075zM-32.0217092118543,-14.803508185123816L-154.24750020754817,16.05189458836217L-154.7164919672887,17.481440653258158z" style="fill:rgb(83,212,212)"/><path d="M45.95894483956457,-61.81869178714361L42.68655875064165,-68.71541203935779L46.35295350082733,-60.46478521729328z" style="fill:rgb(245,172,143)"/><path d="M43.85842139676696,-66.16309235164645L43.20807827533729,-67.4124781635797L-46.19542710360869,-43.17021227790015z" style="fill:rgb(83,212,212)"/><path d="M45.69522653254332,-63.214838818183864L42.03527988336914,-71.46043382829885L42.29532888121334,-70.06655753404088z" style="fill:rgb(246,166,149)"/><path d="M50.320680282998346,-60.06722611245285L-51.71133118439614,-33.795705356833075L-53.01313406128297,-32.2815919726973zM-33.5544572037947,-12.977774637084604L-154.7164919672887,17.481440653258158L-155.21177762601292,18.991058633504416z" style="fill:rgb(83,212,212)"/><path d="M46.35295350082733,-60.46478521729328L43.20807827533729,-67.4124781635797L46.876342039304575,-59.1586080959694z" style="fill:rgb(244,177,137)"/><path d="M44.635685812994836,-64.97243453544651L43.85842139676696,-66.16309235164645L-46.82301322301553,-41.605912260682786zM51.789276631058975,-59.325789101945844L-53.01313406128297,-32.2815919726973L-54.41200032514566,-30.798563057460978z" style="fill:rgb(83,212,212)"/><path d="M45.95894483956457,-61.81869178714361L42.29532888121334,-70.06655753404088L42.68655875064165,-68.71541203935779z" style="fill:rgb(245,172,143)"/><path d="M-34.96922830426212,-11.11333176152032L-155.21177762601292,18.991058633504416L-155.7315484004986,20.575381064227866zM53.35668459935919,-58.67286371122734L-54.41200032514566,-30.798563057460978L-55.902265306999965,-29.352922409811zM45.53735744370505,-63.845507602833976L44.635685812994836,-64.97243453544651L-47.57138012084313,-40.03368772438333zM-36.26041169242624,-9.216910737844945L-155.7315484004986,20.575381064227866L-155.95075043162734,21.24352274033888z" style="fill:rgb(83,212,212)"/><path d="M46.35295350082733,-60.46478521729328L42.68655875064165,-68.71541203935779L43.20807827533729,-67.4124781635797z" style="fill:rgb(244,177,137)"/><path d="M55.01691250283045,-58.11151460454509L-55.902265306999965,-29.352922409811L-57.47782423352862,-27.95085793892388zM-36.26041169242624,-9.216910737844945L-155.95075043162734,21.24352274033888L-156.19907550363286,22.20908596124404zM56.76354539711562,-57.64443624117068L-57.47782423352862,-27.95085793892388L-59.13218731084314,-26.598364850024645zM46.56046817017479,-62.78709218369685L45.53735744370505,-63.845507602833976L-48.437835440424124,-38.46002325376589zM-11.665343471619934,-29.59918025083657L-9.291674448365269,-30.61638821651254L-150.80877874917297,6.965956391639447zM-14.001661872319792,-28.484068875922233L-11.665343471619934,-29.59918025083657L-150.97497066428045,7.383576082252606zM-37.422803563191444,-7.2953770934304405L-156.19907550363286,22.20908596124404L-156.63172636631987,23.891336536726357zM-9.291674448365269,-30.61638821651254L-6.889168307361737,-31.531970944961575L-150.68964635323474,6.666645916887345zM-16.292230316875813,-27.275090031503243L-14.001661872319792,-28.484068875922233L-151.18769519298036,7.918096085053162zM58.5897424881765,-57.27392531175124L-59.13218731084314,-26.598364850024645L-60.85848640787458,-25.301229752873628zM-6.889168307361737,-31.531970944961575L-4.466456552333697,-32.342526880734354L-150.61801831072427,6.486663205015869zM-18.528800320427766,-25.976586850785566L-16.292230316875813,-27.275090031503243L-151.446217380224,8.567714296571319zM158.3089888578823,-75.64627249152063L-148.45547913862646,1.7613863045193536L-150.3543247362298,5.824029848764893zM-4.466456552333697,-32.342526880734354L-2.0322575144889394,-33.044996849482544L-150.59413127496177,6.426603932253576zM-20.70330745652822,-24.593185855949233L-18.528800320427766,-25.976586850785566L-151.74968259939098,9.330227278029117zM60.48823512970661,-57.00189365705066L-60.85848640787458,-25.301229752873628L-62.6494807881223,-24.065027262878527zM47.70149421029723,-61.8017577802676L46.56046817017479,-62.78709218369685L-49.419203520460215,-36.891439672257704zM-22.807867690392797,-23.129806324255334L-20.70330745652822,-24.593185855949233L-152.09704138029872,10.20304641147121zM62.45141749447666,-56.82983545799648L-62.6494807881223,-24.065027262878527L-64.49765551870838,-22.895047278863558zM-38.45159994325194,-5.3557459168409665L-156.63172636631987,23.891336536726357L-157.0787294629976,25.629318310646852zM158.3089888578823,-75.64627249152063L-150.3543247362298,5.824029848764893L-150.59413127496177,6.426603932253576zM-24.83481760916336,-21.59162739280604L-22.807867690392797,-23.129806324255334L-152.4871058459764,11.183185184395928zM64.47134322557264,-56.75881760480587L-64.49765551870838,-22.895047278863558L-66.39520434036478,-21.79629512438422zM-26.776709902913446,-19.98410990407786L-24.83481760916336,-21.59162739280604L-152.91854315873837,12.267286577528548zM66.53975498464659,-56.7894560145575L-66.39520434036478,-21.79629512438422L-68.33410772436577,-20.773450597411614zM48.95641060061597,-60.893790847279654L47.70149421029723,-61.8017577802676L-50.51177558640549,-35.33449378451363zM68.64811915348218,-56.92195639350718L-68.33410772436577,-20.773450597411614L-70.30612760219785,-19.83088407860796zM70.78770448015293,-57.15602249070787L-70.30612760219785,-19.83088407860796L-72.30290923671834,-18.972545493887843zM77.30369907664564,-58.45815116832417L-76.33674361343752,-17.52258823981627L-78.3567084980807,-16.936925499295455zM72.9495565643075,-57.49094612853059L-72.30290923671834,-18.972545493887843L-74.31596034135852,-18.20205236294449zM-39.34242185829055,-3.4051452548671883L-157.0787294629976,25.629318310646852L-157.53840495946534,27.41663239311231zM75.12461133464343,-57.925535465365826L-74.31596034135852,-18.20205236294449L-76.33674361343752,-17.52258823981627zM-28.626379983704965,-18.312926486408237L-26.776709902913446,-19.98410990407786L-153.38985551056402,13.45159289753329zM50.320680282998346,-60.06722611245285L48.95641060061597,-60.893790847279654L-51.71133118439614,-33.795705356833075zM-30.37691505150409,-16.584012258911095L-28.626379983704965,-18.312926486408237L-153.80644317672082,14.707479022288325zM-40.09133003262186,-1.4508125367917941L-157.53840495946534,27.41663239311231L-157.94033237678335,28.97942633144444zM-32.0217092118543,-14.803508185123816L-30.37691505150409,-16.584012258911095L-154.24750020754817,16.05189458836217zM-40.09133003262186,-1.4508125367917941L-157.94033237678335,28.97942633144444L-157.9887316022648,29.241341855031855zM51.789276631058975,-59.325789101945844L50.320680282998346,-60.06722611245285L-53.01313406128297,-32.2815919726973zM-33.5544572037947,-12.977774637084604L-32.0217092118543,-14.803508185123816L-154.7164919672887,17.481440653258158zM-40.69486294320658,0.4999324993178657L-157.9887316022648,29.241341855031855L-158.3266521124983,31.070269002398575zM53.35668459935919,-58.67286371122734L51.789276631058975,-59.325789101945844L-54.41200032514566,-30.798563057460978z" style="fill:rgb(83,212,212)"/><path d="M-9.868893337355447,-20.44467752935063L-16.292230316875813,-27.275090031503243L-12.142128807959887,-19.244543793648077z" style="fill:rgb(168,53,222)"/><path d="M-7.549773087118048,-21.55071456644497L-14.001661872319792,-28.484068875922233L-9.868893337355447,-20.44467752935063z" style="fill:rgb(160,49,222)"/><path d="M-12.142128807959887,-19.244543793648077L-18.528800320427766,-25.976586850785566L-14.361287999093415,-17.954627831709104z" style="fill:rgb(175,57,222)"/><path d="M-5.193112739666072,-22.558653336322703L-11.665343471619934,-29.59918025083657L-7.549773087118048,-21.55071456644497z" style="fill:rgb(153,46,222)"/><path d="M-14.361287999093415,-17.954627831709104L-20.70330745652822,-24.593185855949233L-16.518363430585346,-16.57953449992303z" style="fill:rgb(181,61,221)"/><path d="M-2.8073708303974563,-23.464800832180078L-9.291674448365269,-30.61638821651254L-5.193112739666072,-22.558653336322703z" style="fill:rgb(146,43,221)"/><path d="M-34.96922830426212,-11.11333176152032L-33.5544572037947,-12.977774637084604L-155.21177762601292,18.991058633504416z" style="fill:rgb(83,212,212)"/><path d="M-16.518363430585346,-16.57953449992303L-22.807867690392797,-23.129806324255334L-18.605527501613462,-15.124152474609012z" style="fill:rgb(188,65,220)"/><path d="M-0.4011232266585476,-24.265787679846223L-6.889168307361737,-31.531970944961575L-2.8073708303974563,-23.464800832180078z" style="fill:rgb(138,40,220)"/><path d="M55.01691250283045,-58.11151460454509L53.35668459935919,-58.67286371122734L-55.902265306999965,-29.352922409811z" style="fill:rgb(83,212,212)"/><path d="M-18.605527501613462,-15.124152474609012L-24.83481760916336,-21.59162739280604L-20.615179250272856,-13.59363612560908z" style="fill:rgb(194,70,219)"/><path d="M2.0169643841091256,-24.958588122270047L-4.466456552333697,-32.342526880734354L-0.4011232266585476,-24.265787679846223z" style="fill:rgb(131,38,218)"/><path d="M-41.15004758464199,2.439724299809219L-158.3266521124983,31.070269002398575L-158.66980666354004,32.92750090567999z" style="fill:rgb(83,212,212)"/><path d="M-20.615179250272856,-13.59363612560908L-26.776709902913446,-19.98410990407786L-22.53992205924028,-11.993426180061226z" style="fill:rgb(200,75,217)"/><path d="M4.438165713700568,-25.540525037220217L-2.0322575144889394,-33.044996849482544L2.0169643841091256,-24.958588122270047z" style="fill:rgb(123,36,216)"/><path d="M-36.26041169242624,-9.216910737844945L-34.96922830426212,-11.11333176152032L-155.7315484004986,20.575381064227866zM56.76354539711562,-57.64443624117068L55.01691250283045,-58.11151460454509L-57.47782423352862,-27.95085793892388z" style="fill:rgb(83,212,212)"/><path d="M-22.53992205924028,-11.993426180061226L-28.626379983704965,-18.312926486408237L-24.372656622747442,-10.329169724708994z" style="fill:rgb(206,80,215)"/><path d="M6.853712112751805,-26.00927113019503L0.40465004385577064,-33.63666936579132L4.438165713700568,-25.540525037220217z" style="fill:rgb(116,34,214)"/><path d="M-9.868893337355447,-20.44467752935063L-14.001661872319792,-28.484068875922233L-16.292230316875813,-27.275090031503243z" style="fill:rgb(168,53,222)"/><path d="M-7.549773087118048,-21.55071456644497L-11.665343471619934,-29.59918025083657L-14.001661872319792,-28.484068875922233z" style="fill:rgb(160,49,222)"/><path d="M-12.142128807959887,-19.244543793648077L-16.292230316875813,-27.275090031503243L-18.528800320427766,-25.976586850785566z" style="fill:rgb(175,57,222)"/><path d="M-5.193112739666072,-22.558653336322703L-9.291674448365269,-30.61638821651254L-11.665343471619934,-29.59918025083657z" style="fill:rgb(153,46,222)"/><path d="M-14.361287999093415,-17.954627831709104L-18.528800320427766,-25.976586850785566L-20.70330745652822,-24.593185855949233z" style="fill:rgb(181,61,221)"/><path d="M-2.8073708303974563,-23.464800832180078L-6.889168307361737,-31.531970944961575L-9.291674448365269,-30.61638821651254z" style="fill:rgb(146,43,221)"/><path d="M-16.518363430585346,-16.57953449992303L-20.70330745652822,-24.593185855949233L-22.807867690392797,-23.129806324255334z" style="fill:rgb(188,65,220)"/><path d="M-41.45439663804859,4.361152029238214L-158.66980666354004,32.92750090567999L-159.0168723109985,34.805928754645144z" style="fill:rgb(83,212,212)"/><path d="M-24.372656622747442,-10.329169724708994L-30.37691505150409,-16.584012258911095L-26.106529193669193,-8.606781017027808z" style="fill:rgb(212,85,213)"/><path d="M-37.422803563191444,-7.2953770934304405L-36.26041169242624,-9.216910737844945L-156.19907550363286,22.20908596124404zM58.5897424881765,-57.27392531175124L56.76354539711562,-57.64443624117068L-59.13218731084314,-26.598364850024645z" style="fill:rgb(83,212,212)"/><path d="M9.254811629140077,-26.36285375218327L2.835445594914675,-34.11518180664146L6.853712112751805,-26.00927113019503z" style="fill:rgb(108,33,211)"/><path d="M-0.4011232266585476,-24.265787679846223L-4.466456552333697,-32.342526880734354L-6.889168307361737,-31.531970944961575z" style="fill:rgb(138,40,220)"/><path d="M-18.605527501613462,-15.124152474609012L-22.807867690392797,-23.129806324255334L-24.83481760916336,-21.59162739280604z" style="fill:rgb(194,70,219)"/><path d="M2.0169643841091256,-24.958588122270047L-2.0322575144889394,-33.044996849482544L-4.466456552333697,-32.342526880734354z" style="fill:rgb(131,38,218)"/><path d="M-20.615179250272856,-13.59363612560908L-24.83481760916336,-21.59162739280604L-26.776709902913446,-19.98410990407786z" style="fill:rgb(200,75,217)"/><path d="M-26.106529193669193,-8.606781017027808L-32.0217092118543,-14.803508185123816L-27.734988423783516,-6.832383676421405z" style="fill:rgb(217,91,210)"/><path d="M60.48823512970661,-57.00189365705066L58.5897424881765,-57.27392531175124L-60.85848640787458,-25.301229752873628z" style="fill:rgb(83,212,212)"/><path d="M11.632677110700408,-26.599697386339358L5.251285571915811,-34.478525219375406L9.254811629140077,-26.36285375218327z" style="fill:rgb(101,32,208)"/><path d="M4.438165713700568,-25.540525037220217L0.40465004385577064,-33.63666936579132L-2.0322575144889394,-33.044996849482544z" style="fill:rgb(123,36,216)"/><path d="M-38.45159994325194,-5.3557459168409665L-37.422803563191444,-7.2953770934304405L-156.63172636631987,23.891336536726357z" style="fill:rgb(83,212,212)"/><path d="M-22.53992205924028,-11.993426180061226L-26.776709902913446,-19.98410990407786L-28.626379983704965,-18.312926486408237z" style="fill:rgb(206,80,215)"/><path d="M-41.60598137218044,6.256801209866622L-159.0168723109985,34.805928754645144L-159.3665171429839,36.69828197798891z" style="fill:rgb(83,212,212)"/><path d="M-27.734988423783516,-6.832383676421405L-33.5544572037947,-12.977774637084604L-29.251790238012884,-5.0123190725294275z" style="fill:rgb(222,96,207)"/><path d="M62.45141749447666,-56.82983545799648L60.48823512970661,-57.00189365705066L-62.6494807881223,-24.065027262878527z" style="fill:rgb(83,212,212)"/><path d="M13.978559888786366,-26.718598304917617L7.6433343943083925,-34.72508712091227L11.632677110700408,-26.599697386339358z" style="fill:rgb(94,32,205)"/><path d="M6.853712112751805,-26.00927113019503L2.835445594914675,-34.11518180664146L0.40465004385577064,-33.63666936579132z" style="fill:rgb(116,34,214)"/><path d="M-24.372656622747442,-10.329169724708994L-28.626379983704965,-18.312926486408237L-30.37691505150409,-16.584012258911095z" style="fill:rgb(212,85,213)"/><path d="M64.47134322557264,-56.75881760480587L62.45141749447666,-56.82983545799648L-64.49765551870838,-22.895047278863558zM-39.34242185829055,-3.4051452548671883L-38.45159994325194,-5.3557459168409665L-157.0787294629976,25.629318310646852z" style="fill:rgb(83,212,212)"/><path d="M9.254811629140077,-26.36285375218327L5.251285571915811,-34.478525219375406L2.835445594914675,-34.11518180664146z" style="fill:rgb(108,33,211)"/><path d="M-29.251790238012884,-5.0123190725294275L-34.96922830426212,-11.11333176152032L-30.651062739896116,-3.1530890397598137z" style="fill:rgb(226,102,203)"/><path d="M-26.106529193669193,-8.606781017027808L-30.37691505150409,-16.584012258911095L-32.0217092118543,-14.803508185123816z" style="fill:rgb(217,91,210)"/><path d="M16.28374968502485,-26.7187407968658L10.002794782146355,-34.85362603765561L13.978559888786366,-26.718598304917617z" style="fill:rgb(86,32,201)"/><path d="M-41.6034104556247,8.119273201228525L-159.3665171429839,36.69828197798891L-159.57164408534533,38.55956505894926zM66.53975498464659,-56.7894560145575L64.47134322557264,-56.75881760480587L-66.39520434036478,-21.79629512438422z" style="fill:rgb(83,212,212)"/><path d="M11.632677110700408,-26.599697386339358L7.6433343943083925,-34.72508712091227L5.251285571915811,-34.478525219375406z" style="fill:rgb(101,32,208)"/><path d="M-27.734988423783516,-6.832383676421405L-32.0217092118543,-14.803508185123816L-33.5544572037947,-12.977774637084604z" style="fill:rgb(222,96,207)"/><path d="M-30.651062739896116,-3.1530890397598137L-36.26041169242624,-9.216910737844945L-31.92725373940637,-1.2614098356117442z" style="fill:rgb(230,108,199)"/><path d="M68.64811915348218,-56.92195639350718L66.53975498464659,-56.7894560145575L-68.33410772436577,-20.773450597411614z" style="fill:rgb(83,212,212)"/><path d="M18.53961585486877,-26.599708098392533L12.320907823982365,-34.86328819341182L16.28374968502485,-26.7187407968658z" style="fill:rgb(79,32,198)"/><path d="M-40.09133003262186,-1.4508125367917941L-39.34242185829055,-3.4051452548671883L-157.53840495946534,27.41663239311231zM70.78770448015293,-57.15602249070787L68.64811915348218,-56.92195639350718L-70.30612760219785,-19.83088407860796z" style="fill:rgb(83,212,212)"/><path d="M13.978559888786366,-26.718598304917617L10.002794782146355,-34.85362603765561L7.6433343943083925,-34.72508712091227z" style="fill:rgb(94,32,205)"/><path d="M-29.251790238012884,-5.0123190725294275L-33.5544572037947,-12.977774637084604L-34.96922830426212,-11.11333176152032z" style="fill:rgb(226,102,203)"/><path d="M72.9495565643075,-57.49094612853059L70.78770448015293,-57.15602249070787L-72.30290923671834,-18.972545493887843zM-41.445850166717946,9.94121463780544L-159.57164408534533,38.55956505894926L-159.77668806311735,40.42003884650191z" style="fill:rgb(83,212,212)"/><path d="M-31.92725373940637,-1.2614098356117442L-37.422803563191444,-7.2953770934304405L-33.07521725936687,0.6558676005476486z" style="fill:rgb(234,114,195)"/><path d="M20.737646583911364,-26.36149513795586L14.588997205286082,-34.75361819488642L18.53961585486877,-26.599708098392533z" style="fill:rgb(73,33,193)"/><path d="M75.12461133464343,-57.925535465365826L72.9495565643075,-57.49094612853059L-74.31596034135852,-18.20205236294449zM77.30369907664564,-58.45815116832417L75.12461133464343,-57.925535465365826L-76.33674361343752,-17.52258823981627zM-40.69486294320658,0.4999324993178657L-40.09133003262186,-1.4508125367917941L-157.9887316022648,29.241341855031855z" style="fill:rgb(83,212,212)"/><path d="M16.28374968502485,-26.7187407968658L12.320907823982365,-34.86328819341182L10.002794782146355,-34.85362603765561z" style="fill:rgb(86,32,201)"/><path d="M-30.651062739896116,-3.1530890397598137L-34.96922830426212,-11.11333176152032L-36.26041169242624,-9.216910737844945z" style="fill:rgb(230,108,199)"/><path d="M-33.07521725936687,0.6558676005476486L-38.45159994325194,-5.3557459168409665L-34.090204466007535,2.5917412796551154z" style="fill:rgb(237,120,191)"/><path d="M22.869451275310777,-26.004505848748718L16.79850621140562,-34.52457203641886L20.737646583911364,-26.36149513795586z" style="fill:rgb(66,34,189)"/><path d="M-41.13303690337176,11.715335405425352L-159.77668806311735,40.42003884650191L-159.98081937128808,42.27227796958982z" style="fill:rgb(83,212,212)"/><path d="M18.53961585486877,-26.599708098392533L14.588997205286082,-34.75361819488642L12.320907823982365,-34.86328819341182z" style="fill:rgb(79,32,198)"/><path d="M-31.92725373940637,-1.2614098356117442L-36.26041169242624,-9.216910737844945L-37.422803563191444,-7.2953770934304405z" style="fill:rgb(234,114,195)"/><path d="M-41.15004758464199,2.439724299809219L-40.69486294320658,0.4999324993178657L-158.3266521124983,31.070269002398575z" style="fill:rgb(83,212,212)"/><path d="M-34.090204466007535,2.5917412796551154L-39.34242185829055,-3.4051452548671883L-34.9678970864277,4.539096002305492z" style="fill:rgb(240,125,187)"/><path d="M24.926808520673703,-25.529559455253334L18.940999774125494,-34.17651488560017L22.869451275310777,-26.004505848748718z" style="fill:rgb(60,35,184)"/><path d="M20.737646583911364,-26.36149513795586L16.79850621140562,-34.52457203641886L14.588997205286082,-34.75361819488642z" style="fill:rgb(73,33,193)"/><path d="M-33.07521725936687,0.6558676005476486L-37.422803563191444,-7.2953770934304405L-38.45159994325194,-5.3557459168409665z" style="fill:rgb(237,120,191)"/><path d="M-40.66533200155731,13.434457296139854L-159.98081937128808,42.27227796958982L-160.18322463144318,44.10881521311274zM-41.45439663804859,4.361152029238214L-41.15004758464199,2.439724299809219L-158.66980666354004,32.92750090567999z" style="fill:rgb(83,212,212)"/><path d="M-34.9678970864277,4.539096002305492L-40.09133003262186,-1.4508125367917941L-35.70440893452553,6.490704254130384z" style="fill:rgb(242,131,182)"/><path d="M26.901669438396578,-24.937919165006505L21.0082193152924,-33.71022722475464L24.926808520673703,-25.529559455253334z" style="fill:rgb(54,37,179)"/><path d="M22.869451275310777,-26.004505848748718L18.940999774125494,-34.17651488560017L16.79850621140562,-34.52457203641886z" style="fill:rgb(66,34,189)"/><path d="M-40.04368062366718,15.091538176765257L-160.18322463144318,44.10881521311274L-160.212315783337,44.37283852784888z" style="fill:rgb(83,212,212)"/><path d="M-34.090204466007535,2.5917412796551154L-38.45159994325194,-5.3557459168409665L-39.34242185829055,-3.4051452548671883z" style="fill:rgb(240,125,187)"/><path d="M-40.04368062366718,15.091538176765257L-160.212315783337,44.37283852784888L-160.2621884368997,45.89119694223314zM-41.60598137218044,6.256801209866622L-41.45439663804859,4.361152029238214L-159.0168723109985,34.805928754645144z" style="fill:rgb(83,212,212)"/><path d="M-35.70440893452553,6.490704254130384L-40.69486294320658,0.4999324993178657L-36.29633450864111,8.439256503025078z" style="fill:rgb(244,137,177)"/><path d="M24.926808520673703,-25.529559455253334L21.0082193152924,-33.71022722475464L18.940999774125494,-34.17651488560017z" style="fill:rgb(60,35,184)"/><path d="M28.786233451517553,-24.231246696411887L22.992067821313505,-33.12693368822194L26.901669438396578,-24.937919165006505z" style="fill:rgb(48,39,174)"/><path d="M-34.9678970864277,4.539096002305492L-39.34242185829055,-3.4051452548671883L-40.09133003262186,-1.4508125367917941z" style="fill:rgb(242,131,182)"/><path d="M-39.269643462970286,16.679683983935348L-160.2621884368997,45.89119694223314L-160.31957228226335,47.63838459175017zM-41.6034104556247,8.119273201228525L-41.60598137218044,6.256801209866622L-159.3665171429839,36.69828197798891z" style="fill:rgb(83,212,212)"/><path d="M-36.29633450864111,8.439256503025078L-41.15004758464199,2.439724299809219L-36.74074833118852,10.377394753009105z" style="fill:rgb(245,143,172)"/><path d="M26.901669438396578,-24.937919165006505L22.992067821313505,-33.12693368822194L21.0082193152924,-33.71022722475464z" style="fill:rgb(54,37,179)"/><path d="M30.57292646589418,-23.411665974524972L24.884713614618438,-32.428258213585124L28.786233451517553,-24.231246696411887z" style="fill:rgb(42,41,169)"/><path d="M-35.70440893452553,6.490704254130384L-40.09133003262186,-1.4508125367917941L-40.69486294320658,0.4999324993178657z" style="fill:rgb(244,137,177)"/><path d="M-38.34541616066898,18.19219956365927L-160.31957228226335,47.63838459175017L-160.37571864909873,49.348387647941564z" style="fill:rgb(83,212,212)"/><path d="M-36.74074833118852,10.377394753009105L-41.45439663804859,4.361152029238214L-37.03521553819722,12.297716318836374z" style="fill:rgb(246,149,166)"/><path d="M28.786233451517553,-24.231246696411887L24.884713614618438,-32.428258213585124L22.992067821313505,-33.12693368822194z" style="fill:rgb(48,39,174)"/><path d="M-41.445850166717946,9.94121463780544L-41.6034104556247,8.119273201228525L-159.57164408534533,38.55956505894926zM158.3089888578823,-75.64627249152063L155.8390912029815,-79.40687031728048L-148.45547913862646,1.7613863045193536z" style="fill:rgb(83,212,212)"/><path d="M32.25446580837179,-22.481716176560358L26.6785465904455,-31.61628756409364L30.57292646589418,-23.411665974524972z" style="fill:rgb(37,44,163)"/><path d="M-36.29633450864111,8.439256503025078L-40.69486294320658,0.4999324993178657L-41.15004758464199,2.439724299809219z" style="fill:rgb(245,143,172)"/><path d="M-37.27381773617117,19.62262617045602L-160.37571864909873,49.348387647941564L-160.43042769019976,51.01403162438143z" style="fill:rgb(83,212,212)"/><path d="M30.57292646589418,-23.411665974524972L26.6785465904455,-31.61628756409364L24.884713614618438,-32.428258213585124z" style="fill:rgb(42,41,169)"/><path d="M-37.03521553819722,12.297716318836374L-41.60598137218044,6.256801209866622L-37.1778553161695,14.192811929077902z" style="fill:rgb(247,155,161)"/><path d="M-41.13303690337176,11.715335405425352L-41.445850166717946,9.94121463780544L-159.77668806311735,40.42003884650191z" style="fill:rgb(83,212,212)"/><path d="M-36.74074833118852,10.377394753009105L-41.15004758464199,2.439724299809219L-41.45439663804859,4.361152029238214z" style="fill:rgb(246,149,166)"/><path d="M33.82386380250317,-21.44437628369147L28.366245683857205,-30.6935223105835L32.25446580837179,-22.481716176560358z" style="fill:rgb(32,47,158)"/><path d="M158.33657212129816,-75.59563401612454L-2.0322575144889394,-33.044996849482544L0.40465004385577064,-33.63666936579132zM158.4192855440356,-75.44388438845345L0.40465004385577064,-33.63666936579132L2.835445594914675,-34.11518180664146zM-36.0582985307161,20.964756720959688L-160.43042769019976,51.01403162438143L-160.4619882117307,51.97476034090002zM-36.0582985307161,20.964756720959688L-160.4619882117307,51.97476034090002L-160.43118951802074,52.61495045045732zM158.5568498142039,-75.1915027279225L2.835445594914675,-34.11518180664146L5.251285571915811,-34.478525219375406z" style="fill:rgb(83,212,212)"/><path d="M32.25446580837179,-22.481716176560358L28.366245683857205,-30.6935223105835L26.6785465904455,-31.61628756409364z" style="fill:rgb(37,44,163)"/><path d="M-37.1778553161695,14.192811929077902L-41.6034104556247,8.119273201228525L-37.16732162245437,16.05528736036424z" style="fill:rgb(247,161,155)"/><path d="M-40.66533200155731,13.434457296139854L-41.13303690337176,11.715335405425352L-159.98081937128808,42.27227796958982z" style="fill:rgb(83,212,212)"/><path d="M-37.03521553819722,12.297716318836374L-41.45439663804859,4.361152029238214L-41.60598137218044,6.256801209866622z" style="fill:rgb(247,155,161)"/><path d="M35.274513532501814,-20.30305258006835L29.940794182867545,-29.66291326761793L33.82386380250317,-21.44437628369147z" style="fill:rgb(28,51,152)"/><path d="M158.74883118973406,-74.83930954682091L5.251285571915811,-34.478525219375406L7.6433343943083925,-34.72508712091227zM-34.70293686594027,22.212681181726563L-160.43118951802074,52.61495045045732L-160.35786850592206,54.13923452208006zM158.99458990925135,-74.38843560488176L7.6433343943083925,-34.72508712091227L10.002794782146355,-34.85362603765561z" style="fill:rgb(83,212,212)"/><path d="M33.82386380250317,-21.44437628369147L29.940794182867545,-29.66291326761793L28.366245683857205,-30.6935223105835z" style="fill:rgb(32,47,158)"/><path d="M-37.16732162245437,16.05528736036424L-41.445850166717946,9.94121463780544L-37.00282321913419,17.87779170039021z" style="fill:rgb(246,166,149)"/><path d="M-37.1778553161695,14.192811929077902L-41.60598137218044,6.256801209866622L-41.6034104556247,8.119273201228525z" style="fill:rgb(247,161,155)"/><path d="M-40.04368062366718,15.091538176765257L-40.66533200155731,13.434457296139854L-160.18322463144318,44.10881521311274z" style="fill:rgb(83,212,212)"/><path d="M36.60014243461798,-19.06159004360844L31.39555671153863,-28.527826357891218L35.274513532501814,-20.30305258006835z" style="fill:rgb(24,55,146)"/><path d="M159.29333410682065,-73.84034054252274L10.002794782146355,-34.85362603765561L12.320907823982365,-34.86328819341182zM-33.212463333084365,23.36080880328158L-160.35786850592206,54.13923452208006L-160.28758521867223,55.59986534855576z" style="fill:rgb(83,212,212)"/><path d="M35.274513532501814,-20.30305258006835L31.39555671153863,-28.527826357891218L29.940794182867545,-29.66291326761793z" style="fill:rgb(28,51,152)"/><path d="M159.64409744331624,-73.19679490779383L12.320907823982365,-34.86328819341182L14.588997205286082,-34.75361819488642z" style="fill:rgb(83,212,212)"/><path d="M-37.00282321913419,17.87779170039021L-41.13303690337176,11.715335405425352L-36.68413583726934,19.653038811210564z" style="fill:rgb(245,172,143)"/><path d="M-37.16732162245437,16.05528736036424L-41.6034104556247,8.119273201228525L-41.445850166717946,9.94121463780544z" style="fill:rgb(246,166,149)"/><path d="M-39.269643462970286,16.679683983935348L-40.04368062366718,15.091538176765257L-160.2621884368997,45.89119694223314z" style="fill:rgb(83,212,212)"/><path d="M37.79491184723183,-17.72425402033363L32.72423489117084,-27.29207562886181L36.60014243461798,-19.06159004360844z" style="fill:rgb(20,59,140)"/><path d="M-31.59218798833757,24.403917035658043L-160.28758521867223,55.59986534855576L-160.22069551169628,56.99048008625666zM160.04577696874105,-72.45990776336848L14.588997205286082,-34.75361819488642L16.79850621140562,-34.52457203641886z" style="fill:rgb(83,212,212)"/><path d="M36.60014243461798,-19.06159004360844L32.72423489117084,-27.29207562886181L31.39555671153863,-28.527826357891218z" style="fill:rgb(24,55,146)"/><path d="M-36.68413583726934,19.653038811210564L-40.66533200155731,13.434457296139854L-36.21165414791345,21.373847718554707z" style="fill:rgb(244,177,137)"/><path d="M-37.00282321913419,17.87779170039021L-41.445850166717946,9.94121463780544L-41.13303690337176,11.715335405425352z" style="fill:rgb(245,172,143)"/><path d="M-38.34541616066898,18.19219956365927L-39.269643462970286,16.679683983935348L-160.31957228226335,47.63838459175017zM-29.84806507801256,25.33716560379107L-160.22069551169628,56.99048008625666L-160.15747406789657,58.30495015352808z" style="fill:rgb(83,212,212)"/><path d="M38.85341904213517,-16.295732416424276L33.92096751396374,-25.959899907372268L37.79491184723183,-17.72425402033363z" style="fill:rgb(17,63,135)"/><path d="M160.49697647703445,-71.63208228245453L16.79850621140562,-34.52457203641886L18.940999774125494,-34.17651488560017z" style="fill:rgb(83,212,212)"/><path d="M37.79491184723183,-17.72425402033363L33.92096751396374,-25.959899907372268L32.72423489117084,-27.29207562886181z" style="fill:rgb(20,59,140)"/><path d="M-27.986625367849488,26.156140895994817L-160.15747406789657,58.30495015352808L-160.10119909060106,59.4746341561133zM160.99629129532516,-70.71605097294437L18.940999774125494,-34.17651488560017L21.0082193152924,-33.71022722475464z" style="fill:rgb(83,212,212)"/><path d="M-36.21165414791345,21.373847718554707L-40.04368062366718,15.091538176765257L-35.58635976877299,23.033176037827815z" style="fill:rgb(242,182,131)"/><path d="M-36.68413583726934,19.653038811210564L-41.13303690337176,11.715335405425352L-40.66533200155731,13.434457296139854z" style="fill:rgb(244,177,137)"/><path d="M-37.27381773617117,19.62262617045602L-38.34541616066898,18.19219956365927L-160.37571864909873,49.348387647941564zM-27.986625367849488,26.156140895994817L-160.10119909060106,59.4746341561133L-160.09298044199343,59.536146413046424z" style="fill:rgb(83,212,212)"/><path d="M39.77073248148444,-14.781115133020347L34.98033033789009,-24.53595453473716L38.85341904213517,-16.295732416424276z" style="fill:rgb(14,67,129)"/><path d="M-26.014984095139816,26.85685889374394L-160.09298044199343,59.536146413046424L-159.9432626014986,60.65727778998161zM161.54199744516956,-69.71487495773273L21.0082193152924,-33.71022722475464L22.992067821313505,-33.12693368822194z" style="fill:rgb(83,212,212)"/><path d="M38.85341904213517,-16.295732416424276L34.98033033789009,-24.53595453473716L33.92096751396374,-25.959899907372268z" style="fill:rgb(17,63,135)"/><path d="M-78.7709239656401,59.77792881627973L-158.26197885626163,70.65061627511663L-152.9172007853202,78.12435121932589z" style="fill:rgb(127,37,217)"/><path d="M-36.0582985307161,20.964756720959688L-37.27381773617117,19.62262617045602L-160.43042769019976,51.01403162438143z" style="fill:rgb(83,212,212)"/><path d="M-35.58635976877299,23.033176037827815L-39.269643462970286,16.679683983935348L-34.80983885621217,24.624125604583202z" style="fill:rgb(240,187,125)"/><path d="M-36.21165414791345,21.373847718554707L-40.66533200155731,13.434457296139854L-40.04368062366718,15.091538176765257z" style="fill:rgb(242,182,131)"/><path d="M40.54241579549947,-13.185899683192874L35.89738090036497,-23.02530853632624L39.77073248148444,-14.781115133020347z" style="fill:rgb(12,72,123)"/><path d="M-23.94078474177552,27.435846007879583L-159.9432626014986,60.65727778998161L-159.80564615393527,61.68777749758565zM162.02359777880517,-68.60320370114378L22.992067821313505,-33.12693368822194L24.884713614618438,-32.428258213585124z" style="fill:rgb(83,212,212)"/><path d="M39.77073248148444,-14.781115133020347L35.89738090036497,-23.02530853632624L34.98033033789009,-24.53595453473716z" style="fill:rgb(14,67,129)"/><path d="M-21.77222279108075,27.890098408111385L-159.80564615393527,61.68777749758565L-159.68075927027567,62.622950731391406zM-34.70293686594027,22.212681181726563L-36.0582985307161,20.964756720959688L-160.43118951802074,52.61495045045732z" style="fill:rgb(83,212,212)"/><path d="M-35.58635976877299,23.033176037827815L-40.04368062366718,15.091538176765257L-39.269643462970286,16.679683983935348z" style="fill:rgb(240,187,125)"/><path d="M158.33657212129816,-75.59563401612454L158.3089888578823,-75.64627249152063L-2.0322575144889394,-33.044996849482544zM158.4192855440356,-75.44388438845345L158.33657212129816,-75.59563401612454L0.40465004385577064,-33.63666936579132zM162.53369474577633,-67.40974043772815L24.884713614618438,-32.428258213585124L26.6785465904455,-31.61628756409364zM158.5568498142039,-75.1915027279225L158.4192855440356,-75.44388438845345L2.835445594914675,-34.11518180664146zM-19.517969316379546,28.2171605848454L-159.68075927027567,62.622950731391406L-159.5691663478129,63.45852937984661zM158.74883118973406,-74.83930954682091L158.5568498142039,-75.1915027279225L5.251285571915811,-34.478525219375406zM-33.212463333084365,23.36080880328158L-34.70293686594027,22.212681181726563L-160.35786850592206,54.13923452208006z" style="fill:rgb(83,212,212)"/><path d="M40.54241579549947,-13.185899683192874L36.66766869507353,-21.43343295077237L35.89738090036497,-23.02530853632624z" style="fill:rgb(12,72,123)"/><path d="M-17.187160769981126,28.415120103650363L-159.5691663478129,63.45852937984661L-159.47138141727063,64.19069217220152zM158.99458990925135,-74.38843560488176L158.74883118973406,-74.83930954682091L7.6433343943083925,-34.72508712091227zM163.07633995492938,-66.14008764698256L26.6785465904455,-31.61628756409364L28.366245683857205,-30.6935223105835zM-14.789339838232571,28.482626726449734L-159.47138141727063,64.19069217220152L-159.38787249440009,64.81605526629161zM159.29333410682065,-73.84034054252274L158.99458990925135,-74.38843560488176L10.002794782146355,-34.85362603765561zM-31.59218798833757,24.403917035658043L-33.212463333084365,23.36080880328158L-160.28758521867223,55.59986534855576zM-12.334438186498344,28.41891643181596L-159.38787249440009,64.81605526629161L-159.31900402228172,65.3317328350802zM159.64409744331624,-73.19679490779383L159.29333410682065,-73.84034054252274L12.320907823982365,-34.86328819341182zM163.64968185599062,-64.79863255038043L28.366245683857205,-30.6935223105835L29.940794182867545,-29.66291326761793zM-9.83271737356613,28.22381833116898L-159.31900402228172,65.3317328350802L-159.26511308695683,65.73532920739821zM160.04577696874105,-72.45990776336848L159.64409744331624,-73.19679490779383L14.588997205286082,-34.75361819488642zM-7.294702785520806,27.897759513435904L-159.26511308695683,65.73532920739821L-159.22641573668668,66.02496940073001zM-29.84806507801256,25.33716560379107L-31.59218798833757,24.403917035658043L-160.22069551169628,56.99048008625666zM-4.7311579408821975,27.441760908326447L-159.22641573668668,66.02496940073001L-159.20313560912479,66.19929149539385zM-2.1530200041257794,26.857474928219922L-159.20313560912479,66.19929149539385L-159.19537988243027,66.25749039382664zM164.25171457529228,-63.39003412880742L29.940794182867545,-29.66291326761793L31.39555671153863,-28.527826357891218zM160.49697647703445,-71.63208228245453L160.04577696874105,-72.45990776336848L16.79850621140562,-34.52457203641886zM-27.986625367849488,26.156140895994817L-29.84806507801256,25.33716560379107L-160.15747406789657,58.30495015352808zM160.99629129532516,-70.71605097294437L160.49697647703445,-71.63208228245453L18.940999774125494,-34.17651488560017z" style="fill:rgb(83,212,212)"/><path d="M-78.7709239656401,59.77792881627973L-83.63205215695253,52.01569354071967L-158.26197885626163,70.65061627511663z" style="fill:rgb(127,37,217)"/><path d="M164.79258968194443,-61.89625793596872L31.39555671153863,-28.527826357891218L32.72423489117084,-27.29207562886181zM-26.014984095139816,26.85685889374394L-27.986625367849488,26.156140895994817L-160.09298044199343,59.536146413046424zM161.54199744516956,-69.71487495773273L160.99629129532516,-70.71605097294437L21.0082193152924,-33.71022722475464zM165.29256451034323,-60.328534184627934L32.72423489117084,-27.29207562886181L33.92096751396374,-25.959899907372268zM-23.94078474177552,27.435846007879583L-26.014984095139816,26.85685889374394L-159.9432626014986,60.65727778998161zM162.02359777880517,-68.60320370114378L161.54199744516956,-69.71487495773273L22.992067821313505,-33.12693368822194z" style="fill:rgb(83,212,212)"/><path d="M-76.6396022480484,59.304048367368544L-83.63205215695253,52.01569354071967L-78.7709239656401,59.77792881627973z" style="fill:rgb(123,36,216)"/><path d="M-21.77222279108075,27.890098408111385L-23.94078474177552,27.435846007879583L-159.80564615393527,61.68777749758565zM162.53369474577633,-67.40974043772815L162.02359777880517,-68.60320370114378L24.884713614618438,-32.428258213585124zM165.80934593108924,-58.708118764159735L33.92096751396374,-25.959899907372268L34.98033033789009,-24.53595453473716zM158.3089888578823,-75.64627249152063L158.03211163632042,-76.15421806979631L155.8390912029815,-79.40687031728048z" style="fill:rgb(83,212,212)"/><path d="M-74.52158366947614,58.94035676594003L-81.48674821592944,51.53346692661091L-76.6396022480484,59.304048367368544z" style="fill:rgb(116,34,214)"/><path d="M-72.42465286379105,58.68841458345802L-79.35530701143807,51.1615337549709L-74.52158366947614,58.94035676594003z" style="fill:rgb(108,33,211)"/><path d="M-19.517969316379546,28.2171605848454L-21.77222279108075,27.890098408111385L-159.68075927027567,62.622950731391406zM163.07633995492938,-66.14008764698256L162.53369474577633,-67.40974043772815L26.6785465904455,-31.61628756409364zM166.34105501064596,-57.04089954800178L34.98033033789009,-24.53595453473716L35.89738090036497,-23.02530853632624z" style="fill:rgb(83,212,212)"/><path d="M-70.35655133942225,58.54941839564447L-77.24555430822338,50.90148603344111L-72.42465286379105,58.68841458345802z" style="fill:rgb(101,32,208)"/><path d="M-17.187160769981126,28.415120103650363L-19.517969316379546,28.2171605848454L-159.5691663478129,63.45852937984661z" style="fill:rgb(83,212,212)"/><path d="M-76.6396022480484,59.304048367368544L-81.48674821592944,51.53346692661091L-83.63205215695253,52.01569354071967z" style="fill:rgb(123,36,216)"/><path d="M-68.32498964642295,58.52415292728845L-75.1652851353398,50.75455174610856L-70.35655133942225,58.54941839564447z" style="fill:rgb(94,32,205)"/><path d="M163.64968185599062,-64.79863255038043L163.07633995492938,-66.14008764698256L28.366245683857205,-30.6935223105835z" style="fill:rgb(83,212,212)"/><path d="M-74.52158366947614,58.94035676594003L-79.35530701143807,51.1615337549709L-81.48674821592944,51.53346692661091z" style="fill:rgb(116,34,214)"/><path d="M-14.789339838232571,28.482626726449734L-17.187160769981126,28.415120103650363L-159.47138141727063,64.19069217220152zM166.86188620889354,-55.32680835241071L35.89738090036497,-23.02530853632624L36.66766869507353,-21.43343295077237z" style="fill:rgb(83,212,212)"/><path d="M-66.33756526560127,58.61306800987944L-73.12224829427639,50.7215474721587L-68.32498964642295,58.52415292728845z" style="fill:rgb(86,32,201)"/><path d="M-72.42465286379105,58.68841458345802L-77.24555430822338,50.90148603344111L-79.35530701143807,51.1615337549709z" style="fill:rgb(108,33,211)"/><path d="M-12.334438186498344,28.41891643181596L-14.789339838232571,28.482626726449734L-159.38787249440009,64.81605526629161zM164.25171457529228,-63.39003412880742L163.64968185599062,-64.79863255038043L29.940794182867545,-29.66291326761793z" style="fill:rgb(83,212,212)"/><path d="M-70.35655133942225,58.54941839564447L-75.1652851353398,50.75455174610856L-77.24555430822338,50.90148603344111z" style="fill:rgb(101,32,208)"/><path d="M-64.40179199078372,58.81616351572518L-71.12408254040295,50.80295480032091L-66.33756526560127,58.61306800987944z" style="fill:rgb(79,32,198)"/><path d="M-9.83271737356613,28.22381833116898L-12.334438186498344,28.41891643181596L-159.31900402228172,65.3317328350802zM167.25076690967984,-53.541306860754055L36.66766869507353,-21.43343295077237L37.2872942465059,-19.76619579346628z" style="fill:rgb(83,212,212)"/><path d="M-68.32498964642295,58.52415292728845L-73.12224829427639,50.7215474721587L-75.1652851353398,50.75455174610856z" style="fill:rgb(94,32,205)"/><path d="M-62.525048628106624,59.13308340365967L-69.17834585561948,50.99880521411227L-64.40179199078372,58.81616351572518z" style="fill:rgb(73,33,193)"/><path d="M-7.294702785520806,27.897759513435904L-9.83271737356613,28.22381833116898L-159.26511308695683,65.73532920739821zM164.79258968194443,-61.89625793596872L164.25171457529228,-63.39003412880742L31.39555671153863,-28.527826357891218z" style="fill:rgb(83,212,212)"/><path d="M-66.33756526560127,58.61306800987944L-71.12408254040295,50.80295480032091L-73.12224829427639,50.7215474721587z" style="fill:rgb(86,32,201)"/><path d="M-4.7311579408821975,27.441760908326447L-7.294702785520806,27.897759513435904L-159.22641573668668,66.02496940073001z" style="fill:rgb(83,212,212)"/><path d="M-60.71454851719412,59.56305357054786L-67.29244006607061,51.30877365394604L-62.525048628106624,59.13308340365967z" style="fill:rgb(66,34,189)"/><path d="M-2.1530200041257794,26.857474928219922L-4.7311579408821975,27.441760908326447L-159.20313560912479,66.19929149539385zM167.64581457494435,-51.727520743510254L37.2872942465059,-19.76619579346628L37.75291575945546,-18.029820549622983z" style="fill:rgb(83,212,212)"/><path d="M-64.40179199078372,58.81616351572518L-69.17834585561948,50.99880521411227L-71.12408254040295,50.80295480032091z" style="fill:rgb(79,32,198)"/><path d="M165.29256451034323,-60.328534184627934L164.79258968194443,-61.89625793596872L32.72423489117084,-27.29207562886181z" style="fill:rgb(83,212,212)"/><path d="M-58.97732308463801,60.10489481727533L-65.4736286626057,51.73211709626551L-60.71454851719412,59.56305357054786z" style="fill:rgb(60,35,184)"/><path d="M-62.525048628106624,59.13308340365967L-67.29244006607061,51.30877365394604L-69.17834585561948,50.99880521411227z" style="fill:rgb(73,33,193)"/><path d="M168.04551103502078,-49.89236483907843L37.75291575945546,-18.029820549622983L38.06176696978845,-16.230892815889227zM162.02359777880517,-68.60320370114378L161.57201792254514,-69.6598052333555L161.54199744516956,-69.71487495773273zM165.80934593108924,-58.708118764159735L165.29256451034323,-60.328534184627934L33.92096751396374,-25.959899907372268z" style="fill:rgb(83,212,212)"/><path d="M-57.32022823989804,60.75701225490309L-63.72897177774302,52.26768643169145L-58.97732308463801,60.10489481727533z" style="fill:rgb(54,37,179)"/><path d="M-60.71454851719412,59.56305357054786L-65.4736286626057,51.73211709626551L-67.29244006607061,51.30877365394604z" style="fill:rgb(66,34,189)"/><path d="M166.99445844465484,-10.565180925285377L-159.19537988243027,66.25749039382664L-159.11731069417448,66.8420744987978zM168.44830735729585,-48.04291964278437L38.06176696978845,-16.230892815889227L38.21172847228599,-14.376336820568467z" style="fill:rgb(83,212,212)"/><path d="M-55.74985942177848,61.5174174517897L-62.065356790564415,52.91391626890272L-57.32022823989804,60.75701225490309z" style="fill:rgb(48,39,174)"/><path d="M-58.97732308463801,60.10489481727533L-63.72897177774302,52.26768643169145L-65.4736286626057,51.73211709626551z" style="fill:rgb(60,35,184)"/><path d="M166.34105501064596,-57.04089954800178L165.80934593108924,-58.708118764159735L34.98033033789009,-24.53595453473716zM166.99445844465484,-10.565180925285377L-159.11731069417448,66.8420744987978L-158.26197885626163,70.65061627511663z" style="fill:rgb(83,212,212)"/><path d="M-54.27255039353398,62.383693525600904L-60.489408147857425,53.66884667225323L-55.74985942177848,61.5174174517897z" style="fill:rgb(42,41,169)"/><path d="M-57.32022823989804,60.75701225490309L-62.065356790564415,52.91391626890272L-63.72897177774302,52.26768643169145z" style="fill:rgb(54,37,179)"/><path d="M168.68129286738383,-46.14217586249483L38.21172847228599,-14.376336820568467L38.20131184787083,-12.473380325827458zM166.86188620889354,-55.32680835241071L166.34105501064596,-57.04089954800178L35.89738090036497,-23.02530853632624z" style="fill:rgb(83,212,212)"/><path d="M-52.894371577761746,63.35300318881534L-59.007486071706666,54.53008802178409L-54.27255039353398,62.383693525600904z" style="fill:rgb(37,44,163)"/><path d="M-55.74985942177848,61.5174174517897L-60.489408147857425,53.66884667225323L-62.065356790564415,52.91391626890272z" style="fill:rgb(48,39,174)"/><path d="M168.91421447400324,-44.2418514102279L38.20131184787083,-12.473380325827458L38.029683687398816,-10.529535350955094zM167.25076690967984,-53.541306860754055L166.86188620889354,-55.32680835241071L36.66766869507353,-21.43343295077237z" style="fill:rgb(83,212,212)"/><path d="M-51.62107312466403,64.42212931296211L-57.62568485966371,55.49482905563208L-52.894371577761746,63.35300318881534z" style="fill:rgb(32,47,158)"/><path d="M-54.27255039353398,62.383693525600904L-59.007486071706666,54.53008802178409L-60.489408147857425,53.66884667225323z" style="fill:rgb(42,41,169)"/><path d="M169.14614995560675,-42.349527664726196L38.029683687398816,-10.529535350955094L37.69667950310292,-8.552568041239107z" style="fill:rgb(83,212,212)"/><path d="M167.4558596457982,-54.0273205260505L166.80619877747299,-55.58244528547747L169.76104040364177,-46.80300792652149zM167.4558596457982,-54.0273205260505L164.50570860187725,-62.795762109771005L166.80619877747299,-55.58244528547747z" style="fill:rgb(246,166,149)"/><path d="M164.79258968194443,-61.89625793596872L164.50570860187725,-62.795762109771005L164.25171457529228,-63.39003412880742zM167.64581457494435,-51.727520743510254L167.25076690967984,-53.541306860754055L37.2872942465059,-19.76619579346628z" style="fill:rgb(83,212,212)"/><path d="M-52.894371577761746,63.35300318881534L-57.62568485966371,55.49482905563208L-59.007486071706666,54.53008802178409z" style="fill:rgb(37,44,163)"/><path d="M-50.458060351808825,65.58743022562358L-56.34978058166332,56.55987717849264L-51.62107312466403,64.42212931296211z" style="fill:rgb(28,51,152)"/><path d="M169.37617378252813,-40.47285142449955L37.69667950310292,-8.552568041239107L37.20285790362823,-6.550472042396908zM80.39977006467535,11.112950778812701L-83.63205215695253,52.01569354071967L-81.48674821592944,51.53346692661091zM78.09257213519588,11.855637975597135L-81.48674821592944,51.53346692661091L-79.35530701143807,51.1615337549709z" style="fill:rgb(83,212,212)"/><path d="M-51.62107312466403,64.42212931296211L-56.34978058166332,56.55987717849264L-57.62568485966371,55.49482905563208z" style="fill:rgb(32,47,158)"/><path d="M168.04551103502078,-49.89236483907843L167.64581457494435,-51.727520743510254L37.75291575945546,-18.029820549622983z" style="fill:rgb(83,212,212)"/><path d="M-49.41037694988682,66.84485139810656L-55.18518219488702,57.72161337031702L-50.458060351808825,65.58743022562358z" style="fill:rgb(24,55,146)"/><path d="M75.81336979678561,12.701547802813167L-79.35530701143807,51.1615337549709L-77.24555430822338,50.90148603344111zM73.5703798611393,13.647538689466835L-77.24555430822338,50.90148603344111L-75.1652851353398,50.75455174610856zM169.46104257586728,-38.58301339760128L37.20285790362823,-6.550472042396908L36.54946591168152,-4.531420714924229zM71.37171744111662,14.69010204789877L-75.1652851353398,50.75455174610856L-73.12224829427639,50.7215474721587z" style="fill:rgb(83,212,212)"/><path d="M-50.458060351808825,65.58743022562358L-55.18518219488702,57.72161337031702L-56.34978058166332,56.55987717849264z" style="fill:rgb(28,51,152)"/><path d="M-48.48267272103424,68.18997773215062L-54.13696247180063,58.97600386854739L-49.41037694988682,66.84485139810656z" style="fill:rgb(20,59,140)"/><path d="M168.44830735729585,-48.04291964278437L168.04551103502078,-49.89236483907843L38.06176696978845,-16.230892815889227zM69.22531224061099,15.825475364535567L-73.12224829427639,50.7215474721587L-71.12408254040295,50.80295480032091zM169.52067506300887,-36.7187576674001L36.54946591168152,-4.531420714924229L35.738453833679486,-2.5037512989360096zM67.13894420195929,17.049527777890415L-71.12408254040295,50.80295480032091L-69.17834585561948,50.99880521411227z" style="fill:rgb(83,212,212)"/><path d="M-49.41037694988682,66.84485139810656L-54.13696247180063,58.97600386854739L-55.18518219488702,57.72161337031702z" style="fill:rgb(24,55,146)"/><path d="M65.12019440467172,18.35787981778675L-69.17834585561948,50.99880521411227L-67.29244006607061,51.30877365394604zM168.68129286738383,-46.14217586249483L168.44830735729585,-48.04291964278437L38.21172847228599,-14.376336820568467zM169.57904296236686,-34.894072905711276L35.738453833679486,-2.5037512989360096L34.77250238201634,-0.47591540528089205zM63.17641921126878,19.745849049379878L-67.29244006607061,51.30877365394604L-65.4736286626057,51.73211709626551z" style="fill:rgb(83,212,212)"/><path d="M-48.48267272103424,68.18997773215062L-53.209783180839885,60.31865278892723L-54.13696247180063,58.97600386854739z" style="fill:rgb(20,59,140)"/><path d="M166.86188620889354,-55.32680835241071L166.80619877747299,-55.58244528547747L166.34105501064596,-57.04089954800178zM61.31473829026885,21.20849548900984L-65.4736286626057,51.73211709626551L-63.72897177774302,52.26768643169145z" style="fill:rgb(83,212,212)"/><path d="M169.76104040364177,-46.80300792652149L168.44830735729585,-48.04291964278437L171.4128638159136,-39.25613009018416z" style="fill:rgb(247,161,155)"/><path d="M169.63590205681646,-33.116623572678314L34.77250238201634,-0.47591540528089205L33.654991996568974,1.543570930068185zM168.91421447400324,-44.2418514102279L168.68129286738383,-46.14217586249483L38.20131184787083,-12.473380325827458z" style="fill:rgb(83,212,212)"/><path d="M169.76104040364177,-46.80300792652149L166.80619877747299,-55.58244528547747L168.44830735729585,-48.04291964278437z" style="fill:rgb(247,161,155)"/><path d="M59.5420497958419,22.7405945718795L-63.72897177774302,52.26768643169145L-62.065356790564415,52.91391626890272zM169.6294758170433,-31.378310089782257L33.654991996568974,1.543570930068185L32.390017879351305,3.54614899524412zM169.14614995560675,-42.349527664726196L168.91421447400324,-44.2418514102279L38.029683687398816,-10.529535350955094zM57.864947515864806,24.33669995538632L-62.065356790564415,52.91391626890272L-60.489408147857425,53.66884667225323zM169.53613437730496,-29.680630028760266L32.390017879351305,3.54614899524412L30.982366817904246,5.523280449240454zM56.28972698985531,25.991124692845776L-60.489408147857425,53.66884667225323L-59.007486071706666,54.53008802178409zM169.37617378252813,-40.47285142449955L169.14614995560675,-42.349527664726196L37.69667950310292,-8.552568041239107zM169.44669164468564,-28.053974718303788L30.982366817904246,5.523280449240454L29.437534747506884,7.466455228295569zM54.82239285550924,27.697937606079257L-59.007486071706666,54.53008802178409L-57.62568485966371,55.49482905563208zM169.36155092502204,-26.505415461834314L29.437534747506884,7.466455228295569L27.761639402829466,9.36730332693559zM169.46104257586728,-38.58301339760128L169.37617378252813,-40.47285142449955L37.20285790362823,-6.550472042396908zM169.28106377478792,-25.041748981777904L27.761639402829466,9.36730332693559L25.961472084399443,11.217565407957004zM53.46860684265393,29.451029481031817L-57.62568485966371,55.49482905563208L-56.34978058166332,56.55987717849264zM169.1995070186617,-23.667909586242054L25.961472084399443,11.217565407957004L24.04442446654482,13.009183142148286zM169.52067506300887,-36.7187576674001L169.46104257586728,-38.58301339760128L36.54946591168152,-4.531420714924229zM75.81336979678561,12.701547802813167L78.09257213519588,11.855637975597135L-79.35530701143807,51.1615337549709zM78.09257213519588,11.855637975597135L80.39977006467535,11.112950778812701L-81.48674821592944,51.53346692661091zM73.5703798611393,13.647538689466835L75.81336979678561,12.701547802813167L-77.24555430822338,50.90148603344111zM80.39977006467535,11.112950778812701L82.72662904847462,10.476305413734996L-83.63205215695253,52.01569354071967zM52.233668994534575,31.244100698469477L-56.34978058166332,56.55987717849264L-55.18518219488702,57.72161337031702zM71.37171744111662,14.69010204789877L73.5703798611393,13.647538689466835L-75.1652851353398,50.75455174610856z" style="fill:rgb(83,212,212)"/><path d="M171.4128638159136,-39.25613009018416L169.40923766481237,-40.203016916772846L172.38866270046452,-31.41266384755561zM171.4128638159136,-39.25613009018416L168.44830735729585,-48.04291964278437L169.40923766481237,-40.203016916772846z" style="fill:rgb(247,155,161)"/><path d="M69.22531224061099,15.825475364535567L71.37171744111662,14.69010204789877L-73.12224829427639,50.7215474721587zM169.01807067893895,-22.36499987473176L24.04442446654482,13.009183142148286L22.018470568155053,14.734318899341261zM67.13894420195929,17.049527777890415L69.22531224061099,15.825475364535567L-71.12408254040295,50.80295480032091zM168.8513068667681,-21.167612681543226L22.018470568155053,14.734318899341261L19.89209313880216,16.38544797528552zM169.57904296236686,-34.894072905711276L169.52067506300887,-36.7187576674001L35.738453833679486,-2.5037512989360096zM65.12019440467172,18.35787981778675L67.13894420195929,17.049527777890415L-69.17834585561948,50.99880521411227zM51.12251032419595,33.07064033702968L-55.18518219488702,57.72161337031702L-54.13696247180063,58.97600386854739zM168.7000287069187,-20.081145433745355L19.89209313880216,16.38544797528552L17.674316560406385,17.955320542183998zM63.17641921126878,19.745849049379878L65.12019440467172,18.35787981778675L-67.29244006607061,51.30877365394604zM168.56483289620687,-19.110502106789152L17.674316560406385,17.955320542183998L15.374586324899898,19.437075999716214zM168.11219496953743,-15.85999220658834L0.42866195763478354,26.14714619917768L-2.1530200041257794,26.857474928219922zM61.31473829026885,21.20849548900984L63.17641921126878,19.745849049379878L-65.4736286626057,51.73211709626551zM168.44641856412923,-18.260097676173658L15.374586324899898,19.437075999716214L13.002764869163231,20.82424609872929zM168.12158677660676,-15.92756341167946L3.002781094144962,25.313608433615247L0.42866195763478354,26.14714619917768zM169.63590205681646,-33.116623572678314L169.57904296236686,-34.894072905711276L34.77250238201634,-0.47591540528089205zM168.3452822756405,-17.533805569592285L13.002764869163231,20.82424609872929L10.569051718862646,22.11079813309074zM168.1497738046364,-16.129969749537608L5.558227416739267,24.36028171686508L3.002781094144962,25.313608433615247zM168.26188499480187,-16.93495383285899L10.569051718862646,22.11079813309074L8.08395572002234,23.291163778838357zM168.1966076009057,-16.466288794482264L8.08395572002234,23.291163778838357L5.558227416739267,24.36028171686508zM50.139665512839294,34.9240156947684L-54.13696247180063,58.97600386854739L-53.209783180839885,60.31865278892723zM59.5420497958419,22.7405945718795L61.31473829026885,21.20849548900984L-63.72897177774302,52.26768643169145zM57.864947515864806,24.33669995538632L59.5420497958419,22.7405945718795L-62.065356790564415,52.91391626890272zM169.6294758170433,-31.378310089782257L169.63590205681646,-33.116623572678314L33.654991996568974,1.543570930068185zM49.289268392472046,36.797435433956345L-53.209783180839885,60.31865278892723L-52.407882664496846,61.744745338548945zM166.99445844465484,-10.565180925285377L168.11219496953743,-15.85999220658834L-159.19537988243027,66.25749039382664zM56.28972698985531,25.991124692845776L57.864947515864806,24.33669995538632L-60.489408147857425,53.66884667225323zM169.53613437730496,-29.680630028760266L169.6294758170433,-31.378310089782257L32.390017879351305,3.54614899524412zM54.82239285550924,27.697937606079257L56.28972698985531,25.991124692845776L-59.007486071706666,54.53008802178409zM48.574982028193,38.6839962829164L-52.407882664496846,61.744745338548945L-51.73504455682401,63.24911439913169z" style="fill:rgb(83,212,212)"/><path d="M75.16308104162637,23.068118154263814L69.22531224061099,15.825475364535567L73.03429439717097,24.194460915020887z" style="fill:rgb(168,53,222)"/><path d="M77.34410960111929,22.03474024206442L71.37171744111662,14.69010204789877L75.16308104162637,23.068118154263814z" style="fill:rgb(160,49,222)"/><path d="M73.03429439717097,24.194460915020887L67.13894420195929,17.049527777890415L70.96547622382111,25.409668520798405z" style="fill:rgb(175,57,222)"/><path d="M79.56950803280333,21.09805789007374L73.5703798611393,13.647538689466835L77.34410960111929,22.03474024206442z" style="fill:rgb(153,46,222)"/><path d="M70.96547622382111,25.409668520798405L65.12019440467172,18.35787981778675L68.96413475014673,26.70938395556366z" style="fill:rgb(181,61,221)"/><path d="M81.83122394291073,20.261545595135082L75.81336979678561,12.701547802813167L79.56950803280333,21.09805789007374z" style="fill:rgb(146,43,221)"/><path d="M169.44669164468564,-28.053974718303788L169.53613437730496,-29.680630028760266L30.982366817904246,5.523280449240454z" style="fill:rgb(83,212,212)"/><path d="M68.96413475014673,26.70938395556366L63.17641921126878,19.745849049379878L67.03758272824444,28.088957190161082z" style="fill:rgb(188,65,220)"/><path d="M53.46860684265393,29.451029481031817L54.82239285550924,27.697937606079257L-57.62568485966371,55.49482905563208z" style="fill:rgb(83,212,212)"/><path d="M84.1210879077644,19.528316107648884L78.09257213519588,11.855637975597135L81.83122394291073,20.261545595135082z" style="fill:rgb(138,40,220)"/><path d="M172.38866270046452,-31.41266384755561L169.66868510492938,-32.09136863172857L172.66839832034736,-23.301363440573947z" style="fill:rgb(246,149,166)"/><path d="M67.03758272824444,28.088957190161082L61.31473829026885,21.20849548900984L65.19287673815552,29.54347335298545z" style="fill:rgb(194,70,219)"/><path d="M86.43082711338127,18.901154032050812L80.39977006467535,11.112950778812701L84.1210879077644,19.528316107648884z" style="fill:rgb(131,38,218)"/><path d="M172.38866270046452,-31.41266384755561L169.40923766481237,-40.203016916772846L169.66868510492938,-32.09136863172857z" style="fill:rgb(246,149,166)"/><path d="M48.000091365419166,40.57666542453877L-51.73504455682401,63.24911439913169L-51.19463396594477,64.82621148649235z" style="fill:rgb(83,212,212)"/><path d="M65.19287673815552,29.54347335298545L59.5420497958419,22.7405945718795L63.436856543147066,31.067733277014515z" style="fill:rgb(200,75,217)"/><path d="M169.46104257586728,-38.58301339760128L169.40923766481237,-40.203016916772846L169.37617378252813,-40.47285142449955zM169.36155092502204,-26.505415461834314L169.44669164468564,-28.053974718303788L29.437534747506884,7.466455228295569zM52.233668994534575,31.244100698469477L53.46860684265393,29.451029481031817L-56.34978058166332,56.55987717849264z" style="fill:rgb(83,212,212)"/><path d="M63.436856543147066,31.067733277014515L57.864947515864806,24.33669995538632L61.77605805422001,32.65631484082157z" style="fill:rgb(206,80,215)"/><path d="M75.16308104162637,23.068118154263814L71.37171744111662,14.69010204789877L69.22531224061099,15.825475364535567z" style="fill:rgb(168,53,222)"/><path d="M77.34410960111929,22.03474024206442L73.5703798611393,13.647538689466835L71.37171744111662,14.69010204789877z" style="fill:rgb(160,49,222)"/><path d="M73.03429439717097,24.194460915020887L69.22531224061099,15.825475364535567L67.13894420195929,17.049527777890415z" style="fill:rgb(175,57,222)"/><path d="M47.56731418180853,42.468365673913816L-51.19463396594477,64.82621148649235L-50.789432678862525,66.47015097217299z" style="fill:rgb(83,212,212)"/><path d="M79.56950803280333,21.09805789007374L75.81336979678561,12.701547802813167L73.5703798611393,13.647538689466835z" style="fill:rgb(153,46,222)"/><path d="M61.77605805422001,32.65631484082157L56.28972698985531,25.991124692845776L60.216719222097524,34.303554131458846z" style="fill:rgb(212,85,213)"/><path d="M70.96547622382111,25.409668520798405L67.13894420195929,17.049527777890415L65.12019440467172,18.35787981778675z" style="fill:rgb(181,61,221)"/><path d="M169.28106377478792,-25.041748981777904L169.36155092502204,-26.505415461834314L27.761639402829466,9.36730332693559zM51.12251032419595,33.07064033702968L52.233668994534575,31.244100698469477L-55.18518219488702,57.72161337031702z" style="fill:rgb(83,212,212)"/><path d="M81.83122394291073,20.261545595135082L78.09257213519588,11.855637975597135L75.81336979678561,12.701547802813167z" style="fill:rgb(146,43,221)"/><path d="M68.96413475014673,26.70938395556366L65.12019440467172,18.35787981778675L63.17641921126878,19.745849049379878z" style="fill:rgb(188,65,220)"/><path d="M84.1210879077644,19.528316107648884L80.39977006467535,11.112950778812701L78.09257213519588,11.855637975597135z" style="fill:rgb(138,40,220)"/><path d="M67.03758272824444,28.088957190161082L63.17641921126878,19.745849049379878L61.31473829026885,21.20849548900984z" style="fill:rgb(194,70,219)"/><path d="M60.216719222097524,34.303554131458846L54.82239285550924,27.697937606079257L58.764787317030326,36.00354202941035z" style="fill:rgb(217,91,210)"/><path d="M86.43082711338127,18.901154032050812L82.72662904847462,10.476305413734996L80.39977006467535,11.112950778812701z" style="fill:rgb(131,38,218)"/><path d="M65.19287673815552,29.54347335298545L61.31473829026885,21.20849548900984L59.5420497958419,22.7405945718795z" style="fill:rgb(200,75,217)"/><path d="M169.1995070186617,-23.667909586242054L169.28106377478792,-25.041748981777904L25.961472084399443,11.217565407957004zM47.27897194254062,44.35192376237199L-50.789432678862525,66.47015097217299L-50.52179431987051,68.17471598939338zM50.139665512839294,34.9240156947684L51.12251032419595,33.07064033702968L-54.13696247180063,58.97600386854739z" style="fill:rgb(83,212,212)"/><path d="M58.764787317030326,36.00354202941035L53.46860684265393,29.451029481031817L57.425872364895355,37.75019027383807z" style="fill:rgb(222,96,207)"/><path d="M63.436856543147066,31.067733277014515L59.5420497958419,22.7405945718795L57.864947515864806,24.33669995538632z" style="fill:rgb(206,80,215)"/><path d="M169.01807067893895,-22.36499987473176L169.1995070186617,-23.667909586242054L24.04442446654482,13.009183142148286z" style="fill:rgb(83,212,212)"/><path d="M61.77605805422001,32.65631484082157L57.864947515864806,24.33669995538632L56.28972698985531,25.991124692845776z" style="fill:rgb(212,85,213)"/><path d="M57.425872364895355,37.75019027383807L52.233668994534575,31.244100698469477L56.20520381762806,39.53721893579998z" style="fill:rgb(226,102,203)"/><path d="M49.289268392472046,36.797435433956345L50.139665512839294,34.9240156947684L-53.209783180839885,60.31865278892723zM168.8513068667681,-21.167612681543226L169.01807067893895,-22.36499987473176L22.018470568155053,14.734318899341261zM47.13681567442298,46.22014668039808L-50.52179431987051,68.17471598939338L-50.393474390721984,69.93337290752902z" style="fill:rgb(83,212,212)"/><path d="M60.216719222097524,34.303554131458846L56.28972698985531,25.991124692845776L54.82239285550924,27.697937606079257z" style="fill:rgb(217,91,210)"/><path d="M56.20520381762806,39.53721893579998L51.12251032419595,33.07064033702968L55.10767233621412,41.358133441449425z" style="fill:rgb(230,108,199)"/><path d="M168.7000287069187,-20.081145433745355L168.8513068667681,-21.167612681543226L19.89209313880216,16.38544797528552z" style="fill:rgb(83,212,212)"/><path d="M58.764787317030326,36.00354202941035L54.82239285550924,27.697937606079257L53.46860684265393,29.451029481031817z" style="fill:rgb(222,96,207)"/><path d="M48.574982028193,38.6839962829164L49.289268392472046,36.797435433956345L-52.407882664496846,61.744745338548945zM168.56483289620687,-19.110502106789152L168.7000287069187,-20.081145433745355L17.674316560406385,17.955320542183998zM47.142100976739336,48.065841009278586L-50.393474390721984,69.93337290752902L-50.40569740621823,71.73930914862635z" style="fill:rgb(83,212,212)"/><path d="M55.10767233621412,41.358133441449425L50.139665512839294,34.9240156947684L54.137758788498026,43.206326115933145z" style="fill:rgb(234,114,195)"/><path d="M57.425872364895355,37.75019027383807L53.46860684265393,29.451029481031817L52.233668994534575,31.244100698469477z" style="fill:rgb(226,102,203)"/><path d="M170.0711256992529,-1.7944233739236162L82.72662904847462,10.476305413734996L86.43082711338127,18.901154032050812z" style="fill:rgb(127,37,217)"/><path d="M168.44641856412923,-18.260097676173658L168.56483289620687,-19.110502106789152L15.374586324899898,19.437075999716214z" style="fill:rgb(83,212,212)"/><path d="M172.66839832034736,-23.301363440573947L169.20946695350756,-23.73940018786517L172.23496887012587,-14.953745890459588zM172.66839832034736,-23.301363440573947L169.66868510492938,-32.09136863172857L169.20946695350756,-23.73940018786517z" style="fill:rgb(245,143,172)"/><path d="M168.3452822756405,-17.533805569592285L168.44641856412923,-18.260097676173658L13.002764869163231,20.82424609872929zM169.6294758170433,-31.378310089782257L169.66868510492938,-32.09136863172857L169.63590205681646,-33.116623572678314zM48.000091365419166,40.57666542453877L48.574982028193,38.6839962829164L-51.73504455682401,63.24911439913169zM168.26188499480187,-16.93495383285899L168.3452822756405,-17.533805569592285L10.569051718862646,22.11079813309074z" style="fill:rgb(83,212,212)"/><path d="M56.20520381762806,39.53721893579998L52.233668994534575,31.244100698469477L51.12251032419595,33.07064033702968z" style="fill:rgb(230,108,199)"/><path d="M54.137758788498026,43.206326115933145L49.289268392472046,36.797435433956345L53.29952948622004,45.07501471001613z" style="fill:rgb(237,120,191)"/><path d="M168.1966076009057,-16.466288794482264L168.26188499480187,-16.93495383285899L8.08395572002234,23.291163778838357zM168.11219496953743,-15.85999220658834L168.12158677660676,-15.92756341167946L0.42866195763478354,26.14714619917768zM168.1497738046364,-16.129969749537608L168.1966076009057,-16.466288794482264L5.558227416739267,24.36028171686508zM168.12158677660676,-15.92756341167946L168.1497738046364,-16.129969749537608L3.002781094144962,25.313608433615247z" style="fill:rgb(83,212,212)"/><path d="M55.10767233621412,41.358133441449425L51.12251032419595,33.07064033702968L50.139665512839294,34.9240156947684z" style="fill:rgb(234,114,195)"/><path d="M47.56731418180853,42.468365673913816L48.000091365419166,40.57666542453877L-51.19463396594477,64.82621148649235z" style="fill:rgb(83,212,212)"/><path d="M53.29952948622004,45.07501471001613L48.574982028193,38.6839962829164L52.5966113983263,46.95731139867541z" style="fill:rgb(240,125,187)"/><path d="M54.137758788498026,43.206326115933145L50.139665512839294,34.9240156947684L49.289268392472046,36.797435433956345z" style="fill:rgb(237,120,191)"/><path d="M47.27897194254062,44.35192376237199L47.56731418180853,42.468365673913816L-50.789432678862525,66.47015097217299z" style="fill:rgb(83,212,212)"/><path d="M52.5966113983263,46.95731139867541L48.000091365419166,40.57666542453877L52.032234760052106,48.84620519382847z" style="fill:rgb(242,131,182)"/><path d="M53.29952948622004,45.07501471001613L49.289268392472046,36.797435433956345L48.574982028193,38.6839962829164z" style="fill:rgb(240,125,187)"/><path d="M52.032234760052106,48.84620519382847L47.56731418180853,42.468365673913816L51.609070378736256,50.73462458780609z" style="fill:rgb(244,137,177)"/><path d="M47.13681567442298,46.22014668039808L47.27897194254062,44.35192376237199L-50.52179431987051,68.17471598939338z" style="fill:rgb(83,212,212)"/><path d="M52.5966113983263,46.95731139867541L48.574982028193,38.6839962829164L48.000091365419166,40.57666542453877z" style="fill:rgb(242,131,182)"/><path d="M51.609070378736256,50.73462458780609L47.27897194254062,44.35192376237199L51.32939423878693,52.61540606715043z" style="fill:rgb(245,143,172)"/><path d="M47.142100976739336,48.065841009278586L47.13681567442298,46.22014668039808L-50.393474390721984,69.93337290752902z" style="fill:rgb(83,212,212)"/><path d="M172.23496887012587,-14.953745890459588L168.01766514889803,-15.181265264310476L171.0746596299539,-6.404024120186202zM52.032234760052106,48.84620519382847L48.000091365419166,40.57666542453877L47.56731418180853,42.468365673913816z" style="fill:rgb(244,137,177)"/><path d="M169.1995070186617,-23.667909586242054L169.20946695350756,-23.73940018786517L169.28106377478792,-25.041748981777904z" style="fill:rgb(83,212,212)"/><path d="M172.23496887012587,-14.953745890459588L169.20946695350756,-23.73940018786517L168.01766514889803,-15.181265264310476z" style="fill:rgb(244,137,177)"/><path d="M51.32939423878693,52.61540606715043L47.13681567442298,46.22014668039808L51.194914907354885,54.48138235691659z" style="fill:rgb(246,149,166)"/><path d="M51.609070378736256,50.73462458780609L47.56731418180853,42.468365673913816L47.27897194254062,44.35192376237199z" style="fill:rgb(245,143,172)"/><path d="M170.0711256992529,-1.7944233739236162L166.99445844465484,-10.565180925285377L82.72662904847462,10.476305413734996z" style="fill:rgb(127,37,217)"/><path d="M51.194914907354885,54.48138235691659L47.142100976739336,48.065841009278586L51.20684814731624,56.32535483289137z" style="fill:rgb(247,155,161)"/><path d="M51.32939423878693,52.61540606715043L47.27897194254062,44.35192376237199L47.13681567442298,46.22014668039808z" style="fill:rgb(246,149,166)"/><path d="M171.0746596299539,-6.404024120186202L166.99445844465484,-10.565180925285377L170.0711256992529,-1.7944233739236162z" style="fill:rgb(242,131,182)"/><path d="M51.194914907354885,54.48138235691659L47.13681567442298,46.22014668039808L47.142100976739336,48.065841009278586z" style="fill:rgb(247,155,161)"/><path d="M171.0746596299539,-6.404024120186202L168.01766514889803,-15.181265264310476L166.99445844465484,-10.565180925285377z" style="fill:rgb(242,131,182)"/><path d="M166.99445844465484,-10.565180925285377L168.01766514889803,-15.181265264310476L168.11219496953743,-15.85999220658834zM9.31280023915067,132.29985060630187L47.142100976739336,48.065841009278586L-50.40569740621823,71.73930914862635z" style="fill:rgb(83,212,212)"/><path d="M50.12540140093356,116.99273786786708L51.20684814731624,56.32535483289137L47.142100976739336,48.065841009278586z" style="fill:rgb(247,158,158)"/><path d="M9.31280023915067,132.29985060630187L-50.40569740621823,71.73930914862635L-53.514829046869764,140.382657073077z" style="fill:rgb(83,212,212)"/><path d="M-42.76246077443176,148.31271466550047L-53.514829046869764,140.382657073077L-48.43643844381207,148.14490018724322z" style="fill:rgb(94,32,205)"/><path d="M-31.794120598468893,147.99347563563816L-47.80500998872134,140.53116675842747L-42.76246077443176,148.31271466550047z" style="fill:rgb(101,32,208)"/><path d="M-42.76246077443176,148.31271466550047L-47.80500998872134,140.53116675842747L-53.514829046869764,140.382657073077z" style="fill:rgb(94,32,205)"/><path d="M50.12540140093356,116.99273786786708L54.418747494523636,125.16133169486801L51.20684814731624,56.32535483289137z" style="fill:rgb(247,158,158)"/><path d="M-20.580109259844452,147.03250787253896L-36.76387980266845,140.17332249008314L-31.794120598468893,147.99347563563816z" style="fill:rgb(108,33,211)"/><path d="M-31.794120598468893,147.99347563563816L-36.76387980266845,140.17332249008314L-47.80500998872134,140.53116675842747z" style="fill:rgb(101,32,208)"/><path d="M9.31280023915067,132.29985060630187L50.12540140093356,116.99273786786708L47.142100976739336,48.065841009278586z" style="fill:rgb(83,212,212)"/><path d="M-9.178344382715103,145.42713234363814L-25.471886619238738,139.17155960950507L-20.580109259844452,147.03250787253896z" style="fill:rgb(116,34,214)"/><path d="M-20.580109259844452,147.03250787253896L-25.471886619238738,139.17155960950507L-36.76387980266845,140.17332249008314z" style="fill:rgb(108,33,211)"/><path d="M9.31280023915067,132.29985060630187L-53.514829046869764,140.382657073077L-47.80500998872134,140.53116675842747z" style="fill:rgb(83,212,212)"/><path d="M2.350699615239704,143.179116468204L-13.987419654040375,137.5233053022315L-9.178344382715103,145.42713234363814z" style="fill:rgb(123,36,216)"/><path d="M9.31280023915067,132.29985060630187L-47.80500998872134,140.53116675842747L-36.76387980266845,140.17332249008314z" style="fill:rgb(83,212,212)"/><path d="M-9.178344382715103,145.42713234363814L-13.987419654040375,137.5233053022315L-25.471886619238738,139.17155960950507z" style="fill:rgb(116,34,214)"/><path d="M9.31280023915067,132.29985060630187L-36.76387980266845,140.17332249008314L-25.471886619238738,139.17155960950507z" style="fill:rgb(83,212,212)"/><path d="M13.944536143612623,140.29487575055597L-2.3714984693412715,135.23053129666266L2.350699615239704,143.179116468204z" style="fill:rgb(131,38,218)"/><path d="M2.350699615239704,143.179116468204L-2.3714984693412715,135.23053129666266L-13.987419654040375,137.5233053022315z" style="fill:rgb(123,36,216)"/><path d="M25.53924182363152,136.78544838256724L9.31280023915067,132.29985060630187L13.944536143612623,140.29487575055597z" style="fill:rgb(138,40,220)"/><path d="M9.31280023915067,132.29985060630187L-25.471886619238738,139.17155960950507L-13.987419654040375,137.5233053022315z" style="fill:rgb(83,212,212)"/><path d="M13.944536143612623,140.29487575055597L9.31280023915067,132.29985060630187L-2.3714984693412715,135.23053129666266z" style="fill:rgb(131,38,218)"/><path d="M37.07005816439339,132.66658215748467L21.000913262677276,128.7425425979725L25.53924182363152,136.78544838256724z" style="fill:rgb(146,43,221)"/><path d="M9.31280023915067,132.29985060630187L-13.987419654040375,137.5233053022315L-2.3714984693412715,135.23053129666266z" style="fill:rgb(83,212,212)"/><path d="M48.472082278293776,127.95856174756729L32.62741474007369,124.574635070032L37.07005816439339,132.66658215748467z" style="fill:rgb(153,46,222)"/><path d="M25.53924182363152,136.78544838256724L21.000913262677276,128.7425425979725L9.31280023915067,132.29985060630187z" style="fill:rgb(138,40,220)"/><path d="M54.418747494523636,125.16133169486801L44.12669173600777,119.81671471131469L48.472082278293776,127.95856174756729z" style="fill:rgb(160,49,222)"/><path d="M37.07005816439339,132.66658215748467L32.62741474007369,124.574635070032L21.000913262677276,128.7425425979725z" style="fill:rgb(146,43,221)"/><path d="M48.472082278293776,127.95856174756729L44.12669173600777,119.81671471131469L32.62741474007369,124.574635070032z" style="fill:rgb(153,46,222)"/><path d="M54.418747494523636,125.16133169486801L50.12540140093356,116.99273786786708L44.12669173600777,119.81671471131469z" style="fill:rgb(160,49,222)"/><path d="M9.31280023915067,132.29985060630187L21.000913262677276,128.7425425979725L32.62741474007369,124.574635070032zM9.31280023915067,132.29985060630187L32.62741474007369,124.574635070032L44.12669173600777,119.81671471131469zM9.31280023915067,132.29985060630187L44.12669173600777,119.81671471131469L50.12540140093356,116.99273786786708z" style="fill:rgb(83,212,212)"/></svg>
