<?xml version="1.0" encoding="UTF-8"?>
<!-- Generated by jsxcad -->
<!DOCTYPE svg PUBLIC "-//W3C//DTD SVG 1.1 Tiny//EN" "http://www.w3.org/Graphics/SVG/1.1/DTD/svg11-tiny.dtd">
<svg viewBox="-250 -250 500 500" width="500" height="500" xmlns="http://www.w3.org/2000/svg"><path d="M-19.543619483636522,-106.46253279621209L-28.550024708053236,-102.93471481198372L-37.44363019382599,-99.06200241130784zM-1.286808115999503,-112.44144221169L-10.447920420362179,-109.63485611675887L-19.543619483636522,-106.46253279621209zM17.13413010503534,-116.91856597732655L-1.286808115999503,-112.44144221169L-19.543619483636522,-106.46253279621209zM17.13413010503534,-116.91856597732655L7.915447702255572,-114.87248430301962L-1.286808115999503,-112.44144221169zM35.519401991660516,-119.82036382444909L26.344025739446316,-118.57069118491043L17.13413010503534,-116.91856597732655zM-37.44363019382599,-99.06200241130784L-42.09146048475512,-96.82946836711777L-44.2686346428284,-47.98636025780176zM-19.543619483636522,-106.46253279621209L-37.44363019382599,-99.06200241130784L-44.2686346428284,-47.98636025780176zM17.13413010503534,-116.91856597732655L-19.543619483636522,-106.46253279621209L-44.2686346428284,-47.98636025780176zM42.47880548939925,-71.6014828582893L35.519401991660516,-119.82036382444909L17.13413010503534,-116.91856597732655z" style="fill:rgb(83,212,212)"/><path d="M43.82683123432565,-112.10827291796674L40.34664782426319,-120.26480174111812L42.47880548939925,-71.6014828582893z" style="fill:rgb(247,158,158)"/><path d="M42.47880548939925,-71.6014828582893L40.34664782426319,-120.26480174111812L35.519401991660516,-119.82036382444909zM43.31841925010117,-67.25866247492037L17.13413010503534,-116.91856597732655L-44.2686346428284,-47.98636025780176z" style="fill:rgb(83,212,212)"/><path d="M42.47880548939925,-71.6014828582893L46.12578939320511,-63.37666658518917L43.82683123432565,-112.10827291796674z" style="fill:rgb(247,158,158)"/><path d="M43.31841925010117,-67.25866247492037L42.47880548939925,-71.6014828582893L17.13413010503534,-116.91856597732655zM-77.64977187847644,-15.719069017500548L-147.68178514247853,2.936618627957499L-149.5760111690378,6.998402895394333zM-149.5760111690378,6.998402895394333L-152.62906474516294,14.689713964404039L-155.15595496457502,22.415356061228028zM-77.64977187847644,-15.719069017500548L-149.5760111690378,6.998402895394333L-155.15595496457502,22.415356061228028zM48.73207851224015,-60.156359618035005L-44.2686346428284,-47.98636025780176L-45.08494032765229,-43.291561518541414zM-71.35178199858791,-17.853416018951258L-77.64977187847644,-15.719069017500548L-155.15595496457502,22.415356061228028zM48.73207851224015,-60.156359618035005L-45.08494032765229,-43.291561518541414L-47.11002743796871,-38.40497432773472zM48.73207851224015,-60.156359618035005L-47.11002743796871,-38.40497432773472L-50.276459690557004,-33.521274639378696zM45.42369715055747,-63.391504937962736L43.31841925010117,-67.25866247492037L-44.2686346428284,-47.98636025780176z" style="fill:rgb(83,212,212)"/><path d="M43.31841925010117,-67.25866247492037L46.976604915271764,-59.026767600712695L46.12578939320511,-63.37666658518917z" style="fill:rgb(246,167,149)"/><path d="M-155.15595496457502,22.415356061228028L-157.1378099835685,30.150313337140783L-158.55667158482044,37.868443758166975z" style="fill:rgb(83,212,212)"/><path d="M46.12578939320511,-63.37666658518917L42.47880548939925,-71.6014828582893L43.31841925010117,-67.25866247492037z" style="fill:rgb(246,167,149)"/><path d="M48.73207851224015,-60.156359618035005L45.42369715055747,-63.391504937962736L-44.2686346428284,-47.98636025780176zM-155.15595496457502,22.415356061228028L-158.55667158482044,37.868443758166975L-159.63889727442174,53.144133733506685zM-17.338655163177574,-25.044730867939997L48.73207851224015,-60.156359618035005L-50.276459690557004,-33.521274639378696zM-23.09036878208694,-21.179760962228162L-17.338655163177574,-25.044730867939997L-50.276459690557004,-33.521274639378696zM-28.25105419236205,-16.787066244377996L-23.09036878208694,-21.179760962228162L-50.276459690557004,-33.521274639378696zM-32.681069951187034,-11.980204875228976L-28.25105419236205,-16.787066244377996L-50.276459690557004,-33.521274639378696z" style="fill:rgb(83,212,212)"/><path d="M-17.338655163177574,-25.044730867939997L-13.185131031029306,-17.03949718573911L-7.041609285192037,-20.25279728699389z" style="fill:rgb(167,52,222)"/><path d="M-11.14846486753956,-28.281922478435106L-7.041609285192037,-20.25279728699389L-0.6208033194167372,-22.75202061510711z" style="fill:rgb(147,43,221)"/><path d="M-23.09036878208694,-21.179760962228162L-18.889934729125688,-13.196425073356986L-13.185131031029306,-17.03949718573911z" style="fill:rgb(185,63,221)"/><path d="M-50.276459690557004,-33.521274639378696L-36.25682729151667,-6.884287439371061L-32.681069951187034,-11.980204875228976z" style="fill:rgb(83,212,212)"/><path d="M-4.682343717341209,-30.806465252710257L-0.6208033194167372,-22.75202061510711L5.908896812378673,-24.4696880843727z" style="fill:rgb(127,37,217)"/><path d="M-28.25105419236205,-16.787066244377996L-24.004601667529375,-8.823136667461075L-18.889934729125688,-13.196425073356986z" style="fill:rgb(202,76,217)"/><path d="M-7.041609285192037,-20.25279728699389L-11.14846486753956,-28.281922478435106L-17.338655163177574,-25.044730867939997z" style="fill:rgb(167,52,222)"/><path d="M-158.55667158482044,37.868443758166975L-159.39559792470405,45.54249514873452L-159.63889727442174,53.144133733506685z" style="fill:rgb(83,212,212)"/><path d="M-13.185131031029306,-17.03949718573911L-17.338655163177574,-25.044730867939997L-23.09036878208694,-21.179760962228162z" style="fill:rgb(185,63,221)"/><path d="M-0.6208033194167372,-22.75202061510711L-4.682343717341209,-30.806465252710257L-11.14846486753956,-28.281922478435106z" style="fill:rgb(147,43,221)"/><path d="M1.8902483208977916,-32.55025079911902L5.908896812378673,-24.4696880843727L12.375206127712188,-25.35658501635163z" style="fill:rgb(107,33,211)"/><path d="M-50.276459690557004,-33.521274639378696L-38.87380503270334,-1.6338190304799713L-36.25682729151667,-6.884287439371061zM-50.276459690557004,-33.521274639378696L-54.46667496076675,-28.839199210380677L-82.87110155025701,53.23076738164249z" style="fill:rgb(83,212,212)"/><path d="M-18.889934729125688,-13.196425073356986L-23.09036878208694,-21.179760962228162L-28.25105419236205,-16.787066244377996z" style="fill:rgb(202,76,217)"/><path d="M-32.681069951187034,-11.980204875228976L-28.390652635485004,-4.032758797644562L-24.004601667529375,-8.823136667461075z" style="fill:rgb(217,91,210)"/><path d="M5.908896812378673,-24.4696880843727L1.8902483208977916,-32.55025079911902L-4.682343717341209,-30.806465252710257z" style="fill:rgb(127,37,217)"/><path d="M-17.338655163177574,-25.044730867939997L-11.14846486753956,-28.281922478435106L48.73207851224015,-60.156359618035005zM-11.14846486753956,-28.281922478435106L-4.682343717341209,-30.806465252710257L48.73207851224015,-60.156359618035005zM-54.46667496076675,-28.839199210380677L-59.51674712894327,-24.552156598853426L-82.87110155025701,53.23076738164249zM-71.35178199858791,-17.853416018951258L-155.15595496457502,22.415356061228028L-82.87110155025701,53.23076738164249zM-4.682343717341209,-30.806465252710257L1.8902483208977916,-32.55025079911902L48.73207851224015,-60.156359618035005z" style="fill:rgb(83,212,212)"/><path d="M8.395997847194394,-33.463379110190225L12.375206127712188,-25.35658501635163L18.605292657111047,-25.38313668165623z" style="fill:rgb(87,32,202)"/><path d="M-24.004601667529375,-8.823136667461075L-28.25105419236205,-16.787066244377996L-32.681069951187034,-11.980204875228976z" style="fill:rgb(217,91,210)"/><path d="M-59.51674712894327,-24.552156598853426L-65.2231143984647,-20.838695014769126L-82.87110155025701,53.23076738164249zM-65.2231143984647,-20.838695014769126L-71.35178199858791,-17.853416018951258L-82.87110155025701,53.23076738164249zM-50.276459690557004,-33.521274639378696L-40.44966058785402,3.6298314079365372L-38.87380503270334,-1.6338190304799713z" style="fill:rgb(83,212,212)"/><path d="M12.375206127712188,-25.35658501635163L8.395997847194394,-33.463379110190225L1.8902483208977916,-32.55025079911902z" style="fill:rgb(107,33,211)"/><path d="M1.8902483208977916,-32.55025079911902L8.395997847194394,-33.463379110190225L48.73207851224015,-60.156359618035005z" style="fill:rgb(83,212,212)"/><path d="M-36.25682729151667,-6.884287439371061L-31.925655955612594,1.0499585911592935L-28.390652635485004,-4.032758797644562zM-28.390652635485004,-4.032758797644562L-32.681069951187034,-11.980204875228976L-36.25682729151667,-6.884287439371061z" style="fill:rgb(229,106,201)"/><path d="M8.395997847194394,-33.463379110190225L14.661098750772323,-33.515546487513646L48.73207851224015,-60.156359618035005z" style="fill:rgb(83,212,212)"/><path d="M14.661098750772323,-33.515546487513646L18.605292657111047,-25.38313668165623L24.42925271187777,-24.540648022540697z" style="fill:rgb(69,33,191)"/><path d="M-50.276459690557004,-33.521274639378696L-40.92727566761631,8.761404769815181L-40.44966058785402,3.6298314079365372z" style="fill:rgb(83,212,212)"/><path d="M18.605292657111047,-25.38313668165623L14.661098750772323,-33.515546487513646L8.395997847194394,-33.463379110190225z" style="fill:rgb(87,32,202)"/><path d="M-38.87380503270334,-1.6338190304799713L-34.50623197217914,6.290806242253843L-31.925655955612594,1.0499585911592935z" style="fill:rgb(238,122,189)"/><path d="M14.661098750772323,-33.515546487513646L20.51473503792908,-32.697302232041665L48.73207851224015,-60.156359618035005z" style="fill:rgb(83,212,212)"/><path d="M-31.925655955612594,1.0499585911592935L-36.25682729151667,-6.884287439371061L-38.87380503270334,-1.6338190304799713z" style="fill:rgb(238,122,189)"/><path d="M-50.276459690557004,-33.521274639378696L-40.27760144373456,13.615158554594204L-40.92727566761631,8.761404769815181z" style="fill:rgb(83,212,212)"/><path d="M24.42925271187777,-24.540648022540697L20.51473503792908,-32.697302232041665L14.661098750772323,-33.515546487513646z" style="fill:rgb(69,33,191)"/><path d="M20.51473503792908,-32.697302232041665L24.42925271187777,-24.540648022540697L29.68397026137745,-22.842351940678824z" style="fill:rgb(52,37,178)"/><path d="M-155.15595496457502,22.415356061228028L-159.63889727442174,53.144133733506685L-82.87110155025701,53.23076738164249zM20.51473503792908,-32.697302232041665L25.7929526537143,-31.02111926951372L48.73207851224015,-60.156359618035005z" style="fill:rgb(83,212,212)"/><path d="M-40.44966058785402,3.6298314079365372L-36.05113441807569,11.548644114948893L-34.50623197217914,6.290806242253843zM-34.50623197217914,6.290806242253843L-38.87380503270334,-1.6338190304799713L-40.44966058785402,3.6298314079365372z" style="fill:rgb(244,138,176)"/><path d="M25.7929526537143,-31.02111926951372L30.342726329014138,-28.522189082437066L48.73207851224015,-60.156359618035005z" style="fill:rgb(83,212,212)"/><path d="M29.68397026137745,-22.842351940678824L25.7929526537143,-31.02111926951372L20.51473503792908,-32.697302232041665z" style="fill:rgb(52,37,178)"/><path d="M25.7929526537143,-31.02111926951372L29.68397026137745,-22.842351940678824L34.21715051430835,-20.324177079049086z" style="fill:rgb(37,44,163)"/><path d="M-159.63889727442174,53.144133733506685L-159.27228486595484,60.643965297304824L-158.28317467868274,68.01159272589702z" style="fill:rgb(83,212,212)"/><path d="M-40.92727566761631,8.761404769815181L-36.50426116082553,16.67837514433338L-36.05113441807569,11.548644114948893zM-36.05113441807569,11.548644114948893L-40.44966058785402,3.6298314079365372L-40.92727566761631,8.761404769815181z" style="fill:rgb(247,154,162)"/><path d="M34.21715051430835,-20.324177079049086L30.342726329014138,-28.522189082437066L25.7929526537143,-31.02111926951372z" style="fill:rgb(37,44,163)"/><path d="M-50.276459690557004,-33.521274639378696L-69.88355669444957,52.06409112630705L-40.27760144373456,13.615158554594204z" style="fill:rgb(83,212,212)"/><path d="M30.342726329014138,-28.522189082437066L34.21715051430835,-20.324177079049086L37.89181505331087,-17.04511826329759z" style="fill:rgb(25,53,148)"/><path d="M-40.27760144373456,13.615158554594204L-35.83746178496726,21.534351983466063L-36.50426116082553,16.67837514433338zM-36.50426116082553,16.67837514433338L-40.92727566761631,8.761404769815181L-40.27760144373456,13.615158554594204z" style="fill:rgb(246,169,146)"/><path d="M37.89181505331087,-17.04511826329759L34.02646237476981,-25.258821900897903L30.342726329014138,-28.522189082437066z" style="fill:rgb(25,53,148)"/><path d="M-50.276459690557004,-33.521274639378696L-82.87110155025701,53.23076738164249L-76.22933210226674,52.09603428300295z" style="fill:rgb(83,212,212)"/><path d="M34.02646237476981,-25.258821900897903L37.89181505331087,-17.04511826329759L40.59078949324857,-13.087027650508581z" style="fill:rgb(16,65,132)"/><path d="M-159.63889727442174,53.144133733506685L-158.28317467868274,68.01159272589702L-82.87110155025701,53.23076738164249zM-50.276459690557004,-33.521274639378696L-76.22933210226674,52.09603428300295L-69.88355669444957,52.06409112630705z" style="fill:rgb(83,212,212)"/><path d="M-38.50217333582138,18.048763975481975L-34.052995085585216,25.97426244879336L-35.83746178496726,21.534351983466063z" style="fill:rgb(242,183,130)"/><path d="M-157.4254234844729,71.8203873382381L-152.09347671479273,79.27618357689693L-78.02186251556604,60.97402574825523z" style="fill:rgb(127,37,217)"/><path d="M-35.83746178496726,21.534351983466063L-40.27760144373456,13.615158554594204L-38.50217333582138,18.048763975481975z" style="fill:rgb(242,183,130)"/><path d="M40.59078949324857,-13.087027650508581L36.72652653614996,-21.312276992986845L34.02646237476981,-25.258821900897903z" style="fill:rgb(16,65,132)"/><path d="M-158.28317467868274,68.01159272589702L-157.4254234844729,71.8203873382381L-82.87110155025701,53.23076738164249z" style="fill:rgb(83,212,212)"/><path d="M-78.02186251556604,60.97402574825523L-82.87110155025701,53.23076738164249L-157.4254234844729,71.8203873382381z" style="fill:rgb(127,37,217)"/><path d="M-69.88355669444957,52.06409112630705L-38.50217333582138,18.048763975481975L-40.27760144373456,13.615158554594204z" style="fill:rgb(83,212,212)"/><path d="M-82.87110155025701,53.23076738164249L-78.02186251556604,60.97402574825523L-71.4217958225188,59.864879290484915z" style="fill:rgb(115,34,214)"/><path d="M-69.88355669444957,52.06409112630705L-35.63491855762451,21.92757036185084L-38.50217333582138,18.048763975481975zM111.8341520039854,27.20611258244393L53.13160088447672,-57.689263869654305L48.73207851224015,-60.156359618035005zM162.03385019062574,-68.28944132509505L158.49462825003252,-74.78670581626716L156.30235466681555,-78.04110505128752z" style="fill:rgb(83,212,212)"/><path d="M-76.22933210226674,52.09603428300295L-71.4217958225188,59.864879290484915L-65.1113622530388,59.85684319770791z" style="fill:rgb(92,32,204)"/><path d="M-71.4217958225188,59.864879290484915L-76.22933210226674,52.09603428300295L-82.87110155025701,53.23076738164249z" style="fill:rgb(115,34,214)"/><path d="M111.8341520039854,27.20611258244393L58.462770401261224,-56.09892862669416L53.13160088447672,-57.689263869654305zM-69.88355669444957,52.06409112630705L-31.743177117765494,25.129197587982187L-35.63491855762451,21.92757036185084z" style="fill:rgb(83,212,212)"/><path d="M-69.88355669444957,52.06409112630705L-65.1113622530388,59.85684319770791L-59.32129077511498,60.960162834255975z" style="fill:rgb(71,33,192)"/><path d="M111.8341520039854,27.20611258244393L64.52310970293573,-55.46049536333384L58.462770401261224,-56.09892862669416z" style="fill:rgb(83,212,212)"/><path d="M-65.1113622530388,59.85684319770791L-69.88355669444957,52.06409112630705L-76.22933210226674,52.09603428300295z" style="fill:rgb(92,32,204)"/><path d="M-69.88355669444957,52.06409112630705L-26.92762022341404,27.54822961124673L-31.743177117765494,25.129197587982187zM111.8341520039854,27.20611258244393L71.0743071888101,-55.81037714182623L64.52310970293573,-55.46049536333384zM-69.88355669444957,52.06409112630705L-21.32075428626658,29.100768848167498L-26.92762022341404,27.54822961124673z" style="fill:rgb(83,212,212)"/><path d="M-59.32129077511498,60.960162834255975L-64.0657458680548,53.146155922688415L-69.88355669444957,52.06409112630705z" style="fill:rgb(71,33,192)"/><path d="M-64.0657458680548,53.146155922688415L-59.32129077511498,60.960162834255975L-54.269325006421155,63.147140511704485z" style="fill:rgb(51,38,177)"/><path d="M111.8341520039854,27.20611258244393L77.85221691210906,-57.14293167092305L71.0743071888101,-55.81037714182623z" style="fill:rgb(83,212,212)"/><path d="M-54.269325006421155,63.147140511704485L-58.994706050682524,55.31545115273832L-64.0657458680548,53.146155922688415z" style="fill:rgb(51,38,177)"/><path d="M-58.994706050682524,55.31545115273832L-54.269325006421155,63.147140511704485L-50.15257374967101,66.35107146792822z" style="fill:rgb(34,46,160)"/><path d="M167.2687894881696,-54.20795735116174L170.21628074119283,-45.45041653445146L167.91038789136303,-52.67631977805051zM167.91038789136303,-52.67631977805051L164.96755639977889,-61.4230673694723L167.2687894881696,-54.20795735116174z" style="fill:rgb(246,166,149)"/><path d="M167.2687894881696,-54.20795735116174L164.96755639977889,-61.4230673694723L162.03385019062574,-68.28944132509505zM156.30235466681555,-78.04110505128752L77.85221691210906,-57.14293167092305L121.48863221617698,27.05103814882799z" style="fill:rgb(83,212,212)"/><path d="M-50.15257374967101,66.35107146792822L-54.868393363766565,58.50611518928114L-58.994706050682524,55.31545115273832z" style="fill:rgb(34,46,160)"/><path d="M30.342726329014138,-28.522189082437066L130.25606707834325,59.50452075262414L48.73207851224015,-60.156359618035005z" style="fill:rgb(83,212,212)"/><path d="M-54.868393363766565,58.50611518928114L-50.15257374967101,66.35107146792822L-47.1397722424733,70.46636112359337zM-47.1397722424733,70.46636112359337L-51.856129095822354,62.61325967856274L-54.868393363766565,58.50611518928114z" style="fill:rgb(21,57,142)"/><path d="M168.91245942029457,-46.66720305681765L171.86956450490698,-37.90249893898323L170.21628074119283,-45.45041653445146zM170.21628074119283,-45.45041653445146L167.2687894881696,-54.20795735116174L168.91245942029457,-46.66720305681765z" style="fill:rgb(247,161,155)"/><path d="M169.8757264262782,-38.826672777112485L167.2687894881696,-54.20795735116174L162.03385019062574,-68.28944132509505zM30.342726329014138,-28.522189082437066L34.02646237476981,-25.258821900897903L130.25606707834325,59.50452075262414zM162.03385019062574,-68.28944132509505L156.30235466681555,-78.04110505128752L121.48863221617698,27.05103814882799zM34.02646237476981,-25.258821900897903L36.72652653614996,-21.312276992986845L130.25606707834325,59.50452075262414z" style="fill:rgb(83,212,212)"/><path d="M169.8757264262782,-38.826672777112485L172.8476248066209,-30.058583565147643L171.86956450490698,-37.90249893898323zM171.86956450490698,-37.90249893898323L168.91245942029457,-46.66720305681765L169.8757264262782,-38.826672777112485z" style="fill:rgb(247,155,161)"/><path d="M169.8757264262782,-38.826672777112485L168.91245942029457,-46.66720305681765L167.2687894881696,-54.20795735116174zM36.72652653614996,-21.312276992986845L38.34984215394616,-16.785889514408932L130.25606707834325,59.50452075262414zM-69.88355669444957,52.06409112630705L72.06531702684566,65.28912498575832L-21.32075428626658,29.100768848167498zM38.34984215394616,-16.785889514408932L38.83225059139201,-11.80332573883395L130.25606707834325,59.50452075262414zM-69.88355669444957,52.06409112630705L-64.0657458680548,53.146155922688415L72.06531702684566,65.28912498575832zM72.06531702684566,65.28912498575832L-15.083929449069657,29.728504423100823L-21.32075428626658,29.100768848167498zM166.56771163834702,-5.081158953064583L169.8757264262782,-38.826672777112485L162.03385019062574,-68.28944132509505z" style="fill:rgb(83,212,212)"/><path d="M170.138391294844,-30.715004983467363L173.13042933443583,-21.947430368689687L172.8476248066209,-30.058583565147643zM172.8476248066209,-30.058583565147643L169.8757264262782,-38.826672777112485L170.138391294844,-30.715004983467363z" style="fill:rgb(246,149,166)"/><path d="M111.13142029963527,25.09324593951142L113.69814618431725,23.418234737498075L77.85221691210906,-57.14293167092305zM-64.0657458680548,53.146155922688415L-58.994706050682524,55.31545115273832L72.06531702684566,65.28912498575832zM38.83225059139201,-11.80332573883395L38.1423379663383,-6.50589303264657L130.25606707834325,59.50452075262414zM77.85221691210906,-57.14293167092305L113.69814618431725,23.418234737498075L115.9951797064788,24.489368310422364zM72.06531702684566,65.28912498575832L-8.402853315470782,29.40207431215833L-15.083929449069657,29.728504423100823zM111.8341520039854,27.20611258244393L111.13142029963527,25.09324593951142L77.85221691210906,-57.14293167092305zM72.06531702684566,65.28912498575832L-1.4815800667158963,28.123326382015275L-8.402853315470782,29.40207431215833zM72.06531702684566,65.28912498575832L25.72613795097104,13.211445265188518L24.30832587493201,14.623329852078685zM38.1423379663383,-6.50589303264657L36.28443535059035,-1.0488162347799341L130.25606707834325,59.50452075262414zM72.06531702684566,65.28912498575832L24.30832587493201,14.623329852078685L18.565364173594947,19.0684047657891zM72.06531702684566,65.28912498575832L5.464728590674375,25.926219782223928L-1.4815800667158963,28.123326382015275zM119.63167510740601,30.873972256411914L77.85221691210906,-57.14293167092305L115.9951797064788,24.489368310422364zM72.06531702684566,65.28912498575832L18.565364173594947,19.0684047657891L12.217919558958409,22.87627497545455zM72.06531702684566,65.28912498575832L12.217919558958409,22.87627497545455L5.464728590674375,25.926219782223928zM118.90690514579356,28.738606561264568L121.48863221617698,27.05103814882799L77.85221691210906,-57.14293167092305zM119.63167510740601,30.873972256411914L118.90690514579356,28.738606561264568L77.85221691210906,-57.14293167092305zM36.28443535059035,-1.0488162347799341L33.30035604071822,4.403443537564559L130.25606707834325,59.50452075262414z" style="fill:rgb(83,212,212)"/><path d="M130.25606707834325,59.50452075262414L29.092048849754484,9.859608054454426L33.11747629319797,18.051358617786388z" style="fill:rgb(42,41,169)"/><path d="M169.68323785095117,-22.363649851122112L172.70096230820076,-13.60057888628762L173.13042933443583,-21.947430368689687zM173.13042933443583,-21.947430368689687L170.138391294844,-30.715004983467363L169.68323785095117,-22.363649851122112z" style="fill:rgb(245,143,172)"/><path d="M169.68323785095117,-22.363649851122112L170.138391294844,-30.715004983467363L169.8757264262782,-38.826672777112485zM33.30035604071822,4.403443537564559L29.2696702630324,9.682731867995741L130.25606707834325,59.50452075262414zM29.2696702630324,9.682731867995741L29.092048849754484,9.859608054454426L130.25606707834325,59.50452075262414zM130.25606707834325,59.50452075262414L111.8341520039854,27.20611258244393L48.73207851224015,-60.156359618035005z" style="fill:rgb(83,212,212)"/><path d="M168.49638060458446,-13.806763562725306L171.54544985634152,-5.052245979099292L172.70096230820076,-13.60057888628762zM172.70096230820076,-13.60057888628762L169.68323785095117,-22.363649851122112L168.49638060458446,-13.806763562725306z" style="fill:rgb(244,137,177)"/><path d="M166.56771163834702,-5.081158953064583L169.68323785095117,-22.363649851122112L169.8757264262782,-38.826672777112485zM162.03385019062574,-68.28944132509505L121.48863221617698,27.05103814882799L123.81706551770279,28.136816656761653zM-58.994706050682524,55.31545115273832L-54.868393363766565,58.50611518928114L67.13426355105237,109.92669408281293zM-54.868393363766565,58.50611518928114L-51.856129095822354,62.61325967856274L67.13426355105237,109.92669408281293z" style="fill:rgb(83,212,212)"/><path d="M166.56771163834702,-5.081158953064583L169.65387745373062,3.6607384322389556L171.54544985634152,-5.052245979099292z" style="fill:rgb(242,131,182)"/><path d="M-50.09059862571046,67.49424944039232L-49.660329735458426,72.97187605290695L-24.705577782083612,140.40298922964087z" style="fill:rgb(83,212,212)"/><path d="M171.54544985634152,-5.052245979099292L168.49638060458446,-13.806763562725306L166.56771163834702,-5.081158953064583z" style="fill:rgb(242,131,182)"/><path d="M166.56771163834702,-5.081158953064583L168.49638060458446,-13.806763562725306L169.68323785095117,-22.363649851122112z" style="fill:rgb(83,212,212)"/><path d="M121.16549355414551,42.05930195207681L122.28822204538469,39.72594792872011L115.9951797064788,24.489368310422364z" style="fill:rgb(234,114,195)"/><path d="M-51.856129095822354,62.61325967856274L-50.09059862571046,67.49424944039232L67.13426355105237,109.92669408281293zM130.25606707834325,59.50452075262414L166.56771163834702,-5.081158953064583L162.03385019062574,-68.28944132509505z" style="fill:rgb(83,212,212)"/><path d="M118.1927317982237,42.409639871018825L121.16549355414551,42.05930195207681L114.84554307746883,26.83452664699331z" style="fill:rgb(108,33,211)"/><path d="M71.44038671415875,63.05826740145025L74.05986879492002,61.344967906677624L25.72613795097104,13.211445265188518zM25.72613795097104,13.211445265188518L74.05986879492002,61.344967906677624L76.31204460387713,62.510142606429454z" style="fill:rgb(83,212,212)"/><path d="M111.13142029963527,25.09324593951142L114.68578439041977,33.59543701355606L117.22993713736862,31.931773461077366z" style="fill:rgb(181,61,221)"/><path d="M72.06531702684566,65.28912498575832L71.44038671415875,63.05826740145025L25.72613795097104,13.211445265188518z" style="fill:rgb(83,212,212)"/><path d="M117.22993713736862,31.931773461077366L119.5147510164065,33.01087375635908L115.9951797064788,24.489368310422364z" style="fill:rgb(42,41,169)"/><path d="M111.8341520039854,27.20611258244393L115.39038930512338,35.7091626846593L114.68578439041977,33.59543701355606z" style="fill:rgb(245,172,143)"/><path d="M130.25606707834325,59.50452075262414L162.03385019062574,-68.28944132509505L123.81706551770279,28.136816656761653z" style="fill:rgb(83,212,212)"/><path d="M117.22993713736862,31.931773461077366L113.69814618431725,23.418234737498075L111.13142029963527,25.09324593951142z" style="fill:rgb(181,61,221)"/><path d="M163.8911620510535,3.7738468162360577L167.02023119730143,12.499075409254354L169.65387745373062,3.6607384322389556z" style="fill:rgb(240,125,187)"/><path d="M114.84554307746883,26.83452664699331L111.8341520039854,27.20611258244393L118.1927317982237,42.409639871018825z" style="fill:rgb(108,33,211)"/><path d="M115.9951797064788,24.489368310422364L113.69814618431725,23.418234737498075L117.22993713736862,31.931773461077366z" style="fill:rgb(42,41,169)"/><path d="M115.9951797064788,24.489368310422364L114.84554307746883,26.83452664699331L121.16549355414551,42.05930195207681z" style="fill:rgb(234,114,195)"/><path d="M114.68578439041977,33.59543701355606L111.13142029963527,25.09324593951142L111.8341520039854,27.20611258244393z" style="fill:rgb(245,172,143)"/><path d="M169.65387745373062,3.6607384322389556L166.56771163834702,-5.081158953064583L163.8911620510535,3.7738468162360577z" style="fill:rgb(240,125,187)"/><path d="M85.23390600786006,70.23280392511622L25.72613795097104,13.211445265188518L76.31204460387713,62.510142606429454z" style="fill:rgb(83,212,212)"/><path d="M128.9160923035028,45.77547450941105L130.03440299682993,43.420711413848636L123.81706551770279,28.136816656761653z" style="fill:rgb(234,114,195)"/><path d="M125.91531970004036,46.12431360741006L128.9160923035028,45.77547450941105L122.67184881166163,30.503710934916167z" style="fill:rgb(108,33,211)"/><path d="M111.8341520039854,27.20611258244393L113.69814618431725,23.418234737498075L111.13142029963527,25.09324593951142z" style="fill:rgb(83,212,212)"/><path d="M118.90690514579356,28.738606561264568L122.41978229985085,37.26748569021327L124.97867014490578,35.591443778004695z" style="fill:rgb(181,61,221)"/><path d="M111.8341520039854,27.20611258244393L115.9951797064788,24.489368310422364L113.69814618431725,23.418234737498075z" style="fill:rgb(83,212,212)"/><path d="M163.64284587237444,21.42117879823775L167.02023119730143,12.499075409254354L163.8911620510535,3.7738468162360577z" style="fill:rgb(237,120,191)"/><path d="M124.97867014490578,35.591443778004695L127.29445321276359,36.685170705467904L123.81706551770279,28.136816656761653z" style="fill:rgb(42,41,169)"/><path d="M85.23390600786006,70.23280392511622L87.88167411292679,68.49575251404472L25.72613795097104,13.211445265188518zM111.8341520039854,27.20611258244393L114.84554307746883,26.83452664699331L115.9951797064788,24.489368310422364z" style="fill:rgb(83,212,212)"/><path d="M119.63167510740601,30.873972256411914L123.14616035829548,39.40358485554622L122.41978229985085,37.26748569021327z" style="fill:rgb(245,172,143)"/><path d="M25.72613795097104,13.211445265188518L87.88167411292679,68.49575251404472L90.19059454606808,69.69028434172237z" style="fill:rgb(83,212,212)"/><path d="M33.11747629319797,18.051358617786388L133.7830127575594,68.03964801769618L130.25606707834325,59.50452075262414z" style="fill:rgb(42,41,169)"/><path d="M124.97867014490578,35.591443778004695L121.48863221617698,27.05103814882799L118.90690514579356,28.738606561264568z" style="fill:rgb(181,61,221)"/><path d="M122.67184881166163,30.503710934916167L119.63167510740601,30.873972256411914L125.91531970004036,46.12431360741006z" style="fill:rgb(108,33,211)"/><path d="M123.81706551770279,28.136816656761653L121.48863221617698,27.05103814882799L124.97867014490578,35.591443778004695z" style="fill:rgb(42,41,169)"/><path d="M123.81706551770279,28.136816656761653L122.67184881166163,30.503710934916167L128.9160923035028,45.77547450941105z" style="fill:rgb(234,114,195)"/><path d="M119.63167510740601,30.873972256411914L115.9951797064788,24.489368310422364L114.84554307746883,26.83452664699331z" style="fill:rgb(83,212,212)"/><path d="M122.41978229985085,37.26748569021327L118.90690514579356,28.738606561264568L119.63167510740601,30.873972256411914z" style="fill:rgb(245,172,143)"/><path d="M119.63167510740601,30.873972256411914L114.84554307746883,26.83452664699331L111.8341520039854,27.20611258244393zM160.46506387953167,12.7166094684994L163.8911620510535,3.7738468162360577L166.56771163834702,-5.081158953064583z" style="fill:rgb(83,212,212)"/><path d="M163.8911620510535,3.7738468162360577L160.46506387953167,12.7166094684994L163.64284587237444,21.42117879823775z" style="fill:rgb(237,120,191)"/><path d="M-58.994706050682524,55.31545115273832L67.13426355105237,109.92669408281293L72.06531702684566,65.28912498575832zM119.63167510740601,30.873972256411914L121.48863221617698,27.05103814882799L118.90690514579356,28.738606561264568z" style="fill:rgb(83,212,212)"/><path d="M82.10484411412209,79.83104723139974L83.30564811598994,77.40298555241272L76.31204460387713,62.510142606429454zM159.5247414858199,30.383412307498077L163.64284587237444,21.42117879823775L160.46506387953167,12.7166094684994z" style="fill:rgb(234,114,195)"/><path d="M119.63167510740601,30.873972256411914L123.81706551770279,28.136816656761653L121.48863221617698,27.05103814882799z" style="fill:rgb(83,212,212)"/><path d="M79.1271296194702,80.14728571804632L82.10484411412209,79.83104723139974L75.08159438071289,64.95220016547799z" style="fill:rgb(108,33,211)"/><path d="M119.63167510740601,30.873972256411914L122.67184881166163,30.503710934916167L123.81706551770279,28.136816656761653zM-49.660329735458426,72.97187605290695L-52.71935254358669,141.59853192801407L-47.015132722517684,141.75008919810693z" style="fill:rgb(83,212,212)"/><path d="M71.44038671415875,63.05826740145025L75.3869007758482,71.36957339543295L77.98288747409704,69.6681852033076z" style="fill:rgb(181,61,221)"/><path d="M107.51175262919385,81.88271802779782L25.72613795097104,13.211445265188518L90.19059454606808,69.69028434172237z" style="fill:rgb(83,212,212)"/><path d="M77.98288747409704,69.6681852033076L80.2238269140792,70.84026304917597L76.31204460387713,62.510142606429454z" style="fill:rgb(42,41,169)"/><path d="M151.38136197010348,30.688656723171498L160.46506387953167,12.7166094684994L166.56771163834702,-5.081158953064583zM124.69360960220206,65.66023688109554L126.82405927713819,63.302568428641614L25.72613795097104,13.211445265188518z" style="fill:rgb(83,212,212)"/><path d="M72.06531702684566,65.28912498575832L76.01526495462899,73.59987529602118L75.3869007758482,71.36957339543295z" style="fill:rgb(245,172,143)"/><path d="M77.98288747409704,69.6681852033076L74.05986879492002,61.344967906677624L71.44038671415875,63.05826740145025z" style="fill:rgb(181,61,221)"/><path d="M160.46506387953167,12.7166094684994L156.2924735478903,21.703391489998946L159.5247414858199,30.383412307498077z" style="fill:rgb(234,114,195)"/><path d="M75.08159438071289,64.95220016547799L72.06531702684566,65.28912498575832L79.1271296194702,80.14728571804632z" style="fill:rgb(108,33,211)"/><path d="M76.31204460387713,62.510142606429454L74.05986879492002,61.344967906677624L77.98288747409704,69.6681852033076z" style="fill:rgb(42,41,169)"/><path d="M76.31204460387713,62.510142606429454L75.08159438071289,64.95220016547799L82.10484411412209,79.83104723139974z" style="fill:rgb(234,114,195)"/><path d="M75.3869007758482,71.36957339543295L71.44038671415875,63.05826740145025L72.06531702684566,65.28912498575832z" style="fill:rgb(245,172,143)"/><path d="M-49.660329735458426,72.97187605290695L-47.015132722517684,141.75008919810693L-24.705577782083612,140.40298922964087z" style="fill:rgb(83,212,212)"/><path d="M154.67376458577223,39.34038220781296L159.5247414858199,30.383412307498077L156.2924735478903,21.703391489998946z" style="fill:rgb(230,108,199)"/><path d="M107.51175262919385,81.88271802779782L124.69360960220206,65.66023688109554L25.72613795097104,13.211445265188518zM72.06531702684566,65.28912498575832L74.05986879492002,61.344967906677624L71.44038671415875,63.05826740145025zM72.06531702684566,65.28912498575832L76.31204460387713,62.510142606429454L74.05986879492002,61.344967906677624zM130.25606707834325,59.50452075262414L119.63167510740601,30.873972256411914L111.8341520039854,27.20611258244393zM151.38136197010348,30.688656723171498L156.2924735478903,21.703391489998946L160.46506387953167,12.7166094684994zM72.06531702684566,65.28912498575832L75.08159438071289,64.95220016547799L76.31204460387713,62.510142606429454z" style="fill:rgb(83,212,212)"/><path d="M156.2924735478903,21.703391489998946L151.38136197010348,30.688656723171498L154.67376458577223,39.34038220781296z" style="fill:rgb(230,108,199)"/><path d="M130.25606707834325,59.50452075262414L123.81706551770279,28.136816656761653L122.67184881166163,30.503710934916167zM130.25606707834325,59.50452075262414L122.67184881166163,30.503710934916167L119.63167510740601,30.873972256411914zM-50.09059862571046,67.49424944039232L-24.705577782083612,140.40298922964087L67.13426355105237,109.92669408281293z" style="fill:rgb(83,212,212)"/><path d="M95.86283100739061,87.12583588147001L97.05677435191151,84.65632241648869L90.19059454606808,69.69028434172237z" style="fill:rgb(234,114,195)"/><path d="M130.25606707834325,59.50452075262414L151.38136197010348,30.688656723171498L166.56771163834702,-5.081158953064583z" style="fill:rgb(83,212,212)"/><path d="M92.83378557740055,87.43825639120898L95.86283100739061,87.12583588147001L88.96694452009858,72.17450144029368z" style="fill:rgb(108,33,211)"/><path d="M145.74484074742503,39.62538851688389L149.10287248922228,48.245253287998L154.67376458577223,39.34038220781296zM154.67376458577223,39.34038220781296L151.38136197010348,30.688656723171498L145.74484074742503,39.62538851688389z" style="fill:rgb(226,102,203)"/><path d="M85.23390600786006,70.23280392511622L89.11075108325909,78.58549702357722L91.73451774537307,76.86069625476067z" style="fill:rgb(181,61,221)"/><path d="M85.89791249882376,72.50788585474135L76.31204460387713,62.510142606429454L75.08159438071289,64.95220016547799zM85.89791249882376,72.50788585474135L75.08159438071289,64.95220016547799L72.06531702684566,65.28912498575832z" style="fill:rgb(83,212,212)"/><path d="M91.73451774537307,76.86069625476067L94.03142893066787,78.0620487006604L90.19059454606808,69.69028434172237z" style="fill:rgb(42,41,169)"/><path d="M79.38908219573892,78.00998525519908L139.72516954773164,12.365565917287347L109.76869334020641,-1.0102164458639884z" style="fill:rgb(83,212,212)"/><path d="M-52.71935254358669,141.59853192801407L-47.65459783508075,149.33993277470753L-41.986159156955665,149.5106874563709z" style="fill:rgb(94,32,205)"/><path d="M85.89791249882376,72.50788585474135L89.77774603300344,80.85972814402766L89.11075108325909,78.58549702357722z" style="fill:rgb(245,172,143)"/><path d="M142.83024696235077,57.05013594995285L149.10287248922228,48.245253287998L145.74484074742503,39.62538851688389z" style="fill:rgb(222,96,207)"/><path d="M109.76869334020641,-1.0102164458639884L50.12604473913891,62.50410678071423L79.38908219573892,78.00998525519908z" style="fill:rgb(83,212,212)"/><path d="M91.73451774537307,76.86069625476067L87.88167411292679,68.49575251404472L85.23390600786006,70.23280392511622z" style="fill:rgb(181,61,221)"/><path d="M85.89791249882376,72.50788585474135L85.23390600786006,70.23280392511622L76.31204460387713,62.510142606429454z" style="fill:rgb(83,212,212)"/><path d="M88.96694452009858,72.17450144029368L85.89791249882376,72.50788585474135L92.83378557740055,87.43825639120898z" style="fill:rgb(108,33,211)"/><path d="M90.19059454606808,69.69028434172237L87.88167411292679,68.49575251404472L91.73451774537307,76.86069625476067z" style="fill:rgb(42,41,169)"/><path d="M90.19059454606808,69.69028434172237L88.96694452009858,72.17450144029368L95.86283100739061,87.12583588147001z" style="fill:rgb(234,114,195)"/><path d="M89.11075108325909,78.58549702357722L85.23390600786006,70.23280392511622L85.89791249882376,72.50788585474135z" style="fill:rgb(245,172,143)"/><path d="M-47.015132722517684,141.75008919810693L-41.986159156955665,149.5106874563709L-31.02905972747716,149.19733650520823z" style="fill:rgb(101,32,208)"/><path d="M-41.986159156955665,149.5106874563709L-47.015132722517684,141.75008919810693L-52.71935254358669,141.59853192801407z" style="fill:rgb(94,32,205)"/><path d="M83.85274672202104,87.42787307614529L50.12604473913891,62.50410678071423L54.75176510648473,71.82379013682039z" style="fill:rgb(42,41,169)"/><path d="M139.4013298371176,48.46546596505451L145.74484074742503,39.62538851688389L151.38136197010348,30.688656723171498zM85.89791249882376,72.50788585474135L87.88167411292679,68.49575251404472L85.23390600786006,70.23280392511622z" style="fill:rgb(83,212,212)"/><path d="M143.4846558981386,22.127957302196837L139.72516954773164,12.365565917287347L79.38908219573892,78.00998525519908z" style="fill:rgb(212,85,213)"/><path d="M145.74484074742503,39.62538851688389L139.4013298371176,48.46546596505451L142.83024696235077,57.05013594995285z" style="fill:rgb(222,96,207)"/><path d="M135.87934531235905,65.70648101839846L142.83024696235077,57.05013594995285L139.4013298371176,48.46546596505451z" style="fill:rgb(217,91,210)"/><path d="M85.89791249882376,72.50788585474135L90.19059454606808,69.69028434172237L87.88167411292679,68.49575251404472zM85.89791249882376,72.50788585474135L88.96694452009858,72.17450144029368L90.19059454606808,69.69028434172237z" style="fill:rgb(83,212,212)"/><path d="M-35.98537806230179,141.39833321829332L-31.02905972747716,149.19733650520823L-19.827084782451166,148.24260036579736z" style="fill:rgb(108,33,211)"/><path d="M-31.02905972747716,149.19733650520823L-35.98537806230179,141.39833321829332L-47.015132722517684,141.75008919810693z" style="fill:rgb(101,32,208)"/><path d="M130.25606707834325,59.50452075262414L139.4013298371176,48.46546596505451L151.38136197010348,30.688656723171498z" style="fill:rgb(83,212,212)"/><path d="M133.7830127575594,68.03964801769618L135.87934531235905,65.70648101839846L132.37454753251066,57.16008649069194z" style="fill:rgb(212,85,213)"/><path d="M139.4013298371176,48.46546596505451L132.37454753251066,57.16008649069194L135.87934531235905,65.70648101839846z" style="fill:rgb(217,91,210)"/><path d="M67.13426355105237,109.92669408281293L85.89791249882376,72.50788585474135L72.06531702684566,65.28912498575832z" style="fill:rgb(83,212,212)"/><path d="M-24.705577782083612,140.40298922964087L-19.827084782451166,148.24260036579736L-8.438077795571704,146.64377918415423z" style="fill:rgb(116,34,214)"/><path d="M124.69360960220206,65.66023688109554L128.278894903239,74.1655675140987L130.38696964047654,71.81935074382606z" style="fill:rgb(212,85,213)"/><path d="M-19.827084782451166,148.24260036579736L-24.705577782083612,140.40298922964087L-35.98537806230179,141.39833321829332z" style="fill:rgb(108,33,211)"/><path d="M-47.015132722517684,141.75008919810693L-35.98537806230179,141.39833321829332L-24.705577782083612,140.40298922964087z" style="fill:rgb(83,212,212)"/><path d="M132.37454753251066,57.16008649069194L130.25606707834325,59.50452075262414L133.7830127575594,68.03964801769618zM143.4846558981386,22.127957302196837L79.38908219573892,78.00998525519908L83.85274672202104,87.42787307614529z" style="fill:rgb(212,85,213)"/><path d="M107.51175262919385,81.88271802779782L90.19059454606808,69.69028434172237L88.96694452009858,72.17450144029368zM130.25606707834325,59.50452075262414L132.37454753251066,57.16008649069194L139.4013298371176,48.46546596505451z" style="fill:rgb(83,212,212)"/><path d="M130.38696964047654,71.81935074382606L126.82405927713819,63.302568428641614L124.69360960220206,65.66023688109554z" style="fill:rgb(212,85,213)"/><path d="M116.39286904411382,73.917122844354L120.06283821500455,82.37894197101613L128.278894903239,74.1655675140987z" style="fill:rgb(206,80,215)"/><path d="M-13.234045905453256,138.76149408050554L-8.438077795571704,146.64377918415423L3.0775697886867395,144.40261415136388z" style="fill:rgb(123,36,216)"/><path d="M67.13426355105237,109.92669408281293L88.96694452009858,72.17450144029368L85.89791249882376,72.50788585474135z" style="fill:rgb(83,212,212)"/><path d="M-8.438077795571704,146.64377918415423L-13.234045905453256,138.76149408050554L-24.705577782083612,140.40298922964087z" style="fill:rgb(116,34,214)"/><path d="M128.278894903239,74.1655675140987L124.69360960220206,65.66023688109554L116.39286904411382,73.917122844354z" style="fill:rgb(206,80,215)"/><path d="M83.85274672202104,87.42787307614529L79.38908219573892,78.00998525519908L50.12604473913891,62.50410678071423z" style="fill:rgb(42,41,169)"/><path d="M107.51175262919385,81.88271802779782L111.27012010853136,90.29891207392204L120.06283821500455,82.37894197101613z" style="fill:rgb(200,75,217)"/><path d="M-1.6317173560262783,136.4757606306044L3.0775697886867395,144.40261415136388L14.65746307587146,141.5254891008151z" style="fill:rgb(131,38,218)"/><path d="M3.0775697886867395,144.40261415136388L-1.6317173560262783,136.4757606306044L-13.234045905453256,138.76149408050554z" style="fill:rgb(123,36,216)"/><path d="M120.06283821500455,82.37894197101613L116.39286904411382,73.917122844354L107.51175262919385,81.88271802779782z" style="fill:rgb(200,75,217)"/><path d="M-24.705577782083612,140.40298922964087L-13.234045905453256,138.76149408050554L-1.6317173560262783,136.4757606306044z" style="fill:rgb(83,212,212)"/><path d="M98.09455061120681,89.51027783118951L101.94448149163267,97.87910774897325L111.27012010853136,90.29891207392204z" style="fill:rgb(194,70,219)"/><path d="M10.03842346605608,133.5523795539977L14.65746307587146,141.5254891008151L26.237776246563797,138.0234052243439z" style="fill:rgb(138,40,220)"/><path d="M67.13426355105237,109.92669408281293L107.51175262919385,81.88271802779782L88.96694452009858,72.17450144029368zM107.51175262919385,81.88271802779782L116.39286904411382,73.917122844354L124.69360960220206,65.66023688109554z" style="fill:rgb(83,212,212)"/><path d="M14.65746307587146,141.5254891008151L10.03842346605608,133.5523795539977L-1.6317173560262783,136.4757606306044z" style="fill:rgb(131,38,218)"/><path d="M88.19004366780332,96.75481368366542L92.13413927479051,105.07492303461088L101.94448149163267,97.87910774897325z" style="fill:rgb(188,65,220)"/><path d="M111.27012010853136,90.29891207392204L107.51175262919385,81.88271802779782L98.09455061120681,89.51027783118951z" style="fill:rgb(194,70,219)"/><path d="M-24.705577782083612,140.40298922964087L-1.6317173560262783,136.4757606306044L21.71191393785809,130.00259329974585z" style="fill:rgb(83,212,212)"/><path d="M21.71191393785809,130.00259329974585L26.237776246563797,138.0234052243439L37.753854943697824,133.91206947196505z" style="fill:rgb(146,43,221)"/><path d="M77.85111354322325,103.57360065004856L81.89131992425091,111.84402276312807L92.13413927479051,105.07492303461088z" style="fill:rgb(181,61,221)"/><path d="M33.323432996911194,125.84238225706648L37.753854943697824,133.91206947196505L49.14090323367964,129.21171692822992z" style="fill:rgb(153,46,222)"/><path d="M26.237776246563797,138.0234052243439L21.71191393785809,130.00259329974585L10.03842346605608,133.5523795539977z" style="fill:rgb(138,40,220)"/><path d="M67.13426355105237,109.92669408281293L71.27186182036672,118.14685248587583L81.89131992425091,111.84402276312807z" style="fill:rgb(175,57,222)"/><path d="M101.94448149163267,97.87910774897325L98.09455061120681,89.51027783118951L88.19004366780332,96.75481368366542z" style="fill:rgb(188,65,220)"/><path d="M44.807481278593684,121.09229016455473L49.14090323367964,129.21171692822992L60.33461320270492,123.94700600108683z" style="fill:rgb(160,49,222)"/><path d="M56.09903869659233,115.77731416432995L60.33461320270492,123.94700600108683L71.27186182036672,118.14685248587583z" style="fill:rgb(168,53,222)"/><path d="M-24.705577782083612,140.40298922964087L21.71191393785809,130.00259329974585L67.13426355105237,109.92669408281293zM-1.6317173560262783,136.4757606306044L10.03842346605608,133.5523795539977L21.71191393785809,130.00259329974585z" style="fill:rgb(83,212,212)"/><path d="M37.753854943697824,133.91206947196505L33.323432996911194,125.84238225706648L21.71191393785809,130.00259329974585z" style="fill:rgb(146,43,221)"/><path d="M92.13413927479051,105.07492303461088L88.19004366780332,96.75481368366542L77.85111354322325,103.57360065004856z" style="fill:rgb(181,61,221)"/><path d="M88.19004366780332,96.75481368366542L98.09455061120681,89.51027783118951L107.51175262919385,81.88271802779782z" style="fill:rgb(83,212,212)"/><path d="M49.14090323367964,129.21171692822992L44.807481278593684,121.09229016455473L33.323432996911194,125.84238225706648z" style="fill:rgb(153,46,222)"/><path d="M81.89131992425091,111.84402276312807L77.85111354322325,103.57360065004856L67.13426355105237,109.92669408281293z" style="fill:rgb(175,57,222)"/><path d="M60.33461320270492,123.94700600108683L56.09903869659233,115.77731416432995L44.807481278593684,121.09229016455473z" style="fill:rgb(160,49,222)"/><path d="M71.27186182036672,118.14685248587583L67.13426355105237,109.92669408281293L56.09903869659233,115.77731416432995z" style="fill:rgb(168,53,222)"/><path d="M67.13426355105237,109.92669408281293L88.19004366780332,96.75481368366542L107.51175262919385,81.88271802779782zM21.71191393785809,130.00259329974585L33.323432996911194,125.84238225706648L44.807481278593684,121.09229016455473zM21.71191393785809,130.00259329974585L44.807481278593684,121.09229016455473L67.13426355105237,109.92669408281293zM67.13426355105237,109.92669408281293L77.85111354322325,103.57360065004856L88.19004366780332,96.75481368366542zM44.807481278593684,121.09229016455473L56.09903869659233,115.77731416432995L67.13426355105237,109.92669408281293z" style="fill:rgb(83,212,212)"/></svg>
