<?xml version="1.0" encoding="UTF-8"?>
<!-- Generated by jsxcad -->
<!DOCTYPE svg PUBLIC "-//W3C//DTD SVG 1.1 Tiny//EN" "http://www.w3.org/Graphics/SVG/1.1/DTD/svg11-tiny.dtd">
<svg viewBox="-250 -250 500 500" width="500" height="500" xmlns="http://www.w3.org/2000/svg"><path d="M-20.91825227336478,-109.3028372188325L-29.945263252945107,-105.76289136963958L-38.85976231374986,-101.8784528392891zM-2.621197565414106,-115.3071194534874L-11.802261629252177,-112.48767025091736L-20.91825227336478,-109.3028372188325zM15.838520205941114,-119.81090309247759L-2.621197565414106,-115.3071194534874L-20.91825227336478,-109.3028372188325zM15.838520205941114,-119.81090309247759L6.600644618800595,-117.75134963738593L-2.621197565414106,-115.3071194534874zM34.26088338937983,-122.7403863441166L25.067185848521643,-121.4767721120809L15.838520205941114,-119.81090309247759zM-38.85976231374986,-101.8784528392891L-43.51882186118084,-99.63991863122423L-45.77567166217452,-50.815718156646746zM-20.91825227336478,-109.3028372188325L-38.85976231374986,-101.8784528392891L-45.77567166217452,-50.815718156646746zM15.838520205941114,-119.81090309247759L-20.91825227336478,-109.3028372188325L-45.77567166217452,-50.815718156646746zM41.169185968390934,-74.55498777608202L34.26088338937983,-122.7403863441166L15.838520205941114,-119.81090309247759z" style="fill:rgb(83,212,212)"/><path d="M42.59523804190394,-114.99475892350645L39.09755563282691,-123.19230021589043L41.169185968390934,-74.55498777608202z" style="fill:rgb(247,158,158)"/><path d="M41.169185968390934,-74.55498777608202L39.09755563282691,-123.19230021589043L34.26088338937983,-122.7403863441166zM42.00471367654304,-70.21485227560902L15.838520205941114,-119.81090309247759L-45.77567166217452,-50.815718156646746z" style="fill:rgb(83,212,212)"/><path d="M41.169185968390934,-74.55498777608202L44.83547691094242,-66.28662952766794L42.59523804190394,-114.99475892350645z" style="fill:rgb(247,158,158)"/><path d="M42.00471367654304,-70.21485227560902L41.169185968390934,-74.55498777608202L15.838520205941114,-119.81090309247759zM-79.26833970768088,-18.507430021978788L-149.4531515817768,0.2459175918868903L-151.35796320496863,4.3096563044205585zM-151.35796320496863,4.3096563044205585L-154.43026144616783,12.004094314847265L-156.9756768871308,19.73237282077121zM-79.26833970768088,-18.507430021978788L-151.35796320496863,4.3096563044205585L-156.9756768871308,19.73237282077121zM-72.95554454621124,-20.650554511943337L-79.26833970768088,-18.507430021978788L-156.9756768871308,19.73237282077121zM51.82511083885853,-60.663068814537894L-45.77567166217452,-50.815718156646746L-46.60076263007008,-46.12117019339018zM51.82511083885853,-60.663068814537894L-46.60076263007008,-46.12117019339018L-48.637151869401855,-41.232977050579485zM44.109086127661215,-66.35206409548849L42.00471367654304,-70.21485227560902L-45.77567166217452,-50.815718156646746z" style="fill:rgb(83,212,212)"/><path d="M42.00471367654304,-70.21485227560902L45.682358985399404,-61.93916799517445L44.83547691094242,-66.28662952766794z" style="fill:rgb(246,167,149)"/><path d="M-156.9756768871308,19.73237282077121L-158.97524083925407,27.469469462738527L-160.410888887824,35.189234990821284z" style="fill:rgb(83,212,212)"/><path d="M44.83547691094242,-66.28662952766794L41.169185968390934,-74.55498777608202L42.00471367654304,-70.21485227560902z" style="fill:rgb(246,167,149)"/><path d="M47.41987415437998,-63.12284974374227L44.109086127661215,-66.35206409548849L-45.77567166217452,-50.815718156646746zM51.82511083885853,-60.663068814537894L47.41987415437998,-63.12284974374227L-45.77567166217452,-50.815718156646746zM-18.830409455655275,-27.91984128131578L-12.623458540647054,-31.165614389549937L-48.637151869401855,-41.232977050579485zM-156.9756768871308,19.73237282077121L-160.410888887824,35.189234990821284L-161.52348339475452,50.466664942885934zM-24.59898750231503,-24.04703302501847L-18.830409455655275,-27.91984128131578L-48.637151869401855,-41.232977050579485zM-29.77622447207879,-19.647419989061927L-24.59898750231503,-24.04703302501847L-48.637151869401855,-41.232977050579485zM-12.623458540647054,-31.165614389549937L51.82511083885853,-60.663068814537894L-48.637151869401855,-41.232977050579485zM-48.637151869401855,-41.232977050579485L-34.22207021463424,-14.834711306280997L-29.77622447207879,-19.647419989061927z" style="fill:rgb(83,212,212)"/><path d="M-18.830409455655275,-27.91984128131578L-14.654546814637479,-19.87155380462186L-8.494515431367523,-23.093309090045437z" style="fill:rgb(167,52,222)"/><path d="M-48.637151869401855,-41.232977050579485L-37.81251657902186,-9.734146772588495L-34.22207021463424,-14.834711306280997z" style="fill:rgb(83,212,212)"/><path d="M-12.623458540647054,-31.165614389549937L-8.494515431367523,-23.093309090045437L-2.0576725255441946,-25.601478800023543z" style="fill:rgb(147,43,221)"/><path d="M-24.59898750231503,-24.04703302501847L-20.375940069964237,-16.020723642465484L-14.654546814637479,-19.87155380462186z" style="fill:rgb(185,63,221)"/><path d="M-6.141073045806062,-33.69927427840572L-2.0576725255441946,-25.601478800023543L4.48721265177053,-27.328363614932755z" style="fill:rgb(127,37,217)"/><path d="M-48.637151869401855,-41.232977050579485L-51.816991158990675,-36.34587329673849L-84.61351089380308,50.44849381761618z" style="fill:rgb(83,212,212)"/><path d="M-29.77622447207879,-19.647419989061927L-25.506873742840174,-11.640545827506902L-20.375940069964237,-16.020723642465484z" style="fill:rgb(202,76,217)"/><path d="M-48.637151869401855,-41.232977050579485L-40.4426312647962,-4.480334775905583L-37.81251657902186,-9.734146772588495z" style="fill:rgb(83,212,212)"/><path d="M-8.494515431367523,-23.093309090045437L-12.623458540647054,-31.165614389549937L-18.830409455655275,-27.91984128131578z" style="fill:rgb(167,52,222)"/><path d="M-160.410888887824,35.189234990821284L-161.26557087623556,42.86441388517611L-161.52348339475452,50.466664942885934z" style="fill:rgb(83,212,212)"/><path d="M-14.654546814637479,-19.87155380462186L-18.830409455655275,-27.91984128131578L-24.59898750231503,-24.04703302501847z" style="fill:rgb(185,63,221)"/><path d="M-2.0576725255441946,-25.601478800023543L-6.141073045806062,-33.69927427840572L-12.623458540647054,-31.165614389549937z" style="fill:rgb(147,43,221)"/><path d="M0.4468999563578917,-35.4524884869976L4.48721265177053,-27.328363614932755L10.967490835065298,-28.22450683431343z" style="fill:rgb(107,33,211)"/><path d="M-51.816991158990675,-36.34587329673849L-56.022217619107685,-31.658749831753237L-84.61351089380308,50.44849381761618z" style="fill:rgb(83,212,212)"/><path d="M-20.375940069964237,-16.020723642465484L-24.59898750231503,-24.04703302501847L-29.77622447207879,-19.647419989061927z" style="fill:rgb(202,76,217)"/><path d="M-34.22207021463424,-14.834711306280997L-29.90846197573194,-6.844302543005528L-25.506873742840174,-11.640545827506902z" style="fill:rgb(217,91,210)"/><path d="M4.48721265177053,-27.328363614932755L0.4468999563578917,-35.4524884869976L-6.141073045806062,-33.69927427840572z" style="fill:rgb(127,37,217)"/><path d="M-48.637151869401855,-41.232977050579485L-42.02967644595073,0.7852753760541382L-40.4426312647962,-4.480334775905583zM-56.022217619107685,-31.658749831753237L-61.08829475451215,-27.365243073868687L-84.61351089380308,50.44849381761618zM-72.95554454621124,-20.650554511943337L-156.9756768871308,19.73237282077121L-84.61351089380308,50.44849381761618z" style="fill:rgb(83,212,212)"/><path d="M6.966779527929564,-36.375107673479945L10.967490835065298,-28.22450683431343L17.209986554161578,-28.26007655928841z" style="fill:rgb(87,32,202)"/><path d="M-25.506873742840174,-11.640545827506902L-29.77622447207879,-19.647419989061927L-34.22207021463424,-14.834711306280997z" style="fill:rgb(217,91,210)"/><path d="M-61.08829475451215,-27.365243073868687L-66.8109679072849,-23.644198621341292L-84.61351089380308,50.44849381761618zM-66.8109679072849,-23.644198621341292L-72.95554454621124,-20.650554511943337L-84.61351089380308,50.44849381761618zM-12.623458540647054,-31.165614389549937L-6.141073045806062,-33.69927427840572L51.82511083885853,-60.663068814537894z" style="fill:rgb(83,212,212)"/><path d="M10.967490835065298,-28.22450683431343L6.966779527929564,-36.375107673479945L0.4468999563578917,-35.4524884869976z" style="fill:rgb(107,33,211)"/><path d="M-37.81251657902186,-9.734146772588495L-33.45785870129793,-1.756871226158803L-29.90846197573194,-6.844302543005528z" style="fill:rgb(229,106,201)"/><path d="M-6.141073045806062,-33.69927427840572L0.4468999563578917,-35.4524884869976L51.82511083885853,-60.663068814537894zM-48.637151869401855,-41.232977050579485L-42.51616668934692,5.917369668392875L-42.02967644595073,0.7852753760541382zM0.4468999563578917,-35.4524884869976L6.966779527929564,-36.375107673479945L51.82511083885853,-60.663068814537894z" style="fill:rgb(83,212,212)"/><path d="M-29.90846197573194,-6.844302543005528L-34.22207021463424,-14.834711306280997L-37.81251657902186,-9.734146772588495z" style="fill:rgb(229,106,201)"/><path d="M13.244411440757611,-36.43657162083624L17.209986554161578,-28.26007655928841L23.044470117154972,-27.426109195927676z" style="fill:rgb(69,33,191)"/><path d="M17.209986554161578,-28.26007655928841L13.244411440757611,-36.43657162083624L6.966779527929564,-36.375107673479945z" style="fill:rgb(87,32,202)"/><path d="M6.966779527929564,-36.375107673479945L13.244411440757611,-36.43657162083624L51.82511083885853,-60.663068814537894z" style="fill:rgb(83,212,212)"/><path d="M-40.4426312647962,-4.480334775905583L-36.051280988924006,3.487432442306801L-33.45785870129793,-1.756871226158803zM-33.45785870129793,-1.756871226158803L-37.81251657902186,-9.734146772588495L-40.4426312647962,-4.480334775905583z" style="fill:rgb(238,122,189)"/><path d="M13.244411440757611,-36.43657162083624L19.108651949499805,-35.627146926961245L51.82511083885853,-60.663068814537894z" style="fill:rgb(83,212,212)"/><path d="M23.044470117154972,-27.426109195927676L19.108651949499805,-35.627146926961245L13.244411440757611,-36.43657162083624z" style="fill:rgb(69,33,191)"/><path d="M19.108651949499805,-35.627146926961245L23.044470117154972,-27.426109195927676L28.307530838532674,-25.735574513598625z" style="fill:rgb(52,37,178)"/><path d="M-156.9756768871308,19.73237282077121L-161.52348339475452,50.466664942885934L-84.61351089380308,50.44849381761618z" style="fill:rgb(83,212,212)"/><path d="M-42.02967644595073,0.7852753760541382L-37.60709985462759,8.74738636303982L-36.051280988924006,3.487432442306801z" style="fill:rgb(244,138,176)"/><path d="M19.108651949499805,-35.627146926961245L24.395249397227975,-33.959037690554254L51.82511083885853,-60.663068814537894z" style="fill:rgb(83,212,212)"/><path d="M-36.051280988924006,3.487432442306801L-40.4426312647962,-4.480334775905583L-42.02967644595073,0.7852753760541382z" style="fill:rgb(244,138,176)"/><path d="M28.307530838532674,-25.735574513598625L24.395249397227975,-33.959037690554254L19.108651949499805,-35.627146926961245z" style="fill:rgb(52,37,178)"/><path d="M24.395249397227975,-33.959037690554254L28.307530838532674,-25.735574513598625L32.84661292534017,-23.224139813139146z" style="fill:rgb(37,44,163)"/><path d="M-161.52348339475452,50.466664942885934L-161.17022601516382,57.96656801023587L-160.193094791374,65.33372938100615z" style="fill:rgb(83,212,212)"/><path d="M-42.51616668934692,5.917369668392875L-38.06885245552043,13.877835943903962L-37.60709985462759,8.74738636303982zM-37.60709985462759,8.74738636303982L-42.02967644595073,0.7852753760541382L-42.51616668934692,5.917369668392875z" style="fill:rgb(247,154,162)"/><path d="M32.84661292534017,-23.224139813139146L28.950915396637335,-31.46716478690393L24.395249397227975,-33.959037690554254z" style="fill:rgb(37,44,163)"/><path d="M-48.637151869401855,-41.232977050579485L-60.692858385586504,52.50099333462755L-42.51616668934692,5.917369668392875z" style="fill:rgb(83,212,212)"/><path d="M28.950915396637335,-31.46716478690393L32.84661292534017,-23.224139813139146L36.52452040299573,-19.950561140804286z" style="fill:rgb(25,53,148)"/><path d="M-41.87272903073948,10.770175009189828L-37.40807248270185,18.733095433127072L-38.06885245552043,13.877835943903962zM-38.06885245552043,13.877835943903962L-42.51616668934692,5.917369668392875L-41.87272903073948,10.770175009189828z" style="fill:rgb(246,169,146)"/><path d="M-48.637151869401855,-41.232977050579485L-84.61351089380308,50.44849381761618L-77.95679700468847,49.30449609387784z" style="fill:rgb(83,212,212)"/><path d="M36.52452040299573,-19.950561140804286L32.6378376511469,-28.209591435089145L28.950915396637335,-31.46716478690393z" style="fill:rgb(25,53,148)"/><path d="M32.6378376511469,-28.209591435089145L36.52452040299573,-19.950561140804286L39.223915445249496,-15.996479439549184z" style="fill:rgb(16,65,132)"/><path d="M-48.637151869401855,-41.232977050579485L-77.95679700468847,49.30449609387784L-71.59837868068246,49.26387260488633zM-161.52348339475452,50.466664942885934L-160.193094791374,65.33372938100615L-84.61351089380308,50.44849381761618z" style="fill:rgb(83,212,212)"/><path d="M-40.10063377904967,15.201361132620464L-35.62676166132282,23.170846639506514L-37.40807248270185,18.733095433127072z" style="fill:rgb(242,183,130)"/><path d="M-48.637151869401855,-41.232977050579485L-71.59837868068246,49.26387260488633L-65.7706750491789,50.33818369536528z" style="fill:rgb(83,212,212)"/><path d="M-159.34089539149824,69.14193383885683L-153.97956692185076,76.6388197991319L-79.73704250291222,58.23523956289098z" style="fill:rgb(127,37,217)"/><path d="M-37.40807248270185,18.733095433127072L-41.87272903073948,10.770175009189828L-40.10063377904967,15.201361132620464z" style="fill:rgb(242,183,130)"/><path d="M39.223915445249496,-15.996479439549184L35.33821827583946,-24.267351266677647L32.6378376511469,-28.209591435089145z" style="fill:rgb(16,65,132)"/><path d="M-48.637151869401855,-41.232977050579485L-65.7706750491789,50.33818369536528L-60.692858385586504,52.50099333462755zM163.91000974840225,-64.56632125877668L76.59628225346394,-60.154386506273504L69.80248945978308,-58.81182980907567zM-160.193094791374,65.33372938100615L-159.34089539149824,69.14193383885683L-84.61351089380308,50.44849381761618zM157.43555588909086,-77.91801409665793L155.24160060021424,-81.16838029148309L76.59628225346394,-60.154386506273504zM24.395249397227975,-33.959037690554254L104.77525720103696,-6.7573367567102585L51.82511083885853,-60.663068814537894z" style="fill:rgb(83,212,212)"/><path d="M-79.73704250291222,58.23523956289098L-84.61351089380308,50.44849381761618L-159.34089539149824,69.14193383885683z" style="fill:rgb(127,37,217)"/><path d="M-60.692858385586504,52.50099333462755L-41.87272903073948,10.770175009189828L-42.51616668934692,5.917369668392875zM163.91000974840225,-64.56632125877668L157.43555588909086,-77.91801409665793L76.59628225346394,-60.154386506273504zM-60.692858385586504,52.50099333462755L-40.10063377904967,15.201361132620464L-41.87272903073948,10.770175009189828z" style="fill:rgb(83,212,212)"/><path d="M-84.61351089380308,50.44849381761618L-79.73704250291222,58.23523956289098L-73.12220218403769,57.11707168208419z" style="fill:rgb(115,34,214)"/><path d="M24.395249397227975,-33.959037690554254L28.950915396637335,-31.46716478690393L93.18567522100237,2.5642279339223557z" style="fill:rgb(83,212,212)"/><path d="M-77.95679700468847,49.30449609387784L-73.12220218403769,57.11707168208419L-66.79924209285707,57.1006196577002z" style="fill:rgb(92,32,204)"/><path d="M-60.692858385586504,52.50099333462755L-37.23361890624749,19.076305259943343L-40.10063377904967,15.201361132620464z" style="fill:rgb(83,212,212)"/><path d="M-73.12220218403769,57.11707168208419L-77.95679700468847,49.30449609387784L-84.61351089380308,50.44849381761618z" style="fill:rgb(115,34,214)"/><path d="M162.76595258347834,0.6362701597766558L57.1651475985158,-59.08119421785484L51.82511083885853,-60.663068814537894z" style="fill:rgb(83,212,212)"/><path d="M-71.59837868068246,49.26387260488633L-66.79924209285707,57.1006196577002L-60.99932648286704,58.19647585351321z" style="fill:rgb(71,33,192)"/><path d="M-66.79924209285707,57.1006196577002L-71.59837868068246,49.26387260488633L-77.95679700468847,49.30449609387784z" style="fill:rgb(92,32,204)"/><path d="M-60.692858385586504,52.50099333462755L-33.338927052857464,22.272685681358816L-37.23361890624749,19.076305259943343zM28.950915396637335,-31.46716478690393L32.6378376511469,-28.209591435089145L90.4328506732666,8.436669772849246zM162.76595258347834,0.6362701597766558L63.23719752979129,-58.45209386911038L57.1651475985158,-59.08119421785484zM163.91000974840225,-64.56632125877668L160.97635322990556,-71.42731254070975L157.43555588909086,-77.91801409665793zM162.76595258347834,0.6362701597766558L69.80248945978308,-58.81182980907567L63.23719752979129,-58.45209386911038z" style="fill:rgb(83,212,212)"/><path d="M-60.99932648286704,58.19647585351321L-65.7706750491789,50.33818369536528L-71.59837868068246,49.26387260488633z" style="fill:rgb(71,33,192)"/><path d="M-65.7706750491789,50.33818369536528L-60.99932648286704,58.19647585351321L-55.94057604294025,60.377267983823046zM-55.94057604294025,60.377267983823046L-60.692858385586504,52.50099333462755L-65.7706750491789,50.33818369536528z" style="fill:rgb(51,38,177)"/><path d="M-60.692858385586504,52.50099333462755L-55.94057604294025,60.377267983823046L-51.82040047465306,63.57657775854689z" style="fill:rgb(34,46,160)"/><path d="M32.6378376511469,-28.209591435089145L35.33821827583946,-24.267351266677647L82.5564306960903,33.74674185746576z" style="fill:rgb(83,212,212)"/><path d="M166.20948543622248,-57.35535771977876L169.1738652565529,-48.54763648283095L166.8695718902169,-55.76985255351916zM166.8695718902169,-55.76985255351916L163.91000974840225,-64.56632125877668L166.20948543622248,-57.35535771977876z" style="fill:rgb(246,166,149)"/><path d="M104.77525720103696,-6.7573367567102585L112.25948621777744,-9.13977749850471L51.82511083885853,-60.663068814537894z" style="fill:rgb(83,212,212)"/><path d="M-51.82040047465306,63.57657775854689L-56.56320082680193,55.68673796026417L-60.692858385586504,52.50099333462755z" style="fill:rgb(34,46,160)"/><path d="M112.25948621777744,-9.13977749850471L119.75494182434099,-9.56695798352175L51.82511083885853,-60.663068814537894z" style="fill:rgb(83,212,212)"/><path d="M-56.56320082680193,55.68673796026417L-51.82040047465306,63.57657775854689L-48.80774358574787,67.68906245355734z" style="fill:rgb(21,57,142)"/><path d="M35.33821827583946,-24.267351266677647L36.95888405017751,-19.74361182906436L82.5564306960903,33.74674185746576zM24.395249397227975,-33.959037690554254L98.16291120161792,-2.7012160185211687L104.77525720103696,-6.7573367567102585zM24.395249397227975,-33.959037690554254L93.18567522100237,2.5642279339223557L98.16291120161792,-2.7012160185211687zM36.95888405017751,-19.74361182906436L37.43565676406146,-14.761913148621574L82.5564306960903,33.74674185746576zM162.76595258347834,0.6362701597766558L163.91000974840225,-64.56632125877668L69.80248945978308,-58.81182980907567z" style="fill:rgb(83,212,212)"/><path d="M-48.80774358574787,67.68906245355734L-53.55123175295354,59.79079370729079L-56.56320082680193,55.68673796026417z" style="fill:rgb(21,57,142)"/><path d="M167.84961001058878,-49.81745020522307L170.82379161489303,-41.00213204012012L169.1738652565529,-48.54763648283095zM169.1738652565529,-48.54763648283095L166.20948543622248,-57.35535771977876L167.84961001058878,-49.81745020522307z" style="fill:rgb(247,161,155)"/><path d="M167.84961001058878,-49.81745020522307L166.20948543622248,-57.35535771977876L163.91000974840225,-64.56632125877668zM28.950915396637335,-31.46716478690393L90.4328506732666,8.436669772849246L93.18567522100237,2.5642279339223557zM37.43565676406146,-14.761913148621574L36.73720041615975,-9.463504939154213L82.5564306960903,33.74674185746576zM36.73720041615975,-9.463504939154213L34.86801873082355,-4.003624905342575L82.5564306960903,33.74674185746576zM119.75494182434099,-9.56695798352175L162.76595258347834,0.6362701597766558L51.82511083885853,-60.663068814537894zM34.86801873082355,-4.003624905342575L31.870196396836565,1.453183297545332L82.5564306960903,33.74674185746576z" style="fill:rgb(83,212,212)"/><path d="M168.80746903440675,-41.97840242267665L171.79666169422254,-33.15928677715569L170.82379161489303,-41.00213204012012zM170.82379161489303,-41.00213204012012L167.84961001058878,-49.81745020522307L168.80746903440675,-41.97840242267665z" style="fill:rgb(247,155,161)"/><path d="M169.06279781415327,-33.866810371991555L167.84961001058878,-49.81745020522307L163.91000974840225,-64.56632125877668z" style="fill:rgb(83,212,212)"/><path d="M82.5564306960903,33.74674185746576L27.64544025519378,6.915756257779191L31.693781641572333,15.154136142396517z" style="fill:rgb(42,41,169)"/><path d="M31.870196396836565,1.453183297545332L27.823684773362697,6.738612086576276L82.5564306960903,33.74674185746576zM27.823684773362697,6.738612086576276L27.64544025519378,6.915756257779191L82.5564306960903,33.74674185746576zM41.68183219682808,82.69407076979681L-28.517237827492725,24.685183198722335L-33.338927052857464,22.272685681358816zM32.6378376511469,-28.209591435089145L82.5564306960903,33.74674185746576L90.4328506732666,8.436669772849246z" style="fill:rgb(83,212,212)"/><path d="M98.16291120161792,-2.7012160185211687L101.73658509349457,5.820854093410317L108.2928839793351,1.792748485006955z" style="fill:rgb(178,58,222)"/><path d="M104.77525720103696,-6.7573367567102585L108.2928839793351,1.792748485006955L115.72069941386471,-0.5587839074154594z" style="fill:rgb(137,40,220)"/><path d="M94.9909091974625,19.3321919998998L96.30701349984372,22.38232160874686L98.20352689979175,23.27859115921153z" style="fill:rgb(42,41,169)"/><path d="M41.68183219682808,82.69407076979681L-22.901183732914266,26.230046065841815L-28.517237827492725,24.685183198722335zM37.02830762638207,78.61651822095516L-16.652351433178776,26.849137697521094L-22.901183732914266,26.230046065841815zM-60.692858385586504,52.50099333462755L41.68183219682808,82.69407076979681L-33.338927052857464,22.272685681358816z" style="fill:rgb(83,212,212)"/><path d="M93.18567522100237,2.5642279339223557L96.80887909223613,11.064206866318804L101.73658509349457,5.820854093410317z" style="fill:rgb(212,85,213)"/><path d="M112.25948621777744,-9.13977749850471L115.72069941386471,-0.5587839074154594L123.16555418711629,-0.9556724279311679z" style="fill:rgb(96,32,206)"/><path d="M108.2928839793351,1.792748485006955L104.77525720103696,-6.7573367567102585L98.16291120161792,-2.7012160185211687z" style="fill:rgb(178,58,222)"/><path d="M169.06279781415327,-33.866810371991555L172.07238000653965,-25.047831104815504L171.79666169422254,-33.15928677715569zM171.79666169422254,-33.15928677715569L168.80746903440675,-41.97840242267665L169.06279781415327,-33.866810371991555z" style="fill:rgb(246,149,166)"/><path d="M169.06279781415327,-33.866810371991555L168.80746903440675,-41.97840242267665L167.84961001058878,-49.81745020522307z" style="fill:rgb(83,212,212)"/><path d="M115.72069941386471,-0.5587839074154594L112.25948621777744,-9.13977749850471L104.77525720103696,-6.7573367567102585z" style="fill:rgb(137,40,220)"/><path d="M34.83032642688483,73.10260788997826L24.2677060520499,10.27268769742855L22.844904941921822,11.686726576207596z" style="fill:rgb(83,212,212)"/><path d="M101.73658509349457,5.820854093410317L98.16291120161792,-2.7012160185211687L93.18567522100237,2.5642279339223557z" style="fill:rgb(212,85,213)"/><path d="M37.02830762638207,78.61651822095516L-9.95681010068733,26.51332239926493L-16.652351433178776,26.849137697521094zM34.83032642688483,73.10260788997826L22.844904941921822,11.686726576207596L17.083451366894543,16.14042367074496zM34.83032642688483,73.10260788997826L17.083451366894543,16.14042367074496L10.71706913566863,19.95772009997044z" style="fill:rgb(83,212,212)"/><path d="M90.4328506732666,8.436669772849246L94.0933339398727,16.922819742058977L96.80887909223613,11.064206866318804z" style="fill:rgb(236,117,193)"/><path d="M37.02830762638207,78.61651822095516L-3.019078191920217,25.224712309428604L-9.95681010068733,26.51332239926493z" style="fill:rgb(83,212,212)"/><path d="M119.75494182434099,-9.56695798352175L123.16555418711629,-0.9556724279311679L129.75983152199566,0.6659964957861804z" style="fill:rgb(58,35,183)"/><path d="M123.16555418711629,-0.9556724279311679L119.75494182434099,-9.56695798352175L112.25948621777744,-9.13977749850471z" style="fill:rgb(96,32,206)"/><path d="M94.9909091974625,19.3321919998998L98.20352689979175,23.27859115921153L89.62813266119926,6.903549337688334z" style="fill:rgb(42,41,169)"/><path d="M37.02830762638207,78.61651822095516L3.9451358132502934,23.017564282828523L-3.019078191920217,25.224712309428604z" style="fill:rgb(83,212,212)"/><path d="M96.80887909223613,11.064206866318804L93.18567522100237,2.5642279339223557L90.4328506732666,8.436669772849246z" style="fill:rgb(236,117,193)"/><path d="M90.42329843643127,8.746421506770206L94.08486984450423,17.232367082509104L94.0933339398727,16.922819742058977z" style="fill:rgb(246,150,166)"/><path d="M37.02830762638207,78.61651822095516L10.71706913566863,19.95772009997044L3.9451358132502934,23.017564282828523zM111.5078670889321,-11.00318195204794L104.01139782030789,-8.614003688889875L97.38687433317911,-4.5518111094867555z" style="fill:rgb(83,212,212)"/><path d="M91.21284338680034,11.203269653520527L97.89866186428752,26.688698370978944L98.20352689979175,23.27859115921153z" style="fill:rgb(246,145,170)"/><path d="M123.09033027148455,1.141648424740032L126.53780739701526,4.134680576679511L128.59640821527609,3.582043183628379zM123.09033027148455,1.141648424740032L126.53780739701526,4.134680576679511L128.59640821527609,3.582043183628379z" style="fill:rgb(42,41,169)"/><path d="M89.62813266119926,6.903549337688334L90.9763556124873,10.028180082041608L94.9909091974625,19.3321919998998z" style="fill:rgb(73,33,193)"/><path d="M31.693781641572333,15.154136142396517L86.35324445592221,42.18418073659993L82.5564306960903,33.74674185746576z" style="fill:rgb(42,41,169)"/><path d="M94.0933339398727,16.922819742058977L90.4328506732666,8.436669772849246L90.42329843643127,8.746421506770206z" style="fill:rgb(246,150,166)"/><path d="M122.99551468026297,-1.2780241226624771L123.09033027148455,1.141648424740032L128.59640821527609,3.582043183628379z" style="fill:rgb(42,41,169)"/><path d="M129.75983152199566,0.6659964957861804L126.38830982037625,-7.97129514563087L119.75494182434099,-9.56695798352175z" style="fill:rgb(58,35,183)"/><path d="M162.76595258347834,0.6362701597766558L169.06279781415327,-33.866810371991555L163.91000974840225,-64.56632125877668z" style="fill:rgb(83,212,212)"/><path d="M168.59832213983182,-25.51409483703184L171.6338714040113,-16.69926428594141L172.07238000653965,-25.047831104815504z" style="fill:rgb(245,143,172)"/><path d="M126.53780739701526,4.134680576679511L123.09033027148455,1.141648424740032L105.07795974785732,20.471943354988984z" style="fill:rgb(142,171,246)"/><path d="M126.40453775252044,0.2258939545573638L122.99551468026297,-1.2780241226624771L123.09033027148455,1.141648424740032z" style="fill:rgb(42,41,169)"/><path d="M90.2540253298568,14.233613744620135L93.93487967787114,22.71570496754224L94.08486984450423,17.232367082509104z" style="fill:rgb(246,150,166)"/><path d="M172.07238000653965,-25.047831104815504L169.06279781415327,-33.866810371991555L168.59832213983182,-25.51409483703184z" style="fill:rgb(245,143,172)"/><path d="M108.54469837275035,23.505231234799638L126.53780739701526,4.134680576679511L123.09033027148455,1.141648424740032z" style="fill:rgb(142,171,246)"/><path d="M98.20352689979175,23.27859115921153L91.54209337651409,7.787020515632719L89.62813266119926,6.903549337688334z" style="fill:rgb(42,41,169)"/><path d="M126.38830982037625,-7.97129514563087L129.75983152199566,0.6659964957861804L134.71339131708208,4.14122464516887z" style="fill:rgb(29,50,153)"/><path d="M125.65611128171253,-9.847069303311281L111.5078670889321,-11.00318195204794L97.38687433317911,-4.5518111094867555zM97.38687433317911,-4.5518111094867555L92.39886546595172,0.7183844292616712L89.62812188276921,6.903545551306564z" style="fill:rgb(83,212,212)"/><path d="M128.59640821527609,3.582043183628379L126.40453775252044,0.2258939545573638L123.09033027148455,1.141648424740032z" style="fill:rgb(42,41,169)"/><path d="M89.45462176250817,12.391485591682255L96.1685698238277,27.862981001929793L98.62442076763224,32.901748196449205z" style="fill:rgb(11,74,121)"/><path d="M94.08486984450423,17.232367082509104L90.42329843643127,8.746421506770206L90.2540253298568,14.233613744620135z" style="fill:rgb(246,150,166)"/><path d="M125.65611128171253,-9.847069303311281L119.01428774363362,-11.436998937043633L111.5078670889321,-11.00318195204794z" style="fill:rgb(83,212,212)"/><path d="M128.59640821527609,3.582043183628379L126.40453775252044,0.2258939545573638L122.99551468026297,-1.2780241226624771z" style="fill:rgb(42,41,169)"/><path d="M128.59640821527609,3.582043183628379L126.53780739701526,4.134680576679511L108.54469837275035,23.505231234799638z" style="fill:rgb(42,220,145)"/><path d="M98.20352689979175,23.27859115921153L91.54209337651409,7.787020515632719L91.21284338680034,11.203269653520527z" style="fill:rgb(246,145,170)"/><path d="M123.09033027148455,1.141648424740032L122.99551468026297,-1.2780241226624771L104.91532705399392,18.102023911171617z" style="fill:rgb(221,61,182)"/><path d="M97.89866186428752,26.688698370978944L100.06800921943645,31.649985146291193L93.37857726377396,16.155218492184378z" style="fill:rgb(10,76,118)"/><path d="M97.38687433317911,-4.5518111094867555L89.62812188276921,6.903545551306564L91.54209337651409,7.787020515632719zM92.39886546595172,0.7183844292616712L89.63791306662053,6.593755206186227L89.62812188276921,6.903545551306564z" style="fill:rgb(83,212,212)"/><path d="M123.09033027148455,1.141648424740032L105.07795974785732,20.471943354988984L108.54469837275035,23.505231234799638z" style="fill:rgb(142,171,246)"/><path d="M125.65611128171253,-9.847069303311281L97.38687433317911,-4.5518111094867555L91.54209337651409,7.787020515632719z" style="fill:rgb(83,212,212)"/><path d="M110.54766508386328,23.02770688569381L128.59640821527609,3.582043183628379L126.53780739701526,4.134680576679511z" style="fill:rgb(42,220,145)"/><path d="M105.07795974785732,20.471943354988984L108.54469837275035,23.505231234799638L126.53780739701526,4.134680576679511z" style="fill:rgb(142,171,246)"/><path d="M108.54469837275035,23.505231234799638L103.9126893603212,21.165730030564266L104.41406162096955,21.57017116684184z" style="fill:rgb(42,41,169)"/><path d="M104.91532705399392,18.102023911171617L105.07795974785732,20.471943354988984L123.09033027148455,1.141648424740032z" style="fill:rgb(221,61,182)"/><path d="M109.43191174242641,25.617921045329894L103.9126893603212,21.165730030564266L99.06072704929262,26.371355608348217z" style="fill:rgb(132,179,243)"/><path d="M99.41443299624376,26.549855776402847L100.26950774199888,31.807256784049144L104.66010199243753,35.23413275357618z" style="fill:rgb(28,51,153)"/><path d="M108.54469837275035,23.505231234799638L103.9126893603212,21.165730030564266L109.43191174242641,25.617921045329894zM108.54469837275035,23.505231234799638L102.7598496864867,18.443676955734222L103.9126893603212,21.165730030564266z" style="fill:rgb(42,41,169)"/><path d="M126.53780739701526,4.134680576679511L108.54469837275035,23.505231234799638L110.54766508386328,23.02770688569381z" style="fill:rgb(42,220,145)"/><path d="M134.71339131708208,4.14122464516887L131.36473423650673,-4.514403444951285L126.38830982037625,-7.97129514563087z" style="fill:rgb(29,50,153)"/><path d="M108.54469837275035,23.505231234799638L105.07795974785732,20.471943354988984L103.9126893603212,21.165730030564266z" style="fill:rgb(42,41,169)"/><path d="M110.54766508386328,23.02770688569381L128.59640821527609,3.582043183628379L126.40453775252044,0.2258939545573638z" style="fill:rgb(194,113,235)"/><path d="M105.07795974785732,20.471943354988984L101.93404015758314,16.493794233757317L103.9126893603212,21.165730030564266z" style="fill:rgb(42,41,169)"/><path d="M108.30168142184796,19.677486957426805L126.40453775252044,0.2258939545573638L122.99551468026297,-1.2780241226624771z" style="fill:rgb(83,212,212)"/><path d="M99.06072704929262,26.371355608348217L104.58503950873322,30.84329924080865L109.43191174242641,25.617921045329894z" style="fill:rgb(132,179,243)"/><path d="M93.37857726377396,16.155218492184378L91.21284338680034,11.203269653520527L97.89866186428752,26.688698370978944z" style="fill:rgb(10,76,118)"/><path d="M100.06800921943645,31.649985146291193L100.26950774199888,31.807256784049144L98.4835614607053,20.826384236388044z" style="fill:rgb(28,51,153)"/><path d="M43.61912425426277,55.00095778654355L50.44487505074257,50.799002268102335L24.2677060520499,10.27268769742855z" style="fill:rgb(83,212,212)"/><path d="M97.05498306946815,21.711918837620313L99.06072704929262,26.371355608348217L103.9126893603212,21.165730030564266z" style="fill:rgb(212,85,213)"/><path d="M131.36473423650673,-4.514403444951285L134.71339131708208,4.14122464516887L137.4059611322057,9.082126624548438z" style="fill:rgb(11,74,121)"/><path d="M50.44487505074257,50.799002268102335L58.05754712830008,48.431522185541574L24.2677060520499,10.27268769742855z" style="fill:rgb(83,212,212)"/><path d="M128.59640821527609,3.582043183628379L108.54469837275035,23.505231234799638L110.54774127601257,23.02760373836904z" style="fill:rgb(42,220,145)"/><path d="M91.21284338680034,11.203269653520527L91.54209337651409,7.787020515632719L89.62813266119926,6.903549337688334z" style="fill:rgb(83,212,212)"/><path d="M104.41406162096955,21.57017116684184L112.70565015351376,25.454762604916084L108.54469837275035,23.505231234799638z" style="fill:rgb(43,40,168)"/><path d="M91.90975578509942,17.41907546480115L98.62442076763224,32.901748196449205L103.4271150028064,36.566165053361026z" style="fill:rgb(29,50,153)"/><path d="M103.9126893603212,21.165730030564266L101.93404015758314,16.493794233757317L97.05498306946815,21.711918837620313z" style="fill:rgb(212,85,213)"/><path d="M38.366991392901504,60.55721314476848L43.61912425426277,55.00095778654355L24.2677060520499,10.27268769742855z" style="fill:rgb(83,212,212)"/><path d="M167.40010699726312,-16.95438702747809L170.46731561457705,-8.147788208331834L171.6338714040113,-16.69926428594141z" style="fill:rgb(244,137,177)"/><path d="M109.43191174242641,25.617921045329894L110.54766508386328,23.02770688569381L108.54469837275035,23.505231234799638zM104.91532705399392,18.102023911171617L105.07795974785732,20.471943354988984L108.54469837275035,23.505231234799638z" style="fill:rgb(42,41,169)"/><path d="M113.03538105876251,25.43832923364811L109.43191174242641,25.617921045329894L104.58503950873322,30.84329924080865z" style="fill:rgb(47,221,158)"/><path d="M122.99551468026297,-1.2780241226624771L104.91532705399392,18.102023911171617L108.30168142184796,19.677486957426805z" style="fill:rgb(83,212,212)"/><path d="M171.6338714040113,-16.69926428594141L168.59832213983182,-25.51409483703184L167.40010699726312,-16.95438702747809z" style="fill:rgb(244,137,177)"/><path d="M105.07795974785732,20.471943354988984L104.91532705399392,18.102023911171617L101.93404015758314,16.493794233757317z" style="fill:rgb(42,41,169)"/><path d="M104.66010199243753,35.23413275357618L102.44641641826205,30.070368821552698L99.41443299624376,26.549855776402847z" style="fill:rgb(28,51,153)"/><path d="M58.05754712830008,48.431522185541574L65.5824724844348,48.17886286990263L24.2677060520499,10.27268769742855zM167.40010699726312,-16.95438702747809L168.59832213983182,-25.51409483703184L169.06279781415327,-33.866810371991555z" style="fill:rgb(83,212,212)"/><path d="M98.62442076763224,32.901748196449205L91.90975578509942,17.41907546480115L89.45462176250817,12.391485591682255z" style="fill:rgb(11,74,121)"/><path d="M68.82769163828299,48.40594256935265L79.17177247048485,37.360791494788536L24.2677060520499,10.27268769742855zM37.486937758510265,62.36345254234269L38.366991392901504,60.55721314476848L24.2677060520499,10.27268769742855z" style="fill:rgb(83,212,212)"/><path d="M99.06072704929262,26.371355608348217L104.58503950873322,30.84329924080865L108.16663895953755,30.696351864485322zM109.43191174242641,25.617921045329894L113.03538105876251,25.43832923364811L110.54766508386328,23.02770688569381z" style="fill:rgb(42,41,169)"/><path d="M100.21365491120473,25.69215655210277L99.41443299624376,26.549855776402847L102.44641641826205,30.070368821552698z" style="fill:rgb(142,171,246)"/><path d="M126.40453775252044,0.2258939545573638L108.30168142184796,19.677486957426805L110.54766508386328,23.02770688569381z" style="fill:rgb(194,113,235)"/><path d="M102.44641641826205,30.070368821552698L103.6855702023034,28.736354720140856L100.21365491120473,25.69215655210277z" style="fill:rgb(142,171,246)"/><path d="M112.70565015351376,25.454762604916084L113.03538105876251,25.43832923364811L108.54469837275035,23.505231234799638z" style="fill:rgb(42,41,169)"/><path d="M108.54469837275035,23.505231234799638L110.54766508386328,23.02770688569381L110.54774127601257,23.02760373836904z" style="fill:rgb(32,209,150)"/><path d="M65.5824724844348,48.17886286990263L68.82769163828299,48.40594256935265L24.2677060520499,10.27268769742855zM-60.692858385586504,52.50099333462755L-56.56320082680193,55.68673796026417L65.64554153148683,106.96905152344688zM91.21284338680034,11.203269653520527L89.62813266119926,6.903549337688334L91.90975578509942,17.41907546480115zM89.62813266119926,6.903549337688334L89.45462176250817,12.391485591682255L91.90975578509942,17.41907546480115zM37.486937758510265,62.36345254234269L24.2677060520499,10.27268769742855L35.64338218565588,66.14718709059304z" style="fill:rgb(83,212,212)"/><path d="M108.30168142184796,19.677486957426805L104.91532705399392,18.102023911171617L108.54469837275035,23.505231234799638z" style="fill:rgb(42,41,169)"/><path d="M99.41443299624376,26.549855776402847L100.21365491120473,25.69215655210277L100.03250013433653,23.33589309097693z" style="fill:rgb(221,61,182)"/><path d="M91.54209337651409,7.787020515632719L91.21284338680034,11.203269653520527L93.37857726377396,16.155218492184378z" style="fill:rgb(83,212,212)"/><path d="M108.54469837275035,23.505231234799638L110.54766508386328,23.02770688569381L108.30168142184796,19.677486957426805zM104.91532705399392,18.102023911171617L105.50040944683383,16.255891574752923L101.93404015758314,16.493794233757317zM113.03538105876251,25.43832923364811L111.89778404424911,22.705827849991472L108.54469837275035,23.505231234799638z" style="fill:rgb(42,41,169)"/><path d="M104.58503950873322,30.84329924080865L108.16663895953755,30.696351864485322L113.03538105876251,25.43832923364811z" style="fill:rgb(47,221,158)"/><path d="M104.66010199243753,35.23413275357618L111.07986803893725,36.926969160268214L107.3807556487974,28.182591100503185z" style="fill:rgb(59,35,184)"/><path d="M100.59911387607963,21.50656574655522L97.05498306946815,21.711918837620313L99.06072704929262,26.371355608348217z" style="fill:rgb(42,41,169)"/><path d="M82.5564306960903,33.74674185746576L90.2540253298568,14.233613744620135L90.4328506732666,8.436669772849246z" style="fill:rgb(83,212,212)"/><path d="M133.37928268275306,4.368752982498332L139.51196558253125,20.164522529943806L139.4357733878099,14.339066363038821z" style="fill:rgb(246,150,166)"/><path d="M35.308886874272936,66.83370992507004L35.64338218565588,66.14718709059304L24.2677060520499,10.27268769742855z" style="fill:rgb(83,212,212)"/><path d="M107.3807556487974,28.182591100503185L102.44641641826205,30.070368821552698L104.66010199243753,35.23413275357618z" style="fill:rgb(59,35,184)"/><path d="M137.4059611322057,9.082126624548438L134.06073048066176,0.4184159603726659L131.36473423650673,-4.514403444951285z" style="fill:rgb(11,74,121)"/><path d="M103.6855702023034,28.736354720140856L102.44641641826205,30.070368821552698L104.87237741560604,29.142244051721374zM103.6855702023034,28.736354720140856L102.44641641826205,30.070368821552698L104.87237741560604,29.142244051721374z" style="fill:rgb(42,220,145)"/><path d="M99.41443299624376,26.549855776402847L102.44641641826205,30.070368821552698L100.47399709643281,25.46940054002093z" style="fill:rgb(28,51,153)"/><path d="M119.75494182434099,-9.56695798352175L126.38830982037625,-7.97129514563087L162.76595258347834,0.6362701597766558z" style="fill:rgb(83,212,212)"/><path d="M100.59911387607963,21.50656574655522L101.93404015758314,16.493794233757317L97.05498306946815,21.711918837620313z" style="fill:rgb(47,221,158)"/><path d="M94.71064119173252,20.76878236815148L96.71961834861686,25.415258945013775L98.38365599764879,29.263887278340952z" style="fill:rgb(181,61,221)"/><path d="M100.03250013433653,23.33589309097693L99.06106126981328,24.377168939108135L99.41443299624376,26.549855776402847z" style="fill:rgb(221,61,182)"/><path d="M98.00557177013044,19.71141886871391L93.37857726377396,16.155218492184378L100.06800921943645,31.649985146291193z" style="fill:rgb(28,51,153)"/><path d="M113.03538105876251,25.43832923364811L108.30168142184796,19.677486957426805L110.54766508386328,23.02770688569381z" style="fill:rgb(42,41,169)"/><path d="M133.33415783715776,-1.4633074221665512L130.63745917941452,-6.3942629936173025L125.65611128171253,-9.847069303311281z" style="fill:rgb(83,212,212)"/><path d="M99.06072704929262,26.371355608348217L108.16663895953755,30.696351864485322L100.59911387607963,21.50656574655522z" style="fill:rgb(42,41,169)"/><path d="M96.74939366037005,21.054284711582486L103.4271150028064,36.566165053361026L110.02236435643589,38.383354648500344z" style="fill:rgb(58,35,183)"/><path d="M99.41443299624376,26.549855776402847L100.47399709643281,25.46940054002093L99.06106126981328,24.377168939108135z" style="fill:rgb(28,51,153)"/><path d="M86.35324445592221,42.18418073659993L98.38365599764879,29.263887278340952L94.71064119173252,20.76878236815148z" style="fill:rgb(212,85,213)"/><path d="M168.56266723111563,0.5697734321497636L170.46731561457705,-8.147788208331834L167.40010699726312,-16.95438702747809z" style="fill:rgb(242,131,182)"/><path d="M104.87237741560604,29.142244051721374L105.67327882236506,28.279364111546947L103.6855702023034,28.736354720140856zM104.87237741560604,29.142244051721374L105.67327882236506,28.279364111546947L103.6855702023034,28.736354720140856z" style="fill:rgb(42,220,145)"/><path d="M105.50040944683383,16.255891574752923L104.91532705399392,18.102023911171617L108.30168142184796,19.677486957426805zM113.03538105876251,25.43832923364811L105.50040944683383,16.255891574752923L108.30168142184796,19.677486957426805z" style="fill:rgb(42,41,169)"/><path d="M100.59911387607963,21.50656574655522L105.50040944683383,16.255891574752923L101.93404015758314,16.493794233757317z" style="fill:rgb(47,221,158)"/><path d="M100.47399709643281,25.46940054002093L102.44641641826205,30.070368821552698L104.87237741560604,29.142244051721374z" style="fill:rgb(59,35,184)"/><path d="M34.83032642688483,73.10260788997826L35.308886874272936,66.83370992507004L24.2677060520499,10.27268769742855z" style="fill:rgb(83,212,212)"/><path d="M98.4835614607053,20.826384236388044L98.00557177013044,19.71141886871391L100.06800921943645,31.649985146291193z" style="fill:rgb(28,51,153)"/><path d="M-56.56320082680193,55.68673796026417L-53.55123175295354,59.79079370729079L65.64554153148683,106.96905152344688zM93.37857726377396,16.155218492184378L91.21284338680034,11.203269653520527L91.90975578509942,17.41907546480115zM100.03250013433653,23.33589309097693L99.06106126981328,24.377168939108135L100.47399709643281,25.46940054002093z" style="fill:rgb(83,212,212)"/><path d="M108.16663895953755,30.696351864485322L113.03538105876251,25.43832923364811L111.08286290245539,20.74838948815995z" style="fill:rgb(212,85,213)"/><path d="M113.03538105876251,25.43832923364811L111.08286290245539,20.74838948815995L105.50040944683383,16.255891574752923z" style="fill:rgb(42,41,169)"/><path d="M91.54209337651409,7.787020515632719L116.42470277534872,19.272641942470322L125.65611128171253,-9.847069303311281z" style="fill:rgb(83,212,212)"/><path d="M103.4271150028064,36.566165053361026L96.74939366037005,21.054284711582486L91.90975578509942,17.41907546480115z" style="fill:rgb(29,50,153)"/><path d="M139.4357733878099,14.339066363038821L133.33415783715776,-1.4633074221665512L133.37928268275306,4.368752982498332z" style="fill:rgb(246,150,166)"/><path d="M100.47399709643281,25.46940054002093L102.43986629317878,25.97602400554905L100.03250013433653,23.33589309097693zM82.5564306960903,33.74674185746576L92.70930530453111,19.262675256658206L90.2540253298568,14.233613744620135z" style="fill:rgb(83,212,212)"/><path d="M102.43986629317878,25.97602400554905L104.87237741560604,29.142244051721374L105.67327882236506,28.279364111546947z" style="fill:rgb(194,113,235)"/><path d="M76.23439371477555,58.28903978779465L101.20572545867716,31.40603777313556L98.14791767176318,27.909037626151918z" style="fill:rgb(142,171,246)"/><path d="M102.43986629317878,25.97602400554905L103.41256496466303,24.93085916036405L100.03250013433653,23.33589309097693zM126.38830982037625,-7.97129514563087L131.36473423650673,-4.514403444951285L162.76595258347834,0.6362701597766558z" style="fill:rgb(83,212,212)"/><path d="M104.87237741560604,29.142244051721374L102.43986629317878,25.97602400554905L100.47399709643281,25.46940054002093z" style="fill:rgb(59,35,184)"/><path d="M-51.789717004880806,64.67071619213569L-51.36716300950314,70.14939630229443L-26.460577189770483,137.58275879353684z" style="fill:rgb(83,212,212)"/><path d="M105.67327882236506,28.279364111546947L103.41256496466303,24.93085916036405L102.43986629317878,25.97602400554905z" style="fill:rgb(194,113,235)"/><path d="M57.38354066379414,64.00819018938768L59.25016490515643,64.99325910827076L51.8529540959032,49.84313786231656z" style="fill:rgb(42,41,169)"/><path d="M72.73359394431768,55.182874291217736L98.14791767176318,27.909037626151918L97.79910426596126,25.729858530757355z" style="fill:rgb(221,61,182)"/><path d="M162.76595258347834,0.6362701597766558L167.40010699726312,-16.95438702747809L169.06279781415327,-33.866810371991555zM91.54209337651409,7.787020515632719L93.37857726377396,16.155218492184378L104.49494327896802,21.360793468214844z" style="fill:rgb(83,212,212)"/><path d="M130.72675630868957,10.393389122278291L136.92524894325908,26.162075354084337L139.51196558253125,20.164522529943806z" style="fill:rgb(236,117,193)"/><path d="M98.4835614607053,20.826384236388044L99.06106126981328,24.377168939108135L100.47399709643281,25.46940054002093z" style="fill:rgb(28,51,153)"/><path d="M108.16663895953755,30.696351864485322L111.08286290245539,20.74838948815995L106.18679328509134,26.019211781750954z" style="fill:rgb(212,85,213)"/><path d="M51.8529540959032,49.84313786231656L59.25016490515643,64.99325910827076L63.59972365306801,63.47175249593651z" style="fill:rgb(144,42,221)"/><path d="M102.43986629317878,25.97602400554905L104.87237741560604,29.142244051721374L107.3807556487974,28.182591100503185z" style="fill:rgb(59,35,184)"/><path d="M106.18679328509134,26.019211781750954L111.08286290245539,20.74838948815995L105.50040944683383,16.255891574752923z" style="fill:rgb(132,179,243)"/><path d="M103.60322099267363,30.50963874966395L101.20572545867716,31.40603777313556L76.23439371477555,58.28903978779465z" style="fill:rgb(42,220,145)"/><path d="M108.16663895953755,30.696351864485322L106.18679328509134,26.019211781750954L100.59911387607963,21.50656574655522z" style="fill:rgb(42,41,169)"/><path d="M106.18679328509134,26.019211781750954L105.50040944683383,16.255891574752923L100.59911387607963,21.50656574655522z" style="fill:rgb(132,179,243)"/><path d="M103.4156579998809,22.82706056341514L110.02236435643589,38.383354648500344L117.6113215576758,38.10205241473923z" style="fill:rgb(96,32,206)"/><path d="M111.07986803893725,36.926969160268214L118.45604417027974,36.468576963250726L111.966089929323,20.848792864522384z" style="fill:rgb(100,32,208)"/><path d="M-53.55123175295354,59.79079370729079L-51.789717004880806,64.67071619213569L65.64554153148683,106.96905152344688z" style="fill:rgb(83,212,212)"/><path d="M51.467107828452114,51.925918736857376L54.51242930506911,59.097540650886806L62.06684358077407,56.761332578926364z" style="fill:rgb(137,40,220)"/><path d="M98.00557177013044,19.71141886871391L93.37857726377396,16.155218492184378L91.90975578509942,17.41907546480115z" style="fill:rgb(83,212,212)"/><path d="M98.00557177013044,19.71141886871391L100.47399709643281,25.46940054002093L102.43986629317878,25.97602400554905z" style="fill:rgb(59,35,184)"/><path d="M130.72675630868957,10.393389122278291L133.33415783715776,-1.4633074221665512L125.65611128171253,-9.847069303311281z" style="fill:rgb(83,212,212)"/><path d="M94.71064119173252,20.76878236815148L82.5564306960903,33.74674185746576L86.35324445592221,42.18418073659993z" style="fill:rgb(212,85,213)"/><path d="M82.5564306960903,33.74674185746576L94.71054037903919,20.768711086588773L92.70930530453111,19.262675256658206z" style="fill:rgb(83,212,212)"/><path d="M43.61912425426277,55.00095778654355L47.74637253106695,63.26934946714496L54.51242930506911,59.097540650886806z" style="fill:rgb(178,58,222)"/><path d="M56.26529583385526,48.28830412177793L63.59972365306801,63.47175249593651L70.8497649298316,63.09069908513447z" style="fill:rgb(100,32,208)"/><path d="M167.40010699726312,-16.95438702747809L165.45801225188947,-8.224492025486462L168.56266723111563,0.5697734321497636z" style="fill:rgb(242,131,182)"/><path d="M37.02830762638207,78.61651822095516L34.83032642688483,73.10260788997826L10.71706913566863,19.95772009997044z" style="fill:rgb(83,212,212)"/><path d="M78.13413005984368,57.9499358911069L103.60322099267363,30.50963874966395L101.20572545867716,31.40603777313556z" style="fill:rgb(42,220,145)"/><path d="M111.966089929323,20.848792864522384L118.45604417027974,36.468576963250726L122.85048445724028,34.926433565207134z" style="fill:rgb(144,42,221)"/><path d="M82.5564306960903,33.74674185746576L94.71064119173252,20.76878236815148L94.71054037903919,20.768711086588773z" style="fill:rgb(83,212,212)"/><path d="M107.3807556487974,28.182591100503185L98.00557177013044,19.71141886871391L102.43986629317878,25.97602400554905z" style="fill:rgb(59,35,184)"/><path d="M41.68183219682808,82.69407076979681L37.02830762638207,78.61651822095516L-22.901183732914266,26.230046065841815zM99.22642996767394,26.808282252818024L97.79910426596126,25.729858530757355L72.44613655348405,52.9055516306001zM131.36473423650673,-4.514403444951285L134.06073048066176,0.4184159603726659L162.76595258347834,0.6362701597766558z" style="fill:rgb(83,212,212)"/><path d="M98.14791767176318,27.909037626151918L72.73359394431768,55.182874291217736L76.23439371477555,58.28903978779465z" style="fill:rgb(142,171,246)"/><path d="M125.67639073623116,15.857958676876367L131.96794181086852,31.582633335419636L136.92524894325908,26.162075354084337z" style="fill:rgb(212,85,213)"/><path d="M116.42470277534872,19.272641942470322L122.85048445724028,34.926433565207134L124.83743968743339,35.86544498012253z" style="fill:rgb(42,41,169)"/><path d="M51.467107828452114,51.925918736857376L51.05933846986099,52.052625210977915L54.51242930506911,59.097540650886806z" style="fill:rgb(137,40,220)"/><path d="M110.02236435643589,38.383354648500344L103.4156579998809,22.82706056341514L96.74939366037005,21.054284711582486z" style="fill:rgb(58,35,183)"/><path d="M111.10128672836981,22.490983057357198L117.6113215576758,38.10205241473923L124.83743968743339,35.86544498012253z" style="fill:rgb(137,40,220)"/><path d="M38.366991392901504,60.55721314476848L42.54880930692958,68.79983125339703L47.74637253106695,63.26934946714496z" style="fill:rgb(212,85,213)"/><path d="M139.51196558253125,20.164522529943806L133.37928268275306,4.368752982498332L130.72675630868957,10.393389122278291z" style="fill:rgb(236,117,193)"/><path d="M58.05754712830008,48.431522185541574L62.06684358077407,56.761332578926364L69.54130701795597,56.537506434802616z" style="fill:rgb(96,32,206)"/><path d="M72.44613655348405,52.9055516306001L101.17626853340249,27.333767689627038L99.22642996767394,26.808282252818024z" style="fill:rgb(83,212,212)"/><path d="M78.13405114100871,57.95003908887984L103.60322099267363,30.50963874966395L101.17626853340249,27.333767689627038z" style="fill:rgb(194,113,235)"/><path d="M62.06684358077407,56.761332578926364L50.853110310759085,50.67204199420396L51.467107828452114,51.925918736857376z" style="fill:rgb(137,40,220)"/><path d="M118.84789220490424,20.06866476180678L125.24803994173125,35.738355892149386L131.96794181086852,31.582633335419636z" style="fill:rgb(178,58,222)"/><path d="M51.8529540959032,49.84313786231656L49.970280578421196,48.86915036550368L57.38354066379414,64.00819018938768z" style="fill:rgb(42,41,169)"/><path d="M54.51242930506911,59.097540650886806L50.44487505074257,50.799002268102335L43.61912425426277,55.00095778654355z" style="fill:rgb(178,58,222)"/><path d="M124.83743968743339,35.86544498012253L125.24803994173125,35.738355892149386L118.84789220490424,20.06866476180678z" style="fill:rgb(137,40,220)"/><path d="M91.54209337651409,7.787020515632719L104.49494327896802,21.360793468214844L116.42470277534872,19.272641942470322zM93.37857726377396,16.155218492184378L98.00557177013044,19.71141886871391L104.49494327896802,21.360793468214844z" style="fill:rgb(83,212,212)"/><path d="M101.20572545867716,31.40603777313556L76.23439371477555,58.28903978779465L78.13405114100871,57.95003908887984z" style="fill:rgb(42,220,145)"/><path d="M98.00557177013044,19.71141886871391L91.90975578509942,17.41907546480115L103.4156579998809,22.82706056341514z" style="fill:rgb(83,212,212)"/><path d="M78.90804739121118,59.9327070435623L73.23587311075262,57.01821339984711L75.15494791699079,61.8549694303243z" style="fill:rgb(42,41,169)"/><path d="M62.06684358077407,56.761332578926364L58.05754712830008,48.431522185541574L50.853110310759085,50.67204199420396z" style="fill:rgb(137,40,220)"/><path d="M78.90804739121118,59.9327070435623L75.15494791699079,61.8549694303243L81.75241833717128,65.26786747324526z" style="fill:rgb(42,41,169)"/><path d="M91.90975578509942,17.41907546480115L96.74939366037005,21.054284711582486L103.4156579998809,22.82706056341514zM116.42470277534872,19.272641942470322L130.72675630868957,10.393389122278291L125.65611128171253,-9.847069303311281z" style="fill:rgb(83,212,212)"/><path d="M111.966089929323,20.848792864522384L104.49494327896802,21.360793468214844L111.07986803893725,36.926969160268214z" style="fill:rgb(100,32,208)"/><path d="M97.79910426596126,25.729858530757355L72.44613655348405,52.9055516306001L72.73359394431768,55.182874291217736z" style="fill:rgb(221,61,182)"/><path d="M63.60628097313204,47.85589777261386L70.8497649298316,63.09069908513447L77.17831378850889,64.92356973074833zM107.3807556487974,28.182591100503185L104.49494327896802,21.360793468214844L98.00557177013044,19.71141886871391z" style="fill:rgb(59,35,184)"/><path d="M47.74637253106695,63.26934946714496L43.61912425426277,55.00095778654355L38.366991392901504,60.55721314476848z" style="fill:rgb(212,85,213)"/><path d="M63.59972365306801,63.47175249593651L56.26529583385526,48.28830412177793L51.8529540959032,49.84313786231656z" style="fill:rgb(144,42,221)"/><path d="M162.76595258347834,0.6362701597766558L165.91389127751944,9.414114803754392L168.56266723111563,0.5697734321497636z" style="fill:rgb(240,125,187)"/><path d="M68.82769163828299,48.40594256935265L72.76580518901409,56.776679684206215L83.00328342397823,45.78193755967431z" style="fill:rgb(212,85,213)"/><path d="M51.05933846986099,52.052625210977915L51.467107828452114,51.925918736857376L50.853110310759085,50.67204199420396z" style="fill:rgb(137,40,220)"/><path d="M76.23439371477555,58.28903978779465L78.13405114100871,57.95003908887984L103.60322099267363,30.50963874966395z" style="fill:rgb(42,220,145)"/><path d="M168.56266723111563,0.5697734321497636L165.45801225188947,-8.224492025486462L162.76595258347834,0.6362701597766558z" style="fill:rgb(240,125,187)"/><path d="M50.853110310759085,50.67204199420396L50.44487505074257,50.799002268102335L51.05933846986099,52.052625210977915z" style="fill:rgb(137,40,220)"/><path d="M74.62963692274982,49.961546198061704L81.75241833717128,65.26786747324526L107.27639847580998,37.62675194193061z" style="fill:rgb(212,85,213)"/><path d="M134.06073048066176,0.4184159603726659L134.1096051751891,6.249822580971723L162.76595258347834,0.6362701597766558z" style="fill:rgb(83,212,212)"/><path d="M73.4053740015236,56.83610881900998L76.23439371477555,58.28903978779465L72.73359394431768,55.182874291217736zM67.97223559517987,46.587616763854285L75.15494791699079,61.8549694303243L73.23587311075262,57.01821339984711z" style="fill:rgb(42,41,169)"/><path d="M65.5824724844348,48.17886286990263L69.54130701795597,56.537506434802616L72.78742154867578,57.499998005869884z" style="fill:rgb(58,35,183)"/><path d="M69.83990340931679,60.666631611363904L67.27313215124396,58.51443343689076L73.62414965160762,64.15967014308876z" style="fill:rgb(42,41,169)"/><path d="M79.07794265375989,59.74942762485234L73.4053740015236,56.83610881900998L73.23587311075262,57.01821339984711z" style="fill:rgb(83,212,212)"/><path d="M70.88238920418227,52.01187612667212L73.23587311075262,57.01821339984711L73.4053740015236,56.83610881900998z" style="fill:rgb(212,85,213)"/><path d="M73.62414965160762,64.15967014308876L67.27313215124396,58.51443343689076L64.71738363871498,61.25400622523406z" style="fill:rgb(142,171,246)"/><path d="M72.78742154867578,57.499998005869884L73.23587311075262,57.01821339984711L70.88238920418227,52.01187612667212z" style="fill:rgb(212,85,213)"/><path d="M162.76595258347834,0.6362701597766558L165.45801225188947,-8.224492025486462L167.40010699726312,-16.95438702747809z" style="fill:rgb(83,212,212)"/><path d="M83.00328342397823,45.78193755967431L79.17177247048485,37.360791494788536L68.82769163828299,48.40594256935265z" style="fill:rgb(212,85,213)"/><path d="M130.72675630868957,10.393389122278291L133.37928268275306,4.368752982498332L133.33415783715776,-1.4633074221665512zM74.79105165772889,59.84287197285468L71.48768939490179,58.89634789254155L69.83990340931679,60.666631611363904z" style="fill:rgb(83,212,212)"/><path d="M117.6113215576758,38.10205241473923L111.10128672836981,22.490983057357198L103.4156579998809,22.82706056341514z" style="fill:rgb(96,32,206)"/><path d="M35.308886874272936,66.83370992507004L39.53389778854659,75.0576435319171L42.54880930692958,68.79983125339703z" style="fill:rgb(236,117,193)"/><path d="M136.92524894325908,26.162075354084337L130.72675630868957,10.393389122278291L125.67639073623116,15.857958676876367z" style="fill:rgb(212,85,213)"/><path d="M71.05294950006729,51.82926584026704L73.4053740015236,56.83610881900998L72.73359394431768,55.182874291217736z" style="fill:rgb(42,41,169)"/><path d="M107.27639847580998,37.62675194193061L100.64001537537287,22.08892106832319L74.62963692274982,49.961546198061704z" style="fill:rgb(212,85,213)"/><path d="M96.74939366037005,21.054284711582486L93.91287594634932,18.923676545854732L67.97223559517987,46.587616763854285z" style="fill:rgb(83,212,212)"/><path d="M122.85048445724028,34.926433565207134L116.42470277534872,19.272641942470322L111.966089929323,20.848792864522384z" style="fill:rgb(144,42,221)"/><path d="M69.54130701795597,56.537506434802616L65.5824724844348,48.17886286990263L58.05754712830008,48.431522185541574z" style="fill:rgb(96,32,206)"/><path d="M64.71738363871498,61.25400622523406L71.07320823874235,66.90974564646827L73.62414965160762,64.15967014308876z" style="fill:rgb(142,171,246)"/><path d="M70.8497649298316,63.09069908513447L63.60628097313204,47.85589777261386L56.26529583385526,48.28830412177793z" style="fill:rgb(100,32,208)"/><path d="M103.4156579998809,22.82706056341514L104.49494327896802,21.360793468214844L98.00557177013044,19.71141886871391z" style="fill:rgb(83,212,212)"/><path d="M67.46516352970468,55.670458242771446L69.83990340931679,60.666631611363904L71.48768939490179,58.89634789254155z" style="fill:rgb(212,85,213)"/><path d="M-60.692858385586504,52.50099333462755L48.25781180046924,84.80915846854296L41.68183219682808,82.69407076979681z" style="fill:rgb(83,212,212)"/><path d="M73.4053740015236,56.83610881900998L71.05294950006729,51.82926584026704L70.88238920418227,52.01187612667212z" style="fill:rgb(212,85,213)"/><path d="M73.23587311075262,57.01821339984711L78.90804739121118,59.9327070435623L79.07794265375989,59.74942762485234zM72.44613655348405,52.9055516306001L75.78932974949849,54.61213203231015L101.17626853340249,27.333767689627038z" style="fill:rgb(83,212,212)"/><path d="M66.71220818077892,54.39104457311981L67.27313215124396,58.51443343689076L69.83990340931679,60.666631611363904z" style="fill:rgb(42,41,169)"/><path d="M72.78742154867578,57.499998005869884L76.06469553488189,58.47172744343486L73.71957420166126,53.45991118384242z" style="fill:rgb(58,35,183)"/><path d="M42.54880930692958,68.79983125339703L38.366991392901504,60.55721314476848L35.308886874272936,66.83370992507004z" style="fill:rgb(236,117,193)"/><path d="M70.88238920418227,52.01187612667212L70.4311390953245,52.49499930809933L72.78742154867578,57.499998005869884z" style="fill:rgb(212,85,213)"/><path d="M75.50414529982433,63.60479712831453L69.83990340931679,60.666631611363904L73.62414965160762,64.15967014308876z" style="fill:rgb(42,41,169)"/><path d="M77.15578787220562,61.82301977724279L74.79105165772889,59.84287197285468L69.83990340931679,60.666631611363904z" style="fill:rgb(83,212,212)"/><path d="M72.73359394431768,55.182874291217736L76.23439371477555,58.28903978779465L78.13405114100871,57.95003908887984z" style="fill:rgb(42,41,169)"/><path d="M101.17626853340249,27.333767689627038L75.78932974949849,54.61213203231015L78.13405114100871,57.95003908887984z" style="fill:rgb(194,113,235)"/><path d="M124.83743968743339,35.86544498012253L118.43137468903952,20.198908160980118L116.42470277534872,19.272641942470322z" style="fill:rgb(42,41,169)"/><path d="M104.20245928494118,24.67967822482591L101.43032137535604,23.939296992248593L89.24404720699084,37.01449024482957z" style="fill:rgb(83,212,212)"/><path d="M124.83743968743339,35.86544498012253L118.43137468903952,20.198908160980118L111.10128672836981,22.490983057357198z" style="fill:rgb(137,40,220)"/><path d="M65.5824724844348,48.17886286990263L72.78742154867578,57.499998005869884L70.4311390953245,52.49499930809933z" style="fill:rgb(58,35,183)"/><path d="M131.96794181086852,31.582633335419636L125.67639073623116,15.857958676876367L118.84789220490424,20.06866476180678z" style="fill:rgb(178,58,222)"/><path d="M64.13815133272733,57.14426938002119L64.71738363871498,61.25400622523406L67.27313215124396,58.51443343689076z" style="fill:rgb(221,61,182)"/><path d="M71.05294950006729,51.82926584026704L72.73359394431768,55.182874291217736L72.44613655348405,52.9055516306001z" style="fill:rgb(42,41,169)"/><path d="M51.8529540959032,49.84313786231656L49.970275032923325,48.86914483171924L49.56135824880918,48.996470921192426zM100.64001537537287,22.08892106832319L96.74939366037005,21.054284711582486L67.97223559517987,46.587616763854285z" style="fill:rgb(83,212,212)"/><path d="M73.71957420166126,53.45991118384242L70.4311390953245,52.49499930809933L72.78742154867578,57.499998005869884z" style="fill:rgb(58,35,183)"/><path d="M118.84789220490424,20.06866476180678L118.43137468903952,20.198908160980118L124.83743968743339,35.86544498012253z" style="fill:rgb(137,40,220)"/><path d="M134.1096051751891,6.249822580971723L131.4649584109616,12.271338940850233L162.76595258347834,0.6362701597766558z" style="fill:rgb(83,212,212)"/><path d="M71.48768939490179,58.89634789254155L69.12327564881889,53.895235045494644L67.46516352970468,55.670458242771446z" style="fill:rgb(212,85,213)"/><path d="M57.18667222774128,46.622172635283874L49.970280578421196,48.86915036550368L51.8529540959032,49.84313786231656z" style="fill:rgb(83,212,212)"/><path d="M78.13405114100871,57.95003908887984L76.23439371477555,58.28903978779465L79.07794265375989,59.74942762485234zM78.2322444837656,57.93251520215032L76.23439371477555,58.28903978779465L79.07794265375989,59.74942762485234z" style="fill:rgb(42,41,169)"/><path d="M49.56135824880918,48.996470921192426L42.72263563900884,53.204963342016526L37.45862849417329,58.76677551797355zM69.83990340931679,60.666631611363904L75.50414529982433,63.60479712831453L77.15578787220562,61.82301977724279z" style="fill:rgb(83,212,212)"/><path d="M64.13815133272733,57.14426938002119L64.71738363871498,61.25400622523406L71.07320823874235,66.90974564646827z" style="fill:rgb(42,41,169)"/><path d="M70.00098655356778,49.64839049487838L77.17831378850889,64.92356973074833L81.73524960882223,68.7560151879172z" style="fill:rgb(28,51,153)"/><path d="M67.97223559517987,46.587616763854285L73.23587311075262,57.01821339984711L70.88238920418227,52.01187612667212zM67.46516352970468,55.670458242771446L69.83990340931679,60.666631611363904L75.50414529982433,63.60479712831453z" style="fill:rgb(42,41,169)"/><path d="M77.06599644085667,63.586894752710705L73.62414965160762,64.15967014308876L71.07320823874235,66.90974564646827z" style="fill:rgb(42,220,145)"/><path d="M51.8529540959032,49.84313786231656L49.56135824880918,48.996470921192426L37.45862849417329,58.76677551797355z" style="fill:rgb(83,212,212)"/><path d="M76.57140606757315,54.91542167140849L78.90804739121118,59.9327070435623L81.75241833717128,65.26786747324526zM75.78932974949849,54.61213203231015L72.44613655348405,52.9055516306001L72.73359394431768,55.182874291217736z" style="fill:rgb(42,41,169)"/><path d="M103.4156579998809,22.82706056341514L111.966089929323,20.848792864522384L104.49494327896802,21.360793468214844z" style="fill:rgb(83,212,212)"/><path d="M66.71220818077892,54.39104457311981L69.83990340931679,60.666631611363904L67.46516352970468,55.670458242771446z" style="fill:rgb(42,41,169)"/><path d="M57.18667222774128,46.622172635283874L51.8529540959032,49.84313786231656L56.26529583385526,48.28830412177793zM111.87661025305107,24.35020529807432L104.20245928494118,24.67967822482591L89.24404720699084,37.01449024482957z" style="fill:rgb(83,212,212)"/><path d="M78.13405114100871,57.95003908887984L75.78932974949849,54.61213203231015L72.73359394431768,55.182874291217736z" style="fill:rgb(42,41,169)"/><path d="M67.27313215124396,58.51443343689076L66.71220818077892,54.39104457311981L64.13815133272733,57.14426938002119z" style="fill:rgb(221,61,182)"/><path d="M71.05294950006729,51.82926584026704L70.4311390953245,52.49499930809933L73.71957420166126,53.45991118384242z" style="fill:rgb(83,212,212)"/><path d="M76.06469553488189,58.47172744343486L78.45855103632091,60.41761855561628L76.11909515665842,55.40169226198302z" style="fill:rgb(29,50,153)"/><path d="M75.50414529982433,63.60479712831453L73.62414965160762,64.15967014308876L77.06599644085667,63.586894752710705z" style="fill:rgb(42,41,169)"/><path d="M104.49494327896802,21.360793468214844L111.966089929323,20.848792864522384L116.42470277534872,19.272641942470322z" style="fill:rgb(83,212,212)"/><path d="M70.4311390953245,52.49499930809933L73.71957420166126,53.45991118384242L65.5824724844348,48.17886286990263z" style="fill:rgb(58,35,183)"/><path d="M57.18667222774128,46.622172635283874L56.26529583385526,48.28830412177793L63.60628097313204,47.85589777261386zM103.4156579998809,22.82706056341514L111.10128672836981,22.490983057357198L111.966089929323,20.848792864522384zM131.4649584109616,12.271338940850233L126.42570136463773,17.730731449764324L162.76595258347834,0.6362701597766558zM63.60628097313204,47.85589777261386L56.26529583385526,48.28830412177793L51.8529540959032,49.84313786231656z" style="fill:rgb(83,212,212)"/><path d="M78.45855103632091,60.41761855561628L79.07794265375989,59.74942762485234L76.74236679844206,54.731628855911815z" style="fill:rgb(212,85,213)"/><path d="M77.17831378850889,64.92356973074833L70.00098655356778,49.64839049487838L63.60628097313204,47.85589777261386z" style="fill:rgb(59,35,184)"/><path d="M76.11909515665842,55.40169226198302L73.71957420166126,53.45991118384242L76.06469553488189,58.47172744343486z" style="fill:rgb(29,50,153)"/><path d="M76.74236679844206,54.731628855911815L71.05294950006729,51.82926584026704L72.44613655348405,52.9055516306001z" style="fill:rgb(42,41,169)"/><path d="M72.43795677047501,54.83488477700312L69.12327564881889,53.895235045494644L67.46516352970468,55.670458242771446z" style="fill:rgb(83,212,212)"/><path d="M34.83032642688483,73.10260788997826L39.08179805371037,81.3169769711148L39.53389778854659,75.0576435319171z" style="fill:rgb(246,150,166)"/><path d="M119.61013275856055,21.934906050400716L111.87661025305107,24.35020529807432L89.24404720699084,37.01449024482957z" style="fill:rgb(83,212,212)"/><path d="M159.322254291097,9.586233810546169L162.519321463272,18.343628999006828L165.91389127751944,9.414114803754392z" style="fill:rgb(237,120,191)"/><path d="M78.13405114100871,57.95003908887984L79.07794265375989,59.74942762485234L76.74236679844206,54.731628855911815z" style="fill:rgb(42,41,169)"/><path d="M73.71957420166126,53.45991118384242L76.74236679844206,54.731628855911815L71.05294950006729,51.82926584026704zM111.10128672836981,22.490983057357198L116.42470277534872,19.272641942470322L111.966089929323,20.848792864522384zM126.42570136463773,17.730731449764324L119.61013275856055,21.934906050400716L162.76595258347834,0.6362701597766558z" style="fill:rgb(83,212,212)"/><path d="M71.07320823874235,66.90974564646827L74.4998385685849,66.35734441054998L64.13815133272733,57.14426938002119z" style="fill:rgb(42,41,169)"/><path d="M119.61013275856055,21.934906050400716L89.24404720699084,37.01449024482957L162.76595258347834,0.6362701597766558z" style="fill:rgb(83,212,212)"/><path d="M165.91389127751944,9.414114803754392L162.76595258347834,0.6362701597766558L159.322254291097,9.586233810546169z" style="fill:rgb(237,120,191)"/><path d="M116.42470277534872,19.272641942470322L118.84789220490424,20.06866476180678L130.72675630868957,10.393389122278291z" style="fill:rgb(83,212,212)"/><path d="M39.53389778854659,75.0576435319171L35.308886874272936,66.83370992507004L34.83032642688483,73.10260788997826z" style="fill:rgb(246,150,166)"/><path d="M72.44613655348405,52.9055516306001L75.78932974949849,54.61213203231015L76.74236679844206,54.731628855911815z" style="fill:rgb(42,41,169)"/><path d="M71.07320823874235,66.90974564646827L74.4998385685849,66.35734441054998L77.06599644085667,63.586894752710705z" style="fill:rgb(42,220,145)"/><path d="M73.14612596670779,58.597830960612605L75.50414529982433,63.60479712831453L77.15578787220562,61.82301977724279z" style="fill:rgb(212,85,213)"/><path d="M118.84789220490424,20.06866476180678L125.67639073623116,15.857958676876367L130.72675630868957,10.393389122278291z" style="fill:rgb(83,212,212)"/><path d="M73.71957420166126,53.45991118384242L72.14283381687919,50.09021341271946L65.5824724844348,48.17886286990263z" style="fill:rgb(58,35,183)"/><path d="M75.78932974949849,54.61213203231015L78.13405114100871,57.95003908887984L76.74236679844206,54.731628855911815z" style="fill:rgb(42,41,169)"/><path d="M111.10128672836981,22.490983057357198L118.43137468903952,20.198908160980118L116.42470277534872,19.272641942470322zM65.5824724844348,48.17886286990263L72.14283381687919,50.09021341271946L68.82769163828299,48.40594256935265z" style="fill:rgb(83,212,212)"/><path d="M75.50414529982433,63.60479712831453L73.14612596670779,58.597830960612605L67.46516352970468,55.670458242771446z" style="fill:rgb(42,41,169)"/><path d="M76.74236679844206,54.731628855911815L76.11909515665842,55.40169226198302L78.45855103632091,60.41761855561628z" style="fill:rgb(212,85,213)"/><path d="M71.29088282676994,48.269485204898764L64.72253021324137,46.36318931634468L57.18667222774128,46.622172635283874z" style="fill:rgb(83,212,212)"/><path d="M76.57140606757315,54.91542167140849L81.75241833717128,65.26786747324526L74.62963692274982,49.961546198061704z" style="fill:rgb(42,41,169)"/><path d="M116.42470277534872,19.272641942470322L118.43137468903952,20.198908160980118L118.84789220490424,20.06866476180678zM71.29088282676994,48.269485204898764L57.18667222774128,46.622172635283874L63.60628097313204,47.85589777261386zM67.46516352970468,55.670458242771446L73.14612596670779,58.597830960612605L72.43795677047501,54.83488477700312z" style="fill:rgb(83,212,212)"/><path d="M72.78260350833114,57.51416255362113L66.71220818077892,54.39104457311981L67.46516352970468,55.670458242771446z" style="fill:rgb(42,41,169)"/><path d="M73.71957420166126,53.45991118384242L76.11909515665842,55.40169226198302L76.74236679844206,54.731628855911815z" style="fill:rgb(83,212,212)"/><path d="M73.14612596670779,58.597830960612605L75.50414529982433,63.60479712831453L77.06599644085667,63.586894752710705z" style="fill:rgb(42,41,169)"/><path d="M67.97223559517987,46.587616763854285L74.62963692274982,49.961546198061704L100.64001537537287,22.08892106832319z" style="fill:rgb(83,212,212)"/><path d="M77.15578787220562,61.82301977724279L74.80815404117044,56.81103859935522L73.14612596670779,58.597830960612605z" style="fill:rgb(212,85,213)"/><path d="M78.45855103632091,60.41761855561628L80.85401712896264,62.36481356345519L76.9511387100555,53.96947977613568z" style="fill:rgb(29,50,153)"/><path d="M74.62963692274982,49.961546198061704L67.97223559517987,46.587616763854285L70.88238920418227,52.01187612667212zM74.62963692274982,49.961546198061704L70.88238920418227,52.01187612667212L76.57140606757315,54.91542167140849z" style="fill:rgb(42,41,169)"/><path d="M73.14612596670779,58.597830960612605L74.80815404117044,56.81103859935522L72.43795677047501,54.83488477700312z" style="fill:rgb(83,212,212)"/><path d="M83.87992047366977,74.10346920838248L81.73524960882223,68.7560151879172L74.5902792616843,53.45744987980169z" style="fill:rgb(244,178,136)"/><path d="M66.71220818077892,54.39104457311981L64.13815133272733,57.14426938002119L70.20201241367693,60.28660083853191z" style="fill:rgb(83,212,212)"/><path d="M72.78260350833114,57.51416255362113L67.46516352970468,55.670458242771446L73.14612596670779,58.597830960612605z" style="fill:rgb(42,41,169)"/><path d="M76.11909515665842,55.40169226198302L78.45855103632091,60.41761855561628L76.9511387100555,53.96947977613568z" style="fill:rgb(29,50,153)"/><path d="M158.38199449151898,27.314644073120945L162.519321463272,18.343628999006828L159.322254291097,9.586233810546169z" style="fill:rgb(234,114,195)"/><path d="M74.4998385685849,66.35734441054998L77.06599644085667,63.586894752710705L72.78260350833114,57.51416255362113z" style="fill:rgb(194,113,235)"/><path d="M74.4998385685849,66.35734441054998L70.20201241367693,60.28660083853191L64.13815133272733,57.14426938002119z" style="fill:rgb(42,41,169)"/><path d="M76.9511387100555,53.96947977613568L73.71957420166126,53.45991118384242L76.11909515665842,55.40169226198302z" style="fill:rgb(29,50,153)"/><path d="M73.14612596670779,58.597830960612605L77.06599644085667,63.586894752710705L72.78260350833114,57.51416255362113z" style="fill:rgb(42,41,169)"/><path d="M76.9511387100555,53.96947977613568L72.14283381687919,50.09021341271946L73.71957420166126,53.45991118384242z" style="fill:rgb(29,50,153)"/><path d="M71.29088282676994,48.269485204898764L63.60628097313204,47.85589777261386L70.00098655356778,49.64839049487838zM70.20201241367693,60.28660083853191L72.78260350833114,57.51416255362113L66.71220818077892,54.39104457311981z" style="fill:rgb(83,212,212)"/><path d="M81.73524960882223,68.7560151879172L74.5902792616843,53.45744987980169L70.00098655356778,49.64839049487838z" style="fill:rgb(28,51,153)"/><path d="M78.5535604680714,57.55877651325441L85.67496940595598,72.8751398351662L83.22150598517423,67.45742802995386zM37.02830762638207,78.61651822095516L41.28577096931483,86.83164850822553L39.08179805371037,81.3169769711148z" style="fill:rgb(243,180,133)"/><path d="M72.78260350833114,57.51416255362113L70.20201241367693,60.28660083853191L74.4998385685849,66.35734441054998z" style="fill:rgb(194,113,235)"/><path d="M-51.36716300950314,70.14939630229443L-54.541115317270595,138.81399405397295L-48.824080820678795,138.9585588922858zM85.85030679277327,40.65578670187467L75.47802469915192,51.78466236714617L76.9511387100555,53.96947977613568zM37.45862849417329,58.76677551797355L34.39110288605888,65.04724921182623L36.103364697104155,76.83176880809874z" style="fill:rgb(83,212,212)"/><path d="M39.08179805371037,81.3169769711148L34.83032642688483,73.10260788997826L37.02830762638207,78.61651822095516z" style="fill:rgb(243,180,133)"/><path d="M36.103364697104155,76.83176880809874L43.86821972569728,91.8147055379963L48.49594658265127,95.91003748955337z" style="fill:rgb(29,50,153)"/><path d="M74.5902792616843,53.45744987980169L70.00098655356778,49.64839049487838L63.60628097313204,47.85589777261386zM75.47802469915192,51.78466236714617L72.14283381687919,50.09021341271946L76.9511387100555,53.96947977613568zM-60.692858385586504,52.50099333462755L65.64554153148683,106.96905152344688L48.25781180046924,84.80915846854296zM76.34026694703493,62.511490267200124L63.60628097313204,47.85589777261386L51.8529540959032,49.84313786231656zM155.12999265375717,18.58162926482158L159.322254291097,9.586233810546169L162.76595258347834,0.6362701597766558zM70.00098655356778,49.64839049487838L74.5902792616843,53.45744987980169L71.29088282676994,48.269485204898764z" style="fill:rgb(83,212,212)"/><path d="M83.51970599547569,77.80097839294952L83.87992047366977,74.10346920838248L76.7282189799721,58.802448279385295z" style="fill:rgb(246,145,170)"/><path d="M83.22150598517423,67.45742802995386L76.10326125801912,52.14564893645635L78.5535604680714,57.55877651325441z" style="fill:rgb(243,180,133)"/><path d="M51.61822816358212,84.74860894493081L37.486937758510265,62.36345254234269L35.64338218565588,66.14718709059304zM89.24404720699084,37.01449024482957L144.53697481924948,36.52486546237681L162.76595258347834,0.6362701597766558z" style="fill:rgb(83,212,212)"/><path d="M159.322254291097,9.586233810546169L155.12999265375717,18.58162926482158L158.38199449151898,27.314644073120945z" style="fill:rgb(234,114,195)"/><path d="M128.98729223102265,56.434113880345386L89.24404720699084,37.01449024482957L93.00714009768824,45.474648143646256z" style="fill:rgb(42,41,169)"/><path d="M34.39110288605888,65.04724921182623L33.906740630999515,71.3181319644699L36.103364697104155,76.83176880809874zM51.8529540959032,49.84313786231656L37.45862849417329,58.76677551797355L62.943714561775344,80.46826224862001zM-51.36716300950314,70.14939630229443L-48.824080820678795,138.9585588922858L-26.460577189770483,137.58275879353684z" style="fill:rgb(83,212,212)"/><path d="M153.50979351496485,36.28171012998673L158.38199449151898,27.314644073120945L155.12999265375717,18.58162926482158z" style="fill:rgb(230,108,199)"/><path d="M78.3159955109802,63.53361669314354L85.47713235649437,78.83396869215294L85.67496940595598,72.8751398351662z" style="fill:rgb(246,150,166)"/><path d="M74.5902792616843,53.45744987980169L76.7282189799721,58.802448279385295L83.87992047366977,74.10346920838248z" style="fill:rgb(244,178,136)"/><path d="M83.51970599547569,77.80097839294952L85.47713235649437,78.83396869215294L78.3159955109802,63.53361669314354z" style="fill:rgb(42,41,169)"/><path d="M76.34026694703493,62.511490267200124L74.5902792616843,53.45744987980169L63.60628097313204,47.85589777261386zM78.5535604680714,57.55877651325441L76.10326125801912,52.14564893645635L71.29088282676994,48.269485204898764zM74.5902792616843,53.45744987980169L78.5535604680714,57.55877651325441L71.29088282676994,48.269485204898764z" style="fill:rgb(83,212,212)"/><path d="M40.760296670408366,80.90675388623114L48.49594658265127,95.91003748955337L55.01312426700524,98.05841395514675z" style="fill:rgb(58,35,183)"/><path d="M85.46584950875462,79.17390245319773L85.47713235649437,78.83396869215294L78.3159955109802,63.53361669314354z" style="fill:rgb(246,150,166)"/><path d="M144.53697481924948,36.52486546237681L155.12999265375717,18.58162926482158L162.76595258347834,0.6362701597766558z" style="fill:rgb(83,212,212)"/><path d="M48.49594658265127,95.91003748955337L40.760296670408366,80.90675388623114L36.103364697104155,76.83176880809874z" style="fill:rgb(29,50,153)"/><path d="M85.67496940595598,72.8751398351662L78.5535604680714,57.55877651325441L78.3159955109802,63.53361669314354z" style="fill:rgb(246,150,166)"/><path d="M76.7282189799721,58.802448279385295L76.34026694703493,62.511490267200124L83.51970599547569,77.80097839294952z" style="fill:rgb(246,145,170)"/><path d="M155.12999265375717,18.58162926482158L150.19717628492774,27.576867520670284L153.50979351496485,36.28171012998673z" style="fill:rgb(230,108,199)"/><path d="M37.45862849417329,58.76677551797355L36.103364697104155,76.83176880809874L62.943714561775344,80.46826224862001z" style="fill:rgb(83,212,212)"/><path d="M75.33860458319867,70.3241940352558L82.57890224701629,85.58698714846562L85.46584950875462,79.17390245319773z" style="fill:rgb(236,117,193)"/><path d="M147.9157323747466,45.197937341281936L153.50979351496485,36.28171012998673L150.19717628492774,27.576867520670284z" style="fill:rgb(226,102,203)"/><path d="M74.5902792616843,53.45744987980169L76.7282189799721,58.802448279385295L78.5535604680714,57.55877651325441z" style="fill:rgb(83,212,212)"/><path d="M78.3159955109802,63.53361669314354L76.34026694703493,62.511490267200124L83.51970599547569,77.80097839294952z" style="fill:rgb(42,41,169)"/><path d="M-51.789717004880806,64.67071619213569L-26.460577189770483,137.58275879353684L65.64554153148683,106.96905152344688z" style="fill:rgb(83,212,212)"/><path d="M47.34415960535923,83.01720430786348L55.01312426700524,98.05841395514675L62.631916046450534,97.96497252943222z" style="fill:rgb(96,32,206)"/><path d="M62.943714561775344,80.46826224862001L76.34026694703493,62.511490267200124L51.8529540959032,49.84313786231656zM76.34026694703493,62.511490267200124L76.7282189799721,58.802448279385295L74.5902792616843,53.45744987980169zM51.61822816358212,84.74860894493081L35.64338218565588,66.14718709059304L49.34466468175468,84.78957664537586z" style="fill:rgb(83,212,212)"/><path d="M78.3159955109802,63.53361669314354L78.30244492840144,63.874492702017825L85.46584950875462,79.17390245319773z" style="fill:rgb(246,150,166)"/><path d="M93.00714009768824,45.474648143646256L132.53623063114347,65.0224630317338L128.98729223102265,56.434113880345386z" style="fill:rgb(42,41,169)"/><path d="M70.00017087508117,76.10045887591531L77.34334512559322,91.31179190737619L82.57890224701629,85.58698714846562z" style="fill:rgb(212,85,213)"/><path d="M55.01312426700524,98.05841395514675L47.34415960535923,83.01720430786348L40.760296670408366,80.90675388623114z" style="fill:rgb(58,35,183)"/><path d="M106.15958048071177,78.85476900444277L85.85030679277327,40.65578670187467L76.9511387100555,53.96947977613568z" style="fill:rgb(83,212,212)"/><path d="M55.059271389538715,82.87216441668465L62.631916046450534,97.96497252943222L70.40275254127849,95.62029288107192z" style="fill:rgb(137,40,220)"/><path d="M85.46584950875462,79.17390245319773L78.30244492840144,63.874492702017825L75.33860458319867,70.3241940352558z" style="fill:rgb(236,117,193)"/><path d="M76.7282189799721,58.802448279385295L78.3159955109802,63.53361669314354L78.5535604680714,57.55877651325441zM144.53697481924948,36.52486546237681L150.19717628492774,27.576867520670284L155.12999265375717,18.58162926482158z" style="fill:rgb(83,212,212)"/><path d="M62.943714561775344,80.46826224862001L70.40275254127849,95.62029288107192L77.34334512559322,91.31179190737619z" style="fill:rgb(178,58,222)"/><path d="M-54.541115317270595,138.81399405397295L-49.44510548665503,146.6031678905822L-43.76399259430413,146.76717660424845z" style="fill:rgb(94,32,205)"/><path d="M89.24404720699084,37.01449024482957L131.11375481011214,54.0856595725069L144.53697481924948,36.52486546237681z" style="fill:rgb(83,212,212)"/><path d="M150.19717628492774,27.576867520670284L144.53697481924948,36.52486546237681L147.9157323747466,45.197937341281936z" style="fill:rgb(226,102,203)"/><path d="M76.7282189799721,58.802448279385295L76.34026694703493,62.511490267200124L78.3159955109802,63.53361669314354zM36.103364697104155,76.83176880809874L40.760296670408366,80.90675388623114L47.34415960535923,83.01720430786348z" style="fill:rgb(83,212,212)"/><path d="M138.16789493425938,45.377429336260995L141.618077554522,54.015339794551245L147.9157323747466,45.197937341281936z" style="fill:rgb(222,96,207)"/><path d="M62.631916046450534,97.96497252943222L55.059271389538715,82.87216441668465L47.34415960535923,83.01720430786348z" style="fill:rgb(96,32,206)"/><path d="M82.57890224701629,85.58698714846562L75.33860458319867,70.3241940352558L70.00017087508117,76.10045887591531z" style="fill:rgb(212,85,213)"/><path d="M-48.824080820678795,138.9585588922858L-43.76399259430413,146.76717660424845L-32.781161666918116,146.4403194365003z" style="fill:rgb(101,32,208)"/><path d="M106.15958048071177,78.85476900444277L76.9511387100555,53.96947977613568L79.4018823698955,59.383304501311976zM89.24404720699084,37.01449024482957L128.98729223102265,56.434113880345386L131.11375481011214,54.0856595725069z" style="fill:rgb(83,212,212)"/><path d="M147.9157323747466,45.197937341281936L144.53697481924948,36.52486546237681L138.16789493425938,45.377429336260995z" style="fill:rgb(222,96,207)"/><path d="M-43.76399259430413,146.76717660424845L-48.824080820678795,138.9585588922858L-54.541115317270595,138.81399405397295z" style="fill:rgb(94,32,205)"/><path d="M36.103364697104155,76.83176880809874L47.34415960535923,83.01720430786348L62.943714561775344,80.46826224862001zM75.33860458319867,70.3241940352558L78.30244492840144,63.874492702017825L78.3159955109802,63.53361669314354zM62.943714561775344,80.46826224862001L78.3159955109802,63.53361669314354L76.34026694703493,62.511490267200124z" style="fill:rgb(83,212,212)"/><path d="M70.40275254127849,95.62029288107192L62.943714561775344,80.46826224862001L55.059271389538715,82.87216441668465z" style="fill:rgb(137,40,220)"/><path d="M77.34334512559322,91.31179190737619L70.00017087508117,76.10045887591531L62.943714561775344,80.46826224862001z" style="fill:rgb(178,58,222)"/><path d="M134.64038370111396,62.685288954395816L141.618077554522,54.015339794551245L138.16789493425938,45.377429336260995z" style="fill:rgb(217,91,210)"/><path d="M123.40380478193248,62.600439894781964L125.54232067372004,60.23869820451993L85.85030679277327,40.65578670187467zM62.943714561775344,80.46826224862001L75.33860458319867,70.3241940352558L78.3159955109802,63.53361669314354zM106.15958048071177,78.85476900444277L79.4018823698955,59.383304501311976L79.15583362056388,65.69713684942394z" style="fill:rgb(83,212,212)"/><path d="M-37.76828868455418,138.59283720812726L-32.781161666918116,146.4403194365003L-21.551635228583663,145.47129220948167z" style="fill:rgb(108,33,211)"/><path d="M-32.781161666918116,146.4403194365003L-37.76828868455418,138.59283720812726L-48.824080820678795,138.9585588922858z" style="fill:rgb(101,32,208)"/><path d="M106.15958048071177,78.85476900444277L123.40380478193248,62.600439894781964L85.85030679277327,40.65578670187467zM47.34415960535923,83.01720430786348L55.059271389538715,82.87216441668465L62.943714561775344,80.46826224862001z" style="fill:rgb(83,212,212)"/><path d="M128.98729223102265,56.434113880345386L132.53623063114347,65.0224630317338L134.64038370111396,62.685288954395816z" style="fill:rgb(212,85,213)"/><path d="M62.943714561775344,80.46826224862001L70.00017087508117,76.10045887591531L75.33860458319867,70.3241940352558zM131.11375481011214,54.0856595725069L138.16789493425938,45.377429336260995L144.53697481924948,36.52486546237681z" style="fill:rgb(83,212,212)"/><path d="M138.16789493425938,45.377429336260995L131.11375481011214,54.0856595725069L134.64038370111396,62.685288954395816z" style="fill:rgb(217,91,210)"/><path d="M-26.460577189770483,137.58275879353684L-21.551635228583663,145.47129220948167L-10.133420668183906,143.85744290405702z" style="fill:rgb(116,34,214)"/><path d="M134.64038370111396,62.685288954395816L131.11375481011214,54.0856595725069L128.98729223102265,56.434113880345386zM123.40380478193248,62.600439894781964L127.01150965475483,71.15896151429975L129.12748537766333,68.80867972607015z" style="fill:rgb(212,85,213)"/><path d="M-21.551635228583663,145.47129220948167L-26.460577189770483,137.58275879353684L-37.76828868455418,138.59283720812726z" style="fill:rgb(108,33,211)"/><path d="M-48.824080820678795,138.9585588922858L-37.76828868455418,138.59283720812726L-26.460577189770483,137.58275879353684zM65.64554153148683,106.96905152344688L79.15583362056388,65.69713684942394L76.20120479957811,72.14258435933391zM65.64554153148683,106.96905152344688L49.34466468175468,84.78957664537586L48.25781180046924,84.80915846854296zM65.64554153148683,106.96905152344688L51.61822816358212,84.74860894493081L49.34466468175468,84.78957664537586zM65.64554153148683,106.96905152344688L55.96148992050482,84.67034862052782L51.61822816358212,84.74860894493081z" style="fill:rgb(83,212,212)"/><path d="M129.12748537766333,68.80867972607015L125.54232067372004,60.23869820451993L123.40380478193248,62.600439894781964z" style="fill:rgb(212,85,213)"/><path d="M115.07254477218235,70.87285752405859L118.76554115465683,79.38777034694981L127.01150965475483,71.15896151429975z" style="fill:rgb(206,80,215)"/><path d="M65.64554153148683,106.96905152344688L76.20120479957811,72.14258435933391L70.87505956652936,77.9127797633052z" style="fill:rgb(83,212,212)"/><path d="M-14.959432505069888,135.92577914370264L-10.133420668183906,143.85744290405702L1.4128980892100695,141.60057292341125z" style="fill:rgb(123,36,216)"/><path d="M65.64554153148683,106.96905152344688L63.832415485045,82.27353826343924L55.96148992050482,84.67034862052782z" style="fill:rgb(83,212,212)"/><path d="M-10.133420668183906,143.85744290405702L-14.959432505069888,135.92577914370264L-26.460577189770483,137.58275879353684z" style="fill:rgb(116,34,214)"/><path d="M65.64554153148683,106.96905152344688L70.87505956652936,77.9127797633052L63.832415485045,82.27353826343924z" style="fill:rgb(83,212,212)"/><path d="M127.01150965475483,71.15896151429975L123.40380478193248,62.600439894781964L115.07254477218235,70.87285752405859z" style="fill:rgb(206,80,215)"/><path d="M106.15958048071177,78.85476900444277L109.94159801039741,87.32392312730427L118.76554115465683,79.38777034694981z" style="fill:rgb(200,75,217)"/><path d="M-3.3259833133228174,133.6239054716148L1.4128980892100695,141.60057292341125L13.024717113688306,138.70713877042246z" style="fill:rgb(131,38,218)"/><path d="M65.64554153148683,106.96905152344688L106.15958048071177,78.85476900444277L79.15583362056388,65.69713684942394z" style="fill:rgb(83,212,212)"/><path d="M1.4128980892100695,141.60057292341125L-3.3259833133228174,133.6239054716148L-14.959432505069888,135.92577914370264z" style="fill:rgb(123,36,216)"/><path d="M118.76554115465683,79.38777034694981L115.07254477218235,70.87285752405859L106.15958048071177,78.85476900444277z" style="fill:rgb(200,75,217)"/><path d="M-26.460577189770483,137.58275879353684L-14.959432505069888,135.92577914370264L-3.3259833133228174,133.6239054716148z" style="fill:rgb(83,212,212)"/><path d="M96.70939328669715,86.49928461726309L100.58360761622403,94.92089561005824L109.94159801039741,87.32392312730427z" style="fill:rgb(194,70,219)"/><path d="M8.376574473220442,130.68379329696185L13.024717113688306,138.70713877042246L24.637986174298835,135.18822650195526z" style="fill:rgb(138,40,220)"/><path d="M106.15958048071177,78.85476900444277L115.07254477218235,70.87285752405859L123.40380478193248,62.600439894781964z" style="fill:rgb(83,212,212)"/><path d="M13.024717113688306,138.70713877042246L8.376574473220442,130.68379329696185L-3.3259833133228174,133.6239054716148z" style="fill:rgb(131,38,218)"/><path d="M86.77097280422629,93.76127915062625L90.73999635031302,102.13396301194093L100.58360761622403,94.92089561005824z" style="fill:rgb(188,65,220)"/><path d="M109.94159801039741,87.32392312730427L106.15958048071177,78.85476900444277L96.70939328669715,86.49928461726309z" style="fill:rgb(194,70,219)"/><path d="M-26.460577189770483,137.58275879353684L-3.3259833133228174,133.6239054716148L20.08354827687736,127.11677146094851z" style="fill:rgb(83,212,212)"/><path d="M20.08354827687736,127.11677146094851L24.637986174298835,135.18822650195526L36.18781341817726,131.05963847042585z" style="fill:rgb(146,43,221)"/><path d="M76.39744579344614,100.59789824356574L80.46321442724027,108.92064705810856L90.73999635031302,102.13396301194093z" style="fill:rgb(181,61,221)"/><path d="M31.729373409146138,122.93892392640677L36.18781341817726,131.05963847042585L47.609157066864014,126.34171987468673z" style="fill:rgb(153,46,222)"/><path d="M24.637986174298835,135.18822650195526L20.08354827687736,127.11677146094851L8.376574473220442,130.68379329696185z" style="fill:rgb(138,40,220)"/><path d="M65.64554153148683,106.96905152344688L69.80933675716312,115.24125538122068L80.46321442724027,108.92064705810856z" style="fill:rgb(175,57,222)"/><path d="M100.58360761622403,94.92089561005824L96.70939328669715,86.49928461726309L86.77097280422629,93.76127915062625z" style="fill:rgb(188,65,220)"/><path d="M43.248303216990344,118.17089962594916L47.609157066864014,126.34171987468673L58.837457499925044,121.05925662099588z" style="fill:rgb(160,49,222)"/><path d="M54.575061837454236,112.83782077331416L58.837457499925044,121.05925662099588L69.80933675716312,115.24125538122068z" style="fill:rgb(168,53,222)"/><path d="M-26.460577189770483,137.58275879353684L20.08354827687736,127.11677146094851L65.64554153148683,106.96905152344688zM-3.3259833133228174,133.6239054716148L8.376574473220442,130.68379329696185L20.08354827687736,127.11677146094851z" style="fill:rgb(83,212,212)"/><path d="M36.18781341817726,131.05963847042585L31.729373409146138,122.93892392640677L20.08354827687736,127.11677146094851z" style="fill:rgb(146,43,221)"/><path d="M90.73999635031302,102.13396301194093L86.77097280422629,93.76127915062625L76.39744579344614,100.59789824356574z" style="fill:rgb(181,61,221)"/><path d="M86.77097280422629,93.76127915062625L96.70939328669715,86.49928461726309L106.15958048071177,78.85476900444277z" style="fill:rgb(83,212,212)"/><path d="M47.609157066864014,126.34171987468673L43.248303216990344,118.17089962594916L31.729373409146138,122.93892392640677z" style="fill:rgb(153,46,222)"/><path d="M80.46321442724027,108.92064705810856L76.39744579344614,100.59789824356574L65.64554153148683,106.96905152344688z" style="fill:rgb(175,57,222)"/><path d="M58.837457499925044,121.05925662099588L54.575061837454236,112.83782077331416L43.248303216990344,118.17089962594916z" style="fill:rgb(160,49,222)"/><path d="M69.80933675716312,115.24125538122068L65.64554153148683,106.96905152344688L54.575061837454236,112.83782077331416z" style="fill:rgb(168,53,222)"/><path d="M65.64554153148683,106.96905152344688L86.77097280422629,93.76127915062625L106.15958048071177,78.85476900444277zM20.08354827687736,127.11677146094851L31.729373409146138,122.93892392640677L43.248303216990344,118.17089962594916zM20.08354827687736,127.11677146094851L43.248303216990344,118.17089962594916L65.64554153148683,106.96905152344688zM65.64554153148683,106.96905152344688L76.39744579344614,100.59789824356574L86.77097280422629,93.76127915062625zM43.248303216990344,118.17089962594916L54.575061837454236,112.83782077331416L65.64554153148683,106.96905152344688z" style="fill:rgb(83,212,212)"/></svg>
