<?xml version="1.0" encoding="UTF-8"?>
<!-- Generated by jsxcad -->
<!DOCTYPE svg PUBLIC "-//W3C//DTD SVG 1.1 Tiny//EN" "http://www.w3.org/Graphics/SVG/1.1/DTD/svg11-tiny.dtd">
<svg viewBox="-250 -250 500 500" width="500" height="500" xmlns="http://www.w3.org/2000/svg"><path d="M-19.372022256302376,-106.10799142206324L-28.375856758094578,-102.58167799387702L-37.26685606159163,-98.71042941580444zM-1.1202403112691923,-112.0837299427791L-10.278860197323391,-109.27874745807843L-19.372022256302376,-106.10799142206324zM17.295851387298576,-116.55752930271123L-1.1202403112691923,-112.0837299427791L-19.372022256302376,-106.10799142206324zM17.295851387298576,-116.55752930271123L8.079568854124199,-114.51312830496094L-1.1202403112691923,-112.0837299427791zM35.67649328725116,-119.45587102697807L26.50340139994816,-118.20795270553401L17.295851387298576,-116.55752930271123zM-37.26685606159163,-98.71042941580444L-41.91328420357081,-96.47865170706633L-44.0805398964867,-47.63322660492408zM-19.372022256302376,-106.10799142206324L-37.26685606159163,-98.71042941580444L-44.0805398964867,-47.63322660492408zM17.295851387298576,-116.55752930271123L-19.372022256302376,-106.10799142206324L-44.0805398964867,-47.63322660492408zM42.64225011929537,-71.23287768896017L35.67649328725116,-119.45587102697807L17.295851387298576,-116.55752930271123z" style="fill:rgb(83,212,212)"/><path d="M42.59523769761175,-114.9947664092387L40.502561474692705,-119.89938548028887L42.64225011929537,-71.23287768896017z" style="fill:rgb(247,158,158)"/><path d="M42.64225011929537,-71.23287768896017L40.502561474692705,-119.89938548028887L35.67649328725116,-119.45587102697807zM17.295851387298576,-116.55752930271123L-44.0805398964867,-47.63322660492408L-44.63477891387352,-43.89874949657888zM44.59667005493861,-64.50166676862861L17.295851387298576,-116.55752930271123L-44.63477891387352,-43.89874949657888z" style="fill:rgb(83,212,212)"/><path d="M42.59523769761175,-114.9947664092387L42.64225011929537,-71.23287768896017L44.83547691094242,-66.28662952766794z" style="fill:rgb(247,158,158)"/><path d="M-147.46070584512904,3.2724521918514915L-149.35361329680433,7.333988909869334L-152.40426921344127,15.024905126115474zM43.21199307211888,-67.72560469845534L42.64225011929537,-71.23287768896017L17.295851387298576,-116.55752930271123zM44.59667005493861,-64.50166676862861L43.21199307211888,-67.72560469845534L17.295851387298576,-116.55752930271123zM-147.46070584512904,3.2724521918514915L-152.40426921344127,15.024905126115474L-156.90850132192406,30.484893186850474zM-152.40426921344127,15.024905126115474L-154.92885170102664,22.750214066243483L-156.90850132192406,30.484893186850474zM-77.44776570600516,-15.371066555735709L-147.46070584512904,3.2724521918514915L-108.75876719124109,15.218940901296905zM-113.51143444350205,17.820652976926006L-108.75876719124109,15.218940901296905L-147.46070584512904,3.2724521918514915zM-117.4461117905972,21.394128472490962L-113.51143444350205,17.820652976926006L-147.46070584512904,3.2724521918514915zM-72.4055880271414,-17.00629868863238L-77.44776570600516,-15.371066555735709L-108.75876719124109,15.218940901296905zM-58.25148511270217,-25.017839428025678L-62.678873643948435,-21.89418986549283L-108.75876719124109,15.218940901296905z" style="fill:rgb(83,212,212)"/><path d="M44.83547691094242,-66.28662952766794L43.21199307211888,-67.72560469845534L45.41104868325116,-62.7761373007385z" style="fill:rgb(246,165,151)"/><path d="M-67.4387965540782,-19.19981200133867L-72.4055880271414,-17.00629868863238L-108.75876719124109,15.218940901296905zM-62.678873643948435,-21.89418986549283L-67.4387965540782,-19.19981200133867L-108.75876719124109,15.218940901296905z" style="fill:rgb(83,212,212)"/><path d="M44.83547691094242,-66.28662952766794L42.64225011929537,-71.23287768896017L43.21199307211888,-67.72560469845534z" style="fill:rgb(246,165,151)"/><path d="M-54.2725342835791,-28.487299621694735L-58.25148511270217,-25.017839428025678L-99.31836725892384,14.126351290306305zM-120.04113889067283,25.473215754924272L-117.4461117905972,21.394128472490962L-147.46070584512904,3.2724521918514915zM46.77184516811777,-61.643710202498404L44.59667005493861,-64.50166676862861L-44.63477891387352,-43.89874949657888zM-50.84458630410585,-32.209985982401854L-54.2725342835791,-28.487299621694735L-93.96292373621641,18.724874440936084zM-147.46070584512904,3.2724521918514915L-156.90850132192406,30.484893186850474L-159.03544482155445,60.978082657727725zM-120.9415944582773,29.520561427054847L-120.04113889067283,25.473215754924272L-147.46070584512904,3.2724521918514915zM49.69278040067451,-59.22720432284488L46.77184516811777,-61.643710202498404L-44.63477891387352,-43.89874949657888z" style="fill:rgb(83,212,212)"/><path d="M45.41104868325116,-62.7761373007385L44.59667005493861,-64.50166676862861L46.79817435189672,-59.54715916304599zM45.41104868325116,-62.7761373007385L43.21199307211888,-67.72560469845534L44.59667005493861,-64.50166676862861z" style="fill:rgb(244,178,136)"/><path d="M-58.25148511270217,-25.017839428025678L-108.75876719124109,15.218940901296905L-103.81113613410376,13.92940986155606zM-120.00934540189897,32.99315444770555L-120.9415944582773,29.520561427054847L-147.46070584512904,3.2724521918514915zM-13.90539932289539,-26.491197136381004L-8.923381563675095,-28.8084264193753L-44.63477891387352,-43.89874949657888zM-18.668422047130704,-23.75533274679595L-13.90539932289539,-26.491197136381004L-44.63477891387352,-43.89874949657888zM-8.923381563675095,-28.8084264193753L-3.803336471962244,-30.668982534137736L-44.63477891387352,-43.89874949657888zM-23.134695810094847,-20.645040954921527L-18.668422047130704,-23.75533274679595L-44.63477891387352,-43.89874949657888zM-58.25148511270217,-25.017839428025678L-103.81113613410376,13.92940986155606L-99.31836725892384,14.126351290306305z" style="fill:rgb(83,212,212)"/><path d="M-105.86803106434135,19.819962855301107L-113.51143444350205,17.820652976926006L-110.5989322102457,22.410722051341494z" style="fill:rgb(170,54,222)"/><path d="M-3.803336471962244,-30.668982534137736L1.3714777696409581,-32.041447564416835L-44.63477891387352,-43.89874949657888zM-27.230584819024546,-17.210197241223693L-23.134695810094847,-20.645040954921527L-44.63477891387352,-43.89874949657888zM53.29464102063809,-57.318142462164076L49.69278040067451,-59.22720432284488L-44.63477891387352,-43.89874949657888zM-156.90850132192406,30.484893186850474L-158.3252728502067,38.202810007097476L-159.1622376392332,45.876713287133626z" style="fill:rgb(83,212,212)"/><path d="M-105.86803106434135,19.819962855301107L-100.9389832698532,18.54197513145257L-103.81113613410376,13.92940986155606z" style="fill:rgb(127,37,217)"/><path d="M1.3714777696409581,-32.041447564416835L6.516463300207062,-32.90146147934765L-44.63477891387352,-43.89874949657888z" style="fill:rgb(83,212,212)"/><path d="M-110.5989322102457,22.410722051341494L-117.4461117905972,21.394128472490962L-114.51146190619764,25.975221839851017z" style="fill:rgb(208,81,214)"/><path d="M-30.88748707843835,-13.505840009286779L-27.230584819024546,-17.210197241223693L-44.63477891387352,-43.89874949657888zM-54.2725342835791,-28.487299621694735L-99.31836725892384,14.126351290306305L-95.8788077598857,15.794386501923052z" style="fill:rgb(83,212,212)"/><path d="M-105.86803106434135,19.819962855301107L-108.75876719124109,15.218940901296905L-113.51143444350205,17.820652976926006z" style="fill:rgb(170,54,222)"/><path d="M-103.81113613410376,13.92940986155606L-108.75876719124109,15.218940901296905L-105.86803106434135,19.819962855301107z" style="fill:rgb(127,37,217)"/><path d="M-96.45926840079235,18.74953392628705L-103.81113613410376,13.92940986155606L-100.9389832698532,18.54197513145257z" style="fill:rgb(84,32,200)"/><path d="M-110.5989322102457,22.410722051341494L-113.51143444350205,17.820652976926006L-117.4461117905972,21.394128472490962z" style="fill:rgb(208,81,214)"/><path d="M6.516463300207062,-32.90146147934765L11.546672879203516,-33.232138225294996L-44.63477891387352,-43.89874949657888zM-34.04274100560683,-9.591590384666002L-30.88748707843835,-13.505840009286779L-44.63477891387352,-43.89874949657888zM57.49334693072381,-55.970769154413865L53.29464102063809,-57.318142462164076L-44.63477891387352,-43.89874949657888zM-120.00934540189897,32.99315444770555L-147.46070584512904,3.2724521918514915L-159.03544482155445,60.978082657727725z" style="fill:rgb(83,212,212)"/><path d="M-114.51146190619764,25.975221839851017L-120.04113889067283,25.473215754924272L-117.08680548860505,30.048427183470913z" style="fill:rgb(234,114,195)"/><path d="M-54.2725342835791,-28.487299621694735L-95.8788077598857,15.794386501923052L-93.96292373621641,18.724874440936084z" style="fill:rgb(83,212,212)"/><path d="M-114.51146190619764,25.975221839851017L-117.4461117905972,21.394128472490962L-120.04113889067283,25.473215754924272z" style="fill:rgb(234,114,195)"/><path d="M11.546672879203516,-33.232138225294996L16.377863691556122,-33.02445644664039L-44.63477891387352,-43.89874949657888zM-36.64056181791897,-5.531021542789907L-34.04274100560683,-9.591590384666002L-44.63477891387352,-43.89874949657888z" style="fill:rgb(83,212,212)"/><path d="M-96.45926840079235,18.74953392628705L-99.31836725892384,14.126351290306305L-103.81113613410376,13.92940986155606z" style="fill:rgb(84,32,200)"/><path d="M-44.63477891387352,-43.89874949657888L-45.9681145842546,-40.01728340906144L-77.32567951902386,52.58386695266271z" style="fill:rgb(83,212,212)"/><path d="M-93.02549331445506,20.4257978939844L-99.31836725892384,14.126351290306305L-96.45926840079235,18.74953392628705z" style="fill:rgb(46,40,173)"/><path d="M-50.84458630410585,-32.209985982401854L-93.96292373621641,18.724874440936084L-93.84690724966018,22.535515730209514zM-38.632974244286466,-1.390946919920155L-36.64056181791897,-5.531021542789907L-44.63477891387352,-43.89874949657888zM-45.9681145842546,-40.01728340906144L-48.05389310542599,-36.087198086704554L-77.32567951902386,52.58386695266271z" style="fill:rgb(83,212,212)"/><path d="M-117.08680548860505,30.048427183470913L-120.9415944582773,29.520561427054847L-117.97269348219034,34.09372836902547zM-117.08680548860505,30.048427183470913L-120.04113889067283,25.473215754924272L-120.9415944582773,29.520561427054847z" style="fill:rgb(246,149,166)"/><path d="M-6.462323581232316,-23.97490277967822L-13.90539932289539,-26.491197136381004L-11.422448420266681,-21.669314237610234z" style="fill:rgb(159,48,222)"/><path d="M-11.422448420266681,-21.669314237610234L-18.668422047130704,-23.75533274679595L-16.16326336819891,-18.944449984012934z" style="fill:rgb(174,56,222)"/><path d="M-93.02549331445506,20.4257978939844L-95.8788077598857,15.794386501923052L-99.31836725892384,14.126351290306305z" style="fill:rgb(46,40,173)"/><path d="M-1.363534235437504,-25.823353952691825L-8.923381563675095,-28.8084264193753L-6.462323581232316,-23.97490277967822z" style="fill:rgb(143,42,220)"/><path d="M-16.16326336819891,-18.944449984012934L-23.134695810094847,-20.645040954921527L-20.607341535240074,-15.84435755563302z" style="fill:rgb(188,65,220)"/><path d="M-156.90850132192406,30.484893186850474L-159.1622376392332,45.876713287133626L-159.03544482155445,60.978082657727725zM-50.84458630410585,-32.209985982401854L-93.84690724966018,22.535515730209514L-95.56643136707821,26.71485287165461zM-48.05389310542599,-36.087198086704554L-50.84458630410585,-32.209985982401854L-77.32567951902386,52.58386695266271zM-44.63477891387352,-43.89874949657888L-39.98074532815954,2.759379634515625L-38.632974244286466,-1.390946919920155z" style="fill:rgb(83,212,212)"/><path d="M-91.10725235287647,23.36092431872818L-95.8788077598857,15.794386501923052L-93.02549331445506,20.4257978939844z" style="fill:rgb(20,59,140)"/><path d="M3.7909724585724747,-27.1834317317068L-3.803336471962244,-30.668982534137736L-1.363534235437504,-25.823353952691825z" style="fill:rgb(127,37,217)"/><path d="M-11.422448420266681,-21.669314237610234L-13.90539932289539,-26.491197136381004L-18.668422047130704,-23.75533274679595z" style="fill:rgb(174,56,222)"/><path d="M-6.462323581232316,-23.97490277967822L-8.923381563675095,-28.8084264193753L-13.90539932289539,-26.491197136381004z" style="fill:rgb(159,48,222)"/><path d="M-20.607341535240074,-15.84435755563302L-27.230584819024546,-17.210197241223693L-24.681386844317178,-12.418772884504031z" style="fill:rgb(201,75,217)"/><path d="M-16.16326336819891,-18.944449984012934L-18.668422047130704,-23.75533274679595L-23.134695810094847,-20.645040954921527z" style="fill:rgb(188,65,220)"/><path d="M-1.363534235437504,-25.823353952691825L-3.803336471962244,-30.668982534137736L-8.923381563675095,-28.8084264193753z" style="fill:rgb(143,42,220)"/><path d="M8.916900067804725,-28.030984037730953L1.3714777696409581,-32.041447564416835L3.7909724585724747,-27.1834317317068z" style="fill:rgb(111,34,212)"/><path d="M-20.607341535240074,-15.84435755563302L-23.134695810094847,-20.645040954921527L-27.230584819024546,-17.210197241223693z" style="fill:rgb(201,75,217)"/><path d="M3.7909724585724747,-27.1834317317068L1.3714777696409581,-32.041447564416835L-3.803336471962244,-30.668982534137736z" style="fill:rgb(127,37,217)"/><path d="M-117.97269348219034,34.09372836902547L-120.00934540189897,32.99315444770555L-117.03308947126317,37.568411125097185z" style="fill:rgb(242,181,132)"/><path d="M-24.681386844317178,-12.418772884504031L-30.88748707843835,-13.505840009286779L-28.317130932708118,-8.72260378939149z" style="fill:rgb(213,86,212)"/><path d="M-117.97269348219034,34.09372836902547L-120.9415944582773,29.520561427054847L-120.00934540189897,32.99315444770555z" style="fill:rgb(242,181,132)"/><path d="M-44.63477891387352,-43.89874949657888L-40.65431596752392,6.849169334592048L-39.98074532815954,2.759379634515625z" style="fill:rgb(83,212,212)"/><path d="M-91.10725235287647,23.36092431872818L-93.96292373621641,18.724874440936084L-95.8788077598857,15.794386501923052z" style="fill:rgb(20,59,140)"/><path d="M-24.681386844317178,-12.418772884504031L-27.230584819024546,-17.210197241223693L-30.88748707843835,-13.505840009286779z" style="fill:rgb(213,86,212)"/><path d="M13.929591790439192,-28.349334802862376L6.516463300207062,-32.90146147934765L8.916900067804725,-28.030984037730953z" style="fill:rgb(95,32,206)"/><path d="M8.916900067804725,-28.030984037730953L6.516463300207062,-32.90146147934765L1.3714777696409581,-32.041447564416835z" style="fill:rgb(111,34,212)"/><path d="M-28.317130932708118,-8.72260378939149L-34.04274100560683,-9.591590384666002L-31.45225533875394,-4.815361760729187z" style="fill:rgb(223,98,205)"/><path d="M-44.63477891387352,-43.89874949657888L-40.6346706845091,10.807112898877115L-40.65431596752392,6.849169334592048z" style="fill:rgb(83,212,212)"/><path d="M-28.317130932708118,-8.72260378939149L-30.88748707843835,-13.505840009286779L-34.04274100560683,-9.591590384666002z" style="fill:rgb(223,98,205)"/><path d="M13.929591790439192,-28.349334802862376L11.546672879203516,-33.232138225294996L6.516463300207062,-32.90146147934765z" style="fill:rgb(95,32,206)"/><path d="M18.745079442652887,-28.129684599690435L11.546672879203516,-33.232138225294996L13.929591790439192,-28.349334802862376z" style="fill:rgb(80,32,198)"/><path d="M-159.1622376392332,45.876713287133626L-159.40371795670117,53.47826823219777L-159.03544482155445,60.978082657727725z" style="fill:rgb(83,212,212)"/><path d="M-31.45225533875394,-4.815361760729187L-36.64056181791897,-5.531021542789907L-34.03131418622488,-0.7605228772782874zM-31.45225533875394,-4.815361760729187L-34.04274100560683,-9.591590384666002L-36.64056181791897,-5.531021542789907z" style="fill:rgb(232,111,197)"/><path d="M18.745079442652887,-28.129684599690435L16.377863691556122,-33.02445644664039L11.546672879203516,-33.232138225294996z" style="fill:rgb(80,32,198)"/><path d="M23.2811998868782,-27.371450845924578L16.377863691556122,-33.02445644664039L18.745079442652887,-28.129684599690435z" style="fill:rgb(66,34,189)"/><path d="M-34.03131418622488,-0.7605228772782874L-38.632974244286466,-1.390946919920155L-36.006662498994416,3.37517916428731zM-34.03131418622488,-0.7605228772782874L-36.64056181791897,-5.531021542789907L-38.632974244286466,-1.390946919920155z" style="fill:rgb(239,123,188)"/><path d="M-117.35015359350777,35.41361609880691L-120.00934540189897,32.99315444770555L-159.03544482155445,60.978082657727725z" style="fill:rgb(83,212,212)"/><path d="M23.2811998868782,-27.371450845924578L20.927611026995258,-32.27761661764856L16.377863691556122,-33.02445644664039z" style="fill:rgb(66,34,189)"/><path d="M27.458779835582185,-26.08257273871788L20.927611026995258,-32.27761661764856L23.2811998868782,-27.371450845924578z" style="fill:rgb(53,37,179)"/><path d="M-50.84458630410585,-32.209985982401854L-95.56643136707821,26.71485287165461L-77.32567951902386,52.58386695266271zM-113.30990827037186,36.438890018243086L-117.35015359350777,35.41361609880691L-159.03544482155445,60.978082657727725z" style="fill:rgb(83,212,212)"/><path d="M-36.006662498994416,3.37517916428731L-39.98074532815954,2.759379634515625L-37.339392726562934,7.522554844135763z" style="fill:rgb(244,136,178)"/><path d="M97.66197765849958,-22.916980450906166L57.49334693072381,-55.970769154413865L-44.63477891387352,-43.89874949657888z" style="fill:rgb(83,212,212)"/><path d="M-36.006662498994416,3.37517916428731L-38.632974244286466,-1.390946919920155L-39.98074532815954,2.759379634515625z" style="fill:rgb(244,136,178)"/><path d="M-44.63477891387352,-43.89874949657888L-77.32567951902386,52.58386695266271L-40.6346706845091,10.807112898877115zM-108.43504825238075,35.9149993240531L-113.30990827037186,36.438890018243086L-159.03544482155445,60.978082657727725z" style="fill:rgb(83,212,212)"/><path d="M27.458779835582185,-26.08257273871788L25.11650519650411,-30.999327573326305L20.927611026995258,-32.27761661764856z" style="fill:rgb(53,37,179)"/><path d="M-103.39852835482968,33.90611628093589L-108.43504825238075,35.9149993240531L-159.03544482155445,60.978082657727725z" style="fill:rgb(83,212,212)"/><path d="M31.20290507909905,-24.279727594006324L25.11650519650411,-30.999327573326305L27.458779835582185,-26.08257273871788z" style="fill:rgb(41,42,168)"/><path d="M16.377863691556122,-33.02445644664039L106.30052072382578,-19.6808411165249L-44.63477891387352,-43.89874949657888z" style="fill:rgb(83,212,212)"/><path d="M-37.339392726562934,7.522554844135763L-40.65431596752392,6.849169334592048L-38.00024851781574,11.610865719621211zM-37.339392726562934,7.522554844135763L-39.98074532815954,2.759379634515625L-40.65431596752392,6.849169334592048z" style="fill:rgb(246,149,167)"/><path d="M31.20290507909905,-24.279727594006324L28.869408232717408,-29.20605095307624L25.11650519650411,-30.999327573326305z" style="fill:rgb(41,42,168)"/><path d="M34.44423804087841,-21.98846225666698L28.869408232717408,-29.20605095307624L31.20290507909905,-24.279727594006324z" style="fill:rgb(31,49,156)"/><path d="M-38.00024851781574,11.610865719621211L-40.6346706845091,10.807112898877115L-37.970484880177686,15.568836084628488zM-38.00024851781574,11.610865719621211L-40.65431596752392,6.849169334592048L-40.6346706845091,10.807112898877115z" style="fill:rgb(247,161,155)"/><path d="M-159.03544482155445,60.978082657727725L-158.04484572368878,68.34576097237567L-157.1864047385277,72.1546289559662z" style="fill:rgb(83,212,212)"/><path d="M34.44423804087841,-21.98846225666698L32.11679397269008,-26.92312653617261L28.869408232717408,-29.20605095307624z" style="fill:rgb(31,49,156)"/><path d="M37.12040002578081,-19.24318664758704L32.11679397269008,-26.92312653617261L34.44423804087841,-21.98846225666698z" style="fill:rgb(22,57,143)"/><path d="M-37.970484880177686,15.568836084628488L-39.914129811803974,14.562507100199092L-37.24267301331782,19.325781921152196zM-37.970484880177686,15.568836084628488L-40.6346706845091,10.807112898877115L-39.914129811803974,14.562507100199092z" style="fill:rgb(245,172,142)"/><path d="M-95.56643136707821,26.71485287165461L-98.90126468663196,30.689486135339006L-77.32567951902386,52.58386695266271z" style="fill:rgb(83,212,212)"/><path d="M37.12040002578081,-19.24318664758704L34.79612550584308,-24.184774286903078L32.11679397269008,-26.92312653617261z" style="fill:rgb(22,57,143)"/><path d="M-103.39852835482968,33.90611628093589L-159.03544482155445,60.978082657727725L-77.32567951902386,52.58386695266271zM-98.90126468663196,30.689486135339006L-103.39852835482968,33.90611628093589L-77.32567951902386,52.58386695266271z" style="fill:rgb(83,212,212)"/><path d="M39.17736000728813,-16.087021555839723L34.79612550584308,-24.184774286903078L37.12040002578081,-19.24318664758704z" style="fill:rgb(15,66,131)"/><path d="M97.66197765849958,-22.916980450906166L62.187125319951214,-55.22554003575777L57.49334693072381,-55.970769154413865z" style="fill:rgb(83,212,212)"/><path d="M-37.24267301331782,19.325781921152196L-38.49704252825815,18.046492564321596L-35.82136203156594,22.812841478454352z" style="fill:rgb(241,183,130)"/><path d="M-159.03544482155445,60.978082657727725L-157.1864047385277,72.1546289559662L-82.65368294045889,53.577944614430386z" style="fill:rgb(83,212,212)"/><path d="M-37.24267301331782,19.325781921152196L-39.914129811803974,14.562507100199092L-38.49704252825815,18.046492564321596z" style="fill:rgb(241,183,130)"/><path d="M97.66197765849958,-22.916980450906166L67.2588152683094,-55.107388843535766L62.187125319951214,-55.22554003575777z" style="fill:rgb(83,212,212)"/><path d="M-79.73704250291222,58.23523956289098L-157.1864047385277,72.1546289559662L-153.97956666631538,76.63882428167227z" style="fill:rgb(127,37,217)"/><path d="M39.17736000728813,-16.087021555839723L36.853249597787595,-21.03394820109226L34.79612550584308,-24.184774286903078z" style="fill:rgb(15,66,131)"/><path d="M97.66197765849958,-22.916980450906166L72.57886462497582,-55.6244112108927L67.2588152683094,-55.107388843535766zM16.377863691556122,-33.02445644664039L20.927611026995258,-32.27761661764856L106.30052072382578,-19.6808411165249zM101.32923371353986,-20.582716456896897L97.66197765849958,-22.916980450906166L-44.63477891387352,-43.89874949657888zM97.66197765849958,-22.916980450906166L78.00894546743928,-56.76713108582961L72.57886462497582,-55.6244112108927zM20.927611026995258,-32.27761661764856L25.11650519650411,-30.999327573326305L106.30052072382578,-19.6808411165249zM-77.32567951902386,52.58386695266271L-39.914129811803974,14.562507100199092L-40.6346706845091,10.807112898877115zM106.30052072382578,-19.6808411165249L101.32923371353986,-20.582716456896897L-44.63477891387352,-43.89874949657888zM156.4347195446376,-77.65087944928685L78.00894546743928,-56.76713108582961L106.81067615622943,-40.96615809621712zM25.11650519650411,-30.999327573326305L28.869408232717408,-29.20605095307624L106.30052072382578,-19.6808411165249zM-159.03544482155445,60.978082657727725L-82.65368294045889,53.577944614430386L-77.32567951902386,52.58386695266271zM-77.32567951902386,52.58386695266271L-38.49704252825815,18.046492564321596L-39.914129811803974,14.562507100199092z" style="fill:rgb(83,212,212)"/><path d="M-79.73704250291222,58.23523956289098L-82.65368294045889,53.577944614430386L-157.1864047385277,72.1546289559662z" style="fill:rgb(127,37,217)"/><path d="M28.869408232717408,-29.20605095307624L32.11679397269008,-26.92312653617261L106.30052072382578,-19.6808411165249zM101.83315225884849,-38.23120910458237L106.81067615622943,-40.96615809621712L78.00894546743928,-56.76713108582961zM98.03422544346613,-34.55325582365567L101.83315225884849,-38.23120910458237L78.00894546743928,-56.76713108582961zM-77.32567951902386,52.58386695266271L-36.40029422607641,21.193373518054504L-38.49704252825815,18.046492564321596zM95.91886413328686,-30.411412416221026L98.03422544346613,-34.55325582365567L78.00894546743928,-56.76713108582961zM-77.32567951902386,52.58386695266271L-33.6536179337788,23.942007214398593L-36.40029422607641,21.193373518054504z" style="fill:rgb(83,212,212)"/><path d="M-74.42936943183211,57.25355731318066L-82.65368294045889,53.577944614430386L-79.73704250291222,58.23523956289098z" style="fill:rgb(118,35,214)"/><path d="M95.78150783551816,-26.350950950233948L95.91886413328686,-30.411412416221026L78.00894546743928,-56.76713108582961zM162.16579401825737,-67.89790318254767L158.62679066549006,-74.39597142190593L156.4347195446376,-77.65087944928685zM-77.32567951902386,52.58386695266271L-30.299619247923903,26.237237386537892L-33.6536179337788,23.942007214398593z" style="fill:rgb(83,212,212)"/><path d="M-69.2783875752439,56.97348350199074L-77.32567951902386,52.58386695266271L-74.42936943183211,57.25355731318066z" style="fill:rgb(99,32,207)"/><path d="M-74.42936943183211,57.25355731318066L-77.32567951902386,52.58386695266271L-82.65368294045889,53.577944614430386z" style="fill:rgb(118,35,214)"/><path d="M108.8398607015782,-35.84883898581353L101.83315225884849,-38.23120910458237L103.88620233180262,-33.125987794853z" style="fill:rgb(170,54,222)"/><path d="M162.16579401825737,-67.89790318254767L156.4347195446376,-77.65087944928685L106.81067615622943,-40.96615809621712zM97.66197765849958,-22.916980450906166L95.78150783551816,-26.350950950233948L78.00894546743928,-56.76713108582961z" style="fill:rgb(83,212,212)"/><path d="M108.8398607015782,-35.84883898581353L114.32103070223651,-37.269981686376816L112.31523506800127,-42.40083968158611z" style="fill:rgb(127,37,217)"/><path d="M103.88620233180262,-33.125987794853L98.03422544346613,-34.55325582365567L100.10860188055132,-29.45715785821672z" style="fill:rgb(208,81,214)"/><path d="M108.8398607015782,-35.84883898581353L106.81067615622943,-40.96615809621712L101.83315225884849,-38.23120910458237z" style="fill:rgb(170,54,222)"/><path d="M-77.32567951902386,52.58386695266271L-26.393524947021707,28.031281297146585L-30.299619247923903,26.237237386537892z" style="fill:rgb(83,212,212)"/><path d="M-69.2783875752439,56.97348350199074L-72.15671403826578,52.29196709150032L-77.32567951902386,52.58386695266271z" style="fill:rgb(99,32,207)"/><path d="M-64.40392398895216,57.406154506405564L-72.15671403826578,52.29196709150032L-69.2783875752439,56.97348350199074z" style="fill:rgb(81,32,199)"/><path d="M112.31523506800127,-42.40083968158611L106.81067615622943,-40.96615809621712L108.8398607015782,-35.84883898581353z" style="fill:rgb(127,37,217)"/><path d="M119.61200642536866,-37.1978769655447L112.31523506800127,-42.40083968158611L114.32103070223651,-37.269981686376816z" style="fill:rgb(84,32,200)"/><path d="M103.88620233180262,-33.125987794853L101.83315225884849,-38.23120910458237L98.03422544346613,-34.55325582365567z" style="fill:rgb(208,81,214)"/><path d="M100.10860188055132,-29.45715785821672L95.91886413328686,-30.411412416221026L98.00925042947107,-25.320335945266965z" style="fill:rgb(234,114,195)"/><path d="M162.16579401825737,-67.89790318254767L106.81067615622943,-40.96615809621712L112.31523506800127,-42.40083968158611zM-77.32567951902386,52.58386695266271L-22.00256340836994,29.28509957211113L-26.393524947021707,28.031281297146585z" style="fill:rgb(83,212,212)"/><path d="M100.10860188055132,-29.45715785821672L98.03422544346613,-34.55325582365567L95.91886413328686,-30.411412416221026z" style="fill:rgb(234,114,195)"/><path d="M-64.40392398895216,57.406154506405564L-67.26701518044186,52.71367805361068L-72.15671403826578,52.29196709150032z" style="fill:rgb(81,32,199)"/><path d="M119.61200642536866,-37.1978769655447L117.62613085786651,-42.34194919810115L112.31523506800127,-42.40083968158611z" style="fill:rgb(84,32,200)"/><path d="M-59.9216250097069,58.547403036429856L-67.26701518044186,52.71367805361068L-64.40392398895216,57.406154506405564z" style="fill:rgb(64,34,188)"/><path d="M124.01124839325868,-35.6307695189L117.62613085786651,-42.34194919810115L119.61200642536866,-37.1978769655447z" style="fill:rgb(46,40,173)"/><path d="M162.16579401825737,-67.89790318254767L112.31523506800127,-42.40083968158611L117.62613085786651,-42.34194919810115zM-77.32567951902386,52.58386695266271L-17.204992565979886,29.969586971823322L-22.00256340836994,29.28509957211113z" style="fill:rgb(83,212,212)"/><path d="M98.00925042947107,-25.320335945266965L95.78150783551816,-26.350950950233948L97.88036956404889,-21.26016164171066z" style="fill:rgb(246,149,166)"/><path d="M162.16579401825737,-67.89790318254767L117.62613085786651,-42.34194919810115L122.03926144956232,-40.785930016302814z" style="fill:rgb(83,212,212)"/><path d="M98.00925042947107,-25.320335945266965L95.91886413328686,-30.411412416221026L95.78150783551816,-26.350950950233948z" style="fill:rgb(246,149,166)"/><path d="M-59.9216250097069,58.547403036429856L-62.77258539051357,53.84512560207584L-67.26701518044186,52.71367805361068z" style="fill:rgb(64,34,188)"/><path d="M-77.32567951902386,52.58386695266271L-72.15671403826578,52.29196709150032L4.185694867777907,26.83045620641707z" style="fill:rgb(83,212,212)"/><path d="M124.01124839325868,-35.6307695189L122.03926144956232,-40.785930016302814L117.62613085786651,-42.34194919810115z" style="fill:rgb(46,40,173)"/><path d="M-77.32567951902386,52.58386695266271L-12.088741140511573,30.066610240366224L-17.204992565979886,29.969586971823322z" style="fill:rgb(83,212,212)"/><path d="M-55.94057115368189,60.37726308465761L-62.77258539051357,53.84512560207584L-59.9216250097069,58.547403036429856z" style="fill:rgb(49,38,176)"/><path d="M126.92135097610793,-32.76272271346888L122.03926144956232,-40.785930016302814L124.01124839325868,-35.6307695189z" style="fill:rgb(20,59,140)"/><path d="M-72.15671403826578,52.29196709150032L-67.26701518044186,52.71367805361068L4.185694867777907,26.83045620641707zM-77.32567951902386,52.58386695266271L-6.749711415068946,29.569797603167242L-12.088741140511573,30.066610240366224zM162.16579401825737,-67.89790318254767L122.03926144956232,-40.785930016302814L124.95525854338705,-37.92524961393553zM-77.32567951902386,52.58386695266271L-1.2897399553030107,28.48499969326617L-6.749711415068946,29.569797603167242z" style="fill:rgb(83,212,212)"/><path d="M-55.94057115368189,60.37726308465761L-58.782818819130256,55.6666242305228L-62.77258539051357,53.84512560207584z" style="fill:rgb(49,38,176)"/><path d="M-67.26701518044186,52.71367805361068L-62.77258539051357,53.84512560207584L4.185694867777907,26.83045620641707zM-77.32567951902386,52.58386695266271L4.185694867777907,26.83045620641707L-1.2897399553030107,28.48499969326617z" style="fill:rgb(83,212,212)"/><path d="M126.92135097610793,-32.76272271346888L124.95525854338705,-37.92524961393553L122.03926144956232,-40.785930016302814z" style="fill:rgb(20,59,140)"/><path d="M-52.56076484739293,62.85973637433985L-58.782818819130256,55.6666242305228L-55.94057115368189,60.37726308465761z" style="fill:rgb(36,45,162)"/><path d="M167.40097090619827,-53.815244491641444L165.09952289706916,-61.03086238443147L162.16579401825737,-67.89790318254767zM162.16579401825737,-67.89790318254767L124.95525854338705,-37.92524961393553L125.96197317821148,-34.131516850966214z" style="fill:rgb(83,212,212)"/><path d="M166.86959167148683,-55.7698480538599L165.09952289706916,-61.03086238443147L167.40097090619827,-53.815244491641444z" style="fill:rgb(246,166,149)"/><path d="M-62.77258539051357,53.84512560207584L-58.782818819130256,55.6666242305228L4.185694867777907,26.83045620641707z" style="fill:rgb(83,212,212)"/><path d="M166.86959167148683,-55.7698480538599L167.40097090619827,-53.815244491641444L169.1738652565529,-48.54763648283095z" style="fill:rgb(246,166,149)"/><path d="M-52.56076484739293,62.85973637433985L-55.39796208890269,58.14243356086477L-58.782818819130256,55.6666242305228z" style="fill:rgb(36,45,162)"/><path d="M-49.870521465869466,65.94282463074552L-55.39796208890269,58.14243356086477L-52.56076484739293,62.85973637433985z" style="fill:rgb(25,54,148)"/><path d="M-58.782818819130256,55.6666242305228L9.569959093359309,24.636553293472325L4.185694867777907,26.83045620641707zM-58.782818819130256,55.6666242305228L-55.39796208890269,58.14243356086477L9.569959093359309,24.636553293472325z" style="fill:rgb(83,212,212)"/><path d="M-49.870521465869466,65.94282463074552L-52.70651988321531,61.22077975338605L-55.39796208890269,58.14243356086477z" style="fill:rgb(25,54,148)"/><path d="M-52.70651988321531,61.22077975338605L14.757843486389316,21.945232115011095L9.569959093359309,24.636553293472325zM-55.39796208890269,58.14243356086477L-52.70651988321531,61.22077975338605L9.569959093359309,24.636553293472325zM170.00901790943814,-38.43344243808758L167.40097090619827,-53.815244491641444L162.16579401825737,-67.89790318254767zM-50.78264794933457,64.83423331351383L19.648140504298443,18.809030243830694L14.757843486389316,21.945232115011095z" style="fill:rgb(83,212,212)"/><path d="M169.1738652565529,-48.54763648283095L167.40097090619827,-53.815244491641444L169.04508031867732,-46.27415046740508z" style="fill:rgb(247,161,155)"/><path d="M-52.70651988321531,61.22077975338605L-50.78264794933457,64.83423331351383L14.757843486389316,21.945232115011095z" style="fill:rgb(83,212,212)"/><path d="M169.1738652565529,-48.54763648283095L169.04508031867732,-46.27415046740508L170.82379161489303,-41.00213204012012z" style="fill:rgb(247,161,155)"/><path d="M32.11679397269008,-26.92312653617261L34.79612550584308,-24.184774286903078L132.1250675959704,57.99383016161667zM34.79612550584308,-24.184774286903078L36.853249597787595,-21.03394820109226L132.1250675959704,57.99383016161667zM170.00901790943814,-38.43344243808758L169.04508031867732,-46.27415046740508L167.40097090619827,-53.815244491641444z" style="fill:rgb(83,212,212)"/><path d="M170.82379161489303,-41.00213204012012L169.04508031867732,-46.27415046740508L170.00901790943814,-38.43344243808758z" style="fill:rgb(247,155,161)"/><path d="M36.853249597787595,-21.03394820109226L38.24378219994834,-17.521997308215884L132.1250675959704,57.99383016161667z" style="fill:rgb(83,212,212)"/><path d="M170.82379161489303,-41.00213204012012L170.00901790943814,-38.43344243808758L171.79666169422254,-33.15928677715569z" style="fill:rgb(247,155,161)"/><path d="M38.24378219994834,-17.521997308215884L38.9344236070171,-13.708121721211233L132.1250675959704,57.99383016161667zM38.9344236070171,-13.708121721211233L38.90414082281881,-9.658593978219736L132.1250675959704,57.99383016161667zM166.70615124022598,-4.689014613334364L170.00901790943814,-38.43344243808758L162.16579401825737,-67.89790318254767z" style="fill:rgb(83,212,212)"/><path d="M171.79666169422254,-33.15928677715569L170.00901790943814,-38.43344243808758L170.2725948090011,-30.321782064915432z" style="fill:rgb(246,149,166)"/><path d="M38.90414082281881,-9.658593978219736L38.14518819603545,-5.445741324503107L132.1250675959704,57.99383016161667zM32.11679397269008,-26.92312653617261L132.1250675959704,57.99383016161667L106.30052072382578,-19.6808411165249z" style="fill:rgb(83,212,212)"/><path d="M171.79666169422254,-33.15928677715569L170.2725948090011,-30.321782064915432L172.07239880850517,-25.047835889437707z" style="fill:rgb(246,149,166)"/><path d="M38.14518819603545,-5.445741324503107L36.66385307611204,-1.1466830664479322L132.1250675959704,57.99383016161667z" style="fill:rgb(83,212,212)"/><path d="M134.23619602031224,63.13424166626523L30.729095595882306,8.446716694513231L33.14104444052608,13.37768418963392z" style="fill:rgb(42,41,169)"/><path d="M36.66385307611204,-1.1466830664479322L34.480906036648385,3.1581525377528443L132.1250675959704,57.99383016161667zM34.480906036648385,3.1581525377528443L31.631675416671655,7.386714405978853L132.1250675959704,57.99383016161667zM169.8185822516339,-21.970601501497754L170.2725948090011,-30.321782064915432L170.00901790943814,-38.43344243808758zM132.1250675959704,57.99383016161667L162.16579401825737,-67.89790318254767L125.96197317821148,-34.131516850966214zM31.631675416671655,7.386714405978853L30.729095595882306,8.446716694513231L132.1250675959704,57.99383016161667z" style="fill:rgb(83,212,212)"/><path d="M172.07239880850517,-25.047835889437707L170.2725948090011,-30.321782064915432L169.8185822516339,-21.970601501497754zM172.07239880850517,-25.047835889437707L169.8185822516339,-21.970601501497754L171.63387140395025,-16.69926799027257z" style="fill:rgb(245,143,172)"/><path d="M-24.486660435765145,140.7547866274283L24.194382748088735,15.243774160937745L24.146108958789853,15.28980334930398zM-24.486660435765145,140.7547866274283L24.146108958789853,15.28980334930398L19.648140504298443,18.809030243830694zM132.1250675959704,57.99383016161667L125.96197317821148,-34.131516850966214L124.89946900416768,-29.913087702055567zM166.70615124022598,-4.689014613334364L169.8185822516339,-21.970601501497754L170.00901790943814,-38.43344243808758zM-50.78264794933457,64.83423331351383L-24.486660435765145,140.7547866274283L19.648140504298443,18.809030243830694zM132.1250675959704,57.99383016161667L124.89946900416768,-29.913087702055567L121.89420683908585,-25.848705809718474zM132.1250675959704,57.99383016161667L111.89978188524894,-20.34945972993091L106.30052072382578,-19.6808411165249z" style="fill:rgb(83,212,212)"/><path d="M171.63387140395025,-16.69926799027257L169.8185822516339,-21.970601501497754L168.63315775991444,-13.414075293681869z" style="fill:rgb(244,137,177)"/><path d="M132.1250675959704,57.99383016161667L121.89420683908585,-25.848705809718474L117.35116467288266,-22.504747165877667zM132.1250675959704,57.99383016161667L117.35116467288266,-22.504747165877667L111.89978188524894,-20.34945972993091z" style="fill:rgb(83,212,212)"/><path d="M171.63387140395025,-16.69926799027257L168.63315775991444,-13.414075293681869L170.4673355121892,-8.147789451932887z" style="fill:rgb(244,137,177)"/><path d="M-50.78264794933457,64.83423331351383L-49.683597308879335,68.9005618601363L-24.486660435765145,140.7547866274283zM-49.683597308879335,68.9005618601363L-49.44737401827472,73.32402591875947L-24.486660435765145,140.7547866274283zM166.70615124022598,-4.689014613334364L168.63315775991444,-13.414075293681869L169.8185822516339,-21.970601501497754z" style="fill:rgb(83,212,212)"/><path d="M170.4673355121892,-8.147789451932887L168.63315775991444,-13.414075293681869L166.70615124022598,-4.689014613334364z" style="fill:rgb(242,131,182)"/><path d="M132.1250675959704,57.99383016161667L166.70615124022598,-4.689014613334364L162.16579401825737,-67.89790318254767z" style="fill:rgb(83,212,212)"/><path d="M170.4673355121892,-8.147789451932887L166.70615124022598,-4.689014613334364L168.5626672311226,0.569773862589335z" style="fill:rgb(242,131,182)"/><path d="M168.5626672311226,0.569773862589335L166.70615124022598,-4.689014613334364L164.03153363653593,4.165263291781526zM168.5626672311226,0.569773862589335L164.03153363653593,4.165263291781526L165.9138912775094,9.414114173509212z" style="fill:rgb(240,125,187)"/><path d="M160.60762801729481,13.107116877024625L164.03153363653593,4.165263291781526L166.70615124022598,-4.689014613334364z" style="fill:rgb(83,212,212)"/><path d="M165.9138912775094,9.414114173509212L164.03153363653593,4.165263291781526L160.60762801729481,13.107116877024625zM165.9138912775094,9.414114173509212L160.60762801729481,13.107116877024625L162.51933161090636,18.343626462083883z" style="fill:rgb(237,120,191)"/><path d="M134.23619602031224,63.13424166626523L132.1250675959704,57.99383016161667L30.729095595882306,8.446716694513231z" style="fill:rgb(42,41,169)"/><path d="M-49.44737401827472,73.32402591875947L-52.49210388512984,141.94588957511152L-46.7894841518033,142.09830406559556zM151.5290817925408,31.076831400229256L160.60762801729481,13.107116877024625L166.70615124022598,-4.689014613334364zM124.85449441201202,66.04190115310315L125.26424890600116,65.58832893213398L24.194382748088735,15.243774160937745z" style="fill:rgb(83,212,212)"/><path d="M162.51933161090636,18.343626462083883L160.60762801729481,13.107116877024625L156.43748866225286,22.092817804563676zM162.51933161090636,18.343626462083883L156.43748866225286,22.092817804563676L158.38199449148016,27.314641521012028z" style="fill:rgb(234,114,195)"/><path d="M-49.44737401827472,73.32402591875947L-46.7894841518033,142.09830406559556L-24.486660435765145,140.7547866274283zM107.68041309445492,82.26040729487733L124.85449441201202,66.04190115310315L24.194382748088735,15.243774160937745zM-24.486660435765145,140.7547866274283L67.31995215134454,110.2955998377518L24.194382748088735,15.243774160937745zM151.5290817925408,31.076831400229256L156.43748866225286,22.092817804563676L160.60762801729481,13.107116877024625z" style="fill:rgb(83,212,212)"/><path d="M158.38199449148016,27.314641521012028L156.43748866225286,22.092817804563676L151.5290817925408,31.076831400229256zM158.38199449148016,27.314641521012028L151.5290817925408,31.076831400229256L153.50978324921365,36.28171012998673z" style="fill:rgb(230,108,199)"/><path d="M67.31995215134454,110.2955998377518L107.68041309445492,82.26040729487733L24.194382748088735,15.243774160937745zM132.1250675959704,57.99383016161667L151.5290817925408,31.076831400229256L166.70615124022598,-4.689014613334364z" style="fill:rgb(83,212,212)"/><path d="M153.50978324921365,36.28171012998673L151.5290817925408,31.076831400229256L145.89551014947997,40.012147429910144zM153.50978324921365,36.28171012998673L145.89551014947997,40.012147429910144L147.9157323746733,45.19793218158758z" style="fill:rgb(226,102,203)"/><path d="M-43.76399259430413,146.76717660424845L-52.49210388512984,141.94588957511152L-49.44510597662347,146.60317966010425z" style="fill:rgb(94,32,205)"/><path d="M147.9157323746733,45.19793218158758L139.55517736635485,48.85066387905985L141.618077554522,54.015339794551245z" style="fill:rgb(222,96,207)"/><path d="M139.55517736635485,48.85066387905985L145.89551014947997,40.012147429910144L151.5290817925408,31.076831400229256z" style="fill:rgb(83,212,212)"/><path d="M147.9157323746733,45.19793218158758L145.89551014947997,40.012147429910144L139.55517736635485,48.85066387905985z" style="fill:rgb(222,96,207)"/><path d="M-43.76399259430413,146.76717660424845L-46.7894841518033,142.09830406559556L-52.49210388512984,141.94588957511152z" style="fill:rgb(94,32,205)"/><path d="M-32.78115647069874,146.44032982915058L-46.7894841518033,142.09830406559556L-43.76399259430413,146.76717660424845z" style="fill:rgb(101,32,208)"/><path d="M132.1250675959704,57.99383016161667L139.55517736635485,48.85066387905985L151.5290817925408,31.076831400229256z" style="fill:rgb(83,212,212)"/><path d="M-32.78115647069874,146.44032982915058L-35.76297835178494,141.74829499954052L-46.7894841518033,142.09830406559556z" style="fill:rgb(101,32,208)"/><path d="M141.618077554522,54.015339794551245L132.53181549915212,57.54358604749381L134.64038504767308,62.68529478724445zM141.618077554522,54.015339794551245L139.55517736635485,48.85066387905985L132.53181549915212,57.54358604749381z" style="fill:rgb(217,91,210)"/><path d="M-21.551630226971483,145.4713041015738L-35.76297835178494,141.74829499954052L-32.78115647069874,146.44032982915058z" style="fill:rgb(108,33,211)"/><path d="M132.1250675959704,57.99383016161667L134.23619602031224,63.13424166626523L134.64038504767308,62.68529478724445z" style="fill:rgb(212,85,213)"/><path d="M-46.7894841518033,142.09830406559556L-35.76297835178494,141.74829499954052L-24.486660435765145,140.7547866274283z" style="fill:rgb(83,212,212)"/><path d="M134.64038504767308,62.68529478724445L132.53181549915212,57.54358604749381L132.1250675959704,57.99383016161667z" style="fill:rgb(212,85,213)"/><path d="M132.1250675959704,57.99383016161667L132.53181549915212,57.54358604749381L139.55517736635485,48.85066387905985z" style="fill:rgb(83,212,212)"/><path d="M-21.551630226971483,145.4713041015738L-24.486660435765145,140.7547866274283L-35.76297835178494,141.74829499954052z" style="fill:rgb(108,33,211)"/><path d="M-10.133419359052416,143.85744290405702L-24.486660435765145,140.7547866274283L-21.551630226971483,145.4713041015738z" style="fill:rgb(116,34,214)"/><path d="M124.85449441201202,66.04190115310315L127.01150965475483,71.15896151429975L127.4186706589476,70.70671355505183zM127.4186706589476,70.70671355505183L125.26424890600116,65.58832893213398L124.85449441201202,66.04190115310315z" style="fill:rgb(212,85,213)"/><path d="M127.01150965475483,71.15896151429975L116.55755740278447,74.29684437352415L118.76553066498613,79.38777034694981z" style="fill:rgb(206,80,215)"/><path d="M-10.133419359052416,143.85744290405702L-13.018828783788647,139.1152051912921L-24.486660435765145,140.7547866274283z" style="fill:rgb(116,34,214)"/><path d="M1.4128980892100695,141.60057292341125L-13.018828783788647,139.1152051912921L-10.133419359052416,143.85744290405702z" style="fill:rgb(123,36,216)"/><path d="M127.01150965475483,71.15896151429975L124.85449441201202,66.04190115310315L116.55755740278447,74.29684437352415z" style="fill:rgb(206,80,215)"/><path d="M-24.486660435765145,140.7547866274283L-13.018828783788647,139.1152051912921L-1.4203855837224615,136.83148103313744z" style="fill:rgb(83,212,212)"/><path d="M118.76553066498613,79.38777034694981L107.68041309445492,82.26040729487733L109.94158749059143,87.32392312730427z" style="fill:rgb(200,75,217)"/><path d="M1.4128980892100695,141.60057292341125L-1.4203855837224615,136.83148103313744L-13.018828783788647,139.1152051912921z" style="fill:rgb(123,36,216)"/><path d="M13.024715797045834,138.70713877042246L-1.4203855837224615,136.83148103313744L1.4128980892100695,141.60057292341125z" style="fill:rgb(131,38,218)"/><path d="M118.76553066498613,79.38777034694981L116.55755740278447,74.29684437352415L107.68041309445492,82.26040729487733z" style="fill:rgb(200,75,217)"/><path d="M107.68041309445492,82.26040729487733L116.55755740278447,74.29684437352415L124.85449441201202,66.04190115310315zM-24.486660435765145,140.7547866274283L-1.4203855837224615,136.83148103313744L21.915018255154205,130.3625549095557z" style="fill:rgb(83,212,212)"/><path d="M109.94158749059143,87.32392312730427L98.26732395119048,89.88584372804931L100.58360761622403,94.92089561005824z" style="fill:rgb(194,70,219)"/><path d="M24.637980896842773,135.18823705705432L10.245709065539755,133.91018355401076L13.024715797045834,138.70713877042246z" style="fill:rgb(138,40,220)"/><path d="M13.024715797045834,138.70713877042246L10.245709065539755,133.91018355401076L-1.4203855837224615,136.83148103313744z" style="fill:rgb(131,38,218)"/><path d="M109.94158749059143,87.32392312730427L107.68041309445492,82.26040729487733L98.26732395119048,89.88584372804931z" style="fill:rgb(194,70,219)"/><path d="M100.58360761622403,94.92089561005824L88.3670399715192,97.12819885803171L90.73999635031302,102.13396301194093z" style="fill:rgb(188,65,220)"/><path d="M36.187811142769796,131.05963979982968L21.915018255154205,130.3625549095557L24.637980896842773,135.18823705705432z" style="fill:rgb(146,43,221)"/><path d="M-24.486660435765145,140.7547866274283L21.915018255154205,130.3625549095557L67.31995215134454,110.2955998377518z" style="fill:rgb(83,212,212)"/><path d="M24.637980896842773,135.18823705705432L21.915018255154205,130.3625549095557L10.245709065539755,133.91018355401076z" style="fill:rgb(138,40,220)"/><path d="M-1.4203855837224615,136.83148103313744L10.245709065539755,133.91018355401076L21.915018255154205,130.3625549095557z" style="fill:rgb(83,212,212)"/><path d="M100.58360761622403,94.92089561005824L98.26732395119048,89.88584372804931L88.3670399715192,97.12819885803171z" style="fill:rgb(188,65,220)"/><path d="M90.73999635031302,102.13396301194093L78.0324302930074,103.94475993963353L80.46321442724027,108.92064705810856z" style="fill:rgb(181,61,221)"/><path d="M47.609157066864014,126.34171987468673L33.52225590112716,126.20453253934039L36.187811142769796,131.05963979982968z" style="fill:rgb(153,46,222)"/><path d="M88.3670399715192,97.12819885803171L98.26732395119048,89.88584372804931L107.68041309445492,82.26040729487733z" style="fill:rgb(83,212,212)"/><path d="M80.46321442724027,108.92064705810856L67.31995215134454,110.2955998377518L69.80933675716312,115.24125538122068z" style="fill:rgb(175,57,222)"/><path d="M58.83745809804866,121.05925785058872L45.001957179685284,121.45667318382033L47.609157066864014,126.34171987468673z" style="fill:rgb(160,49,222)"/><path d="M36.187811142769796,131.05963979982968L33.52225590112716,126.20453253934039L21.915018255154205,130.3625549095557z" style="fill:rgb(146,43,221)"/><path d="M69.80933675716312,115.24125538122068L56.289125098581785,116.14395717674782L58.83745809804866,121.05925785058872z" style="fill:rgb(168,53,222)"/><path d="M90.73999635031302,102.13396301194093L88.3670399715192,97.12819885803171L78.0324302930074,103.94475993963353z" style="fill:rgb(181,61,221)"/><path d="M67.31995215134454,110.2955998377518L88.3670399715192,97.12819885803171L107.68041309445492,82.26040729487733z" style="fill:rgb(83,212,212)"/><path d="M47.609157066864014,126.34171987468673L45.001957179685284,121.45667318382033L33.52225590112716,126.20453253934039z" style="fill:rgb(153,46,222)"/><path d="M80.46321442724027,108.92064705810856L78.0324302930074,103.94475993963353L67.31995215134454,110.2955998377518z" style="fill:rgb(175,57,222)"/><path d="M58.83745809804866,121.05925785058872L56.289125098581785,116.14395717674782L45.001957179685284,121.45667318382033z" style="fill:rgb(160,49,222)"/><path d="M69.80933675716312,115.24125538122068L67.31995215134454,110.2955998377518L56.289125098581785,116.14395717674782z" style="fill:rgb(168,53,222)"/><path d="M21.915018255154205,130.3625549095557L33.52225590112716,126.20453253934039L45.001957179685284,121.45667318382033zM21.915018255154205,130.3625549095557L45.001957179685284,121.45667318382033L67.31995215134454,110.2955998377518zM67.31995215134454,110.2955998377518L78.0324302930074,103.94475993963353L88.3670399715192,97.12819885803171zM45.001957179685284,121.45667318382033L56.289125098581785,116.14395717674782L67.31995215134454,110.2955998377518z" style="fill:rgb(83,212,212)"/></svg>
