<?xml version="1.0" encoding="UTF-8"?>
<!-- Generated by jsxcad -->
<!DOCTYPE svg PUBLIC "-//W3C//DTD SVG 1.1 Tiny//EN" "http://www.w3.org/Graphics/SVG/1.1/DTD/svg11-tiny.dtd">
<svg viewBox="-250 -250 500 500" width="500" height="500" xmlns="http://www.w3.org/2000/svg"><path d="M45.995042827060296,-76.84182672112675L43.69360951259522,-125.09081568787181L-45.14375546954492,-99.7521701725203z" style="fill:rgb(83,212,212)"/><path d="M45.93587681387888,-119.77789720243445L43.69360951259522,-125.09081568787181L45.995042827060296,-76.84182672112675z" style="fill:rgb(247,158,158)"/><path d="M57.57351984831488,-61.92841756379949L-45.14375546954492,-99.7521701725203L-47.467267569035435,-51.30090933873885zM46.62362922842259,-73.08083984100031L45.995042827060296,-76.84182672112675L-45.14375546954492,-99.7521701725203z" style="fill:rgb(83,212,212)"/><path d="M45.93587681387888,-119.77789720243445L45.995042827060296,-76.84182672112675L48.34381859952396,-71.4816557476601z" style="fill:rgb(247,158,158)"/><path d="M48.132653266155316,-69.624134909397L46.62362922842259,-73.08083984100031L-45.14375546954492,-99.7521701725203zM50.49622548318393,-66.56060943986999L48.132653266155316,-69.624134909397L-45.14375546954492,-99.7521701725203zM53.66644279749045,-63.971609851413774L50.49622548318393,-66.56060943986999L-45.14375546954492,-99.7521701725203zM57.57351984831488,-61.92841756379949L53.66644279749045,-63.971609851413774L-45.14375546954492,-99.7521701725203zM-83.49782089609002,-16.579956282592175L-153.16846706193027,2.0219886400789977L-134.0585825992649,22.232733602669203zM72.713093806302,-59.58470552955398L-47.467267569035435,-51.30090933873885L-48.077212992059806,-47.292448853663956zM-153.16846706193027,2.0219886400789977L-138.32778900134986,26.086296739276737L-134.0585825992649,22.232733602669203zM-78.06769661118102,-18.344332422173963L-83.49782089609002,-16.579956282592175L-134.0585825992649,22.232733602669203zM-153.16846706193027,2.0219886400789977L-141.18300507972924,30.491454425506337L-138.32778900134986,26.086296739276737zM-72.71459307042188,-20.709976599840417L-78.06769661118102,-18.344332422173963L-134.0585825992649,22.232733602669203zM-67.5809875922942,-23.614678390741314L-72.71459307042188,-20.709976599840417L-134.0585825992649,22.232733602669203zM-62.80312792275025,-26.980815009730318L-67.5809875922942,-23.614678390741314L-123.64263243562621,18.04987128533371z" style="fill:rgb(83,212,212)"/><path d="M48.34381859952396,-71.4816557476601L46.62362922842259,-73.08083984100031L48.979048608961094,-67.71671463737017z" style="fill:rgb(246,165,151)"/><path d="M78.4784163093324,-60.15428951060491L-48.077212992059806,-47.292448853663956L-49.525908790118336,-43.122560671852476z" style="fill:rgb(83,212,212)"/><path d="M48.34381859952396,-71.4816557476601L45.995042827060296,-76.84182672112675L46.62362922842259,-73.08083984100031z" style="fill:rgb(246,165,151)"/><path d="M-58.50668030384369,-30.71789931830832L-62.80312792275025,-26.980815009730318L-115.22811199407104,20.08437437128276zM-153.16846706193027,2.0219886400789977L-142.23385515489753,34.8690776418915L-141.18300507972924,30.491454425506337zM78.4784163093324,-60.15428951060491L-49.525908790118336,-43.122560671852476L-51.78483368397619,-38.897120345448045zM-67.5809875922942,-23.614678390741314L-134.0585825992649,22.232733602669203L-128.94040499262874,19.432077601341245zM-67.5809875922942,-23.614678390741314L-128.94040499262874,19.432077601341245L-123.64263243562621,18.04987128533371z" style="fill:rgb(83,212,212)"/><path d="M-125.73317219768724,24.36160750530639L-134.0585825992649,22.232733602669203L-130.82611710254463,27.149575127982626z" style="fill:rgb(170,54,222)"/><path d="M48.979048608961094,-67.71671463737017L48.132653266155316,-69.624134909397L50.490777616197306,-64.25393581286116z" style="fill:rgb(244,178,136)"/><path d="M78.4784163093324,-60.15428951060491L-51.78483368397619,-38.897120345448045L-54.80279302425894,-34.72561193606973z" style="fill:rgb(83,212,212)"/><path d="M48.979048608961094,-67.71671463737017L46.62362922842259,-73.08083984100031L48.132653266155316,-69.624134909397z" style="fill:rgb(244,178,136)"/><path d="M-62.80312792275025,-26.980815009730318L-123.64263243562621,18.04987128533371L-118.85968795564202,18.272989343924905z" style="fill:rgb(83,212,212)"/><path d="M-125.73317219768724,24.36160750530639L-120.45665925165783,22.992710608387544L-123.64263243562621,18.04987128533371z" style="fill:rgb(127,37,217)"/><path d="M-130.82611710254463,27.149575127982626L-138.32778900134986,26.086296739276737L-135.06934748632014,30.99266689867031z" style="fill:rgb(208,81,214)"/><path d="M-125.73317219768724,24.36160750530639L-128.94040499262874,19.432077601341245L-134.0585825992649,22.232733602669203z" style="fill:rgb(170,54,222)"/><path d="M-123.64263243562621,18.04987128533371L-128.94040499262874,19.432077601341245L-125.73317219768724,24.36160750530639z" style="fill:rgb(127,37,217)"/><path d="M-115.688325130042,23.22801262095044L-123.64263243562621,18.04987128533371L-120.45665925165783,22.992710608387544z" style="fill:rgb(84,32,200)"/><path d="M78.4784163093324,-60.15428951060491L-54.80279302425894,-34.72561193606973L-58.50668030384369,-30.71789931830832z" style="fill:rgb(83,212,212)"/><path d="M-130.82611710254463,27.149575127982626L-134.0585825992649,22.232733602669203L-138.32778900134986,26.086296739276737z" style="fill:rgb(208,81,214)"/><path d="M-62.80312792275025,-26.980815009730318L-118.85968795564202,18.272989343924905L-115.22811199407104,20.08437437128276z" style="fill:rgb(83,212,212)"/><path d="M-135.06934748632014,30.99266689867031L-141.18300507972924,30.491454425506337L-137.9011697442826,35.39087089153179zM-135.06934748632014,30.99266689867031L-138.32778900134986,26.086296739276737L-141.18300507972924,30.491454425506337z" style="fill:rgb(234,114,195)"/><path d="M62.12663365738624,-60.48974589481348L57.57351984831488,-61.92841756379949L-47.467267569035435,-51.30090933873885z" style="fill:rgb(83,212,212)"/><path d="M-115.688325130042,23.22801262095044L-118.85968795564202,18.272989343924905L-123.64263243562621,18.04987128533371z" style="fill:rgb(84,32,200)"/><path d="M-112.06276272348981,25.04877712218971L-118.85968795564202,18.272989343924905L-115.688325130042,23.22801262095044z" style="fill:rgb(46,40,173)"/><path d="M-15.017342675966235,-28.61788902913516L-9.63712741904558,-31.121027191347395L-58.50668030384369,-30.71789931830832zM-20.161695025690015,-25.663833349438395L-15.017342675966235,-28.61788902913516L-58.50668030384369,-30.71789931830832zM-9.63712741904558,-31.121027191347395L-4.107803127290199,-33.13244535906765L-58.50668030384369,-30.71789931830832zM-24.98683228467396,-22.306195321421306L-20.161695025690015,-25.663833349438395L-58.50668030384369,-30.71789931830832zM-29.41373112333462,-18.598331768073876L-24.98683228467396,-22.306195321421306L-58.50668030384369,-30.71789931830832zM67.21554921337116,-59.699473280518056L62.12663365738624,-60.48974589481348L-47.467267569035435,-51.30090933873885z" style="fill:rgb(83,212,212)"/><path d="M-137.9011697442826,35.39087089153179L-142.23385515489753,34.8690776418915L-138.93435468039831,39.765925752451395zM-137.9011697442826,35.39087089153179L-141.18300507972924,30.491454425506337L-142.23385515489753,34.8690776418915z" style="fill:rgb(246,149,166)"/><path d="M-33.368643833595094,-14.599113642356984L-29.41373112333462,-18.598331768073876L-58.50668030384369,-30.71789931830832z" style="fill:rgb(83,212,212)"/><path d="M-112.06276272348981,25.04877712218971L-115.22811199407104,20.08437437128276L-118.85968795564202,18.272989343924905z" style="fill:rgb(46,40,173)"/><path d="M-153.16846706193027,2.0219886400789977L-164.11689212747092,76.58515437963263L-142.23385515489753,34.8690776418915zM72.713093806302,-59.58470552955398L67.21554921337116,-59.699473280518056L-47.467267569035435,-51.30090933873885zM-36.784044802921905,-10.372343138099376L-33.368643833595094,-14.599113642356984L-58.50668030384369,-30.71789931830832z" style="fill:rgb(83,212,212)"/><path d="M-6.976699152694147,-25.891501828153327L-15.017342675966235,-28.61788902913516L-12.331391030600724,-23.40193869606817z" style="fill:rgb(159,48,222)"/><path d="M-12.331391030600724,-23.40193869606817L-20.161695025690015,-25.663833349438395L-17.449848287977176,-20.460705366889087z" style="fill:rgb(174,56,222)"/><path d="M-1.472156175602447,-27.88878504294426L-9.63712741904558,-31.121027191347395L-6.976699152694147,-25.891501828153327z" style="fill:rgb(143,42,220)"/><path d="M-39.59962081377792,-5.986112158075394L-36.784044802921905,-10.372343138099376L-58.50668030384369,-30.71789931830832z" style="fill:rgb(83,212,212)"/><path d="M-138.93435468039831,39.765925752451395L-141.31955384566334,38.63221709630514L-138.0106670154496,43.53125367067914z" style="fill:rgb(242,181,132)"/><path d="M-17.449848287977176,-20.460705366889087L-24.98683228467396,-22.306195321421306L-22.24909042898826,-17.114944343918037z" style="fill:rgb(188,65,220)"/><path d="M-138.93435468039831,39.765925752451395L-142.23385515489753,34.8690776418915L-141.31955384566334,38.63221709630514z" style="fill:rgb(242,181,132)"/><path d="M4.093383779088782,-29.360199941295225L-4.107803127290199,-33.13244535906765L-1.472156175602447,-27.88878504294426z" style="fill:rgb(127,37,217)"/><path d="M-4.107803127290199,-33.13244535906765L84.3609550663058,-61.397969382587924L-58.50668030384369,-30.71789931830832zM78.4784163093324,-60.15428951060491L72.713093806302,-59.58470552955398L-48.077212992059806,-47.292448853663956z" style="fill:rgb(83,212,212)"/><path d="M-12.331391030600724,-23.40193869606817L-15.017342675966235,-28.61788902913516L-20.161695025690015,-25.663833349438395z" style="fill:rgb(174,56,222)"/><path d="M-6.976699152694147,-25.891501828153327L-9.63712741904558,-31.121027191347395L-15.017342675966235,-28.61788902913516z" style="fill:rgb(159,48,222)"/><path d="M-22.24909042898826,-17.114944343918037L-29.41373112333462,-18.598331768073876L-26.65048784337344,-13.417860401260558z" style="fill:rgb(201,75,217)"/><path d="M-17.449848287977176,-20.460705366889087L-20.161695025690015,-25.663833349438395L-24.98683228467396,-22.306195321421306z" style="fill:rgb(188,65,220)"/><path d="M-1.472156175602447,-27.88878504294426L-4.107803127290199,-33.13244535906765L-9.63712741904558,-31.121027191347395z" style="fill:rgb(143,42,220)"/><path d="M-58.50668030384369,-30.71789931830832L-41.763270737311785,-1.5120881964870139L-39.59962081377792,-5.986112158075394z" style="fill:rgb(83,212,212)"/><path d="M9.629568037041068,-30.279635049922092L1.4814195549502278,-34.618337583852245L4.093383779088782,-29.360199941295225z" style="fill:rgb(111,34,212)"/><path d="M-22.24909042898826,-17.114944343918037L-24.98683228467396,-22.306195321421306L-29.41373112333462,-18.598331768073876z" style="fill:rgb(201,75,217)"/><path d="M4.093383779088782,-29.360199941295225L1.4814195549502278,-34.618337583852245L-4.107803127290199,-33.13244535906765z" style="fill:rgb(127,37,217)"/><path d="M-26.65048784337344,-13.417860401260558L-33.368643833595094,-14.599113642356984L-30.580676800970398,-9.428174553675325zM-26.65048784337344,-13.417860401260558L-29.41373112333462,-18.598331768073876L-33.368643833595094,-14.599113642356984z" style="fill:rgb(213,86,212)"/><path d="M15.045562860083578,-30.628888059867865L7.039841970626861,-35.552354044708345L9.629568037041068,-30.279635049922092z" style="fill:rgb(95,32,206)"/><path d="M-58.50668030384369,-30.71789931830832L-43.23211996337467,2.975313658036672L-41.763270737311785,-1.5120881964870139z" style="fill:rgb(83,212,212)"/><path d="M9.629568037041068,-30.279635049922092L7.039841970626861,-35.552354044708345L1.4814195549502278,-34.618337583852245z" style="fill:rgb(111,34,212)"/><path d="M-30.580676800970398,-9.428174553675325L-36.784044802921905,-10.372343138099376L-33.97252877876751,-5.209561495393441z" style="fill:rgb(223,98,205)"/><path d="M84.3609550663058,-61.397969382587924L78.4784163093324,-60.15428951060491L-58.50668030384369,-30.71789931830832z" style="fill:rgb(83,212,212)"/><path d="M-30.580676800970398,-9.428174553675325L-33.368643833595094,-14.599113642356984L-36.784044802921905,-10.372343138099376z" style="fill:rgb(223,98,205)"/><path d="M15.045562860083578,-30.628888059867865L12.476297858640839,-35.916048153841786L7.039841970626861,-35.552354044708345z" style="fill:rgb(95,32,206)"/><path d="M20.25113576070282,-30.398104893511324L12.476297858640839,-35.916048153841786L15.045562860083578,-30.628888059867865z" style="fill:rgb(80,32,198)"/><path d="M-58.50668030384369,-30.71789931830832L-43.97354863087648,7.399869698456412L-43.23211996337467,2.975313658036672z" style="fill:rgb(83,212,212)"/><path d="M-33.97252877876751,-5.209561495393441L-39.59962081377792,-5.986112158075394L-36.76612479450849,-0.8300081133127586zM-33.97252877876751,-5.209561495393441L-36.784044802921905,-10.372343138099376L-39.59962081377792,-5.986112158075394z" style="fill:rgb(232,111,197)"/><path d="M20.25113576070282,-30.398104893511324L17.700235785978332,-35.699306009932755L12.476297858640839,-35.916048153841786z" style="fill:rgb(80,32,198)"/><path d="M-4.107803127290199,-33.13244535906765L1.4814195549502278,-34.618337583852245L84.3609550663058,-61.397969382587924zM-58.50668030384369,-30.71789931830832L-43.96616822519372,11.684612370655227L-43.97354863087648,7.399869698456412z" style="fill:rgb(83,212,212)"/><path d="M25.157819942405673,-29.58616619496264L17.700235785978332,-35.699306009932755L20.25113576070282,-30.398104893511324z" style="fill:rgb(66,34,189)"/><path d="M-58.50668030384369,-30.71789931830832L-115.22811199407104,20.08437437128276L-83.81793246574287,56.99005792052641zM1.4814195549502278,-34.618337583852245L7.039841970626861,-35.552354044708345L84.3609550663058,-61.397969382587924z" style="fill:rgb(83,212,212)"/><path d="M-36.76612479450849,-0.8300081133127586L-41.763270737311785,-1.5120881964870139L-38.90975019100039,3.638911584742912zM-36.76612479450849,-0.8300081133127586L-39.59962081377792,-5.986112158075394L-41.763270737311785,-1.5120881964870139z" style="fill:rgb(239,123,188)"/><path d="M-141.31955384566334,38.63221709630514L-142.23385515489753,34.8690776418915L-164.11689212747092,76.58515437963263zM-58.50668030384369,-30.71789931830832L-43.20072776364811,15.75303447962469L-43.96616822519372,11.684612370655227z" style="fill:rgb(83,212,212)"/><path d="M25.157819942405673,-29.58616619496264L22.62288605597792,-34.90075265517213L17.700235785978332,-35.699306009932755z" style="fill:rgb(66,34,189)"/><path d="M29.680161866129392,-28.201045474654105L22.62288605597792,-34.90075265517213L25.157819942405673,-29.58616619496264z" style="fill:rgb(53,37,179)"/><path d="M-138.54028745470154,41.26295037824118L-141.31955384566334,38.63221709630514L-164.11689212747092,76.58515437963263z" style="fill:rgb(83,212,212)"/><path d="M-38.90975019100039,3.638911584742912L-43.23211996337467,2.975313658036672L-40.360912730175585,8.122856827876232zM-38.90975019100039,3.638911584742912L-41.763270737311785,-1.5120881964870139L-43.23211996337467,2.975313658036672z" style="fill:rgb(244,136,178)"/><path d="M29.680161866129392,-28.201045474654105L27.158518441308992,-33.528090110962125L22.62288605597792,-34.90075265517213z" style="fill:rgb(53,37,179)"/><path d="M33.737073704789815,-26.26008208511072L27.158518441308992,-33.528090110962125L29.680161866129392,-28.201045474654105z" style="fill:rgb(41,42,168)"/><path d="M-134.25576280541728,42.387182286329825L-138.54028745470154,41.26295037824118L-164.11689212747092,76.58515437963263zM-115.22811199407104,20.08437437128276L-113.24552563198682,23.258750679240748L-89.58079864088799,58.05952692657392z" style="fill:rgb(83,212,212)"/><path d="M-40.360912730175585,8.122856827876232L-43.97354863087648,7.399869698456412L-41.08735107220469,12.545661330656609z" style="fill:rgb(246,149,167)"/><path d="M-129.0451469969052,41.834972996097L-134.25576280541728,42.387182286329825L-164.11689212747092,76.58515437963263z" style="fill:rgb(83,212,212)"/><path d="M-40.360912730175585,8.122856827876232L-43.23211996337467,2.975313658036672L-43.97354863087648,7.399869698456412z" style="fill:rgb(246,149,167)"/><path d="M-118.76204480420027,36.20056049887246L-123.62875460382557,39.6731537397657L-164.11689212747092,76.58515437963263zM-123.62875460382557,39.6731537397657L-129.0451469969052,41.834972996097L-164.11689212747092,76.58515437963263z" style="fill:rgb(83,212,212)"/><path d="M33.737073704789815,-26.26008208511072L31.22578188513265,-31.598401480873715L27.158518441308992,-33.528090110962125z" style="fill:rgb(41,42,168)"/><path d="M-113.24552563198682,23.258750679240748L-113.20003287823255,27.38307441193831L-89.58079864088799,58.05952692657392zM-58.50668030384369,-30.71789931830832L-83.81793246574287,56.99005792052641L-43.20072776364811,15.75303447962469z" style="fill:rgb(83,212,212)"/><path d="M37.25325222694942,-23.790168887215724L31.22578188513265,-31.598401480873715L33.737073704789815,-26.26008208511072z" style="fill:rgb(31,49,156)"/><path d="M-41.08735107220469,12.545661330656609L-43.96616822519372,11.684612370655227L-41.06800003411579,16.830398950457433zM-41.08735107220469,12.545661330656609L-43.97354863087648,7.399869698456412L-43.96616822519372,11.684612370655227z" style="fill:rgb(247,161,155)"/><path d="M-113.20003287823255,27.38307441193831L-115.12080503540484,31.904026555740963L-89.58079864088799,58.05952692657392z" style="fill:rgb(83,212,212)"/><path d="M37.25325222694942,-23.790168887215724L34.749148286760004,-29.138332760265875L31.22578188513265,-31.598401480873715z" style="fill:rgb(31,49,156)"/><path d="M7.039841970626861,-35.552354044708345L12.476297858640839,-35.916048153841786L123.42239520457301,-44.84838045308191zM-115.12080503540484,31.904026555740963L-118.76204480420027,36.20056049887246L-89.58079864088799,58.05952692657392z" style="fill:rgb(83,212,212)"/><path d="M40.1606845118494,-20.827796570785576L34.749148286760004,-29.138332760265875L37.25325222694942,-23.790168887215724z" style="fill:rgb(22,57,143)"/><path d="M-41.06800003411579,16.830398950457433L-43.20072776364811,15.75303447962469L-40.29390976048386,20.90058303844921zM-41.06800003411579,16.830398950457433L-43.96616822519372,11.684612370655227L-43.20072776364811,15.75303447962469z" style="fill:rgb(245,172,142)"/><path d="M40.1606845118494,-20.827796570785576L37.66041326624219,-26.184146843340585L34.749148286760004,-29.138332760265875z" style="fill:rgb(22,57,143)"/><path d="M7.039841970626861,-35.552354044708345L134.84984631380826,-49.39157970239148L84.3609550663058,-61.397969382587924zM12.476297858640839,-35.916048153841786L17.700235785978332,-35.699306009932755L117.03172684977297,-31.979286843607028z" style="fill:rgb(83,212,212)"/><path d="M42.400177137155445,-17.418942048064054L37.66041326624219,-26.184146843340585L40.1606845118494,-20.827796570785576z" style="fill:rgb(15,66,131)"/><path d="M17.700235785978332,-35.699306009932755L22.62288605597792,-34.90075265517213L117.03172684977297,-31.979286843607028zM-118.76204480420027,36.20056049887246L-164.11689212747092,76.58515437963263L-89.58079864088799,58.05952692657392z" style="fill:rgb(83,212,212)"/><path d="M-40.29390976048386,20.90058303844921L-41.68092472633245,19.530408134630665L-38.769021166612774,24.68148995205002zM-40.29390976048386,20.90058303844921L-43.20072776364811,15.75303447962469L-41.68092472633245,19.530408134630665z" style="fill:rgb(241,183,130)"/><path d="M42.400177137155445,-17.418942048064054L39.90023280440897,-22.781619779633026L37.66041326624219,-26.184146843340585z" style="fill:rgb(15,66,131)"/><path d="M22.62288605597792,-34.90075265517213L27.158518441308992,-33.528090110962125L117.03172684977297,-31.979286843607028z" style="fill:rgb(83,212,212)"/><path d="M-86.3855883781056,63.08226322955766L-164.11689212747092,76.58515437963263L-160.60802675652982,81.42090726242608z" style="fill:rgb(127,37,217)"/><path d="M-115.22811199407104,20.08437437128276L-89.58079864088799,58.05952692657392L-83.81793246574287,56.99005792052641zM27.158518441308992,-33.528090110962125L31.22578188513265,-31.598401480873715L117.03172684977297,-31.979286843607028zM31.22578188513265,-31.598401480873715L34.749148286760004,-29.138332760265875L117.03172684977297,-31.979286843607028zM134.84984631380826,-49.39157970239148L162.8777654956167,-82.36182921637983L84.3609550663058,-61.397969382587924zM7.039841970626861,-35.552354044708345L123.42239520457301,-44.84838045308191L128.83141224406444,-47.82135066270211zM-83.81793246574287,56.99005792052641L-41.68092472633245,19.530408134630665L-43.20072776364811,15.75303447962469zM7.039841970626861,-35.552354044708345L128.83141224406444,-47.82135066270211L134.84984631380826,-49.39157970239148zM12.476297858640839,-35.916048153841786L119.3288889748107,-40.85986607502961L123.42239520457301,-44.84838045308191zM34.749148286760004,-29.138332760265875L37.66041326624219,-26.184146843340585L117.03172684977297,-31.979286843607028z" style="fill:rgb(83,212,212)"/><path d="M-86.3855883781056,63.08226322955766L-89.58079864088799,58.05952692657392L-164.11689212747092,76.58515437963263z" style="fill:rgb(127,37,217)"/><path d="M-83.81793246574287,56.99005792052641L-39.42402576764714,22.945231605055003L-41.68092472633245,19.530408134630665zM12.476297858640839,-35.916048153841786L117.09448486986781,-36.373737690089946L119.3288889748107,-40.85986607502961zM37.66041326624219,-26.184146843340585L39.90023280440897,-22.781619779633026L117.03172684977297,-31.979286843607028zM12.476297858640839,-35.916048153841786L117.03172684977297,-31.979286843607028L117.09448486986781,-36.373737690089946zM-83.81793246574287,56.99005792052641L-36.46126414469031,25.93074788311062L-39.42402576764714,22.945231605055003z" style="fill:rgb(83,212,212)"/><path d="M-80.6464765031616,62.0272655398718L-89.58079864088799,58.05952692657392L-86.3855883781056,63.08226322955766z" style="fill:rgb(118,35,214)"/><path d="M39.90023280440897,-22.781619779633026L41.4196665475872,-18.985726744191627L117.03172684977297,-31.979286843607028zM-83.81793246574287,56.99005792052641L-32.83796406040946,28.426530698469893L-36.46126414469031,25.93074788311062z" style="fill:rgb(83,212,212)"/><path d="M-75.07925878697678,61.73531172341729L-83.81793246574287,56.99005792052641L-80.6464765031616,62.0272655398718z" style="fill:rgb(99,32,207)"/><path d="M-80.6464765031616,62.0272655398718L-83.81793246574287,56.99005792052641L-89.58079864088799,58.05952692657392z" style="fill:rgb(118,35,214)"/><path d="M41.4196665475872,-18.985726744191627L42.181659904119975,-14.860101102901162L117.03172684977297,-31.979286843607028zM-83.81793246574287,56.99005792052641L-28.613308181000647,30.38004739829956L-32.83796406040946,28.426530698469893z" style="fill:rgb(83,212,212)"/><path d="M-75.07925878697678,61.73531172341729L-78.22974217904088,56.68432603327706L-83.81793246574287,56.99005792052641z" style="fill:rgb(99,32,207)"/><path d="M-69.81282701866236,62.21861097292806L-78.22974217904088,56.68432603327706L-75.07925878697678,61.73531172341729z" style="fill:rgb(81,32,199)"/><path d="M134.84984631380826,-49.39157970239148L140.6920394748382,-49.34761518812149L162.8777654956167,-82.36182921637983z" style="fill:rgb(83,212,212)"/><path d="M130.92399425164393,-42.22353902779682L123.42239520457301,-44.84838045308191L125.54315904466834,-39.26485499595477z" style="fill:rgb(170,54,222)"/><path d="M42.181659904119975,-14.860101102901162L42.1623940785089,-10.476230854372334L117.03172684977297,-31.979286843607028z" style="fill:rgb(83,212,212)"/><path d="M130.92399425164393,-42.22353902779682L136.91445811825795,-43.777657750586044L134.84984631380826,-49.39157970239148z" style="fill:rgb(127,37,217)"/><path d="M125.54315904466834,-39.26485499595477L119.3288889748107,-40.85986607502961L121.47447485616868,-35.28701093171338z" style="fill:rgb(208,81,214)"/><path d="M-83.81793246574287,56.99005792052641L-23.85973201006695,31.74817511555157L-28.613308181000647,30.38004739829956z" style="fill:rgb(83,212,212)"/><path d="M-69.81282701866236,62.21861097292806L-72.94558334796969,57.15488731375247L-78.22974217904088,56.68432603327706z" style="fill:rgb(81,32,199)"/><path d="M130.92399425164393,-42.22353902779682L128.83141224406444,-47.82135066270211L123.42239520457301,-44.84838045308191z" style="fill:rgb(170,54,222)"/><path d="M134.84984631380826,-49.39157970239148L128.83141224406444,-47.82135066270211L130.92399425164393,-42.22353902779682z" style="fill:rgb(127,37,217)"/><path d="M-64.97174727034887,63.47293136617659L-72.94558334796969,57.15488731375247L-69.81282701866236,62.21861097292806z" style="fill:rgb(64,34,188)"/><path d="M140.6920394748382,-49.34761518812149L145.58503097073566,-47.68191686174666L162.8777654956167,-82.36182921637983z" style="fill:rgb(83,212,212)"/><path d="M142.73241680638196,-43.717862973531176L134.84984631380826,-49.39157970239148L136.91445811825795,-43.777657750586044z" style="fill:rgb(84,32,200)"/><path d="M125.54315904466834,-39.26485499595477L123.42239520457301,-44.84838045308191L119.3288889748107,-40.85986607502961z" style="fill:rgb(208,81,214)"/><path d="M-83.81793246574287,56.99005792052641L-18.66190353108802,32.49858010794056L-23.85973201006695,31.74817511555157z" style="fill:rgb(83,212,212)"/><path d="M121.47447485616868,-35.28701093171338L117.09448486986781,-36.373737690089946L119.2583077332609,-30.80663088256828zM121.47447485616868,-35.28701093171338L119.3288889748107,-40.85986607502961L117.09448486986781,-36.373737690089946z" style="fill:rgb(234,114,195)"/><path d="M-83.81793246574287,56.99005792052641L-78.22974217904088,56.68432603327706L-1.3997030621791275,30.904746173883094z" style="fill:rgb(83,212,212)"/><path d="M142.73241680638196,-43.717862973531176L140.6920394748382,-49.34761518812149L134.84984631380826,-49.39157970239148z" style="fill:rgb(84,32,200)"/><path d="M145.58503097073566,-47.68191686174666L148.864476173548,-44.598638962680475L162.8777654956167,-82.36182921637983z" style="fill:rgb(83,212,212)"/><path d="M-64.97174727034887,63.47293136617659L-68.09043461000013,58.39785346050273L-72.94558334796969,57.15488731375247z" style="fill:rgb(64,34,188)"/><path d="M147.60802830156504,-42.03877738401307L140.6920394748382,-49.34761518812149L142.73241680638196,-43.717862973531176z" style="fill:rgb(46,40,173)"/><path d="M-83.81793246574287,56.99005792052641L-13.11526485431332,32.61089451059268L-18.66190353108802,32.49858010794056z" style="fill:rgb(83,212,212)"/><path d="M-60.67373223369595,65.47700429211461L-68.09043461000013,58.39785346050273L-64.97174727034887,63.47293136617659z" style="fill:rgb(49,38,176)"/><path d="M-78.22974217904088,56.68432603327706L-72.94558334796969,57.15488731375247L-1.3997030621791275,30.904746173883094zM-83.81793246574287,56.99005792052641L-7.324182401923943,32.07763107057374L-13.11526485431332,32.61089451059268z" style="fill:rgb(83,212,212)"/><path d="M119.2583077332609,-30.80663088256828L117.03172684977297,-31.979286843607028L119.20470230457668,-26.412284725127176z" style="fill:rgb(246,149,166)"/><path d="M148.864476173548,-44.598638962680475L150.0659233123567,-40.496738637891596L162.8777654956167,-82.36182921637983zM134.90467450613139,-25.52269642519312L42.1623940785089,-10.476230854372334L41.35246799385485,-5.912379425431154z" style="fill:rgb(83,212,212)"/><path d="M119.2583077332609,-30.80663088256828L117.09448486986781,-36.373737690089946L117.03172684977297,-31.979286843607028z" style="fill:rgb(246,149,166)"/><path d="M147.60802830156504,-42.03877738401307L145.58503097073566,-47.68191686174666L140.6920394748382,-49.34761518812149z" style="fill:rgb(46,40,173)"/><path d="M-83.81793246574287,56.99005792052641L-1.3997030621791275,30.904746173883094L-7.324182401923943,32.07763107057374zM119.1746426978529,-28.266187887133825L117.03172684977297,-31.979286843607028L42.1623940785089,-10.476230854372334z" style="fill:rgb(83,212,212)"/><path d="M-60.67373223369595,65.47700429211461L-63.782373930746694,60.392286339870545L-68.09043461000013,58.39785346050273z" style="fill:rgb(49,38,176)"/><path d="M-72.94558334796969,57.15488731375247L-68.09043461000013,58.39785346050273L-1.3997030621791275,30.904746173883094z" style="fill:rgb(83,212,212)"/><path d="M150.87939483615938,-38.946471862917626L145.58503097073566,-47.68191686174666L147.60802830156504,-42.03877738401307z" style="fill:rgb(20,59,140)"/><path d="M-57.02694952496894,68.19219523971306L-63.782373930746694,60.392286339870545L-60.67373223369595,65.47700429211461z" style="fill:rgb(36,45,162)"/><path d="M123.26102896567289,-25.7470816472865L119.1746426978529,-28.266187887133825L42.1623940785089,-10.476230854372334z" style="fill:rgb(83,212,212)"/><path d="M150.87939483615938,-38.946471862917626L148.864476173548,-44.598638962680475L145.58503097073566,-47.68191686174666z" style="fill:rgb(20,59,140)"/><path d="M-57.02694952496894,68.19219523971306L-60.129856168046565,63.09985587073142L-63.782373930746694,60.392286339870545z" style="fill:rgb(36,45,162)"/><path d="M-54.127191706792296,71.5624490758296L-60.129856168046565,63.09985587073142L-57.02694952496894,68.19219523971306z" style="fill:rgb(25,54,148)"/><path d="M128.75362715669007,-24.782763536157056L123.26102896567289,-25.7470816472865L42.1623940785089,-10.476230854372334z" style="fill:rgb(83,212,212)"/><path d="M164.76476328687684,-76.67880741845063L162.8777654956167,-82.36182921637983L178.05297889314764,6.964730979291235z" style="fill:rgb(247,158,158)"/><path d="M134.90467450613139,-25.52269642519312L128.75362715669007,-24.782763536157056L42.1623940785089,-10.476230854372334z" style="fill:rgb(83,212,212)"/><path d="M-54.127191706792296,71.5624490758296L-57.22889825119088,66.46477241502102L-60.129856168046565,63.09985587073142z" style="fill:rgb(25,54,148)"/><path d="M41.35246799385485,-5.912379425431154L39.757783935249115,-1.2522350594556722L132.39167287395892,57.504451730694775zM150.0659233123567,-40.496738637891596L132.39167287395892,57.504451730694775L162.8777654956167,-82.36182921637983z" style="fill:rgb(83,212,212)"/><path d="M134.67455872725048,63.06951630377996L33.33958527486726,9.155434317235725L35.941862471382855,14.499459424830588z" style="fill:rgb(42,41,169)"/><path d="M39.757783935249115,-1.2522350594556722L37.40010831004171,3.4167098711552724L132.39167287395892,57.504451730694775zM37.40010831004171,3.4167098711552724L34.31721405011645,8.005007772281546L132.39167287395892,57.504451730694775zM34.31721405011645,8.005007772281546L33.33958527486726,9.155434317235725L132.39167287395892,57.504451730694775zM134.90467450613139,-25.52269642519312L41.35246799385485,-5.912379425431154L132.39167287395892,57.504451730694775z" style="fill:rgb(83,212,212)"/><path d="M164.76476328687684,-76.67880741845063L178.05297889314764,6.964730979291235L180.03097182508924,12.68077604747805z" style="fill:rgb(247,158,158)"/><path d="M150.0659233123567,-40.496738637891596L148.99847978176197,-35.92534975871789L132.39167287395892,57.504451730694775zM-68.09043461000013,58.39785346050273L-63.782373930746694,60.392286339870545L76.71683269743976,119.1275581316636zM148.99847978176197,-35.92534975871789L145.78562572237524,-31.51242428686802L132.39167287395892,57.504451730694775zM-68.09043461000013,58.39785346050273L76.71683269743976,119.1275581316636L-1.3997030621791275,30.904746173883094zM145.78562572237524,-31.51242428686802L140.85972609605682,-27.874539451344305L132.39167287395892,57.504451730694775zM140.85972609605682,-27.874539451344305L134.90467450613139,-25.52269642519312L132.39167287395892,57.504451730694775zM-63.782373930746694,60.392286339870545L-60.129856168046565,63.09985587073142L76.71683269743976,119.1275581316636zM76.71683269743976,119.1275581316636L26.25692859081971,16.53441278996107L26.20458378507107,16.58439376255303zM76.71683269743976,119.1275581316636L26.20458378507107,16.58439376255303L21.325208230293615,20.405587451216046zM76.71683269743976,119.1275581316636L4.542987582246375,29.111828774473334L-1.3997030621791275,30.904746173883094zM76.71683269743976,119.1275581316636L21.325208230293615,20.405587451216046L16.01829100148223,23.8106509866282zM76.71683269743976,119.1275581316636L10.387333979571974,26.73187935115612L4.542987582246375,29.111828774473334zM76.71683269743976,119.1275581316636L16.01829100148223,23.8106509866282L10.387333979571974,26.73187935115612zM132.39167287395892,57.504451730694775L178.05297889314764,6.964730979291235L162.8777654956167,-82.36182921637983zM-60.129856168046565,63.09985587073142L-57.22889825119088,66.46477241502102L76.71683269743976,119.1275581316636zM-57.22889825119088,66.46477241502102L-55.16021680301442,70.41410133309137L76.71683269743976,119.1275581316636zM-55.16021680301442,70.41410133309137L-53.98638848305143,74.85859801540431L76.71683269743976,119.1275581316636zM-53.98638848305143,74.85859801540431L-53.74921655749037,79.69403966577808L76.71683269743976,119.1275581316636z" style="fill:rgb(83,212,212)"/><path d="M134.67455872725048,63.06951630377996L132.39167287395892,57.504451730694775L33.33958527486726,9.155434317235725z" style="fill:rgb(42,41,169)"/><path d="M180.03097182508924,12.68077604747805L178.05297889314764,6.964730979291235L132.39167287395892,57.504451730694775z" style="fill:rgb(212,85,213)"/><path d="M76.71683269743976,119.1275581316636L124.96343858578682,65.7263175268804L26.25692859081971,16.53441278996107zM-53.74921655749037,79.69403966577808L-57.075627123751005,149.05833779940104L76.71683269743976,119.1275581316636z" style="fill:rgb(83,212,212)"/><path d="M132.39167287395892,57.504451730694775L134.67455872725048,63.06951630377996L180.03097182508924,12.68077604747805z" style="fill:rgb(212,85,213)"/><path d="M79.38755163430424,124.4906639787786L-57.075627123751005,149.05833779940104L-53.73827753537918,154.0799872356427z" style="fill:rgb(127,37,217)"/><path d="M127.29704910621753,71.2655655413751L124.96343858578682,65.7263175268804L76.71683269743976,119.1275581316636z" style="fill:rgb(212,85,213)"/><path d="M79.38755163430424,124.4906639787786L76.71683269743976,119.1275581316636L-57.075627123751005,149.05833779940104z" style="fill:rgb(127,37,217)"/><path d="M76.71683269743976,119.1275581316636L79.38755163430424,124.4906639787786L127.29704910621753,71.2655655413751z" style="fill:rgb(212,85,213)"/></svg>
