<?xml version="1.0" encoding="UTF-8"?>
<!-- Generated by jsxcad -->
<!DOCTYPE svg PUBLIC "-//W3C//DTD SVG 1.1 Tiny//EN" "http://www.w3.org/Graphics/SVG/1.1/DTD/svg11-tiny.dtd">
<svg viewBox="-250 -250 500 500" width="500" height="500" xmlns="http://www.w3.org/2000/svg"><path d="M-28.550022635122076,-102.93472310353542L-37.44363019382599,-99.06200241130784L-19.543615177027483,-106.46254024814218zM-1.286808115999503,-112.44144221169L-10.447919380971227,-109.63485611675887L-19.543615177027483,-106.46254024814218zM17.134125778600847,-116.91856503590924L-1.286808115999503,-112.44144221169L-19.543615177027483,-106.46254024814218zM17.134125778600847,-116.91856503590924L7.915446658135561,-114.87248430301962L-1.286808115999503,-112.44144221169zM26.34402153696713,-118.57069958973052L17.134125778600847,-116.91856503590924L35.5193977736125,-119.82036382444909zM-42.09146014987866,-96.82947587979521L-44.2686346428284,-47.98636025780176L-37.44363019382599,-99.06200241130784zM-37.44363019382599,-99.06200241130784L-44.2686346428284,-47.98636025780176L-19.543615177027483,-106.46254024814218zM17.134125778600847,-116.91856503590924L-19.543615177027483,-106.46254024814218L-44.2686346428284,-47.98636025780176zM35.5193977736125,-119.82036382444909L17.134125778600847,-116.91856503590924L42.47880548939925,-71.6014828582893z" style="fill:rgb(83,212,212)"/><path d="M43.826830880998116,-112.10827201332155L40.346647496692796,-120.26480076385484L42.47880548939925,-71.6014828582893z" style="fill:rgb(247,158,158)"/><path d="M40.346647496692796,-120.26480076385484L35.5193977736125,-119.82036382444909L42.47880548939925,-71.6014828582893zM17.134125778600847,-116.91856503590924L-44.2686346428284,-47.98636025780176L43.31841925010117,-67.25866247492037z" style="fill:rgb(83,212,212)"/><path d="M42.47880548939925,-71.6014828582893L46.12578939320511,-63.37666658518917L43.826830880998116,-112.10827201332155z" style="fill:rgb(247,158,158)"/><path d="M43.31841925010117,-67.25866247492037L42.47880548939925,-71.6014828582893L17.134125778600847,-116.91856503590924zM-77.64977187847644,-15.719069017500548L-147.68180252588482,2.9366205292651357L-149.57601116905346,6.998403985320737zM-149.57601116905346,6.998403985320737L-152.6290829369406,14.689716219445762L-155.1559549646408,22.41536047725883zM-155.1559549646408,22.41536047725883L-77.64977187847644,-15.719069017500548L-149.57601116905346,6.998403985320737zM-155.1559549646408,22.41536047725883L-71.35178199858032,-17.85341712616854L-77.64977187847644,-15.719069017500548zM53.13159646259543,-57.68925945793213L-44.2686346428284,-47.98636025780176L-45.08494451358564,-43.29156133620434zM53.13159646259543,-57.68925945793213L-45.08494451358564,-43.29156133620434L-47.110031830595204,-38.40497432773472zM43.31841925010117,-67.25866247492037L-44.2686346428284,-47.98636025780176L45.42370184086049,-63.391505212003835z" style="fill:rgb(83,212,212)"/><path d="M43.31841925010117,-67.25866247492037L46.97660935410395,-59.026767600712695L46.12578939320511,-63.37666658518917zM43.31841925010117,-67.25866247492037L46.12578939320511,-63.37666658518917L42.47880548939925,-71.6014828582893z" style="fill:rgb(246,167,149)"/><path d="M48.73208292296523,-60.156364003754646L45.42370184086049,-63.391505212003835L-44.2686346428284,-47.98636025780176zM53.13159646259543,-57.68925945793213L48.73208292296523,-60.156364003754646L-44.2686346428284,-47.98636025780176zM-157.13780998360204,30.15031556023055L-158.55667158482044,37.868443758166975L-159.39559757952736,45.54249505033618zM-17.3386540328293,-25.044730867939997L-11.148462606955581,-28.28192473901051L-47.110031830595204,-38.40497432773472zM-17.3386540328293,-25.044730867939997L-47.110031830595204,-38.40497432773472L-23.090373307541388,-21.179760962228162zM-28.251049597605874,-16.787070740854563L-23.090373307541388,-21.179760962228162L-47.110031830595204,-38.40497432773472zM-11.148462606955581,-28.28192473901051L53.13159646259543,-57.68925945793213L-47.110031830595204,-38.40497432773472zM-32.68106980855179,-11.980207094784468L-28.251049597605874,-16.787070740854563L-47.110031830595204,-38.40497432773472zM-157.42544170835976,71.82038719865542L-155.1559549646408,22.41536047725883L-157.13780998360204,30.15031556023055z" style="fill:rgb(83,212,212)"/><path d="M-17.3386540328293,-25.044730867939997L-13.18512878730049,-17.03949718573911L-7.04160648067108,-20.252799530605067z" style="fill:rgb(167,52,222)"/><path d="M-36.25683177135676,-6.884286854171655L-32.68106980855179,-11.980207094784468L-47.110031830595204,-38.40497432773472z" style="fill:rgb(83,212,212)"/><path d="M-11.148462606955581,-28.28192473901051L-7.04160648067108,-20.252799530605067L-0.6207987584639281,-22.752025105881316z" style="fill:rgb(147,43,221)"/><path d="M-23.090373307541388,-21.179760962228162L-18.889939220585955,-13.196423950493855L-13.18512878730049,-17.03949718573911z" style="fill:rgb(185,63,221)"/><path d="M-4.682339182396297,-30.806469710310406L-0.6207987584639281,-22.752025105881316L5.908892288821984,-24.469690227236z" style="fill:rgb(127,37,217)"/><path d="M-82.87110155025701,53.23076738164249L-47.110031830595204,-38.40497432773472L-50.27646388499428,-33.52127670067498z" style="fill:rgb(83,212,212)"/><path d="M-28.251049597605874,-16.787070740854563L-24.004597116524465,-8.823141147309233L-18.889939220585955,-13.196423950493855z" style="fill:rgb(202,76,217)"/><path d="M-38.87380952401022,-1.6338188836378291L-36.25683177135676,-6.884286854171655L-47.110031830595204,-38.40497432773472z" style="fill:rgb(83,212,212)"/><path d="M-17.3386540328293,-25.044730867939997L-7.04160648067108,-20.252799530605067L-11.148462606955581,-28.28192473901051z" style="fill:rgb(167,52,222)"/><path d="M-23.090373307541388,-21.179760962228162L-13.18512878730049,-17.03949718573911L-17.3386540328293,-25.044730867939997z" style="fill:rgb(185,63,221)"/><path d="M-157.13780998360204,30.15031556023055L-159.39559757952736,45.54249505033618L-159.27230282828899,60.64396058606802z" style="fill:rgb(83,212,212)"/><path d="M-11.148462606955581,-28.28192473901051L-0.6207987584639281,-22.752025105881316L-4.682339182396297,-30.806469710310406z" style="fill:rgb(147,43,221)"/><path d="M1.8902436389135575,-32.55025292305518L5.908892288821984,-24.469690227236L12.37520274611196,-25.35658501635163z" style="fill:rgb(107,33,211)"/><path d="M-50.27646388499428,-33.52127670067498L-54.466674960778306,-28.839197001100693L-82.87110155025701,53.23076738164249z" style="fill:rgb(83,212,212)"/><path d="M-28.251049597605874,-16.787070740854563L-18.889939220585955,-13.196423950493855L-23.090373307541388,-21.179760962228162z" style="fill:rgb(202,76,217)"/><path d="M-32.68106980855179,-11.980207094784468L-28.39065482914981,-4.0327610438400265L-24.004597116524465,-8.823141147309233z" style="fill:rgb(217,91,210)"/><path d="M5.908892288821984,-24.469690227236L1.8902436389135575,-32.55025292305518L-4.682339182396297,-30.806469710310406z" style="fill:rgb(127,37,217)"/><path d="M-40.44966063249662,3.629832273713202L-38.87380952401022,-1.6338188836378291L-47.110031830595204,-38.40497432773472zM-59.51675130211703,-24.552156494051925L-82.87110155025701,53.23076738164249L-54.466674960778306,-28.839197001100693zM-71.35178199858032,-17.85341712616854L-155.1559549646408,22.41536047725883L-82.87110155025701,53.23076738164249z" style="fill:rgb(83,212,212)"/><path d="M8.395995007781544,-33.463379110190225L12.37520274611196,-25.35658501635163L18.605291485999587,-25.3831366263063z" style="fill:rgb(87,32,202)"/><path d="M-24.004597116524465,-8.823141147309233L-28.251049597605874,-16.787070740854563L-32.68106980855179,-11.980207094784468z" style="fill:rgb(217,91,210)"/><path d="M-65.22310996880141,-20.838699444395786L-82.87110155025701,53.23076738164249L-59.51675130211703,-24.552156494051925zM-71.35178199858032,-17.85341712616854L-82.87110155025701,53.23076738164249L-65.22310996880141,-20.838699444395786zM53.13159646259543,-57.68925945793213L-11.148462606955581,-28.28192473901051L-4.682339182396297,-30.806469710310406z" style="fill:rgb(83,212,212)"/><path d="M1.8902436389135575,-32.55025292305518L12.37520274611196,-25.35658501635163L8.395995007781544,-33.463379110190225z" style="fill:rgb(107,33,211)"/><path d="M-36.25683177135676,-6.884286854171655L-31.925660410960642,1.0499595081854134L-28.39065482914981,-4.0327610438400265z" style="fill:rgb(229,106,201)"/><path d="M53.13159646259543,-57.68925945793213L-4.682339182396297,-30.806469710310406L1.8902436389135575,-32.55025292305518zM-47.110031830595204,-38.40497432773472L-40.92727111703735,8.761405938879527L-40.44966063249662,3.629832273713202zM53.13159646259543,-57.68925945793213L1.8902436389135575,-32.55025292305518L8.395995007781544,-33.463379110190225z" style="fill:rgb(83,212,212)"/><path d="M-36.25683177135676,-6.884286854171655L-28.39065482914981,-4.0327610438400265L-32.68106980855179,-11.980207094784468z" style="fill:rgb(229,106,201)"/><path d="M14.661096440039461,-33.51554641394629L18.605291485999587,-25.3831366263063L24.429257304889852,-24.540650346139326z" style="fill:rgb(69,33,191)"/><path d="M8.395995007781544,-33.463379110190225L18.605291485999587,-25.3831366263063L14.661096440039461,-33.51554641394629z" style="fill:rgb(87,32,202)"/><path d="M-159.39559757952736,45.54249505033618L-159.6388965778692,53.144133502077196L-159.27230282828899,60.64396058606802zM53.13159646259543,-57.68925945793213L8.395995007781544,-33.463379110190225L14.661096440039461,-33.51554641394629z" style="fill:rgb(83,212,212)"/><path d="M-38.87380952401022,-1.6338188836378291L-34.506236438891456,6.29080622876158L-31.925660410960642,1.0499595081854134z" style="fill:rgb(238,122,189)"/><path d="M-159.27230282828899,60.64396058606802L-157.42544170835976,71.82038719865542L-157.13780998360204,30.15031556023055z" style="fill:rgb(83,212,212)"/><path d="M-38.87380952401022,-1.6338188836378291L-31.925660410960642,1.0499595081854134L-36.25683177135676,-6.884286854171655z" style="fill:rgb(238,122,189)"/><path d="M14.661096440039461,-33.51554641394629L20.514739612425302,-32.697304519284835L53.13159646259543,-57.68925945793213z" style="fill:rgb(83,212,212)"/><path d="M24.429257304889852,-24.540650346139326L20.514739612425302,-32.697304519284835L14.661096440039461,-33.51554641394629z" style="fill:rgb(69,33,191)"/><path d="M20.514739612425302,-32.697304519284835L24.429257304889852,-24.540650346139326L29.68396557221895,-22.842354119802195z" style="fill:rgb(52,37,178)"/><path d="M-40.44966063249662,3.629832273713202L-36.05113445755729,11.548644127482412L-34.506236438891456,6.29080622876158z" style="fill:rgb(244,138,176)"/><path d="M20.514739612425302,-32.697304519284835L25.79294794569147,-31.021121429295977L53.13159646259543,-57.68925945793213z" style="fill:rgb(83,212,212)"/><path d="M-40.44966063249662,3.629832273713202L-34.506236438891456,6.29080622876158L-38.87380952401022,-1.6338188836378291z" style="fill:rgb(244,138,176)"/><path d="M29.68396557221895,-22.842354119802195L25.79294794569147,-31.021121429295977L20.514739612425302,-32.697304519284835z" style="fill:rgb(52,37,178)"/><path d="M25.79294794569147,-31.021121429295977L29.68396557221895,-22.842354119802195L34.2171504390435,-20.324179324408504z" style="fill:rgb(37,44,163)"/><path d="M-47.110031830595204,-38.40497432773472L-76.22933218886052,52.09603434206388L-40.92727111703735,8.761405938879527zM53.13159646259543,-57.68925945793213L25.79294794569147,-31.021121429295977L30.34272856973238,-28.522191326959906z" style="fill:rgb(83,212,212)"/><path d="M-40.92727111703735,8.761405938879527L-36.504258949538425,16.678376326622555L-36.05113445755729,11.548644127482412z" style="fill:rgb(247,154,162)"/><path d="M-82.87110155025701,53.23076738164249L-155.1559549646408,22.41536047725883L-157.42544170835976,71.82038719865542z" style="fill:rgb(83,212,212)"/><path d="M-40.92727111703735,8.761405938879527L-36.05113445755729,11.548644127482412L-40.44966063249662,3.629832273713202z" style="fill:rgb(247,154,162)"/><path d="M25.79294794569147,-31.021121429295977L34.2171504390435,-20.324179324408504L30.34272856973238,-28.522191326959906z" style="fill:rgb(37,44,163)"/><path d="M30.34272856973238,-28.522191326959906L34.2171504390435,-20.324179324408504L37.89181969857918,-17.04511943309749z" style="fill:rgb(25,53,148)"/><path d="M-159.27230282828899,60.64396058606802L-158.2831745033681,68.01159265068263L-157.42544170835976,71.82038719865542z" style="fill:rgb(83,212,212)"/><path d="M-40.277606186694904,13.615163230426148L-35.8374664704299,21.53435663705794L-36.504258949538425,16.678376326622555zM-40.277606186694904,13.615163230426148L-36.504258949538425,16.678376326622555L-40.92727111703735,8.761405938879527z" style="fill:rgb(246,169,146)"/><path d="M-47.110031830595204,-38.40497432773472L-82.87110155025701,53.23076738164249L-76.22933218886052,52.09603434206388z" style="fill:rgb(83,212,212)"/><path d="M30.34272856973238,-28.522191326959906L37.89181969857918,-17.04511943309749L34.02646704229893,-25.258824241635264z" style="fill:rgb(25,53,148)"/><path d="M34.02646704229893,-25.258824241635264L37.89181969857918,-17.04511943309749L40.590794131494825,-13.087029967660376z" style="fill:rgb(16,65,132)"/><path d="M-38.50217804491338,18.048766328564202L-34.05299975326532,25.97426479246528L-35.8374664704299,21.53435663705794z" style="fill:rgb(242,183,130)"/><path d="M-157.42544170835976,71.82038719865542L-152.09347637921692,79.27619259612024L-78.02186251556604,60.97402574825523z" style="fill:rgb(127,37,217)"/><path d="M-38.50217804491338,18.048766328564202L-35.8374664704299,21.53435663705794L-40.277606186694904,13.615163230426148z" style="fill:rgb(242,183,130)"/><path d="M34.02646704229893,-25.258824241635264L40.590794131494825,-13.087029967660376L36.726531199211536,-21.31227932451696z" style="fill:rgb(16,65,132)"/><path d="M-76.22933218886052,52.09603434206388L-40.277606186694904,13.615163230426148L-40.92727111703735,8.761405938879527zM156.30235501832956,-78.0411099117146L77.85221691210906,-57.14293167092305L162.03385055953876,-68.28944148081116z" style="fill:rgb(83,212,212)"/><path d="M-78.02186251556604,60.97402574825523L-82.87110155025701,53.23076738164249L-157.42544170835976,71.82038719865542z" style="fill:rgb(127,37,217)"/><path d="M-76.22933218886052,52.09603434206388L-38.50217804491338,18.048766328564202L-40.277606186694904,13.615163230426148zM-76.22933218886052,52.09603434206388L-35.63491617249701,21.92756799227771L-38.50217804491338,18.048766328564202z" style="fill:rgb(83,212,212)"/><path d="M-82.87110155025701,53.23076738164249L-78.02186251556604,60.97402574825523L-71.42179590304654,59.86488405234435z" style="fill:rgb(115,34,214)"/><path d="M105.9329795716223,16.96415371011401L64.52310484549766,-55.460499693236834L58.462774830461406,-56.098928503714134zM158.494628429039,-74.78670590085012L156.30235501832956,-78.0411099117146L162.03385055953876,-68.28944148081116z" style="fill:rgb(83,212,212)"/><path d="M-76.22933218886052,52.09603434206388L-71.42179590304654,59.86488405234435L-65.11135783869523,59.85684346790389z" style="fill:rgb(92,32,204)"/><path d="M-76.22933218886052,52.09603434206388L-31.743179366677087,25.129195146344863L-35.63491617249701,21.92756799227771z" style="fill:rgb(83,212,212)"/><path d="M-82.87110155025701,53.23076738164249L-71.42179590304654,59.86488405234435L-76.22933218886052,52.09603434206388z" style="fill:rgb(115,34,214)"/><path d="M-76.22933218886052,52.09603434206388L-26.927627326434635,27.54823197892447L-31.743179366677087,25.129195146344863z" style="fill:rgb(83,212,212)"/><path d="M-69.88355226681473,52.06409136313011L-65.11135783869523,59.85684346790389L-59.321295569243,60.96016763012636z" style="fill:rgb(71,33,192)"/><path d="M-76.22933218886052,52.09603434206388L-65.11135783869523,59.85684346790389L-69.88355226681473,52.06409136313011z" style="fill:rgb(92,32,204)"/><path d="M112.17779988721503,24.279231258339497L71.07430711053058,-55.810377080243356L64.52310484549766,-55.460499693236834zM-76.22933218886052,52.09603434206388L-21.32075428626658,29.100768848167498L-26.927627326434635,27.54823197892447zM114.00546943149548,23.086550362199944L77.85221691210906,-57.14293167092305L71.07430711053058,-55.810377080243356z" style="fill:rgb(83,212,212)"/><path d="M-59.321295569243,60.96016763012636L-64.06575063253425,53.14616068716286L-69.88355226681473,52.06409136313011z" style="fill:rgb(71,33,192)"/><path d="M-64.06575063253425,53.14616068716286L-59.321295569243,60.96016763012636L-54.269320134776294,63.14713562005389z" style="fill:rgb(51,38,177)"/><path d="M-76.22933218886052,52.09603434206388L-15.083927097387031,29.72850449098655L-21.32075428626658,29.100768848167498zM-76.22933218886052,52.09603434206388L-69.88355226681473,52.06409136313011L5.464726802189778,25.92622464469112zM-76.22933218886052,52.09603434206388L-8.402851539859153,29.40207677273331L-15.083927097387031,29.72850449098655z" style="fill:rgb(83,212,212)"/><path d="M-64.06575063253425,53.14616068716286L-54.269320134776294,63.14713562005389L-58.994705915113364,55.31545102586334z" style="fill:rgb(51,38,177)"/><path d="M-58.994705915113364,55.31545102586334L-54.269320134776294,63.14713562005389L-50.15257863597398,66.35107639111101z" style="fill:rgb(34,46,160)"/><path d="M-64.06575063253425,53.14616068716286L5.464726802189778,25.92622464469112L-69.88355226681473,52.06409136313011zM-76.22933218886052,52.09603434206388L-1.4815800667158963,28.123326382015275L-8.402851539859153,29.40207677273331z" style="fill:rgb(83,212,212)"/><path d="M29.26967258826701,9.682728257245424L29.2697109744388,9.682812442576616L33.11748104055953,18.05135505725056z" style="fill:rgb(246,145,168)"/><path d="M-76.22933218886052,52.09603434206388L5.464726802189778,25.92622464469112L-1.4815800667158963,28.123326382015275zM130.25606707827765,59.50451551060816L58.462774830461406,-56.098928503714134L53.13159646259543,-57.68925945793213z" style="fill:rgb(83,212,212)"/><path d="M167.26878948824694,-54.207952534170566L170.21628074127096,-45.450411755955336L167.91040762160486,-52.67631527698974zM167.26878948824694,-54.207952534170566L167.91040762160486,-52.67631527698974L164.96755715699655,-61.42306287257998z" style="fill:rgb(246,166,149)"/><path d="M164.96755715699655,-61.42306287257998L162.03385055953876,-68.28944148081116L167.26878948824694,-54.207952534170566zM5.464726802189778,25.92622464469112L-64.06575063253425,53.14616068716286L-58.994705915113364,55.31545102586334z" style="fill:rgb(83,212,212)"/><path d="M-58.994705915113364,55.31545102586334L-50.15257863597398,66.35107639111101L-54.86839830027104,58.50612013394788z" style="fill:rgb(34,46,160)"/><path d="M94.81526194755865,28.880904258701545L36.726531199211536,-21.31227932451696L38.34984217552338,-16.785889523911962z" style="fill:rgb(83,212,212)"/><path d="M-54.86839830027104,58.50612013394788L-50.15257863597398,66.35107639111101L-47.139776821719266,70.46636079950288z" style="fill:rgb(21,57,142)"/><path d="M130.25606707827765,59.50451551060816L53.13159646259543,-57.68925945793213L30.34272856973238,-28.522191326959906zM168.91245942029457,-46.66720305681765L167.26878948824694,-54.207952534170566L162.03385055953876,-68.28944148081116zM162.03385055953876,-68.28944148081116L77.85221691210906,-57.14293167092305L121.79683351886413,26.716531671379702z" style="fill:rgb(83,212,212)"/><path d="M-54.86839830027104,58.50612013394788L-47.139776821719266,70.46636079950288L-51.856133930984186,62.61325967856274z" style="fill:rgb(21,57,142)"/><path d="M168.91245942029457,-46.66720305681765L171.86956450490698,-37.90249893898323L170.21628074127096,-45.450411755955336zM168.91245942029457,-46.66720305681765L170.21628074127096,-45.450411755955336L167.26878948824694,-54.207952534170566z" style="fill:rgb(247,161,155)"/><path d="M130.25606707827765,59.50451551060816L30.34272856973238,-28.522191326959906L34.02646704229893,-25.258824241635264zM91.89320570963362,32.01297412729195L38.14234291585629,-6.505890112194387L36.28444018641935,-1.0488151976888003zM130.25606707827765,59.50451551060816L34.02646704229893,-25.258824241635264L36.726531199211536,-21.31227932451696zM105.9329795716223,16.96415371011401L58.462774830461406,-56.098928503714134L104.67475127164525,18.312810529581565z" style="fill:rgb(83,212,212)"/><path d="M169.87572562821074,-38.82667259421756L172.847624001182,-30.058583424594804L171.86956450490698,-37.90249893898323zM169.87572562821074,-38.82667259421756L171.86956450490698,-37.90249893898323L168.91245942029457,-46.66720305681765z" style="fill:rgb(247,155,161)"/><path d="M29.26967258826701,9.682728257245424L29.092056027797714,9.859603867251781L86.34769038333297,37.95705365162458zM114.00546943149548,23.086550362199944L71.07430711053058,-55.810377080243356L107.5396991857014,15.241960295082777zM162.03385055953876,-68.28944148081116L166.56771163835205,-5.0811586383183975L168.91245942029457,-46.66720305681765zM130.25606707827765,59.50451551060816L38.34984217552338,-16.785889523911962L38.83224828000073,-11.803324574645742zM111.43922590332062,24.76119793613017L112.17779988721503,24.279231258339497L64.52310484549766,-55.460499693236834zM112.1425266618798,26.87300601586376L111.43922590332062,24.76119793613017L64.52310484549766,-55.460499693236834z" style="fill:rgb(83,212,212)"/><path d="M170.1383904894131,-30.715009766683927L173.13044807677886,-21.947435153960875L172.847624001182,-30.058583424594804zM170.1383904894131,-30.715009766683927L172.847624001182,-30.058583424594804L169.87572562821074,-38.82667259421756z" style="fill:rgb(246,149,166)"/><path d="M130.25606707827765,59.50451551060816L38.83224828000073,-11.803324574645742L38.14234291585629,-6.505890112194387zM77.85221691210906,-57.14293167092305L114.00546943149548,23.086550362199944L116.07261503259636,24.04962815541315zM77.85221691210906,-57.14293167092305L116.07261503259636,24.04962815541315L116.3027526724794,24.156852471726918z" style="fill:rgb(83,212,212)"/><path d="M64.52310484549766,-55.460499693236834L105.9329795716223,16.96415371011401L122.2073912399143,45.42761547757642z" style="fill:rgb(23,160,192)"/><path d="M29.092056027797714,9.859603867251781L33.11748104055953,18.05135505725056L133.78301275749263,68.03964282123599z" style="fill:rgb(42,41,169)"/><path d="M94.81526194755865,28.880904258701545L38.34984217552338,-16.785889523911962L94.18193297531441,29.559752435623647zM119.94093840469466,30.538021789725615L77.85221691210906,-57.14293167092305L116.3027526724794,24.156852471726918zM119.21560596317114,28.40373135881275L121.79683351886413,26.716531671379702L77.85221691210906,-57.14293167092305zM119.94093840469466,30.538021789725615L119.21560596317114,28.40373135881275L77.85221691210906,-57.14293167092305zM130.25606707827765,59.50451551060816L36.28444018641935,-1.0488151976888003L33.300353579136726,4.4034426332286865z" style="fill:rgb(83,212,212)"/><path d="M169.68323785091073,-22.363652333893604L172.7009623081395,-13.600582579772954L173.13044807677886,-21.947435153960875z" style="fill:rgb(245,143,172)"/><path d="M168.91245942029457,-46.66720305681765L166.56771163835205,-5.0811586383183975L169.87572562821074,-38.82667259421756z" style="fill:rgb(83,212,212)"/><path d="M169.68323785091073,-22.363652333893604L173.13044807677886,-21.947435153960875L170.1383904894131,-30.715009766683927z" style="fill:rgb(245,143,172)"/><path d="M169.87572562821074,-38.82667259421756L169.68323785091073,-22.363652333893604L170.1383904894131,-30.715009766683927zM130.25606707827765,59.50451551060816L33.300353579136726,4.4034426332286865L29.26967258826701,9.682728257245424zM91.89320570963362,32.01297412729195L36.28444018641935,-1.0488151976888003L90.27845371198408,33.74378360203941zM64.52310484549766,-55.460499693236834L130.25606707827765,59.50451551060816L112.1425266618798,26.87300601586376z" style="fill:rgb(83,212,212)"/><path d="M168.49638060456425,-13.806764813030112L171.54546969528002,-5.0522469090497975L172.7009623081395,-13.600582579772954zM168.49638060456425,-13.806764813030112L172.7009623081395,-13.600582579772954L169.68323785091073,-22.363652333893604z" style="fill:rgb(244,137,177)"/><path d="M169.87572562821074,-38.82667259421756L166.56771163835205,-5.0811586383183975L169.68323785091073,-22.363652333893604zM162.03385055953876,-68.28944148081116L121.79683351886413,26.716531671379702L123.89223131165747,27.692774344596334zM25.72613573227334,13.211452544646528L24.3083307266121,14.623331084439284L67.13425822855228,109.92669408281293zM67.13425822855228,109.92669408281293L5.464726802189778,25.92622464469112L-58.994705915113364,55.31545102586334zM162.03385055953876,-68.28944148081116L123.89223131165747,27.692774344596334L124.12551623149677,27.801465292073846zM67.13425822855228,109.92669408281293L-58.994705915113364,55.31545102586334L-54.86839830027104,58.50612013394788zM24.3083307266121,14.623331084439284L18.565362972997814,19.0684047657891L67.13425822855228,109.92669408281293z" style="fill:rgb(83,212,212)"/><path d="M130.25606707827765,59.50451551060816L36.726531199211536,-21.31227932451696L94.81526194755865,28.880904258701545z" style="fill:rgb(133,236,193)"/><path d="M18.565362972997814,19.0684047657891L12.217917156552675,22.876277377868366L67.13425822855228,109.92669408281293zM12.217917156552675,22.876277377868366L5.464726802189778,25.92622464469112L67.13425822855228,109.92669408281293zM67.13425822855228,109.92669408281293L-54.86839830027104,58.50612013394788L-51.856133930984186,62.61325967856274z" style="fill:rgb(83,212,212)"/><path d="M166.56771163835205,-5.0811586383183975L169.65387826734928,3.660739073530387L171.54546969528002,-5.0522469090497975z" style="fill:rgb(242,131,182)"/><path d="M118.57199708077901,49.408561712398374L162.03385055953876,-68.28944148081116L124.12551623149677,27.801465292073846z" style="fill:rgb(83,212,212)"/><path d="M166.56771163835205,-5.0811586383183975L171.54546969528002,-5.0522469090497975L168.49638060456425,-13.806764813030112z" style="fill:rgb(242,131,182)"/><path d="M169.68323785091073,-22.363652333893604L166.56771163835205,-5.0811586383183975L168.49638060456425,-13.806764813030112zM29.26967258826701,9.682728257245424L86.34769038333297,37.95705365162458L115.82121363880998,52.42079921894499z" style="fill:rgb(83,212,212)"/><path d="M112.1425266618798,26.87300601586376L118.49551485872215,42.079208255275006L121.46813466682725,41.728580773408574z" style="fill:rgb(108,33,211)"/><path d="M119.81920700045423,32.679835339828976L118.54860820132564,32.08026290677832L118.44707856527504,32.032356566891806z" style="fill:rgb(55,174,221)"/><path d="M115.15377348853093,26.501129130719697L121.46813466682725,41.728580773408574L122.59022822836005,39.3960893201247z" style="fill:rgb(234,114,195)"/><path d="M-51.856133930984186,62.61325967856274L-50.090603486887275,67.49425430157724L67.13425822855228,109.92669408281293zM130.25606707827765,59.50451551060816L166.56771163835205,-5.0811586383183975L162.03385055953876,-68.28944148081116z" style="fill:rgb(83,212,212)"/><path d="M133.78301275749263,68.03964282123599L86.34769038333297,37.95705365162458L29.092056027797714,9.859603867251781z" style="fill:rgb(42,41,169)"/><path d="M130.25606707827765,59.50451551060816L90.27845371198408,33.74378360203941L36.28444018641935,-1.0488151976888003z" style="fill:rgb(157,244,168)"/><path d="M25.72613573227334,13.211452544646528L73.47951432264034,61.85920401992694L73.7414419746093,61.68788410515748zM113.70983555781041,8.628372504651086L109.09795922928531,20.800149184859958L114.00546943149548,23.086550362199944zM25.72613573227334,13.211452544646528L71.12144152627313,63.401567524028685L73.47951432264034,61.85920401992694z" style="fill:rgb(83,212,212)"/><path d="M118.68530070071253,35.017609765607176L119.36606674863012,33.61407869038396L119.81920700045423,32.679835339828976z" style="fill:rgb(50,211,183)"/><path d="M112.1425266618798,26.87300601586376L107.5396991857014,15.241960295082777L105.9329795716223,16.96415371011401z" style="fill:rgb(83,212,212)"/><path d="M114.00546943149548,23.086550362199944L116.1211861388041,32.525489216991L117.53413871602552,31.60155762134234z" style="fill:rgb(181,61,221)"/><path d="M115.69563305181728,35.37754207324421L117.35578939206827,35.177671556345814L117.4886851946002,35.16167021220257z" style="fill:rgb(84,215,209)"/><path d="M118.68530070071253,35.017609765607176L119.31568335461483,33.71795446003024L119.36606674863012,33.61407869038396z" style="fill:rgb(22,198,141)"/><path d="M113.748919637382,23.25396607994596L116.00813480756094,32.5994156206586L116.1211861388041,32.525489216991z" style="fill:rgb(181,61,221)"/><path d="M114.00546943149548,23.086550362199944L117.53413871602552,31.60155762134234L118.44707856527504,32.032356566891806z" style="fill:rgb(42,41,169)"/><path d="M111.43922590332062,24.76119793613017L114.99047095049268,33.26486300728022L116.00813480756094,32.5994156206586z" style="fill:rgb(181,61,221)"/><path d="M25.72613573227334,13.211452544646528L73.7414419746093,61.68788410515748L75.76771846181512,62.73712062797278z" style="fill:rgb(83,212,212)"/><path d="M104.67475127164525,18.312810529581565L94.81526194755865,28.880904258701545L94.18193297531441,29.559752435623647zM104.67475127164525,18.312810529581565L94.81526194755865,28.880904258701545L94.18193297531441,29.559752435623647z" style="fill:rgb(188,121,239)"/><path d="M112.1425266618798,26.87300601586376L105.9329795716223,16.96415371011401L104.67475127164525,18.312810529581565z" style="fill:rgb(83,212,212)"/><path d="M111.43922590332062,24.76119793613017L115.38184562771212,34.43743548323473L114.99047095049268,33.26486300728022z" style="fill:rgb(245,172,143)"/><path d="M71.74575653277263,65.63354431358297L71.12144152627313,63.401567524028685L25.72613573227334,13.211452544646528z" style="fill:rgb(83,212,212)"/><path d="M104.67475127164525,18.312810529581565L94.18193297531441,29.559752435623647L91.89320570963362,32.01297412729195zM104.67475127164525,18.312810529581565L94.18193297531441,29.559752435623647L91.89320570963362,32.01297412729195z" style="fill:rgb(54,221,172)"/><path d="M25.72613573227334,13.211452544646528L75.76771846181512,62.73712062797278L75.99331787569199,62.853940990739474z" style="fill:rgb(83,212,212)"/><path d="M116.07261503259636,24.04962815541315L118.44707856527504,32.032356566891806L118.54860820132564,32.08026290677832z" style="fill:rgb(42,41,169)"/><path d="M111.50942549766559,24.971961895453106L115.41320271342359,34.53136250446375L115.38184562771212,34.43743548323473z" style="fill:rgb(245,172,143)"/><path d="M93.71429042139277,78.40961770346227L93.71429042134642,78.40961255222336L28.38044622294815,22.79472268666414z" style="fill:rgb(24,127,202)"/><path d="M122.2073912399143,45.42761547757642L122.73502028125499,44.849845568719395L162.03385055953876,-68.28944148081116z" style="fill:rgb(83,212,212)"/><path d="M104.67475127164525,18.312810529581565L91.89320570963362,32.01297412729195L90.27845371198408,33.74378360203941zM104.67475127164525,18.312810529581565L91.89320570963362,32.01297412729195L90.27845371198408,33.74378360203941z" style="fill:rgb(218,71,196)"/><path d="M116.3027526724794,24.156852471726918L118.54860820132564,32.08026290677832L119.81920700045423,32.679835339828976z" style="fill:rgb(42,41,169)"/><path d="M121.7946081790432,45.87964069284956L122.2073912399143,45.42761547757642L162.03385055953876,-68.28944148081116zM113.70983555781041,8.628372504651086L114.00546943149548,23.086550362199944L116.07261503259636,24.04962815541315zM67.13425822855228,109.92669408281293L-50.090603486887275,67.49425430157724L-49.660329735458426,72.97187605290695z" style="fill:rgb(83,212,212)"/><path d="M112.1425266618798,26.87300601586376L115.69563305181728,35.37754207324421L115.41320271342359,34.53136250446375z" style="fill:rgb(245,172,143)"/><path d="M118.57199708077901,49.408561712398374L121.7946081790432,45.87964069284956L162.03385055953876,-68.28944148081116zM111.43922590332062,24.76119793613017L114.00546943149548,23.086550362199944L107.5396991857014,15.241960295082777zM113.70983555781041,8.628372504651086L116.07261503259636,24.04962815541315L116.3027526724794,24.156852471726918z" style="fill:rgb(83,212,212)"/><path d="M116.1211861388041,32.525489216991L114.00546943149548,23.086550362199944L113.748919637382,23.25396607994596zM116.00813480756094,32.5994156206586L113.748919637382,23.25396607994596L112.17779988721503,24.279231258339497zM116.00813480756094,32.5994156206586L112.17779988721503,24.279231258339497L111.43922590332062,24.76119793613017z" style="fill:rgb(181,61,221)"/><path d="M115.26883473508664,26.266371089791395L122.59022822836005,39.3960893201247L116.3027526724794,24.156852471726918z" style="fill:rgb(234,114,195)"/><path d="M112.1425266618798,26.87300601586376L111.43922590332062,24.76119793613017L107.5396991857014,15.241960295082777z" style="fill:rgb(83,212,212)"/><path d="M163.89116205103858,3.7738458657026084L167.02023119728128,12.499074152531177L169.65387826734928,3.660739073530387z" style="fill:rgb(240,125,187)"/><path d="M121.46813466682725,41.728580773408574L112.44336903218522,26.835853822044392L112.1425266618798,26.87300601586376z" style="fill:rgb(108,33,211)"/><path d="M122.59022822836005,39.3960893201247L115.26883473508664,26.266371089791395L115.15377348853093,26.501129130719697z" style="fill:rgb(234,114,195)"/><path d="M115.38184562771212,34.43743548323473L111.43922590332062,24.76119793613017L111.50942549766559,24.971961895453106z" style="fill:rgb(245,172,143)"/><path d="M118.44707856527504,32.032356566891806L116.07261503259636,24.04962815541315L114.00546943149548,23.086550362199944z" style="fill:rgb(42,41,169)"/><path d="M113.70983555781041,8.628372504651086L116.3027526724794,24.156852471726918L120.03943869051977,25.89776647115381z" style="fill:rgb(83,212,212)"/><path d="M126.82404877498854,63.3025736797803L82.97213600786726,41.57520564594027L25.72613573227334,13.211452544646528z" style="fill:rgb(32,103,209)"/><path d="M112.44336903218522,26.835853822044392L121.46813466682725,41.728580773408574L115.15377348853093,26.501129130719697z" style="fill:rgb(108,33,211)"/><path d="M169.65387826734928,3.660739073530387L166.56771163835205,-5.0811586383183975L163.89116205103858,3.7738458657026084z" style="fill:rgb(240,125,187)"/><path d="M115.41320271342359,34.53136250446375L111.50942549766559,24.971961895453106L112.1425266618798,26.87300601586376z" style="fill:rgb(245,172,143)"/><path d="M118.54860820132564,32.08026290677832L116.3027526724794,24.156852471726918L116.07261503259636,24.04962815541315z" style="fill:rgb(42,41,169)"/><path d="M25.72613573227334,13.211452544646528L75.99331787569199,62.853940990739474L84.91316290500042,70.58154019301293z" style="fill:rgb(83,212,212)"/><path d="M127.5997649898761,36.35132651599976L126.20903390390548,35.69506689631628L125.28372886803338,35.25843557768352z" style="fill:rgb(37,55,181)"/><path d="M119.94093840469466,30.538021789725615L126.2189507821516,45.79108647432224L129.21957705773337,45.44195524149159z" style="fill:rgb(108,33,211)"/><path d="M127.5997649898761,36.35132651599976L126.31193868481344,35.74362475047254L126.20903390390548,35.69506689631628z" style="fill:rgb(165,247,148)"/><path d="M122.98096214664386,30.167464031088993L129.21957705773337,45.44195524149159L130.33724793333985,43.08807312135748z" style="fill:rgb(234,114,195)"/><path d="M111.43922590332062,24.76119793613017L114.00546943149548,23.086550362199944L113.748919637382,23.25396607994596z" style="fill:rgb(60,235,140)"/><path d="M111.43922590332062,24.76119793613017L112.17779988721503,24.279231258339497L113.748919637382,23.25396607994596z" style="fill:rgb(165,90,243)"/><path d="M111.43922590332062,24.76119793613017L116.07261503259636,24.04962815541315L114.00546943149548,23.086550362199944z" style="fill:rgb(83,212,212)"/><path d="M126.47028281960915,38.710637312238305L127.14839561141602,37.29417153850483L127.5997649898761,36.35132651599976z" style="fill:rgb(72,213,204)"/><path d="M112.1425266618798,26.87300601586376L111.50942549766559,24.971961895453106L111.43922590332062,24.76119793613017zM112.1425266618798,26.87300601586376L111.50942549766559,24.971961895453106L111.43922590332062,24.76119793613017z" style="fill:rgb(171,220,202)"/><path d="M123.8625961488703,36.189238309441066L125.28372886803338,35.25843557768352L121.79683351886413,26.716531671379702zM121.53878522681116,26.88520418533903L123.74888958704695,36.263717133311474L123.8625961488703,36.189238309441066z" style="fill:rgb(181,61,221)"/><path d="M122.73502028125499,44.849845568719395L130.25606707827765,59.50451551060816L162.03385055953876,-68.28944148081116zM111.43922590332062,24.76119793613017L116.3027526724794,24.156852471726918L116.07261503259636,24.04962815541315z" style="fill:rgb(83,212,212)"/><path d="M125.28372886803338,35.25843557768352L126.20903390390548,35.69506689631628L121.79683351886413,26.716531671379702z" style="fill:rgb(42,41,169)"/><path d="M119.21560596317114,28.40373135881275L122.72533181922047,36.934116636401605L123.74888958704695,36.263717133311474z" style="fill:rgb(181,61,221)"/><path d="M143.4846558981386,22.127957302196837L113.70983555781041,8.628372504651086L120.03943869051977,25.89776647115381zM111.43922590332062,24.76119793613017L112.1425266618798,26.87300601586376L112.44336903218522,26.835853822044392z" style="fill:rgb(83,212,212)"/><path d="M119.21560596317114,28.40373135881275L123.12878990842309,38.119087334306705L122.72533181922047,36.934116636401605z" style="fill:rgb(245,172,143)"/><path d="M111.43922590332062,24.76119793613017L115.26883473508664,26.266371089791395L116.3027526724794,24.156852471726918zM111.43922590332062,24.76119793613017L112.44336903218522,26.835853822044392L115.15377348853093,26.501129130719697z" style="fill:rgb(83,212,212)"/><path d="M123.89223131165747,27.692774344596334L126.20903390390548,35.69506689631628L126.31193868481344,35.74362475047254z" style="fill:rgb(42,41,169)"/><path d="M119.28799532522395,28.616733932914183L123.16111583630284,38.21401123702749L123.12878990842309,38.119087334306705z" style="fill:rgb(245,172,143)"/><path d="M111.43922590332062,24.76119793613017L115.15377348853093,26.501129130719697L115.26883473508664,26.266371089791395zM25.72613573227334,13.211452544646528L87.29671002322571,69.01779459589038L87.56146093972112,68.84409970436515z" style="fill:rgb(83,212,212)"/><path d="M120.03943869051977,25.89776647115381L112.1425266618798,26.87300601586376L106.53454270614472,27.565573197152624z" style="fill:rgb(98,247,160)"/><path d="M25.72613573227334,13.211452544646528L84.91316290500042,70.58154019301293L87.29671002322571,69.01779459589038z" style="fill:rgb(83,212,212)"/><path d="M124.12551623149677,27.801465292073846L126.31193868481344,35.74362475047254L127.5997649898761,36.35132651599976z" style="fill:rgb(42,41,169)"/><path d="M25.72613573227334,13.211452544646528L87.56146093972112,68.84409970436515L89.87008825221986,70.03954065874925z" style="fill:rgb(83,212,212)"/><path d="M119.94093840469466,30.538021789725615L123.45227055817551,39.069152891749056L123.16111583630284,38.21401123702749z" style="fill:rgb(245,172,143)"/><path d="M120.03943869051977,25.89776647115381L113.427526091179,26.714312752453434L112.44336903218522,26.835853822044392z" style="fill:rgb(125,9,176)"/><path d="M123.8625961488703,36.189238309441066L121.79683351886413,26.716531671379702L121.53878522681116,26.88520418533903z" style="fill:rgb(181,61,221)"/><path d="M106.53454270614472,27.565573197152624L104.70458867606763,32.395216583836074L115.03561998778142,31.13594252458098z" style="fill:rgb(83,212,212)"/><path d="M123.74888958704695,36.263717133311474L121.53878522681116,26.88520418533903L119.21560596317114,28.40373135881275z" style="fill:rgb(181,61,221)"/><path d="M123.09558138911169,29.930530759338684L130.33724793333985,43.08807312135748L124.12551623149677,27.801465292073846z" style="fill:rgb(234,114,195)"/><path d="M160.46506387949236,12.716606917626054L163.6428559894864,21.421176268944613L167.02023119728128,12.499074152531177z" style="fill:rgb(237,120,191)"/><path d="M120.03943869051977,25.89776647115381L106.53454270614472,27.565573197152624L115.03561998778142,31.13594252458098z" style="fill:rgb(83,212,212)"/><path d="M129.21957705773337,45.44195524149159L120.24465393473425,30.500999365222675L119.94093840469466,30.538021789725615z" style="fill:rgb(108,33,211)"/><path d="M130.33724793333985,43.08807312135748L123.09558138911169,29.930530759338684L122.98096214664386,30.167464031088993z" style="fill:rgb(234,114,195)"/><path d="M123.12878990842309,38.119087334306705L119.21560596317114,28.40373135881275L119.28799532522395,28.616733932914183z" style="fill:rgb(245,172,143)"/><path d="M119.94093840469466,30.538021789725615L112.44336903218522,26.835853822044392L112.1425266618798,26.87300601586376z" style="fill:rgb(83,212,212)"/><path d="M126.20903390390548,35.69506689631628L123.89223131165747,27.692774344596334L121.79683351886413,26.716531671379702z" style="fill:rgb(42,41,169)"/><path d="M119.94093840469466,30.538021789725615L116.3027526724794,24.156852471726918L115.26883473508664,26.266371089791395z" style="fill:rgb(83,212,212)"/><path d="M167.02023119728128,12.499074152531177L163.89116205103858,3.7738458657026084L160.46506387949236,12.716606917626054z" style="fill:rgb(237,120,191)"/><path d="M119.94093840469466,30.538021789725615L113.427526091179,26.714312752453434L112.44336903218522,26.835853822044392z" style="fill:rgb(83,212,212)"/><path d="M120.24465393473425,30.500999365222675L129.21957705773337,45.44195524149159L122.98096214664386,30.167464031088993z" style="fill:rgb(108,33,211)"/><path d="M104.67475127164525,18.312810529581565L90.27845371198408,33.74378360203941L118.57199708077901,49.408561712398374zM119.94093840469466,30.538021789725615L115.15377348853093,26.501129130719697L113.427526091179,26.714312752453434zM29.26967258826701,9.682728257245424L115.82121363880998,52.42079921894499L130.25606707827765,59.50451551060816zM119.94093840469466,30.538021789725615L115.26883473508664,26.266371089791395L115.15377348853093,26.501129130719697z" style="fill:rgb(83,212,212)"/><path d="M123.16111583630284,38.21401123702749L119.28799532522395,28.616733932914183L119.94093840469466,30.538021789725615z" style="fill:rgb(245,172,143)"/><path d="M126.31193868481344,35.74362475047254L124.12551623149677,27.801465292073846L123.89223131165747,27.692774344596334z" style="fill:rgb(42,41,169)"/><path d="M166.56771163835205,-5.0811586383183975L160.46506387949236,12.716606917626054L163.89116205103858,3.7738458657026084zM112.1425266618798,26.87300601586376L104.67475127164525,18.312810529581565L118.57199708077901,49.408561712398374zM115.03561998778142,31.13594252458098L121.79683351886413,26.716531671379702L120.03943869051977,25.89776647115381z" style="fill:rgb(83,212,212)"/><path d="M119.21560596317114,28.40373135881275L121.53878522681116,26.88520418533903L121.79683351886413,26.716531671379702z" style="fill:rgb(192,39,192)"/><path d="M115.03561998778142,31.13594252458098L121.53878522681116,26.88520418533903L121.79683351886413,26.716531671379702z" style="fill:rgb(193,37,189)"/><path d="M115.03561998778142,31.13594252458098L119.21560596317114,28.40373135881275L121.53878522681116,26.88520418533903z" style="fill:rgb(196,27,165)"/><path d="M119.21560596317114,28.40373135881275L123.89223131165747,27.692774344596334L121.79683351886413,26.716531671379702z" style="fill:rgb(83,212,212)"/><path d="M119.94093840469466,30.538021789725615L119.28799532522395,28.616733932914183L119.21560596317114,28.40373135881275z" style="fill:rgb(1,106,133)"/><path d="M119.21560596317114,28.40373135881275L124.12551623149677,27.801465292073846L123.89223131165747,27.692774344596334zM71.74575653277263,65.63354431358297L25.72613573227334,13.211452544646528L67.13425822855228,109.92669408281293zM75.99331787569199,62.853940990739474L85.96857212292024,43.05985760804264L82.97213600786726,41.57520564594027zM82.97213600786726,41.57520564594027L75.99331787569199,62.853940990739474L85.96857212292024,43.05985760804264z" style="fill:rgb(83,212,212)"/><path d="M71.74575653277263,65.63354431358297L78.81353292986655,80.48876484713168L81.79138105168809,80.17282974528786z" style="fill:rgb(108,33,211)"/><path d="M79.90842255518649,71.18243478136004L78.66250400898228,70.53021373785064L78.56294792615029,70.47809842401203z" style="fill:rgb(49,31,157)"/><path d="M119.21560596317114,28.40373135881275L119.94093840469466,30.538021789725615L120.24465393473425,30.500999365222675zM90.27845371198408,33.74378360203941L86.34769038333297,37.95705365162458L115.82121363880998,52.42079921894499z" style="fill:rgb(83,212,212)"/><path d="M74.76217445593109,65.29692743965946L81.79138105168809,80.17282974528786L82.99285889453378,77.74386005964894z" style="fill:rgb(234,114,195)"/><path d="M119.21560596317114,28.40373135881275L123.09558138911169,29.930530759338684L124.12551623149677,27.801465292073846zM119.21560596317114,28.40373135881275L120.24465393473425,30.500999365222675L122.98096214664386,30.167464031088993zM119.21560596317114,28.40373135881275L122.98096214664386,30.167464031088993L123.09558138911169,29.930530759338684zM82.97213600786726,41.57520564594027L67.31339722242936,58.35935212891156L73.7414419746093,61.68788410515748zM82.97213600786726,41.57520564594027L67.31339722242936,58.35935212891156L73.7414419746093,61.68788410515748zM166.56771163835205,-5.0811586383183975L156.29247354785178,21.703388923771662L160.46506387949236,12.716606917626054z" style="fill:rgb(83,212,212)"/><path d="M78.69391676194772,73.61766942361454L79.42307944079539,72.15561547001104L79.90842255518649,71.18243478136004z" style="fill:rgb(130,199,232)"/><path d="M-49.660329735458426,72.97187605290695L-52.71935306892221,141.59854371348376L-47.015132722517684,141.75008919810693z" style="fill:rgb(83,212,212)"/><path d="M73.7414419746093,61.68788410515748L76.2254838319284,70.95477667788866L77.66777552437065,70.00948444806811z" style="fill:rgb(181,61,221)"/><path d="M89.87008825221986,70.03954065874925L107.51175262924845,81.88272331773598L25.72613573227334,13.211452544646528z" style="fill:rgb(83,212,212)"/><path d="M73.47951432264034,61.85920401992694L76.11007995484611,71.03041281363544L76.2254838319284,70.95477667788866z" style="fill:rgb(181,61,221)"/><path d="M120.03943869051977,25.89776647115381L142.58464098222626,23.113515356456922L143.4846558981386,22.127957302196837z" style="fill:rgb(83,212,212)"/><path d="M156.29247354785178,21.703388923771662L159.52474148578094,30.38340976311046L163.6428559894864,21.421176268944613z" style="fill:rgb(234,114,195)"/><path d="M75.69904159383601,73.94265882524147L77.495210398686,73.74774838318142L78.69391676194772,73.61766942361454z" style="fill:rgb(89,89,242)"/><path d="M73.7414419746093,61.68788410515748L77.66777552437065,70.00948444806811L78.56294792615029,70.47809842401203z" style="fill:rgb(42,41,169)"/><path d="M71.12144152627313,63.401567524028685L75.0712846517014,71.71125093503532L76.11007995484611,71.03041281363544z" style="fill:rgb(181,61,221)"/><path d="M71.12144152627313,63.401567524028685L75.41969578992534,72.94970112292312L75.0712846517014,71.71125093503532z" style="fill:rgb(245,172,143)"/><path d="M156.29247354785178,21.703388923771662L163.6428559894864,21.421176268944613L160.46506387949236,12.716606917626054z" style="fill:rgb(234,114,195)"/><path d="M75.76771846181512,62.73712062797278L78.56294792615029,70.47809842401203L78.66250400898228,70.53021373785064z" style="fill:rgb(42,41,169)"/><path d="M71.18375137550832,63.62431484893878L75.44760661336717,73.0489042897003L75.41969578992534,72.94970112292312z" style="fill:rgb(245,172,143)"/><path d="M126.82404877498854,63.3025736797803L25.72613573227334,13.211452544646528L124.69360960213912,65.66023162429387z" style="fill:rgb(83,212,212)"/><path d="M75.99331787569199,62.853940990739474L78.66250400898228,70.53021373785064L79.90842255518649,71.18243478136004z" style="fill:rgb(42,41,169)"/><path d="M82.97213600786726,41.57520564594027L73.7414419746093,61.68788410515748L75.76771846181512,62.73712062797278zM82.97213600786726,41.57520564594027L73.7414419746093,61.68788410515748L75.76771846181512,62.73712062797278z" style="fill:rgb(83,212,212)"/><path d="M71.74575653277263,65.63354431358297L75.69904159383601,73.94265882524147L75.44760661336717,73.0489042897003z" style="fill:rgb(245,172,143)"/><path d="M119.94093840469466,30.538021789725615L112.1425266618798,26.87300601586376L118.57199708077901,49.408561712398374zM82.97213600786726,41.57520564594027L75.76771846181512,62.73712062797278L75.99331787569199,62.853940990739474zM82.97213600786726,41.57520564594027L75.76771846181512,62.73712062797278L75.99331787569199,62.853940990739474z" style="fill:rgb(83,212,212)"/><path d="M76.2254838319284,70.95477667788866L73.7414419746093,61.68788410515748L73.47951432264034,61.85920401992694zM76.11007995484611,71.03041281363544L73.47951432264034,61.85920401992694L71.12144152627313,63.401567524028685z" style="fill:rgb(181,61,221)"/><path d="M74.88546121996647,65.05228404024234L82.99285889453378,77.74386005964894L75.99331787569199,62.853940990739474z" style="fill:rgb(234,114,195)"/><path d="M73.7414419746093,61.68788410515748L67.31339722242936,58.35935212891156L59.22321045614254,67.03097697476997zM166.56771163835205,-5.0811586383183975L151.38136197006597,30.688654142446868L156.29247354785178,21.703388923771662z" style="fill:rgb(83,212,212)"/><path d="M81.79138105168809,80.17282974528786L72.04711101151128,65.5999132630595L71.74575653277263,65.63354431358297z" style="fill:rgb(108,33,211)"/><path d="M82.99285889453378,77.74386005964894L74.88546121996647,65.05228404024234L74.76217445593109,65.29692743965946z" style="fill:rgb(234,114,195)"/><path d="M75.41969578992534,72.94970112292312L71.12144152627313,63.401567524028685L71.18375137550832,63.62431484893878z" style="fill:rgb(245,172,143)"/><path d="M78.56294792615029,70.47809842401203L75.76771846181512,62.73712062797278L73.7414419746093,61.68788410515748z" style="fill:rgb(42,41,169)"/><path d="M-24.705572783969206,140.40300113791469L-49.660329735458426,72.97187605290695L-47.015132722517684,141.75008919810693z" style="fill:rgb(83,212,212)"/><path d="M72.04711101151128,65.5999132630595L81.79138105168809,80.17282974528786L74.76217445593109,65.29692743965946z" style="fill:rgb(108,33,211)"/><path d="M107.51175262924845,81.88272331773598L124.69360960213912,65.66023162429387L25.72613573227334,13.211452544646528z" style="fill:rgb(83,212,212)"/><path d="M75.44760661336717,73.0489042897003L71.18375137550832,63.62431484893878L71.74575653277263,65.63354431358297z" style="fill:rgb(245,172,143)"/><path d="M78.66250400898228,70.53021373785064L75.99331787569199,62.853940990739474L75.76771846181512,62.73712062797278z" style="fill:rgb(42,41,169)"/><path d="M118.57199708077901,49.408561712398374L120.24465393473425,30.500999365222675L119.94093840469466,30.538021789725615zM118.57199708077901,49.408561712398374L124.12551623149677,27.801465292073846L123.09558138911169,29.930530759338684zM130.25606707827765,59.50451551060816L112.44336903218522,26.835853822044392L112.1425266618798,26.87300601586376zM118.57199708077901,49.408561712398374L122.98096214664386,30.167464031088993L120.24465393473425,30.500999365222675zM130.25606707827765,59.50451551060816L113.427526091179,26.714312752453434L112.44336903218522,26.835853822044392zM71.12144152627313,63.401567524028685L73.7414419746093,61.68788410515748L59.22321045614254,67.03097697476997zM118.57199708077901,49.408561712398374L123.09558138911169,29.930530759338684L122.98096214664386,30.167464031088993zM59.22321045614254,67.03097697476997L71.18375137550832,63.62431484893878L71.12144152627313,63.401567524028685z" style="fill:rgb(83,212,212)"/><path d="M71.12144152627313,63.401567524028685L73.7414419746093,61.68788410515748L73.47951432264034,61.85920401992694z" style="fill:rgb(197,24,154)"/><path d="M151.38136197006597,30.688654142446868L154.67376458573423,39.340379649174395L159.52474148578094,30.38340976311046z" style="fill:rgb(230,108,199)"/><path d="M59.22321045614254,67.03097697476997L71.74575653277263,65.63354431358297L71.18375137550832,63.62431484893878zM93.00970766949753,63.26062239311102L85.96857212292024,43.05985760804264L75.99331787569199,62.853940990739474z" style="fill:rgb(83,212,212)"/><path d="M112.40712263126936,56.15940301696813L98.34103046164917,49.19005401154544L85.96857212292024,43.05985760804264z" style="fill:rgb(40,47,174)"/><path d="M90.27845371198408,33.74378360203941L118.36570684460519,49.63444985017068L118.57199708077901,49.408561712398374zM71.12144152627313,63.401567524028685L75.76771846181512,62.73712062797278L73.7414419746093,61.68788410515748zM90.27845371198408,33.74378360203941L117.62097478988936,50.44997302639111L118.36570684460519,49.63444985017068zM90.27845371198408,33.74378360203941L117.09623535314978,51.024591943018066L117.62097478988936,50.44997302639111z" style="fill:rgb(83,212,212)"/><path d="M71.74575653277263,65.63354431358297L71.18375137550832,63.62431484893878L71.12144152627313,63.401567524028685z" style="fill:rgb(168,221,203)"/><path d="M159.52474148578094,30.38340976311046L156.29247354785178,21.703388923771662L151.38136197006597,30.688654142446868z" style="fill:rgb(230,108,199)"/><path d="M90.27845371198408,33.74378360203941L115.82121363880998,52.42079921894499L117.09623535314978,51.024591943018066zM71.12144152627313,63.401567524028685L75.99331787569199,62.853940990739474L75.76771846181512,62.73712062797278zM71.12144152627313,63.401567524028685L71.74575653277263,65.63354431358297L72.04711101151128,65.5999132630595zM71.12144152627313,63.401567524028685L74.88546121996647,65.05228404024234L75.99331787569199,62.853940990739474zM71.12144152627313,63.401567524028685L72.04711101151128,65.5999132630595L74.76217445593109,65.29692743965946z" style="fill:rgb(83,212,212)"/><path d="M130.25606707827765,59.50451551060816L121.7946081790432,45.87964069284956L104.67475127164525,18.312810529581565z" style="fill:rgb(103,220,211)"/><path d="M71.12144152627313,63.401567524028685L74.76217445593109,65.29692743965946L74.88546121996647,65.05228404024234z" style="fill:rgb(83,212,212)"/><path d="M74.76217445593109,65.29692743965946L72.04711101151128,65.5999132630595L71.74575653277263,65.63354431358297z" style="fill:rgb(80,159,241)"/><path d="M75.99331787569199,62.853940990739474L74.88546121996647,65.05228404024234L74.76217445593109,65.29692743965946z" style="fill:rgb(118,204,229)"/><path d="M133.78301275749263,68.03964282123599L115.82121363880998,52.42079921894499L86.34769038333297,37.95705365162458z" style="fill:rgb(42,41,169)"/><path d="M59.22321045614254,67.03097697476997L54.75176510648473,71.82379013682039L67.91576153569237,78.8823871575698zM112.40712263126936,56.15940301696813L85.96857212292024,43.05985760804264L93.00970766949753,63.26062239311102zM67.91576153569237,78.8823871575698L71.74575653277263,65.63354431358297L59.22321045614254,67.03097697476997zM107.38748814469515,61.65615326130627L59.22321045614254,67.03097697476997L54.75176510648473,71.82379013682039z" style="fill:rgb(83,212,212)"/><path d="M130.25606707827765,59.50451551060816L118.36570684460519,49.63444985017068L94.18193297531441,29.559752435623647z" style="fill:rgb(176,239,164)"/><path d="M126.82404877498854,63.3025736797803L98.34103046164917,49.19005401154544L85.96857212292024,43.05985760804264z" style="fill:rgb(49,30,157)"/><path d="M130.25606707827765,59.50451551060816L151.38136197006597,30.688654142446868L166.56771163835205,-5.0811586383183975z" style="fill:rgb(83,212,212)"/><path d="M85.57655372506133,72.85777472642567L92.51846708176815,87.78509580250689L95.54764377931959,87.4729938324929z" style="fill:rgb(108,33,211)"/><path d="M93.00970766949753,63.26062239311102L75.99331787569199,62.853940990739474L74.88546121996647,65.05228404024234z" style="fill:rgb(83,212,212)"/><path d="M130.25606707827765,59.50451551060816L91.89320570963362,32.01297412729195L117.62097478988936,50.44997302639111z" style="fill:rgb(37,38,144)"/><path d="M88.64572935527241,72.52471378130743L95.54764377931959,87.4729938324929L96.74228115334161,85.00254107011126z" style="fill:rgb(234,114,195)"/><path d="M93.71429042139277,78.40961770346227L93.71429042134642,78.40961255222336L92.43722274545432,77.74109076174754z" style="fill:rgb(36,127,217)"/><path d="M130.25606707827765,59.50451551060816L117.09623535314978,51.024591943018066L90.27845371198408,33.74378360203941z" style="fill:rgb(27,118,206)"/><path d="M145.74483929500533,39.62538552876982L149.1028710161587,48.245252812387236L154.67376458573423,39.340379649174395z" style="fill:rgb(226,102,203)"/><path d="M93.00970766949753,63.26062239311102L74.88546121996647,65.05228404024234L74.76217445593109,65.29692743965946zM67.91576153569237,78.8823871575698L72.04711101151128,65.5999132630595L71.74575653277263,65.63354431358297zM-49.660329735458426,72.97187605290695L-24.705572783969206,140.40300113791469L67.13425822855228,109.92669408281293z" style="fill:rgb(83,212,212)"/><path d="M130.25606707827765,59.50451551060816L122.73502028125499,44.849845568719395L113.427526091179,26.714312752453434z" style="fill:rgb(209,214,172)"/><path d="M75.99331787569199,62.853940990739474L74.76217445593109,65.29692743965946L84.91316290500042,70.58154019301293zM67.91576153569237,78.8823871575698L74.76217445593109,65.29692743965946L72.04711101151128,65.5999132630595zM74.76217445593109,65.29692743965946L71.74575653277263,65.63354431358297L84.91316290500042,70.58154019301293z" style="fill:rgb(83,212,212)"/><path d="M92.5065947011135,80.88664456760804L93.71429042139277,78.40961770346227L93.71429042134642,78.40961255222336z" style="fill:rgb(226,127,208)"/><path d="M154.67376458573423,39.340379649174395L151.38136197006597,30.688654142446868L145.74483929500533,39.62538552876982z" style="fill:rgb(226,102,203)"/><path d="M87.56146093972112,68.84409970436515L89.95993790675062,78.16566213329669L91.41766394672072,77.20736556018788z" style="fill:rgb(181,61,221)"/><path d="M107.38748814469515,61.65615326130627L72.04711101151128,65.5999132630595L71.74575653277263,65.63354431358297z" style="fill:rgb(80,144,244)"/><path d="M87.29671002322571,69.01779459589038L89.8432937233428,78.2423445682476L89.95993790675062,78.16566213329669zM84.91316290500042,70.58154019301293L88.79338282369523,78.93255034818732L89.8432937233428,78.2423445682476z" style="fill:rgb(181,61,221)"/><path d="M87.56146093972112,68.84409970436515L91.41766394672072,77.20736556018788L92.43722274545432,77.74109076174754z" style="fill:rgb(42,41,169)"/><path d="M98.34103046164917,49.19005401154544L96.69975981498001,62.84883637940611L109.26737618335503,54.60374482350023z" style="fill:rgb(83,212,212)"/><path d="M107.38748814469515,61.65615326130627L74.76217445593109,65.29692743965946L72.04711101151128,65.5999132630595z" style="fill:rgb(98,58,230)"/><path d="M84.91316290500042,70.58154019301293L89.16322689998917,80.19538436464119L88.79338282369523,78.93255034818732z" style="fill:rgb(245,172,143)"/><path d="M112.40712263126936,56.15940301696813L109.26737618335503,54.60374482350023L98.34103046164917,49.19005401154544z" style="fill:rgb(154,247,159)"/><path d="M98.34103046164917,49.19005401154544L91.99662179940357,65.9343727191725L96.69975981498001,62.84883637940611z" style="fill:rgb(83,212,212)"/><path d="M84.97936561851297,70.80869862141988L89.19284988575941,80.2965475384382L89.16322689998917,80.19538436464119z" style="fill:rgb(245,172,143)"/><path d="M79.38908219573892,78.00998525519908L139.72516954773164,12.365565917287347L109.76869334020641,-1.0102164458639884z" style="fill:rgb(83,212,212)"/><path d="M-52.71935306892221,141.59854371348376L-47.65459830586234,149.33994453527407L-41.986159156955665,149.5106874563709z" style="fill:rgb(94,32,205)"/><path d="M54.75176510648473,71.82379013682039L87.56146093972112,68.84409970436515L91.99662179940357,65.9343727191725z" style="fill:rgb(83,212,212)"/><path d="M89.87008825221986,70.03954065874925L92.43722274545432,77.74109076174754L93.71429042139277,78.40961770346227z" style="fill:rgb(42,41,169)"/><path d="M54.75176510648473,71.82379013682039L87.29671002322571,69.01779459589038L87.56146093972112,68.84409970436515zM54.75176510648473,71.82379013682039L84.91316290500042,70.58154019301293L87.29671002322571,69.01779459589038zM93.00970766949753,63.26062239311102L74.76217445593109,65.29692743965946L67.91576153569237,78.8823871575698z" style="fill:rgb(83,212,212)"/><path d="M89.87008825221986,70.03954065874925L93.71429042139277,78.40961770346227L93.71429042134642,78.40961255222336zM89.87008825221986,70.03954065874925L93.71429042139277,78.40961770346227L93.71429042134642,78.40961255222336z" style="fill:rgb(240,127,185)"/><path d="M85.57655372506133,72.85777472642567L89.45977030801285,81.20792022239694L89.19284988575941,80.2965475384382z" style="fill:rgb(245,172,143)"/><path d="M54.75176510648473,71.82379013682039L67.91576153569237,78.8823871575698L70.30655400143834,80.16433541298062z" style="fill:rgb(97,224,204)"/><path d="M107.38748814469515,61.65615326130627L54.75176510648473,71.82379013682039L91.99662179940357,65.9343727191725zM109.76869334020641,-1.0102164458639884L50.12604473913891,62.50410678071423L79.38908219573892,78.00998525519908zM54.75176510648473,71.82379013682039L70.30655400143834,80.16433541298062L84.91316290500042,70.58154019301293z" style="fill:rgb(83,212,212)"/><path d="M89.95993790675062,78.16566213329669L87.56146093972112,68.84409970436515L87.29671002322571,69.01779459589038zM89.8432937233428,78.2423445682476L87.29671002322571,69.01779459589038L84.91316290500042,70.58154019301293z" style="fill:rgb(181,61,221)"/><path d="M88.76833367709189,72.27583611372384L96.74228115334161,85.00254107011126L89.87008825221986,70.03954065874925z" style="fill:rgb(234,114,195)"/><path d="M85.57655372506133,72.85777472642567L84.91316290500042,70.58154019301293L71.74575653277263,65.63354431358297z" style="fill:rgb(83,212,212)"/><path d="M95.54764377931959,87.4729938324929L85.883175264575,72.82449878892997L85.57655372506133,72.85777472642567z" style="fill:rgb(108,33,211)"/><path d="M96.74228115334161,85.00254107011126L88.76833367709189,72.27583611372384L88.64572935527241,72.52471378130743z" style="fill:rgb(234,114,195)"/><path d="M89.16322689998917,80.19538436464119L84.91316290500042,70.58154019301293L84.97936561851297,70.80869862141988z" style="fill:rgb(245,172,143)"/><path d="M139.40131940992976,48.46546075147126L142.83024696227986,57.050130781434646L149.1028710161587,48.245252812387236z" style="fill:rgb(222,96,207)"/><path d="M92.43722274545432,77.74109076174754L89.87008825221986,70.03954065874925L87.56146093972112,68.84409970436515z" style="fill:rgb(42,41,169)"/><path d="M85.883175264575,72.82449878892997L95.54764377931959,87.4729938324929L88.64572935527241,72.52471378130743z" style="fill:rgb(108,33,211)"/><path d="M89.19284988575941,80.2965475384382L84.97936561851297,70.80869862141988L85.57655372506133,72.85777472642567z" style="fill:rgb(245,172,143)"/><path d="M112.40712263126936,56.15940301696813L93.00970766949753,63.26062239311102L96.69975981498001,62.84883637940611z" style="fill:rgb(83,212,212)"/><path d="M-47.015132722517684,141.75008919810693L-41.986159156955665,149.5106874563709L-31.02905485594884,149.19733798858692z" style="fill:rgb(101,32,208)"/><path d="M84.91316290500042,70.58154019301293L91.99662179940357,65.9343727191725L93.00970766949753,63.26062239311102z" style="fill:rgb(83,212,212)"/><path d="M126.82404877498854,63.3025736797803L109.26737618335503,54.60374482350023L98.34103046164917,49.19005401154544z" style="fill:rgb(180,243,132)"/><path d="M84.91316290500042,70.58154019301293L93.00970766949753,63.26062239311102L67.91576153569237,78.8823871575698z" style="fill:rgb(83,212,212)"/><path d="M93.71429042139277,78.40961770346227L111.27010962152363,90.29891207392204L93.71429042134642,78.40961255222336z" style="fill:rgb(30,127,210)"/><path d="M149.1028710161587,48.245252812387236L145.74483929500533,39.62538552876982L139.40131940992976,48.46546075147126z" style="fill:rgb(222,96,207)"/><path d="M-52.71935306892221,141.59854371348376L-41.986159156955665,149.5106874563709L-47.015132722517684,141.75008919810693z" style="fill:rgb(94,32,205)"/><path d="M83.85274672202104,87.42787307614529L50.12604473913891,62.50410678071423L54.75176510648473,71.82379013682039z" style="fill:rgb(42,41,169)"/><path d="M84.91316290500042,70.58154019301293L87.29671002322571,69.01779459589038L87.56146093972112,68.84409970436515z" style="fill:rgb(62,234,152)"/><path d="M96.69975981498001,62.84883637940611L87.56146093972112,68.84409970436515L89.87008825221986,70.03954065874925zM121.7946081790432,45.87964069284956L130.25606707827765,59.50451551060816L122.2073912399143,45.42761547757642zM151.38136197006597,30.688654142446868L139.40131940992976,48.46546075147126L145.74483929500533,39.62538552876982zM84.91316290500042,70.58154019301293L89.87008825221986,70.03954065874925L87.56146093972112,68.84409970436515z" style="fill:rgb(83,212,212)"/><path d="M143.4846558981386,22.127957302196837L139.72516954773164,12.365565917287347L79.38908219573892,78.00998525519908z" style="fill:rgb(212,85,213)"/><path d="M85.57655372506133,72.85777472642567L84.91316290500042,70.58154019301293L67.91576153569237,78.8823871575698z" style="fill:rgb(83,212,212)"/><path d="M84.91316290500042,70.58154019301293L84.97936561851297,70.80869862141988L85.57655372506133,72.85777472642567z" style="fill:rgb(5,139,162)"/><path d="M96.69975981498001,62.84883637940611L89.87008825221986,70.03954065874925L88.76833367709189,72.27583611372384zM118.36570684460519,49.63444985017068L130.25606707827765,59.50451551060816L118.57199708077901,49.408561712398374zM84.91316290500042,70.58154019301293L85.57655372506133,72.85777472642567L85.883175264575,72.82449878892997zM84.91316290500042,70.58154019301293L88.76833367709189,72.27583611372384L89.87008825221986,70.03954065874925zM96.69975981498001,62.84883637940611L88.76833367709189,72.27583611372384L88.64572935527241,72.52471378130743zM117.09623535314978,51.024591943018066L130.25606707827765,59.50451551060816L117.62097478988936,50.44997302639111zM88.64572935527241,72.52471378130743L85.57655372506133,72.85777472642567L67.91576153569237,78.8823871575698zM84.91316290500042,70.58154019301293L85.883175264575,72.82449878892997L88.64572935527241,72.52471378130743zM84.91316290500042,70.58154019301293L88.64572935527241,72.52471378130743L88.76833367709189,72.27583611372384z" style="fill:rgb(83,212,212)"/><path d="M132.37454753251066,57.16008649069194L135.87934531235905,65.70648101839846L142.83024696227986,57.050130781434646z" style="fill:rgb(217,91,210)"/><path d="M88.64572935527241,72.52471378130743L85.883175264575,72.82449878892997L85.57655372506133,72.85777472642567zM88.64572935527241,72.52471378130743L85.883175264575,72.82449878892997L85.57655372506133,72.85777472642567z" style="fill:rgb(80,151,243)"/><path d="M89.87008825221986,70.03954065874925L88.76833367709189,72.27583611372384L88.64572935527241,72.52471378130743z" style="fill:rgb(167,180,236)"/><path d="M-35.98537581070056,141.3983346363636L-31.02905485594884,149.19733798858692L-19.827079779077643,148.24261224879842z" style="fill:rgb(108,33,211)"/><path d="M-47.015132722517684,141.75008919810693L-31.02905485594884,149.19733798858692L-35.98537581070056,141.3983346363636z" style="fill:rgb(101,32,208)"/><path d="M133.78301275749263,68.03964282123599L130.25606707827765,59.50451551060816L115.82121363880998,52.42079921894499z" style="fill:rgb(42,41,169)"/><path d="M151.38136197006597,30.688654142446868L130.25606707827765,59.50451551060816L139.40131940992976,48.46546075147126z" style="fill:rgb(83,212,212)"/><path d="M142.83024696227986,57.050130781434646L139.40131940992976,48.46546075147126L132.37454753251066,57.16008649069194z" style="fill:rgb(217,91,210)"/><path d="M83.85274672202104,87.42787307614529L112.40712263126936,56.15940301696813L96.69975981498001,62.84883637940611z" style="fill:rgb(83,212,212)"/><path d="M130.25606707827765,59.50451551060816L133.78301275749263,68.03964282123599L135.87934531235905,65.70648101839846z" style="fill:rgb(212,85,213)"/><path d="M91.99662179940357,65.9343727191725L83.85274672202104,87.42787307614529L107.38748814469515,61.65615326130627zM83.85274672202104,87.42787307614529L96.69975981498001,62.84883637940611L88.64572935527241,72.52471378130743zM67.91576153569237,78.8823871575698L83.85274672202104,87.42787307614529L88.64572935527241,72.52471378130743zM85.57655372506133,72.85777472642567L71.74575653277263,65.63354431358297L67.13425822855228,109.92669408281293z" style="fill:rgb(83,212,212)"/><path d="M-24.705572783969206,140.40300113791469L-19.827079779077643,148.24261224879842L-8.438076490503686,146.64377918415423z" style="fill:rgb(116,34,214)"/><path d="M132.37454753251066,57.16008649069194L130.25606707827765,59.50451551060816L135.87934531235905,65.70648101839846zM128.278894903239,74.1655675140987L130.38695792620342,71.81935523226899L124.69360960213912,65.66023162429387z" style="fill:rgb(212,85,213)"/><path d="M-35.98537581070056,141.3983346363636L-19.827079779077643,148.24261224879842L-24.705572783969206,140.40300113791469z" style="fill:rgb(108,33,211)"/><path d="M-47.015132722517684,141.75008919810693L-35.98537581070056,141.3983346363636L-24.705572783969206,140.40300113791469z" style="fill:rgb(83,212,212)"/><path d="M143.4846558981386,22.127957302196837L79.38908219573892,78.00998525519908L83.85274672202104,87.42787307614529z" style="fill:rgb(212,85,213)"/><path d="M89.87008825221986,70.03954065874925L88.64572935527241,72.52471378130743L107.51175262924845,81.88272331773598zM139.40131940992976,48.46546075147126L130.25606707827765,59.50451551060816L132.37454753251066,57.16008649069194z" style="fill:rgb(83,212,212)"/><path d="M130.38695792620342,71.81935523226899L126.82404877498854,63.3025736797803L124.69360960213912,65.66023162429387z" style="fill:rgb(212,85,213)"/><path d="M116.39286786491776,73.91711682188506L120.06282655220481,82.37893591623533L128.278894903239,74.1655675140987z" style="fill:rgb(206,80,215)"/><path d="M-13.234044588890052,138.76149408050554L-8.438076490503686,146.64377918415423L3.0775697886867395,144.40261415136388z" style="fill:rgb(123,36,216)"/><path d="M88.64572935527241,72.52471378130743L85.57655372506133,72.85777472642567L67.13425822855228,109.92669408281293z" style="fill:rgb(83,212,212)"/><path d="M-24.705572783969206,140.40300113791469L-8.438076490503686,146.64377918415423L-13.234044588890052,138.76149408050554z" style="fill:rgb(116,34,214)"/><path d="M124.69360960213912,65.66023162429387L116.39286786491776,73.91711682188506L128.278894903239,74.1655675140987z" style="fill:rgb(206,80,215)"/><path d="M83.85274672202104,87.42787307614529L79.38908219573892,78.00998525519908L50.12604473913891,62.50410678071423z" style="fill:rgb(42,41,169)"/><path d="M107.51175262924845,81.88272331773598L111.27010962152363,90.29891207392204L120.06282655220481,82.37893591623533z" style="fill:rgb(200,75,217)"/><path d="M-1.6317173560262783,136.4757606306044L3.0775697886867395,144.40261415136388L14.65746176333915,141.5254891008151z" style="fill:rgb(131,38,218)"/><path d="M-13.234044588890052,138.76149408050554L3.0775697886867395,144.40261415136388L-1.6317173560262783,136.4757606306044z" style="fill:rgb(123,36,216)"/><path d="M101.94448149163267,97.87910774897325L111.27010962152363,90.29891207392204L107.51175262924845,81.88272331773598z" style="fill:rgb(194,70,219)"/><path d="M107.51175262924845,81.88272331773598L120.06282655220481,82.37893591623533L116.39286786491776,73.91711682188506z" style="fill:rgb(200,75,217)"/><path d="M-1.6317173560262783,136.4757606306044L-24.705572783969206,140.40300113791469L-13.234044588890052,138.76149408050554z" style="fill:rgb(83,212,212)"/><path d="M10.038422141896133,133.5523795539977L14.65746176333915,141.5254891008151L26.237770985618006,138.02341574642793z" style="fill:rgb(138,40,220)"/><path d="M88.64572935527241,72.52471378130743L67.13425822855228,109.92669408281293L107.51175262924845,81.88272331773598zM107.51175262924845,81.88272331773598L116.39286786491776,73.91711682188506L124.69360960213912,65.66023162429387z" style="fill:rgb(83,212,212)"/><path d="M-1.6317173560262783,136.4757606306044L14.65746176333915,141.5254891008151L10.038422141896133,133.5523795539977z" style="fill:rgb(131,38,218)"/><path d="M88.1900383557853,96.75481368366542L92.13413927479051,105.07492303461088L101.94448149163267,97.87910774897325z" style="fill:rgb(188,65,220)"/><path d="M21.7119086302042,130.00260391523042L-24.705572783969206,140.40300113791469L-1.6317173560262783,136.4757606306044z" style="fill:rgb(83,212,212)"/><path d="M21.7119086302042,130.00260391523042L26.237770985618006,138.02341574642793L37.75385230920684,133.91206947196505z" style="fill:rgb(146,43,221)"/><path d="M107.51175262924845,81.88272331773598L98.09455061120681,89.51027783118951L101.94448149163267,97.87910774897325z" style="fill:rgb(194,70,219)"/><path d="M77.85111433849836,103.57360170702373L81.89132075342185,111.8440238945236L92.13413927479051,105.07492303461088z" style="fill:rgb(181,61,221)"/><path d="M33.32342802130615,125.84238354082136L37.75385230920684,133.91206947196505L49.14090323367964,129.21171692822992z" style="fill:rgb(153,46,222)"/><path d="M10.038422141896133,133.5523795539977L26.237770985618006,138.02341574642793L21.7119086302042,130.00260391523042z" style="fill:rgb(138,40,220)"/><path d="M67.13425822855228,109.92669408281293L71.27186182036672,118.14685248587583L81.89132075342185,111.8440238945236z" style="fill:rgb(175,57,222)"/><path d="M88.1900383557853,96.75481368366542L101.94448149163267,97.87910774897325L98.09455061120681,89.51027783118951z" style="fill:rgb(188,65,220)"/><path d="M44.80747595755513,121.09229016455473L49.14090323367964,129.21171692822992L60.33461909047558,123.94701780879251z" style="fill:rgb(160,49,222)"/><path d="M56.09903927015048,115.77731534697578L60.33461909047558,123.94701780879251L71.27186182036672,118.14685248587583z" style="fill:rgb(168,53,222)"/><path d="M-24.705572783969206,140.40300113791469L21.7119086302042,130.00260391523042L67.13425822855228,109.92669408281293zM21.7119086302042,130.00260391523042L-1.6317173560262783,136.4757606306044L10.038422141896133,133.5523795539977z" style="fill:rgb(83,212,212)"/><path d="M21.7119086302042,130.00260391523042L37.75385230920684,133.91206947196505L33.32342802130615,125.84238354082136z" style="fill:rgb(146,43,221)"/><path d="M92.13413927479051,105.07492303461088L88.1900383557853,96.75481368366542L77.85111433849836,103.57360170702373z" style="fill:rgb(181,61,221)"/><path d="M88.1900383557853,96.75481368366542L98.09455061120681,89.51027783118951L107.51175262924845,81.88272331773598z" style="fill:rgb(83,212,212)"/><path d="M33.32342802130615,125.84238354082136L49.14090323367964,129.21171692822992L44.80747595755513,121.09229016455473z" style="fill:rgb(153,46,222)"/><path d="M81.89132075342185,111.8440238945236L77.85111433849836,103.57360170702373L67.13425822855228,109.92669408281293z" style="fill:rgb(175,57,222)"/><path d="M60.33461909047558,123.94701780879251L56.09903927015048,115.77731534697578L44.80747595755513,121.09229016455473z" style="fill:rgb(160,49,222)"/><path d="M71.27186182036672,118.14685248587583L67.13425822855228,109.92669408281293L56.09903927015048,115.77731534697578z" style="fill:rgb(168,53,222)"/><path d="M107.51175262924845,81.88272331773598L67.13425822855228,109.92669408281293L88.1900383557853,96.75481368366542zM21.7119086302042,130.00260391523042L33.32342802130615,125.84238354082136L44.80747595755513,121.09229016455473zM67.13425822855228,109.92669408281293L21.7119086302042,130.00260391523042L44.80747595755513,121.09229016455473zM88.1900383557853,96.75481368366542L67.13425822855228,109.92669408281293L77.85111433849836,103.57360170702373zM44.80747595755513,121.09229016455473L56.09903927015048,115.77731534697578L67.13425822855228,109.92669408281293z" style="fill:rgb(83,212,212)"/></svg>
