<?xml version="1.0" encoding="UTF-8"?>
<!-- Generated by jsxcad -->
<!DOCTYPE svg PUBLIC "-//W3C//DTD SVG 1.1 Tiny//EN" "http://www.w3.org/Graphics/SVG/1.1/DTD/svg11-tiny.dtd">
<svg viewBox="-250 -250 500 500" width="500" height="500" xmlns="http://www.w3.org/2000/svg"><path d="M-22.807867690392797,-23.129806324255334L-20.1440647224788,-107.70318976776319L-20.91982324784251,-107.39917402396624zM-24.83481760916336,-21.59162739280604L-20.91982324784251,-107.39917402396624L-22.76220204343405,-106.67714973648232zM-22.807867690392797,-23.129806324255334L-19.002509585998794,-108.10162942320368L-20.1440647224788,-107.70318976776319zM-26.776709902913446,-19.98410990407786L-22.76220204343405,-106.67714973648232L-24.52147591610633,-105.98769636603032zM-20.70330745652822,-24.593185855949233L-17.01716855362379,-108.79457280957512L-19.002509585998794,-108.10162942320368zM-28.626379983704965,-18.312926486408237L-24.52147591610633,-105.98769636603032L-26.190836367591718,-105.3334707825071zM-18.528800320427766,-25.976586850785566L-14.9707504583071,-109.5088464296503L-17.01716855362379,-108.79457280957512zM-30.37691505150409,-16.584012258911095L-26.190836367591718,-105.3334707825071L-27.763812301809185,-104.71702538997171zM-16.292230316875813,-27.275090031503243L-12.871200562071966,-110.24165019472898L-14.9707504583071,-109.5088464296503zM-32.0217092118543,-14.803508185123816L-29.15947173670033,-104.17007681938829L-29.234426879588305,-104.13742443109176zM-32.0217092118543,-14.803508185123816L-27.763812301809185,-104.71702538997171L-29.15947173670033,-104.17007681938829zM-14.001661872319792,-28.484068875922233L-11.03950094937105,-110.88097502973672L-12.871200562071966,-110.24165019472898zM-14.001661872319792,-28.484068875922233L-10.726853996652203,-110.97685651035432L-11.03950094937105,-110.88097502973672zM-33.5544572037947,-12.977774637084604L-29.234426879588305,-104.13742443109176L-30.59875520798336,-103.54315662346642zM-11.665343471619934,-29.59918025083657L-8.54660185849135,-111.64549522298856L-10.726853996652203,-110.97685651035432zM-34.96922830426212,-11.11333176152032L-30.59875520798336,-103.54315662346642L-31.84967968000612,-102.9982778584681zM-9.291674448365269,-30.61638821651254L-6.337870239606388,-112.32287118522298L-8.54660185849135,-111.64549522298856zM-36.26041169242624,-9.216910737844945L-31.84967968000612,-102.9982778584681L-32.98232014096584,-102.50492976107272zM-6.889168307361737,-31.531970944961575L-4.109308850452656,-113.0063290537619L-6.337870239606388,-112.32287118522298zM-37.422803563191444,-7.2953770934304405L-32.98232014096584,-102.50492976107272L-33.992282951484015,-102.06500728459488zM-4.466456552333697,-32.342526880734354L-1.8696719878682786,-113.69317617358566L-4.109308850452656,-113.0063290537619zM-38.45159994325194,-5.3557459168409665L-33.992282951484015,-102.06500728459488L-34.87564850122976,-101.68023326301144zM-39.34242185829055,-3.4051452548671883L-34.87564850122976,-101.68023326301144L-35.62899071495168,-101.35209912010552zM-2.0322575144889394,-33.044996849482544L0.37225746392986275,-114.28629569265048L-1.8696719878682786,-113.69317617358566zM-40.09133003262186,-1.4508125367917941L-35.62899071495168,-101.35209912010552L-36.24938258366961,-101.08186878393064zM0.40465004385577064,-33.63666936579132L2.6080397790824073,-114.8777969760122L0.37225746392986275,-114.28629569265048zM-40.69486294320658,0.4999324993178657L-36.24938258366961,-101.08186878393064L-36.734423532710586,-100.87059146504039zM2.835445594914675,-34.11518180664146L4.828805304337893,-115.46531577146254L2.6080397790824073,-114.8777969760122zM-41.15004758464199,2.439724299809219L-36.734423532710586,-100.87059146504039L-37.08223656519354,-100.71908807982278zM5.251285571915811,-34.478525219375406L7.025714999181494,-116.04652958667391L4.828805304337893,-115.46531577146254zM-41.45439663804859,4.361152029238214L-37.08223656519354,-100.71908807982278L-37.291457777451825,-100.62795878427565zM7.6433343943083925,-34.72508712091227L7.341141209330253,-116.12997448335423L7.025714999181494,-116.04652958667391zM7.6433343943083925,-34.72508712091227L9.190775436904932,-116.54130631537511L7.341141209330253,-116.12997448335423zM-41.60598137218044,6.256801209866622L-37.291457777451825,-100.62795878427565L-37.361287158396784,-100.59755106185705zM10.002794782146355,-34.85362603765561L11.315030190363547,-117.01371196880531L9.190775436904932,-116.54130631537511zM12.320907823982365,-34.86328819341182L13.38980426800493,-117.47510842149391L11.315030190363547,-117.01371196880531z" style="fill:rgb(83,212,212)"/><path d="M53.02672085541051,-75.92254265345227L53.91195097572183,-114.02265891033184L50.481900403825996,-122.24345432004053z" style="fill:rgb(247,158,158)"/><path d="M14.588997205286082,-34.75361819488642L15.406701531029746,-117.92363548992824L13.38980426800493,-117.47510842149391zM16.79850621140562,-34.52457203641886L16.568209509633128,-118.18193078371671L15.406701531029746,-117.92363548992824zM16.79850621140562,-34.52457203641886L17.358147052592834,-118.3240239537312L16.568209509633128,-118.18193078371671zM18.940999774125494,-34.17651488560017L19.236656385108,-118.66193213940524L17.358147052592834,-118.3240239537312zM21.0082193152924,-33.71022722475464L21.033656703898682,-118.98516340549311L19.236656385108,-118.66193213940524zM22.992067821313505,-33.12693368822194L22.741743253069636,-119.2924077081972L21.033656703898682,-118.98516340549311zM24.884713614618438,-32.428258213585124L24.353824792982195,-119.58238848099028L22.741743253069636,-119.2924077081972zM26.6785465904455,-31.61628756409364L25.786307378819377,-119.84005808289228L24.353824792982195,-119.58238848099028zM26.6785465904455,-31.61628756409364L25.863283419470857,-119.85058274416023L25.786307378819377,-119.84005808289228zM28.366245683857205,-30.6935223105835L27.26540641169113,-120.04230889832827L25.863283419470857,-119.85058274416023zM29.940794182867545,-29.66291326761793L28.552670870731955,-120.21833324627035L27.26540641169113,-120.04230889832827zM31.39555671153863,-28.527826357891218L29.719610052751694,-120.3779091758651L28.552670870731955,-120.21833324627035zM32.72423489117084,-27.29207562886181L30.76127656267328,-120.52034664236967L29.719610052751694,-120.3779091758651zM33.92096751396374,-25.959899907372268L31.673236613807457,-120.64505397303532L30.76127656267328,-120.52034664236967zM34.98033033789009,-24.53595453473716L32.45160590547156,-120.75148756396278L31.673236613807457,-120.64505397303532zM35.89738090036497,-23.02530853632624L33.093051158750995,-120.83920231391198L32.45160590547156,-120.75148756396278zM36.66766869507353,-21.43343295077237L33.59483303050271,-120.9078091823623L33.093051158750995,-120.83920231391198zM37.2872942465059,-19.76619579346628L33.954800219346076,-120.9570358386686L33.59483303050271,-120.9078091823623z" style="fill:rgb(83,212,212)"/><path d="M53.02672085541051,-75.92254265345227L56.60952381165387,-67.63398901604162L53.91195097572183,-114.02265891033184z" style="fill:rgb(247,158,158)"/><path d="M37.75291575945546,-18.029820549622983L34.17139295795994,-120.98665118083032L33.954800219346076,-120.9570358386686zM38.06176696978845,-16.230892815889227L34.243692831375974,-120.99654459642322L34.17139295795994,-120.98665118083032zM-160.212315783337,44.37283852784888L-143.9093772882972,-7.169117159987436L-146.78595166116867,-1.810623710445134zM-18.528800320427766,-25.976586850785566L-16.292230316875813,-27.275090031503243L-14.9707504583071,-109.5088464296503zM-20.70330745652822,-24.593185855949233L-18.528800320427766,-25.976586850785566L-17.01716855362379,-108.79457280957512zM-16.292230316875813,-27.275090031503243L-14.001661872319792,-28.484068875922233L-12.871200562071966,-110.24165019472898zM-22.807867690392797,-23.129806324255334L-20.70330745652822,-24.593185855949233L-19.002509585998794,-108.10162942320368zM-14.001661872319792,-28.484068875922233L-11.665343471619934,-29.59918025083657L-10.726853996652203,-110.97685651035432zM-24.83481760916336,-21.59162739280604L-22.807867690392797,-23.129806324255334L-20.91982324784251,-107.39917402396624zM-11.665343471619934,-29.59918025083657L-9.291674448365269,-30.61638821651254L-8.54660185849135,-111.64549522298856zM-160.212315783337,44.37283852784888L-146.78595166116867,-1.810623710445134L-150.3543247362298,5.824029848764893zM-26.776709902913446,-19.98410990407786L-24.83481760916336,-21.59162739280604L-22.76220204343405,-106.67714973648232zM-9.291674448365269,-30.61638821651254L-6.889168307361737,-31.531970944961575L-6.337870239606388,-112.32287118522298zM-28.626379983704965,-18.312926486408237L-26.776709902913446,-19.98410990407786L-24.52147591610633,-105.98769636603032zM-6.889168307361737,-31.531970944961575L-4.466456552333697,-32.342526880734354L-4.109308850452656,-113.0063290537619zM-160.212315783337,44.37283852784888L-77.7437185985317,-24.949152940259637L-143.9093772882972,-7.169117159987436zM-30.37691505150409,-16.584012258911095L-28.626379983704965,-18.312926486408237L-26.190836367591718,-105.3334707825071zM-4.466456552333697,-32.342526880734354L-2.0322575144889394,-33.044996849482544L-1.8696719878682786,-113.69317617358566zM-32.0217092118543,-14.803508185123816L-30.37691505150409,-16.584012258911095L-27.763812301809185,-104.71702538997171zM-2.0322575144889394,-33.044996849482544L0.40465004385577064,-33.63666936579132L0.37225746392986275,-114.28629569265048zM-33.5544572037947,-12.977774637084604L-32.0217092118543,-14.803508185123816L-29.234426879588305,-104.13742443109176zM0.40465004385577064,-33.63666936579132L2.835445594914675,-34.11518180664146L2.6080397790824073,-114.8777969760122zM-34.96922830426212,-11.11333176152032L-33.5544572037947,-12.977774637084604L-30.59875520798336,-103.54315662346642zM2.835445594914675,-34.11518180664146L5.251285571915811,-34.478525219375406L4.828805304337893,-115.46531577146254zM-36.26041169242624,-9.216910737844945L-34.96922830426212,-11.11333176152032L-31.84967968000612,-102.9982778584681zM-160.212315783337,44.37283852784888L-150.3543247362298,5.824029848764893L-153.41577699780848,13.51671721780524zM5.251285571915811,-34.478525219375406L7.6433343943083925,-34.72508712091227L7.025714999181494,-116.04652958667391zM-37.422803563191444,-7.2953770934304405L-36.26041169242624,-9.216910737844945L-32.98232014096584,-102.50492976107272zM7.6433343943083925,-34.72508712091227L10.002794782146355,-34.85362603765561L9.190775436904932,-116.54130631537511zM-38.45159994325194,-5.3557459168409665L-37.422803563191444,-7.2953770934304405L-33.992282951484015,-102.06500728459488zM10.002794782146355,-34.85362603765561L12.320907823982365,-34.86328819341182L11.315030190363547,-117.01371196880531zM-39.34242185829055,-3.4051452548671883L-38.45159994325194,-5.3557459168409665L-34.87564850122976,-101.68023326301144zM12.320907823982365,-34.86328819341182L14.588997205286082,-34.75361819488642L13.38980426800493,-117.47510842149391zM-40.09133003262186,-1.4508125367917941L-39.34242185829055,-3.4051452548671883L-35.62899071495168,-101.35209912010552zM14.588997205286082,-34.75361819488642L16.79850621140562,-34.52457203641886L15.406701531029746,-117.92363548992824zM-160.212315783337,44.37283852784888L-153.41577699780848,13.51671721780524L-155.95075043162734,21.24352274033888zM-40.69486294320658,0.4999324993178657L-40.09133003262186,-1.4508125367917941L-36.24938258366961,-101.08186878393064zM16.79850621140562,-34.52457203641886L18.940999774125494,-34.17651488560017L17.358147052592834,-118.3240239537312zM-41.15004758464199,2.439724299809219L-40.69486294320658,0.4999324993178657L-36.734423532710586,-100.87059146504039z" style="fill:rgb(83,212,212)"/><path d="M56.60952381165387,-67.63398901604162L53.123795802440505,-74.96948392544749L56.70947196884191,-66.67968327879039z" style="fill:rgb(247,161,155)"/><path d="M18.940999774125494,-34.17651488560017L21.0082193152924,-33.71022722475464L19.236656385108,-118.66193213940524z" style="fill:rgb(83,212,212)"/><path d="M56.70947196884191,-66.67968327879039L53.30887077087376,-74.0422584196437L56.896829803707185,-65.75088546721341z" style="fill:rgb(246,166,149)"/><path d="M-41.45439663804859,4.361152029238214L-41.15004758464199,2.439724299809219L-37.08223656519354,-100.71908807982278z" style="fill:rgb(83,212,212)"/><path d="M56.896829803707185,-65.75088546721341L53.58149070098621,-73.14457146483049L57.17113830176741,-64.8512876526043z" style="fill:rgb(245,172,143)"/><path d="M21.0082193152924,-33.71022722475464L22.992067821313505,-33.12693368822194L21.033656703898682,-118.98516340549311z" style="fill:rgb(83,212,212)"/><path d="M56.60952381165387,-67.63398901604162L53.02672085541051,-75.92254265345227L53.123795802440505,-74.96948392544749z" style="fill:rgb(247,161,155)"/><path d="M-41.60598137218044,6.256801209866622L-41.45439663804859,4.361152029238214L-37.291457777451825,-100.62795878427565z" style="fill:rgb(83,212,212)"/><path d="M57.17113830176741,-64.8512876526043L53.94088321653526,-72.28004686248549L57.531614790520834,-63.984524616849086z" style="fill:rgb(244,177,137)"/><path d="M-160.212315783337,44.37283852784888L-155.95075043162734,21.24352274033888L-157.94033237678335,28.97942633144444z" style="fill:rgb(83,212,212)"/><path d="M56.70947196884191,-66.67968327879039L53.123795802440505,-74.96948392544749L53.30887077087376,-74.0422584196437z" style="fill:rgb(246,166,149)"/><path d="M22.992067821313505,-33.12693368822194L24.884713614618438,-32.428258213585124L22.741743253069636,-119.2924077081972z" style="fill:rgb(83,212,212)"/><path d="M56.896829803707185,-65.75088546721341L53.30887077087376,-74.0422584196437L53.58149070098621,-73.14457146483049z" style="fill:rgb(245,172,143)"/><path d="M24.884713614618438,-32.428258213585124L26.6785465904455,-31.61628756409364L24.353824792982195,-119.58238848099028z" style="fill:rgb(83,212,212)"/><path d="M57.17113830176741,-64.8512876526043L53.58149070098621,-73.14457146483049L53.94088321653526,-72.28004686248549z" style="fill:rgb(244,177,137)"/><path d="M26.6785465904455,-31.61628756409364L28.366245683857205,-30.6935223105835L25.863283419470857,-119.85058274416023zM28.366245683857205,-30.6935223105835L29.940794182867545,-29.66291326761793L27.26540641169113,-120.04230889832827zM-160.212315783337,44.37283852784888L-157.94033237678335,28.97942633144444L-159.3665171429839,36.69828197798891zM-65.90061570420771,139.6098577701696L-46.829047549355884,-96.08070126287234L-52.925079245857916,-92.86991973532993zM-65.90061570420771,139.6098577701696L-38.062204300205416,-100.29224369165513L-46.829047549355884,-96.08070126287234zM-65.90061570420771,139.6098577701696L-37.361287158396784,-100.59755106185705L-38.062204300205416,-100.29224369165513zM29.940794182867545,-29.66291326761793L31.39555671153863,-28.527826357891218L28.552670870731955,-120.21833324627035zM31.39555671153863,-28.527826357891218L32.72423489117084,-27.29207562886181L29.719610052751694,-120.3779091758651zM32.72423489117084,-27.29207562886181L33.92096751396374,-25.959899907372268L30.76127656267328,-120.52034664236967z" style="fill:rgb(83,212,212)"/><path d="M-9.868893337355447,-20.44467752935063L-16.292230316875813,-27.275090031503243L-12.142128807959887,-19.244543793648077z" style="fill:rgb(168,53,222)"/><path d="M-7.549773087118048,-21.55071456644497L-14.001661872319792,-28.484068875922233L-9.868893337355447,-20.44467752935063z" style="fill:rgb(160,49,222)"/><path d="M-12.142128807959887,-19.244543793648077L-18.528800320427766,-25.976586850785566L-14.361287999093415,-17.954627831709104z" style="fill:rgb(175,57,222)"/><path d="M-5.193112739666072,-22.558653336322703L-11.665343471619934,-29.59918025083657L-7.549773087118048,-21.55071456644497z" style="fill:rgb(153,46,222)"/><path d="M-14.361287999093415,-17.954627831709104L-20.70330745652822,-24.593185855949233L-16.518363430585346,-16.57953449992303z" style="fill:rgb(181,61,221)"/><path d="M-2.8073708303974563,-23.464800832180078L-9.291674448365269,-30.61638821651254L-5.193112739666072,-22.558653336322703z" style="fill:rgb(146,43,221)"/><path d="M-16.518363430585346,-16.57953449992303L-22.807867690392797,-23.129806324255334L-18.605527501613462,-15.124152474609012z" style="fill:rgb(188,65,220)"/><path d="M-0.4011232266585476,-24.265787679846223L-6.889168307361737,-31.531970944961575L-2.8073708303974563,-23.464800832180078z" style="fill:rgb(138,40,220)"/><path d="M33.92096751396374,-25.959899907372268L34.98033033789009,-24.53595453473716L31.673236613807457,-120.64505397303532z" style="fill:rgb(83,212,212)"/><path d="M-18.605527501613462,-15.124152474609012L-24.83481760916336,-21.59162739280604L-20.615179250272856,-13.59363612560908z" style="fill:rgb(194,70,219)"/><path d="M2.0169643841091256,-24.958588122270047L-4.466456552333697,-32.342526880734354L-0.4011232266585476,-24.265787679846223z" style="fill:rgb(131,38,218)"/><path d="M-20.615179250272856,-13.59363612560908L-26.776709902913446,-19.98410990407786L-22.53992205924028,-11.993426180061226z" style="fill:rgb(200,75,217)"/><path d="M4.438165713700568,-25.540525037220217L-2.0322575144889394,-33.044996849482544L2.0169643841091256,-24.958588122270047z" style="fill:rgb(123,36,216)"/><path d="M34.98033033789009,-24.53595453473716L35.89738090036497,-23.02530853632624L32.45160590547156,-120.75148756396278z" style="fill:rgb(83,212,212)"/><path d="M-22.53992205924028,-11.993426180061226L-28.626379983704965,-18.312926486408237L-24.372656622747442,-10.329169724708994z" style="fill:rgb(206,80,215)"/><path d="M6.853712112751805,-26.00927113019503L0.40465004385577064,-33.63666936579132L4.438165713700568,-25.540525037220217z" style="fill:rgb(116,34,214)"/><path d="M-9.868893337355447,-20.44467752935063L-14.001661872319792,-28.484068875922233L-16.292230316875813,-27.275090031503243z" style="fill:rgb(168,53,222)"/><path d="M-7.549773087118048,-21.55071456644497L-11.665343471619934,-29.59918025083657L-14.001661872319792,-28.484068875922233z" style="fill:rgb(160,49,222)"/><path d="M-12.142128807959887,-19.244543793648077L-16.292230316875813,-27.275090031503243L-18.528800320427766,-25.976586850785566z" style="fill:rgb(175,57,222)"/><path d="M-5.193112739666072,-22.558653336322703L-9.291674448365269,-30.61638821651254L-11.665343471619934,-29.59918025083657z" style="fill:rgb(153,46,222)"/><path d="M-14.361287999093415,-17.954627831709104L-18.528800320427766,-25.976586850785566L-20.70330745652822,-24.593185855949233z" style="fill:rgb(181,61,221)"/><path d="M-2.8073708303974563,-23.464800832180078L-6.889168307361737,-31.531970944961575L-9.291674448365269,-30.61638821651254z" style="fill:rgb(146,43,221)"/><path d="M-16.518363430585346,-16.57953449992303L-20.70330745652822,-24.593185855949233L-22.807867690392797,-23.129806324255334z" style="fill:rgb(188,65,220)"/><path d="M-24.372656622747442,-10.329169724708994L-30.37691505150409,-16.584012258911095L-26.106529193669193,-8.606781017027808z" style="fill:rgb(212,85,213)"/><path d="M9.254811629140077,-26.36285375218327L2.835445594914675,-34.11518180664146L6.853712112751805,-26.00927113019503z" style="fill:rgb(108,33,211)"/><path d="M-0.4011232266585476,-24.265787679846223L-4.466456552333697,-32.342526880734354L-6.889168307361737,-31.531970944961575z" style="fill:rgb(138,40,220)"/><path d="M-84.34183840794545,61.293122731311016L-76.4076345658354,-25.338926966648895L-77.7437185985317,-24.949152940259637z" style="fill:rgb(83,212,212)"/><path d="M-18.605527501613462,-15.124152474609012L-22.807867690392797,-23.129806324255334L-24.83481760916336,-21.59162739280604z" style="fill:rgb(194,70,219)"/><path d="M35.89738090036497,-23.02530853632624L36.66766869507353,-21.43343295077237L33.093051158750995,-120.83920231391198zM-82.90006343220445,60.97266954165871L-75.07137932017862,-25.790126155918486L-76.4076345658354,-25.338926966648895z" style="fill:rgb(83,212,212)"/><path d="M2.0169643841091256,-24.958588122270047L-2.0322575144889394,-33.044996849482544L-4.466456552333697,-32.342526880734354z" style="fill:rgb(131,38,218)"/><path d="M-20.615179250272856,-13.59363612560908L-24.83481760916336,-21.59162739280604L-26.776709902913446,-19.98410990407786z" style="fill:rgb(200,75,217)"/><path d="M-26.106529193669193,-8.606781017027808L-32.0217092118543,-14.803508185123816L-27.734988423783516,-6.832383676421405z" style="fill:rgb(217,91,210)"/><path d="M-81.46830356136003,60.72709547041507L-73.74046536193534,-26.300930288765244L-75.07137932017862,-25.790126155918486z" style="fill:rgb(83,212,212)"/><path d="M11.632677110700408,-26.599697386339358L5.251285571915811,-34.478525219375406L9.254811629140077,-26.36285375218327z" style="fill:rgb(101,32,208)"/><path d="M-80.05193097413711,60.557415281137004L-72.42042371236933,-26.869272125077654L-73.74046536193534,-26.300930288765244z" style="fill:rgb(83,212,212)"/><path d="M4.438165713700568,-25.540525037220217L0.40465004385577064,-33.63666936579132L-2.0322575144889394,-33.044996849482544z" style="fill:rgb(123,36,216)"/><path d="M-78.65632143796536,60.46442318110567L-71.11672725440114,-27.492795353540227L-72.42042371236933,-26.869272125077654z" style="fill:rgb(83,212,212)"/><path d="M-22.53992205924028,-11.993426180061226L-26.776709902913446,-19.98410990407786L-28.626379983704965,-18.312926486408237z" style="fill:rgb(206,80,215)"/><path d="M-77.28676922108407,60.4485689558901L-69.8347647347942,-28.168937317350274L-71.11672725440114,-27.492795353540227zM-62.25207145616451,73.4151813769329L-55.52241751282003,-46.33399235012304L-55.618211353451,-45.3543374074441z" style="fill:rgb(83,212,212)"/><path d="M-27.734988423783516,-6.832383676421405L-33.5544572037947,-12.977774637084604L-29.251790238012884,-5.0123190725294275z" style="fill:rgb(222,96,207)"/><path d="M-62.324187181033395,72.24102448631325L-55.618211353451,-45.3543374074441L-55.79736636856408,-44.35393945729252zM-75.94848376709385,60.510075620130294L-68.57984337748337,-28.894895160612474L-69.8347647347942,-28.168937317350274zM36.66766869507353,-21.43343295077237L37.2872942465059,-19.76619579346628L33.59483303050271,-120.9078091823623z" style="fill:rgb(83,212,212)"/><path d="M13.978559888786366,-26.718598304917617L7.6433343943083925,-34.72508712091227L11.632677110700408,-26.599697386339358z" style="fill:rgb(94,32,205)"/><path d="M6.853712112751805,-26.00927113019503L2.835445594914675,-34.11518180664146L0.40465004385577064,-33.63666936579132z" style="fill:rgb(116,34,214)"/><path d="M-62.48901398296712,71.10149722051911L-55.79736636856408,-44.35393945729252L-56.05939992005341,-43.33675833065245zM-74.64659493561106,60.64888183404236L-67.35717994147281,-29.667646429554345L-68.57984337748337,-28.894895160612474z" style="fill:rgb(83,212,212)"/><path d="M-24.372656622747442,-10.329169724708994L-28.626379983704965,-18.312926486408237L-30.37691505150409,-16.584012258911095z" style="fill:rgb(212,85,213)"/><path d="M-62.74560740880301,70.00103584195946L-56.05939992005341,-43.33675833065245L-56.40350031925532,-42.30686825534644zM-73.38615276406576,60.86463017133265L-66.17178063262094,-30.483969461832324L-67.35717994147281,-29.667646429554345zM-63.09260093964649,68.94385720477439L-56.40350031925532,-42.30686825534644L-56.828457077022506,-41.2684167023433zM-72.17200673166099,61.1566788401503L-65.02855368033565,-31.340468047370514L-66.17178063262094,-30.483969461832324zM-63.528341690692145,67.9339884952783L-56.828457077022506,-41.2684167023433L-57.33277362670307,-40.22559562028321zM-71.00893841410866,61.524127741814176L-63.93218879371104,-32.23356737097242L-65.02855368033565,-31.340468047370514zM-64.05079421143239,66.97524081739982L-57.33277362670307,-40.22559562028321L-57.9145738353697,-39.1826362149586zM-69.90153247934198,61.96577510629494L-62.88716146919975,-33.159533003912934L-63.93218879371104,-32.23356737097242zM-64.65762425132694,66.07121780017393L-57.9145738353697,-39.1826362149586L-58.57166895249212,-38.143810870843474zM-68.8541876607269,62.480128019015055L-61.897710741249455,-34.114515899892744L-62.88716146919975,-33.159533003912934zM-65.3461555883593,65.22523692018363L-58.57166895249212,-38.143810870843474L-59.30152004471368,-37.11335859778515zM-67.87110009598183,63.065428961655L-60.96785068525512,-35.0945393649004L-61.897710741249455,-34.114515899892744zM-66.11345631361434,64.44042978390245L-59.30152004471368,-37.11335859778515L-60.10130190315281,-36.095535730427024zM-66.95627527638626,63.71963512915414L-60.10130190315281,-36.095535730427024L-60.96785068525512,-35.0945393649004z" style="fill:rgb(83,212,212)"/><path d="M9.254811629140077,-26.36285375218327L5.251285571915811,-34.478525219375406L2.835445594914675,-34.11518180664146z" style="fill:rgb(108,33,211)"/><path d="M-29.251790238012884,-5.0123190725294275L-34.96922830426212,-11.11333176152032L-30.651062739896116,-3.1530890397598137z" style="fill:rgb(226,102,203)"/><path d="M-26.106529193669193,-8.606781017027808L-30.37691505150409,-16.584012258911095L-32.0217092118543,-14.803508185123816z" style="fill:rgb(217,91,210)"/><path d="M16.28374968502485,-26.7187407968658L10.002794782146355,-34.85362603765561L13.978559888786366,-26.718598304917617z" style="fill:rgb(86,32,201)"/><path d="M37.2872942465059,-19.76619579346628L37.75291575945546,-18.029820549622983L33.954800219346076,-120.9570358386686z" style="fill:rgb(83,212,212)"/><path d="M11.632677110700408,-26.599697386339358L7.6433343943083925,-34.72508712091227L5.251285571915811,-34.478525219375406z" style="fill:rgb(101,32,208)"/><path d="M-27.734988423783516,-6.832383676421405L-32.0217092118543,-14.803508185123816L-33.5544572037947,-12.977774637084604z" style="fill:rgb(222,96,207)"/><path d="M-30.651062739896116,-3.1530890397598137L-36.26041169242624,-9.216910737844945L-31.92725373940637,-1.2614098356117442z" style="fill:rgb(230,108,199)"/><path d="M18.53961585486877,-26.599708098392533L12.320907823982365,-34.86328819341182L16.28374968502485,-26.7187407968658z" style="fill:rgb(79,32,198)"/><path d="M37.75291575945546,-18.029820549622983L38.06176696978845,-16.230892815889227L34.17139295795994,-120.98665118083032z" style="fill:rgb(83,212,212)"/><path d="M13.978559888786366,-26.718598304917617L10.002794782146355,-34.85362603765561L7.6433343943083925,-34.72508712091227z" style="fill:rgb(94,32,205)"/><path d="M-29.251790238012884,-5.0123190725294275L-33.5544572037947,-12.977774637084604L-34.96922830426212,-11.11333176152032z" style="fill:rgb(226,102,203)"/><path d="M-31.92725373940637,-1.2614098356117442L-37.422803563191444,-7.2953770934304405L-33.07521725936687,0.6558676005476486z" style="fill:rgb(234,114,195)"/><path d="M20.737646583911364,-26.36149513795586L14.588997205286082,-34.75361819488642L18.53961585486877,-26.599708098392533z" style="fill:rgb(73,33,193)"/><path d="M38.06176696978845,-16.230892815889227L38.21172847228599,-14.376336820568467L34.243692831375974,-120.99654459642322z" style="fill:rgb(83,212,212)"/><path d="M16.28374968502485,-26.7187407968658L12.320907823982365,-34.86328819341182L10.002794782146355,-34.85362603765561z" style="fill:rgb(86,32,201)"/><path d="M-30.651062739896116,-3.1530890397598137L-34.96922830426212,-11.11333176152032L-36.26041169242624,-9.216910737844945z" style="fill:rgb(230,108,199)"/><path d="M-33.07521725936687,0.6558676005476486L-38.45159994325194,-5.3557459168409665L-34.090204466007535,2.5917412796551154z" style="fill:rgb(237,120,191)"/><path d="M-160.212315783337,44.37283852784888L-160.4619882117307,51.97476034090002L-160.10119909060106,59.4746341561133z" style="fill:rgb(83,212,212)"/><path d="M22.869451275310777,-26.004505848748718L16.79850621140562,-34.52457203641886L20.737646583911364,-26.36149513795586z" style="fill:rgb(66,34,189)"/><path d="M18.53961585486877,-26.599708098392533L14.588997205286082,-34.75361819488642L12.320907823982365,-34.86328819341182z" style="fill:rgb(79,32,198)"/><path d="M-31.92725373940637,-1.2614098356117442L-36.26041169242624,-9.216910737844945L-37.422803563191444,-7.2953770934304405z" style="fill:rgb(234,114,195)"/><path d="M-34.090204466007535,2.5917412796551154L-39.34242185829055,-3.4051452548671883L-34.9678970864277,4.539096002305492z" style="fill:rgb(240,125,187)"/><path d="M24.926808520673703,-25.529559455253334L18.940999774125494,-34.17651488560017L22.869451275310777,-26.004505848748718z" style="fill:rgb(60,35,184)"/><path d="M20.737646583911364,-26.36149513795586L16.79850621140562,-34.52457203641886L14.588997205286082,-34.75361819488642z" style="fill:rgb(73,33,193)"/><path d="M-33.07521725936687,0.6558676005476486L-37.422803563191444,-7.2953770934304405L-38.45159994325194,-5.3557459168409665z" style="fill:rgb(237,120,191)"/><path d="M-160.212315783337,44.37283852784888L-84.34183840794545,61.293122731311016L-77.7437185985317,-24.949152940259637z" style="fill:rgb(83,212,212)"/><path d="M-34.9678970864277,4.539096002305492L-40.09133003262186,-1.4508125367917941L-35.70440893452553,6.490704254130384z" style="fill:rgb(242,131,182)"/><path d="M26.901669438396578,-24.937919165006505L21.0082193152924,-33.71022722475464L24.926808520673703,-25.529559455253334z" style="fill:rgb(54,37,179)"/><path d="M22.869451275310777,-26.004505848748718L18.940999774125494,-34.17651488560017L16.79850621140562,-34.52457203641886z" style="fill:rgb(66,34,189)"/><path d="M-34.090204466007535,2.5917412796551154L-38.45159994325194,-5.3557459168409665L-39.34242185829055,-3.4051452548671883z" style="fill:rgb(240,125,187)"/><path d="M-35.70440893452553,6.490704254130384L-40.69486294320658,0.4999324993178657L-36.29633450864111,8.439256503025078z" style="fill:rgb(244,137,177)"/><path d="M24.926808520673703,-25.529559455253334L21.0082193152924,-33.71022722475464L18.940999774125494,-34.17651488560017z" style="fill:rgb(60,35,184)"/><path d="M28.786233451517553,-24.231246696411887L22.992067821313505,-33.12693368822194L26.901669438396578,-24.937919165006505z" style="fill:rgb(48,39,174)"/><path d="M-34.9678970864277,4.539096002305492L-39.34242185829055,-3.4051452548671883L-40.09133003262186,-1.4508125367917941z" style="fill:rgb(242,131,182)"/><path d="M-160.212315783337,44.37283852784888L-160.10119909060106,59.4746341561133L-159.11731069417448,66.8420744987978z" style="fill:rgb(83,212,212)"/><path d="M-36.29633450864111,8.439256503025078L-41.15004758464199,2.439724299809219L-36.74074833118852,10.377394753009105z" style="fill:rgb(245,143,172)"/><path d="M26.901669438396578,-24.937919165006505L22.992067821313505,-33.12693368822194L21.0082193152924,-33.71022722475464z" style="fill:rgb(54,37,179)"/><path d="M30.57292646589418,-23.411665974524972L24.884713614618438,-32.428258213585124L28.786233451517553,-24.231246696411887z" style="fill:rgb(42,41,169)"/><path d="M-35.70440893452553,6.490704254130384L-40.09133003262186,-1.4508125367917941L-40.69486294320658,0.4999324993178657z" style="fill:rgb(244,137,177)"/><path d="M-36.74074833118852,10.377394753009105L-41.45439663804859,4.361152029238214L-37.03521553819722,12.297716318836374z" style="fill:rgb(246,149,166)"/><path d="M28.786233451517553,-24.231246696411887L24.884713614618438,-32.428258213585124L22.992067821313505,-33.12693368822194z" style="fill:rgb(48,39,174)"/><path d="M32.25446580837179,-22.481716176560358L26.6785465904455,-31.61628756409364L30.57292646589418,-23.411665974524972z" style="fill:rgb(37,44,163)"/><path d="M-36.29633450864111,8.439256503025078L-40.69486294320658,0.4999324993178657L-41.15004758464199,2.439724299809219z" style="fill:rgb(245,143,172)"/><path d="M43.21989403817687,120.19191820375478L34.96968708201526,-121.09580893887886L34.243692831375974,-120.99654459642322z" style="fill:rgb(83,212,212)"/><path d="M30.57292646589418,-23.411665974524972L26.6785465904455,-31.61628756409364L24.884713614618438,-32.428258213585124z" style="fill:rgb(42,41,169)"/><path d="M-37.03521553819722,12.297716318836374L-41.60598137218044,6.256801209866622L-37.1778553161695,14.192811929077902z" style="fill:rgb(247,155,161)"/><path d="M-36.74074833118852,10.377394753009105L-41.15004758464199,2.439724299809219L-41.45439663804859,4.361152029238214z" style="fill:rgb(246,149,166)"/><path d="M33.82386380250317,-21.44437628369147L28.366245683857205,-30.6935223105835L32.25446580837179,-22.481716176560358z" style="fill:rgb(32,47,158)"/><path d="M-160.212315783337,44.37283852784888L-159.11731069417448,66.8420744987978L-157.49949443938826,74.0457505842025zM43.21989403817687,120.19191820375478L44.09204344449181,-121.94114035364423L34.96968708201526,-121.09580893887886z" style="fill:rgb(83,212,212)"/><path d="M32.25446580837179,-22.481716176560358L28.366245683857205,-30.6935223105835L26.6785465904455,-31.61628756409364z" style="fill:rgb(37,44,163)"/><path d="M-37.1778553161695,14.192811929077902L-41.6034104556247,8.119273201228525L-37.16732162245437,16.05528736036424z" style="fill:rgb(247,161,155)"/><path d="M-37.03521553819722,12.297716318836374L-41.45439663804859,4.361152029238214L-41.60598137218044,6.256801209866622z" style="fill:rgb(247,155,161)"/><path d="M35.274513532501814,-20.30305258006835L29.940794182867545,-29.66291326761793L33.82386380250317,-21.44437628369147z" style="fill:rgb(28,51,152)"/><path d="M43.21989403817687,120.19191820375478L50.481900403825996,-122.24345432004053L44.09204344449181,-121.94114035364423z" style="fill:rgb(83,212,212)"/><path d="M33.82386380250317,-21.44437628369147L29.940794182867545,-29.66291326761793L28.366245683857205,-30.6935223105835z" style="fill:rgb(32,47,158)"/><path d="M-37.16732162245437,16.05528736036424L-41.445850166717946,9.94121463780544L-37.00282321913419,17.87779170039021z" style="fill:rgb(246,166,149)"/><path d="M-37.1778553161695,14.192811929077902L-41.60598137218044,6.256801209866622L-41.6034104556247,8.119273201228525z" style="fill:rgb(247,161,155)"/><path d="M36.60014243461798,-19.06159004360844L31.39555671153863,-28.527826357891218L35.274513532501814,-20.30305258006835z" style="fill:rgb(24,55,146)"/><path d="M35.274513532501814,-20.30305258006835L31.39555671153863,-28.527826357891218L29.940794182867545,-29.66291326761793z" style="fill:rgb(28,51,152)"/><path d="M-160.212315783337,44.37283852784888L-157.49949443938826,74.0457505842025L-155.9023954916272,78.99727724919335z" style="fill:rgb(83,212,212)"/><path d="M-37.00282321913419,17.87779170039021L-41.13303690337176,11.715335405425352L-36.68413583726934,19.653038811210564z" style="fill:rgb(245,172,143)"/><path d="M-37.16732162245437,16.05528736036424L-41.6034104556247,8.119273201228525L-41.445850166717946,9.94121463780544z" style="fill:rgb(246,166,149)"/><path d="M37.79491184723183,-17.72425402033363L32.72423489117084,-27.29207562886181L36.60014243461798,-19.06159004360844z" style="fill:rgb(20,59,140)"/><path d="M36.60014243461798,-19.06159004360844L32.72423489117084,-27.29207562886181L31.39555671153863,-28.527826357891218z" style="fill:rgb(24,55,146)"/><path d="M-36.68413583726934,19.653038811210564L-40.66533200155731,13.434457296139854L-36.21165414791345,21.373847718554707z" style="fill:rgb(244,177,137)"/><path d="M-37.00282321913419,17.87779170039021L-41.445850166717946,9.94121463780544L-41.13303690337176,11.715335405425352z" style="fill:rgb(245,172,143)"/><path d="M38.85341904213517,-16.295732416424276L33.92096751396374,-25.959899907372268L37.79491184723183,-17.72425402033363z" style="fill:rgb(17,63,135)"/><path d="M37.79491184723183,-17.72425402033363L33.92096751396374,-25.959899907372268L32.72423489117084,-27.29207562886181z" style="fill:rgb(20,59,140)"/><path d="M-36.21165414791345,21.373847718554707L-40.04368062366718,15.091538176765257L-35.58635976877299,23.033176037827815z" style="fill:rgb(242,182,131)"/><path d="M-36.68413583726934,19.653038811210564L-41.13303690337176,11.715335405425352L-40.66533200155731,13.434457296139854z" style="fill:rgb(244,177,137)"/><path d="M39.77073248148444,-14.781115133020347L34.98033033789009,-24.53595453473716L38.85341904213517,-16.295732416424276z" style="fill:rgb(14,67,129)"/><path d="M38.85341904213517,-16.295732416424276L34.98033033789009,-24.53595453473716L33.92096751396374,-25.959899907372268z" style="fill:rgb(17,63,135)"/><path d="M-35.58635976877299,23.033176037827815L-39.269643462970286,16.679683983935348L-34.80983885621217,24.624125604583202z" style="fill:rgb(240,187,125)"/><path d="M-36.21165414791345,21.373847718554707L-40.66533200155731,13.434457296139854L-40.04368062366718,15.091538176765257z" style="fill:rgb(242,182,131)"/><path d="M-84.34183840794545,61.293122731311016L-82.90006343220445,60.97266954165871L-76.4076345658354,-25.338926966648895z" style="fill:rgb(83,212,212)"/><path d="M40.54241579549947,-13.185899683192874L35.89738090036497,-23.02530853632624L39.77073248148444,-14.781115133020347z" style="fill:rgb(12,72,123)"/><path d="M-82.90006343220445,60.97266954165871L-81.46830356136003,60.72709547041507L-75.07137932017862,-25.790126155918486zM-81.46830356136003,60.72709547041507L-80.05193097413711,60.557415281137004L-73.74046536193534,-26.300930288765244zM-80.05193097413711,60.557415281137004L-78.65632143796536,60.46442318110567L-72.42042371236933,-26.869272125077654z" style="fill:rgb(83,212,212)"/><path d="M39.77073248148444,-14.781115133020347L35.89738090036497,-23.02530853632624L34.98033033789009,-24.53595453473716z" style="fill:rgb(14,67,129)"/><path d="M-78.65632143796536,60.46442318110567L-77.28676922108407,60.4485689558901L-71.11672725440114,-27.492795353540227z" style="fill:rgb(83,212,212)"/><path d="M-35.58635976877299,23.033176037827815L-40.04368062366718,15.091538176765257L-39.269643462970286,16.679683983935348z" style="fill:rgb(240,187,125)"/><path d="M-77.28676922108407,60.4485689558901L-75.94848376709385,60.510075620130294L-69.8347647347942,-28.168937317350274zM-160.212315783337,44.37283852784888L-155.9023954916272,78.99727724919335L-84.34183840794545,61.293122731311016zM-75.94848376709385,60.510075620130294L-74.64659493561106,60.64888183404236L-68.57984337748337,-28.894895160612474zM59.67145548821097,45.02514052080548L53.123795802440505,-74.96948392544749L53.02672085541051,-75.92254265345227zM59.65400822170954,43.793613538365676L53.30887077087376,-74.0422584196437L53.123795802440505,-74.96948392544749zM-74.64659493561106,60.64888183404236L-73.38615276406576,60.86463017133265L-67.35717994147281,-29.667646429554345zM59.73564238044409,42.545590189147084L53.58149070098621,-73.14457146483049L53.30887077087376,-74.0422584196437zM59.915718113074156,41.28590630077154L53.94088321653526,-72.28004686248549L53.58149070098621,-73.14457146483049z" style="fill:rgb(83,212,212)"/><path d="M40.54241579549947,-13.185899683192874L36.66766869507353,-21.43343295077237L35.89738090036497,-23.02530853632624z" style="fill:rgb(12,72,123)"/><path d="M-73.38615276406576,60.86463017133265L-72.17200673166099,61.1566788401503L-66.17178063262094,-30.483969461832324zM60.19326241849334,40.019451564183754L54.385889771174654,-71.45217732540678L53.94088321653526,-72.28004686248549zM60.56689597993989,38.75108403783091L54.91503587188225,-70.66434452232625L54.385889771174654,-71.45217732540678zM-72.17200673166099,61.1566788401503L-71.00893841410866,61.524127741814176L-65.02855368033565,-31.340468047370514zM61.03492468000315,37.48564399652993L55.526500065270426,-69.91979174652204L54.91503587188225,-70.66434452232625zM-71.00893841410866,61.524127741814176L-69.90153247934198,61.96577510629494L-63.93218879371104,-32.23356737097242zM61.59531202007031,36.22792853808432L56.218112642728784,-69.22162530411391L55.526500065270426,-69.91979174652204zM62.245688012677185,34.98270545572675L56.98736368180705,-68.57274466438552L56.218112642728784,-69.22162530411391zM-69.90153247934198,61.96577510629494L-68.8541876607269,62.480128019015055L-62.88716146919975,-33.159533003912934zM62.983357265379766,33.754629850643056L57.83144497204302,-67.97592097645237L56.98736368180705,-68.57274466438552zM-68.8541876607269,62.480128019015055L-67.87110009598183,63.065428961655L-61.897710741249455,-34.114515899892744zM63.80536150654231,32.54831429397072L58.74719544739396,-67.43369900726718L57.83144497204302,-67.97592097645237zM-67.87110009598183,63.065428961655L-66.95627527638626,63.71963512915414L-60.96785068525512,-35.0945393649004zM64.70841441789115,31.368252690678922L59.731146915333284,-66.94841559820601L58.74719544739396,-67.43369900726718zM65.68895836686552,30.218828804042904L60.77954504287286,-66.52219741115583L59.731146915333284,-66.94841559820601zM-66.95627527638626,63.71963512915414L-66.11345631361434,64.44042978390245L-60.10130190315281,-36.095535730427024zM66.74318888736039,29.104291604948276L61.88833709168769,-66.15693798620784L60.77954504287286,-66.52219741115583zM-66.11345631361434,64.44042978390245L-65.3461555883593,65.22523692018363L-59.30152004471368,-37.11335859778515zM67.86704229614205,28.02877239789564L63.053195766828786,-65.85428342081656L61.88833709168769,-66.15693798620784zM-65.3461555883593,65.22523692018363L-64.65762425132694,66.07121780017393L-58.57166895249212,-38.143810870843474zM69.056217633158,26.996230039755176L64.2695487074427,-65.6156406172792L63.053195766828786,-65.85428342081656zM-64.65762425132694,66.07121780017393L-64.05079421143239,66.97524081739982L-57.9145738353697,-39.1826362149586zM70.30620971000374,26.010476442130138L65.53257025465153,-65.44214742304L64.2695487074427,-65.6156406172792z" style="fill:rgb(83,212,212)"/><path d="M-79.43416543800174,69.04732590702542L-155.9023954916272,78.99727724919335L-150.52674456013443,86.47498023353542z" style="fill:rgb(127,37,217)"/><path d="M71.61229380393613,25.075155968383353L66.83720222640638,-65.33465743224843L65.53257025465153,-65.44214742304zM-64.05079421143239,66.97524081739982L-63.528341690692145,67.9339884952783L-57.33277362670307,-40.22559562028321zM72.96954038895058,24.193707738208353L68.17823096218443,-65.29377130403572L66.83720222640638,-65.33465743224843zM-63.528341690692145,67.9339884952783L-63.09260093964649,68.94385720477439L-56.828457077022506,-41.2684167023433zM74.37289759444143,23.369393461394164L69.5502087702128,-65.31980764409782L68.17823096218443,-65.29377130403572zM-63.09260093964649,68.94385720477439L-62.74560740880301,70.00103584195946L-56.40350031925532,-42.30686825534644zM75.81709464615481,22.605273535893122L70.94757583235207,-65.4127827966629L69.5502087702128,-65.31980764409782zM-62.74560740880301,70.00103584195946L-62.48901398296712,71.10149722051911L-56.05939992005341,-43.33675833065245zM77.2967638263482,21.90419052768035L72.36462823080696,-65.5724411351537L70.94757583235207,-65.4127827966629zM78.80639723052187,21.268753349916583L73.79555991080224,-65.79825487878256L72.36462823080696,-65.5724411351537zM-62.48901398296712,71.10149722051911L-62.324187181033395,72.24102448631325L-55.79736636856408,-44.35393945729252zM80.34038564328885,20.701383500145905L75.23445959732852,-66.08936420249113L73.79555991080224,-65.79825487878256zM-62.324187181033395,72.24102448631325L-62.25207145616451,73.4151813769329L-55.618211353451,-45.3543374074441zM81.89299181262444,20.204216558504797L76.67541678478067,-66.44466373530005L75.23445959732852,-66.08936420249113zM-62.25207145616451,73.4151813769329L-62.273263487893566,74.61940139176401L-55.52241751282003,-46.33399235012304z" style="fill:rgb(83,212,212)"/><path d="M-79.43416543800174,69.04732590702542L-84.34183840794545,61.293122731311016L-155.9023954916272,78.99727724919335z" style="fill:rgb(127,37,217)"/><path d="M83.45846564315734,19.779165348012242L150.60304871890045,-86.310497862518L76.67541678478067,-66.44466373530005z" style="fill:rgb(83,212,212)"/><path d="M-78.00186180379191,68.73247128054527L-84.34183840794545,61.293122731311016L-79.43416543800174,69.04732590702542z" style="fill:rgb(123,36,216)"/><path d="M-76.57918867728912,68.49241172166802L-82.90006343220445,60.97266954165871L-78.00186180379191,68.73247128054527z" style="fill:rgb(116,34,214)"/><path d="M-75.17147622063698,68.32814073608593L-81.46830356136003,60.72709547041507L-76.57918867728912,68.49241172166802z" style="fill:rgb(108,33,211)"/><path d="M-73.7840734642153,68.2404265713968L-80.05193097413711,60.557415281137004L-75.17147622063698,68.32814073608593z" style="fill:rgb(101,32,208)"/><path d="M-72.42223992063326,68.22971217305847L-78.65632143796536,60.46442318110567L-73.7840734642153,68.2404265713968z" style="fill:rgb(94,32,205)"/><path d="M-71.09117063882566,68.296185481434L-77.28676922108407,60.4485689558901L-72.42223992063326,68.22971217305847z" style="fill:rgb(86,32,201)"/><path d="M-78.00186180379191,68.73247128054527L-82.90006343220445,60.97266954165871L-84.34183840794545,61.293122731311016z" style="fill:rgb(123,36,216)"/><path d="M-76.57918867728912,68.49241172166802L-81.46830356136003,60.72709547041507L-82.90006343220445,60.97266954165871z" style="fill:rgb(116,34,214)"/><path d="M-69.79595407781156,68.4397693024175L-75.94848376709385,60.510075620130294L-71.09117063882566,68.296185481434z" style="fill:rgb(79,32,198)"/><path d="M-75.17147622063698,68.32814073608593L-80.05193097413711,60.557415281137004L-81.46830356136003,60.72709547041507z" style="fill:rgb(108,33,211)"/><path d="M-68.54161444468822,68.66008610505645L-74.64659493561106,60.64888183404236L-69.79595407781156,68.4397693024175z" style="fill:rgb(73,33,193)"/><path d="M83.45846564315734,19.779165348012242L153.91457709699117,-82.26128557096293L150.60304871890045,-86.310497862518z" style="fill:rgb(83,212,212)"/><path d="M-73.7840734642153,68.2404265713968L-78.65632143796536,60.46442318110567L-80.05193097413711,60.557415281137004z" style="fill:rgb(101,32,208)"/><path d="M-72.42223992063326,68.22971217305847L-77.28676922108407,60.4485689558901L-78.65632143796536,60.46442318110567z" style="fill:rgb(94,32,205)"/><path d="M-67.33299188536623,68.95647452282498L-73.38615276406576,60.86463017133265L-68.54161444468822,68.66008610505645z" style="fill:rgb(66,34,189)"/><path d="M-71.09117063882566,68.296185481434L-75.94848376709385,60.510075620130294L-77.28676922108407,60.4485689558901z" style="fill:rgb(86,32,201)"/><path d="M-66.17483134861592,69.3280155364784L-72.17200673166099,61.1566788401503L-67.33299188536623,68.95647452282498z" style="fill:rgb(60,35,184)"/><path d="M-69.79595407781156,68.4397693024175L-74.64659493561106,60.64888183404236L-75.94848376709385,60.510075620130294z" style="fill:rgb(79,32,198)"/><path d="M-65.07170143420356,69.77348859001222L-71.00893841410866,61.524127741814176L-66.17483134861592,69.3280155364784z" style="fill:rgb(54,37,179)"/><path d="M-68.54161444468822,68.66008610505645L-73.38615276406576,60.86463017133265L-74.64659493561106,60.64888183404236z" style="fill:rgb(73,33,193)"/><path d="M-64.02797819898778,70.29138374223228L-69.90153247934198,61.96577510629494L-65.07170143420356,69.77348859001222z" style="fill:rgb(48,39,174)"/><path d="M-67.33299188536623,68.95647452282498L-72.17200673166099,61.1566788401503L-73.38615276406576,60.86463017133265z" style="fill:rgb(66,34,189)"/><path d="M83.45846564315734,19.779165348012242L158.03211163632042,-76.15421806979631L153.91457709699117,-82.26128557096293z" style="fill:rgb(83,212,212)"/><path d="M-63.04785567663786,70.87992691983865L-68.8541876607269,62.480128019015055L-64.02797819898778,70.29138374223228z" style="fill:rgb(42,41,169)"/><path d="M167.4558596457982,-54.0273205260505L166.80619877747299,-55.58244528547747L169.76104040364177,-46.80300792652149z" style="fill:rgb(246,166,149)"/><path d="M-66.17483134861592,69.3280155364784L-71.00893841410866,61.524127741814176L-72.17200673166099,61.1566788401503z" style="fill:rgb(60,35,184)"/><path d="M167.4558596457982,-54.0273205260505L164.50570860187725,-62.795762109771005L166.80619877747299,-55.58244528547747z" style="fill:rgb(246,166,149)"/><path d="M-62.13531017870358,71.53705924395099L-67.87110009598183,63.065428961655L-63.04785567663786,70.87992691983865z" style="fill:rgb(37,44,163)"/><path d="M-65.07170143420356,69.77348859001222L-69.90153247934198,61.96577510629494L-71.00893841410866,61.524127741814176z" style="fill:rgb(54,37,179)"/><path d="M-64.02797819898778,70.29138374223228L-68.8541876607269,62.480128019015055L-69.90153247934198,61.96577510629494z" style="fill:rgb(48,39,174)"/><path d="M-61.29407799572025,72.26045003747547L-66.95627527638626,63.71963512915414L-62.13531017870358,71.53705924395099z" style="fill:rgb(32,47,158)"/><path d="M-63.04785567663786,70.87992691983865L-67.87110009598183,63.065428961655L-68.8541876607269,62.480128019015055z" style="fill:rgb(42,41,169)"/><path d="M-60.52766162714305,73.04751000293938L-66.11345631361434,64.44042978390245L-61.29407799572025,72.26045003747547z" style="fill:rgb(28,51,152)"/><path d="M-62.13531017870358,71.53705924395099L-66.95627527638626,63.71963512915414L-67.87110009598183,63.065428961655z" style="fill:rgb(37,44,163)"/><path d="M-59.839304377474534,73.89538814274769L-65.3461555883593,65.22523692018363L-60.52766162714305,73.04751000293938z" style="fill:rgb(24,55,146)"/><path d="M83.45846564315734,19.779165348012242L161.57201792254514,-69.6598052333555L158.03211163632042,-76.15421806979631z" style="fill:rgb(83,212,212)"/><path d="M-61.29407799572025,72.26045003747547L-66.11345631361434,64.44042978390245L-66.95627527638626,63.71963512915414z" style="fill:rgb(32,47,158)"/><path d="M-59.231933613504545,74.80094261394505L-64.65762425132694,66.07121780017393L-59.839304377474534,73.89538814274769z" style="fill:rgb(20,59,140)"/><path d="M-60.52766162714305,73.04751000293938L-65.3461555883593,65.22523692018363L-66.11345631361434,64.44042978390245z" style="fill:rgb(28,51,152)"/><path d="M-46.93879645796897,140.50310592220174L-41.6034104556247,8.119273201228525L-41.60598137218044,6.256801209866622z" style="fill:rgb(83,212,212)"/><path d="M-59.839304377474534,73.89538814274769L-64.65762425132694,66.07121780017393L-65.3461555883593,65.22523692018363z" style="fill:rgb(24,55,146)"/><path d="M169.76104040364177,-46.80300792652149L168.44830735729585,-48.04291964278437L171.4128638159136,-39.25613009018416zM169.76104040364177,-46.80300792652149L166.80619877747299,-55.58244528547747L168.44830735729585,-48.04291964278437z" style="fill:rgb(247,161,155)"/><path d="M-46.852469806924596,140.50029654743435L-41.445850166717946,9.94121463780544L-41.6034104556247,8.119273201228525zM67.86704229614205,28.02877239789564L69.056217633158,26.996230039755176L63.053195766828786,-65.85428342081656zM66.74318888736039,29.104291604948276L67.86704229614205,28.02877239789564L61.88833709168769,-66.15693798620784z" style="fill:rgb(83,212,212)"/><path d="M-59.231933613504545,74.80094261394505L-64.05079421143239,66.97524081739982L-64.65762425132694,66.07121780017393z" style="fill:rgb(20,59,140)"/><path d="M69.056217633158,26.996230039755176L70.30620971000374,26.010476442130138L64.2695487074427,-65.6156406172792zM65.68895836686552,30.218828804042904L66.74318888736039,29.104291604948276L60.77954504287286,-66.52219741115583zM70.30620971000374,26.010476442130138L71.61229380393613,25.075155968383353L65.53257025465153,-65.44214742304zM64.70841441789115,31.368252690678922L65.68895836686552,30.218828804042904L59.731146915333284,-66.94841559820601zM71.61229380393613,25.075155968383353L72.96954038895058,24.193707738208353L66.83720222640638,-65.33465743224843zM63.80536150654231,32.54831429397072L64.70841441789115,31.368252690678922L58.74719544739396,-67.43369900726718zM72.96954038895058,24.193707738208353L74.37289759444143,23.369393461394164L68.17823096218443,-65.29377130403572zM62.983357265379766,33.754629850643056L63.80536150654231,32.54831429397072L57.83144497204302,-67.97592097645237zM74.37289759444143,23.369393461394164L75.81709464615481,22.605273535893122L69.5502087702128,-65.31980764409782zM62.245688012677185,34.98270545572675L62.983357265379766,33.754629850643056L56.98736368180705,-68.57274466438552zM75.81709464615481,22.605273535893122L77.2967638263482,21.90419052768035L70.94757583235207,-65.4127827966629zM61.59531202007031,36.22792853808432L62.245688012677185,34.98270545572675L56.218112642728784,-69.22162530411391zM77.2967638263482,21.90419052768035L78.80639723052187,21.268753349916583L72.36462823080696,-65.5724411351537zM61.03492468000315,37.48564399652993L61.59531202007031,36.22792853808432L55.526500065270426,-69.91979174652204zM-46.59379141631451,140.49191429063993L-41.13303690337176,11.715335405425352L-41.445850166717946,9.94121463780544zM78.80639723052187,21.268753349916583L80.34038564328885,20.701383500145905L73.79555991080224,-65.79825487878256zM60.56689597993989,38.75108403783091L61.03492468000315,37.48564399652993L54.91503587188225,-70.66434452232625zM80.34038564328885,20.701383500145905L81.89299181262444,20.204216558504797L75.23445959732852,-66.08936420249113zM60.19326241849334,40.019451564183754L60.56689597993989,38.75108403783091L54.385889771174654,-71.45217732540678zM83.45846564315734,19.779165348012242L164.50570860187725,-62.795762109771005L161.57201792254514,-69.6598052333555zM81.89299181262444,20.204216558504797L83.45846564315734,19.779165348012242L76.67541678478067,-66.44466373530005zM59.915718113074156,41.28590630077154L60.19326241849334,40.019451564183754L53.94088321653526,-72.28004686248549zM-46.163657211343185,140.47796949518778L-40.66533200155731,13.434457296139854L-41.13303690337176,11.715335405425352zM59.73564238044409,42.545590189147084L59.915718113074156,41.28590630077154L53.58149070098621,-73.14457146483049zM59.65400822170954,43.793613538365676L59.73564238044409,42.545590189147084L53.30887077087376,-74.0422584196437zM-65.90061570420771,139.6098577701696L-46.93879645796897,140.50310592220174L-37.361287158396784,-100.59755106185705zM59.67145548821097,45.02514052080548L59.65400822170954,43.793613538365676L53.123795802440505,-74.96948392544749zM-45.563601728767004,140.45853225524465L-40.04368062366718,15.091538176765257L-40.66533200155731,13.434457296139854zM-44.795735200959925,140.4336429216816L-39.269643462970286,16.679683983935348L-40.04368062366718,15.091538176765257zM-43.8627638916747,140.40340608515402L-38.34541616066898,18.19219956365927L-39.269643462970286,16.679683983935348zM83.45846564315734,19.779165348012242L166.80619877747299,-55.58244528547747L164.50570860187725,-62.795762109771005z" style="fill:rgb(83,212,212)"/><path d="M171.4128638159136,-39.25613009018416L169.40923766481237,-40.203016916772846L172.38866270046452,-31.41266384755561zM171.4128638159136,-39.25613009018416L168.44830735729585,-48.04291964278437L169.40923766481237,-40.203016916772846z" style="fill:rgb(247,155,161)"/><path d="M-42.767996484175576,140.3679191833408L-37.27381773617117,19.62262617045602L-38.34541616066898,18.19219956365927zM-41.515316833803986,140.3273234906688L-36.0582985307161,20.964756720959688L-37.27381773617117,19.62262617045602zM-40.10918134083386,140.28174034018994L-34.70293686594027,22.212681181726563L-36.0582985307161,20.964756720959688zM-38.554607862428824,140.2313662304759L-33.212463333084365,23.36080880328158L-34.70293686594027,22.212681181726563zM83.45846564315734,19.779165348012242L168.44830735729585,-48.04291964278437L166.80619877747299,-55.58244528547747zM-36.85719207993888,140.17634413232304L-31.59218798833757,24.403917035658043L-33.212463333084365,23.36080880328158z" style="fill:rgb(83,212,212)"/><path d="M172.38866270046452,-31.41266384755561L169.66868510492938,-32.09136863172857L172.66839832034736,-23.301363440573947z" style="fill:rgb(246,149,166)"/><path d="M-35.02010981238987,140.01862337493262L-29.84806507801256,25.33716560379107L-31.59218798833757,24.403917035658043z" style="fill:rgb(83,212,212)"/><path d="M172.38866270046452,-31.41266384755561L169.40923766481237,-40.203016916772846L169.66868510492938,-32.09136863172857z" style="fill:rgb(246,149,166)"/><path d="M-33.052901598338835,139.8440966437669L-27.986625367849488,26.156140895994817L-29.84806507801256,25.33716560379107zM83.45846564315734,19.779165348012242L169.40923766481237,-40.203016916772846L168.44830735729585,-48.04291964278437zM-30.962952927247166,139.6586908821898L-26.014984095139816,26.85685889374394L-27.986625367849488,26.156140895994817zM-28.75798187663096,139.4630870595375L-23.94078474177552,27.435846007879583L-26.014984095139816,26.85685889374394zM43.12956616008531,120.22927880007985L38.21172847228599,-14.376336820568467L38.20131184787083,-12.473380325827458zM-26.44614570460769,139.25798277287547L-21.77222279108075,27.890098408111385L-23.94078474177552,27.435846007879583zM42.85894515307332,120.34124730004407L38.20131184787083,-12.473380325827458L38.029683687398816,-10.529535350955094zM-24.03446574014911,138.96525912626174L-19.517969316379546,28.2171605848454L-21.77222279108075,27.890098408111385zM42.40910854792012,120.52737447849192L38.029683687398816,-10.529535350955094L37.69667950310292,-8.552568041239107z" style="fill:rgb(83,212,212)"/><path d="M172.66839832034736,-23.301363440573947L169.20946695350756,-23.73940018786517L172.23496887012587,-14.953745890459588zM172.66839832034736,-23.301363440573947L169.66868510492938,-32.09136863172857L169.20946695350756,-23.73940018786517z" style="fill:rgb(245,143,172)"/><path d="M83.45846564315734,19.779165348012242L169.66868510492938,-32.09136863172857L169.40923766481237,-40.203016916772846zM-21.532840731407738,138.60622537887028L-17.187160769981126,28.415120103650363L-19.517969316379546,28.2171605848454zM41.78189219186076,120.7868971086345L37.69667950310292,-8.552568041239107L37.20285790362823,-6.550472042396908z" style="fill:rgb(83,212,212)"/><path d="M79.60697298113004,30.995709966350475L74.37289759444143,23.369393461394164L78.17473452149625,31.753694643182026z" style="fill:rgb(168,53,222)"/><path d="M81.07465862074201,30.300856833187673L75.81709464615481,22.605273535893122L79.60697298113004,30.995709966350475z" style="fill:rgb(160,49,222)"/><path d="M78.17473452149625,31.753694643182026L72.96954038895058,24.193707738208353L76.78328352801879,32.571989707110866z" style="fill:rgb(175,57,222)"/><path d="M82.57233908893939,29.671721837260876L77.2967638263482,21.90419052768035L81.07465862074201,30.300856833187673z" style="fill:rgb(153,46,222)"/><path d="M76.78328352801879,32.571989707110866L71.61229380393613,25.075155968383353L75.43784854318812,33.4475555898584z" style="fill:rgb(181,61,221)"/><path d="M84.09444318947567,29.11070307693849L78.80639723052187,21.268753349916583L82.57233908893939,29.671721837260876z" style="fill:rgb(146,43,221)"/><path d="M75.43784854318812,33.4475555898584L70.30620971000374,26.010476442130138L74.14342504403176,34.377150734631z" style="fill:rgb(188,65,220)"/><path d="M85.63527988386089,28.619915379254902L80.34038564328885,20.701383500145905L84.09444318947567,29.11070307693849z" style="fill:rgb(138,40,220)"/><path d="M-18.95195736314504,138.2358222848356L-14.789339838232571,28.482626726449734L-17.187160769981126,28.415120103650363z" style="fill:rgb(83,212,212)"/><path d="M74.14342504403176,34.377150734631L69.056217633158,26.996230039755176L72.90491559244845,35.35735309630447z" style="fill:rgb(194,70,219)"/><path d="M40.979826915506216,121.11875918027015L37.20285790362823,-6.550472042396908L36.54946591168152,-4.531420714924229z" style="fill:rgb(83,212,212)"/><path d="M87.189130226109,28.20124703570658L81.89299181262444,20.204216558504797L85.63527988386089,28.619915379254902z" style="fill:rgb(131,38,218)"/><path d="M72.90491559244845,35.35735309630447L67.86704229614205,28.02877239789564L71.72699861963355,36.38454455834322z" style="fill:rgb(200,75,217)"/><path d="M71.72699861963355,36.38454455834322L66.74318888736039,29.104291604948276L70.61414338303734,37.45492381726727z" style="fill:rgb(206,80,215)"/><path d="M40.00614129500555,121.52162346295793L36.54946591168152,-4.531420714924229L35.738453833679486,-2.5037512989360096zM-16.30163673006945,137.8554420467961L-12.334438186498344,28.41891643181596L-14.789339838232571,28.482626726449734z" style="fill:rgb(83,212,212)"/><path d="M70.61414338303734,37.45492381726727L65.68895836686552,30.218828804042904L69.57059563503324,38.564549238226775z" style="fill:rgb(212,85,213)"/><path d="M69.57059563503324,38.564549238226775L64.70841441789115,31.368252690678922L68.60039407101489,39.7093134736465z" style="fill:rgb(217,91,210)"/><path d="M38.86477056486659,121.99387409790398L35.738453833679486,-2.5037512989360096L34.77250238201634,-0.47591540528089205zM-13.59178592464483,137.44521870765135L-9.83271737356613,28.22381833116898L-12.334438186498344,28.41891643181596z" style="fill:rgb(83,212,212)"/><path d="M79.60697298113004,30.995709966350475L75.81709464615481,22.605273535893122L74.37289759444143,23.369393461394164z" style="fill:rgb(168,53,222)"/><path d="M81.07465862074201,30.300856833187673L77.2967638263482,21.90419052768035L75.81709464615481,22.605273535893122z" style="fill:rgb(160,49,222)"/><path d="M78.17473452149625,31.753694643182026L74.37289759444143,23.369393461394164L72.96954038895058,24.193707738208353z" style="fill:rgb(175,57,222)"/><path d="M82.57233908893939,29.671721837260876L78.80639723052187,21.268753349916583L77.2967638263482,21.90419052768035z" style="fill:rgb(153,46,222)"/><path d="M76.78328352801879,32.571989707110866L72.96954038895058,24.193707738208353L71.61229380393613,25.075155968383353z" style="fill:rgb(181,61,221)"/><path d="M84.09444318947567,29.11070307693849L80.34038564328885,20.701383500145905L78.80639723052187,21.268753349916583z" style="fill:rgb(146,43,221)"/><path d="M75.43784854318812,33.4475555898584L71.61229380393613,25.075155968383353L70.30620971000374,26.010476442130138z" style="fill:rgb(188,65,220)"/><path d="M68.60039407101489,39.7093134736465L63.80536150654231,32.54831429397072L67.70729927900953,40.88497571523145z" style="fill:rgb(222,96,207)"/><path d="M85.63527988386089,28.619915379254902L81.89299181262444,20.204216558504797L80.34038564328885,20.701383500145905z" style="fill:rgb(138,40,220)"/><path d="M74.14342504403176,34.377150734631L70.30620971000374,26.010476442130138L69.056217633158,26.996230039755176z" style="fill:rgb(194,70,219)"/><path d="M37.56030906151152,122.53361284131655L34.77250238201634,-0.47591540528089205L33.654991996568974,1.543570930068185zM-10.832012672422783,136.90048527958854L-7.294702785520806,27.897759513435904L-9.83271737356613,28.22381833116898z" style="fill:rgb(83,212,212)"/><path d="M87.189130226109,28.20124703570658L83.45846564315734,19.779165348012242L81.89299181262444,20.204216558504797z" style="fill:rgb(131,38,218)"/><path d="M72.90491559244845,35.35735309630447L69.056217633158,26.996230039755176L67.86704229614205,28.02877239789564z" style="fill:rgb(200,75,217)"/><path d="M67.70729927900953,40.88497571523145L62.983357265379766,33.754629850643056L66.89483072522778,42.08716707316862z" style="fill:rgb(226,102,203)"/><path d="M71.72699861963355,36.38454455834322L67.86704229614205,28.02877239789564L66.74318888736039,29.104291604948276z" style="fill:rgb(206,80,215)"/><path d="M36.098011240511575,123.13864173528815L33.654991996568974,1.543570930068185L32.390017879351305,3.54614899524412zM83.45846564315734,19.779165348012242L169.20946695350756,-23.73940018786517L169.66868510492938,-32.09136863172857zM-8.034744132470735,136.34836025385536L-4.7311579408821975,27.441760908326447L-7.294702785520806,27.897759513435904z" style="fill:rgb(83,212,212)"/><path d="M70.61414338303734,37.45492381726727L66.74318888736039,29.104291604948276L65.68895836686552,30.218828804042904z" style="fill:rgb(212,85,213)"/><path d="M66.89483072522778,42.08716707316862L62.245688012677185,34.98270545572675L66.1662375219305,43.31141257829694z" style="fill:rgb(230,108,199)"/><path d="M34.483757647685266,123.80655794825323L32.390017879351305,3.54614899524412L30.982366817904246,5.523280449240454z" style="fill:rgb(83,212,212)"/><path d="M69.57059563503324,38.564549238226775L65.68895836686552,30.218828804042904L64.70841441789115,31.368252690678922z" style="fill:rgb(217,91,210)"/><path d="M-5.210885816763674,135.79098509993008L-2.1530200041257794,26.857474928219922L-4.7311579408821975,27.441760908326447z" style="fill:rgb(83,212,212)"/><path d="M66.1662375219305,43.31141257829694L61.59531202007031,36.22792853808432L65.52444205381747,44.5531101744829z" style="fill:rgb(234,114,195)"/><path d="M32.72406359038695,124.53464072616619L30.982366817904246,5.523280449240454L29.437534747506884,7.466455228295569z" style="fill:rgb(83,212,212)"/><path d="M68.60039407101489,39.7093134736465L64.70841441789115,31.368252690678922L63.80536150654231,32.54831429397072z" style="fill:rgb(222,96,207)"/><path d="M-2.3714984693412715,135.23053129666266L0.42866195763478354,26.14714619917768L-2.1530200041257794,26.857474928219922z" style="fill:rgb(83,212,212)"/><path d="M65.52444205381747,44.5531101744829L61.03492468000315,37.48564399652993L64.97210996076066,45.8076169760279z" style="fill:rgb(237,120,191)"/><path d="M30.82336936208922,125.22134729327037L29.437534747506884,7.466455228295569L27.761639402829466,9.36730332693559z" style="fill:rgb(83,212,212)"/><path d="M172.23496887012587,-14.953745890459588L168.01766514889803,-15.181265264310476L171.0746596299539,-6.404024120186202z" style="fill:rgb(244,137,177)"/><path d="M67.70729927900953,40.88497571523145L63.80536150654231,32.54831429397072L62.983357265379766,33.754629850643056z" style="fill:rgb(226,102,203)"/><path d="M0.47218835424457023,134.517277864448L3.002781094144962,25.313608433615247L0.42866195763478354,26.14714619917768z" style="fill:rgb(83,212,212)"/><path d="M172.23496887012587,-14.953745890459588L169.20946695350756,-23.73940018786517L168.01766514889803,-15.181265264310476z" style="fill:rgb(244,137,177)"/><path d="M28.79195288199291,125.9495747293203L27.761639402829466,9.36730332693559L25.961472084399443,11.217565407957004zM43.21989403817687,120.19191820375478L63.26003676909196,110.34461230963825L50.481900403825996,-122.24345432004053zM3.3082662910554506,133.80592340685664L5.558227416739267,24.36028171686508L3.002781094144962,25.313608433615247z" style="fill:rgb(83,212,212)"/><path d="M66.89483072522778,42.08716707316862L62.983357265379766,33.754629850643056L62.245688012677185,34.98270545572675z" style="fill:rgb(230,108,199)"/><path d="M64.97210996076066,45.8076169760279L60.56689597993989,38.75108403783091L64.51156299209049,47.07017646095886z" style="fill:rgb(240,125,187)"/><path d="M26.638186098440453,126.72167521187974L25.961472084399443,11.217565407957004L24.04442446654482,13.009183142148286zM6.1254815170730454,133.09929875290143L8.08395572002234,23.291163778838357L5.558227416739267,24.36028171686508z" style="fill:rgb(83,212,212)"/><path d="M167.31113487117125,8.560118315206516L83.45846564315734,19.779165348012242L87.189130226109,28.20124703570658z" style="fill:rgb(127,37,217)"/><path d="M24.3707794194176,127.53450494102664L24.04442446654482,13.009183142148286L22.018470568155053,14.734318899341261zM8.912616285856409,132.40022521670764L10.569051718862646,22.11079813309074L8.08395572002234,23.291163778838357zM21.99885147498337,128.38479998264108L22.018470568155053,14.734318899341261L19.89209313880216,16.38544797528552zM11.657296902301102,131.5862936360143L13.002764869163231,20.82424609872929L10.569051718862646,22.11079813309074z" style="fill:rgb(83,212,212)"/><path d="M66.1662375219305,43.31141257829694L62.245688012677185,34.98270545572675L61.59531202007031,36.22792853808432z" style="fill:rgb(234,114,195)"/><path d="M19.530656203961005,129.19002073081927L19.89209313880216,16.38544797528552L17.674316560406385,17.955320542183998zM14.348942365304852,130.76709410407685L15.374586324899898,19.437075999716214L13.002764869163231,20.82424609872929zM16.976915134306168,129.96725275981885L17.674316560406385,17.955320542183998L15.374586324899898,19.437075999716214z" style="fill:rgb(83,212,212)"/><path d="M64.51156299209049,47.07017646095886L60.19326241849334,40.019451564183754L64.14482580970764,48.33600179491815z" style="fill:rgb(242,131,182)"/><path d="M65.52444205381747,44.5531101744829L61.59531202007031,36.22792853808432L61.03492468000315,37.48564399652993z" style="fill:rgb(237,120,191)"/><path d="M64.14482580970764,48.33600179491815L59.915718113074156,41.28590630077154L63.87354277890977,49.60026699472048z" style="fill:rgb(244,137,177)"/><path d="M83.45846564315734,19.779165348012242L168.01766514889803,-15.181265264310476L169.20946695350756,-23.73940018786517z" style="fill:rgb(83,212,212)"/><path d="M64.97210996076066,45.8076169760279L61.03492468000315,37.48564399652993L60.56689597993989,38.75108403783091z" style="fill:rgb(240,125,187)"/><path d="M63.87354277890977,49.60026699472048L59.73564238044409,42.545590189147084L63.699079871944996,50.85810997569889z" style="fill:rgb(245,143,172)"/><path d="M64.51156299209049,47.07017646095886L60.56689597993989,38.75108403783091L60.19326241849334,40.019451564183754z" style="fill:rgb(242,131,182)"/><path d="M63.699079871944996,50.85810997569889L59.65400822170954,43.793613538365676L63.622383910787505,52.10465810812119z" style="fill:rgb(246,149,166)"/><path d="M64.14482580970764,48.33600179491815L60.19326241849334,40.019451564183754L59.915718113074156,41.28590630077154z" style="fill:rgb(244,137,177)"/><path d="M63.622383910787505,52.10465810812119L59.67145548821097,45.02514052080548L63.64406211143926,53.33508017861364z" style="fill:rgb(247,155,161)"/><path d="M63.87354277890977,49.60026699472048L59.915718113074156,41.28590630077154L59.73564238044409,42.545590189147084z" style="fill:rgb(245,143,172)"/><path d="M171.0746596299539,-6.404024120186202L166.0831285701604,-6.453771650565525L169.1773623461741,2.3109745018200103z" style="fill:rgb(242,131,182)"/><path d="M63.699079871944996,50.85810997569889L59.73564238044409,42.545590189147084L59.65400822170954,43.793613538365676z" style="fill:rgb(246,149,166)"/><path d="M171.0746596299539,-6.404024120186202L168.01766514889803,-15.181265264310476L166.0831285701604,-6.453771650565525z" style="fill:rgb(242,131,182)"/><path d="M83.45846564315734,19.779165348012242L166.0831285701604,-6.453771650565525L168.01766514889803,-15.181265264310476z" style="fill:rgb(83,212,212)"/><path d="M63.622383910787505,52.10465810812119L59.65400822170954,43.793613538365676L59.67145548821097,45.02514052080548z" style="fill:rgb(247,155,161)"/><path d="M-46.93879645796897,140.50310592220174L-46.852469806924596,140.50029654743435L-41.6034104556247,8.119273201228525zM-46.852469806924596,140.50029654743435L-46.59379141631451,140.49191429063993L-41.445850166717946,9.94121463780544z" style="fill:rgb(83,212,212)"/><path d="M167.31113487117125,8.560118315206516L164.18649007214125,-0.1930245545531539L83.45846564315734,19.779165348012242z" style="fill:rgb(127,37,217)"/><path d="M-46.59379141631451,140.49191429063993L-46.163657211343185,140.47796949518778L-41.13303690337176,11.715335405425352zM83.45846564315734,19.779165348012242L164.18649007214125,-0.1930245545531539L166.0831285701604,-6.453771650565525zM-46.163657211343185,140.47796949518778L-45.563601728767004,140.45853225524465L-40.66533200155731,13.434457296139854z" style="fill:rgb(83,212,212)"/><path d="M169.1773623461741,2.3109745018200103L164.18649007214125,-0.1930245545531539L167.31113487117125,8.560118315206516z" style="fill:rgb(240,125,187)"/><path d="M-45.563601728767004,140.45853225524465L-44.795735200959925,140.4336429216816L-40.04368062366718,15.091538176765257zM-44.795735200959925,140.4336429216816L-43.8627638916747,140.40340608515402L-39.269643462970286,16.679683983935348z" style="fill:rgb(83,212,212)"/><path d="M169.1773623461741,2.3109745018200103L166.0831285701604,-6.453771650565525L164.18649007214125,-0.1930245545531539z" style="fill:rgb(240,125,187)"/><path d="M-43.8627638916747,140.40340608515402L-42.767996484175576,140.3679191833408L-38.34541616066898,18.19219956365927zM-42.767996484175576,140.3679191833408L-41.515316833803986,140.3273234906688L-37.27381773617117,19.62262617045602zM-41.515316833803986,140.3273234906688L-40.10918134083386,140.28174034018994L-36.0582985307161,20.964756720959688zM-40.10918134083386,140.28174034018994L-38.554607862428824,140.2313662304759L-34.70293686594027,22.212681181726563zM-38.554607862428824,140.2313662304759L-36.85719207993888,140.17634413232304L-33.212463333084365,23.36080880328158zM-36.85719207993888,140.17634413232304L-35.02010981238987,140.01862337493262L-31.59218798833757,24.403917035658043zM-35.02010981238987,140.01862337493262L-33.052901598338835,139.8440966437669L-29.84806507801256,25.33716560379107zM-33.052901598338835,139.8440966437669L-30.962952927247166,139.6586908821898L-27.986625367849488,26.156140895994817zM-30.962952927247166,139.6586908821898L-28.75798187663096,139.4630870595375L-26.014984095139816,26.85685889374394zM-28.75798187663096,139.4630870595375L-26.44614570460769,139.25798277287547L-23.94078474177552,27.435846007879583zM-26.44614570460769,139.25798277287547L-24.03446574014911,138.96525912626174L-21.77222279108075,27.890098408111385zM-24.03446574014911,138.96525912626174L-21.532840731407738,138.60622537887028L-19.517969316379546,28.2171605848454zM-21.532840731407738,138.60622537887028L-18.95195736314504,138.2358222848356L-17.187160769981126,28.415120103650363zM-18.95195736314504,138.2358222848356L-16.30163673006945,137.8554420467961L-14.789339838232571,28.482626726449734zM-16.30163673006945,137.8554420467961L-13.59178592464483,137.44521870765135L-12.334438186498344,28.41891643181596zM-13.59178592464483,137.44521870765135L-10.832012672422783,136.90048527958854L-9.83271737356613,28.22381833116898z" style="fill:rgb(83,212,212)"/><path d="M63.26003676909196,110.34461230963825L63.64406211143926,53.33508017861364L59.67145548821097,45.02514052080548z" style="fill:rgb(247,158,158)"/><path d="M-10.832012672422783,136.90048527958854L-8.034744132470735,136.34836025385536L-7.294702785520806,27.897759513435904zM43.12956616008531,120.22927880007985L43.21989403817687,120.19191820375478L38.21172847228599,-14.376336820568467zM-8.034744132470735,136.34836025385536L-5.210885816763674,135.79098509993008L-4.7311579408821975,27.441760908326447zM42.85894515307332,120.34124730004407L43.12956616008531,120.22927880007985L38.20131184787083,-12.473380325827458zM-5.210885816763674,135.79098509993008L-2.3714984693412715,135.23053129666266L-2.1530200041257794,26.857474928219922zM42.40910854792012,120.52737447849192L42.85894515307332,120.34124730004407L38.029683687398816,-10.529535350955094zM-2.3714984693412715,135.23053129666266L0.47218835424457023,134.517277864448L0.42866195763478354,26.14714619917768zM41.78189219186076,120.7868971086345L42.40910854792012,120.52737447849192L37.69667950310292,-8.552568041239107zM40.979826915506216,121.11875918027015L41.78189219186076,120.7868971086345L37.20285790362823,-6.550472042396908zM0.47218835424457023,134.517277864448L3.3082662910554506,133.80592340685664L3.002781094144962,25.313608433615247zM40.00614129500555,121.52162346295793L40.979826915506216,121.11875918027015L36.54946591168152,-4.531420714924229zM3.3082662910554506,133.80592340685664L6.1254815170730454,133.09929875290143L5.558227416739267,24.36028171686508zM38.86477056486659,121.99387409790398L40.00614129500555,121.52162346295793L35.738453833679486,-2.5037512989360096zM6.1254815170730454,133.09929875290143L8.912616285856409,132.40022521670764L8.08395572002234,23.291163778838357zM37.56030906151152,122.53361284131655L38.86477056486659,121.99387409790398L34.77250238201634,-0.47591540528089205z" style="fill:rgb(83,212,212)"/><path d="M-53.430239868962346,147.9972146405888L-65.90061570420771,139.6098577701696L-60.747373560413735,147.33104948764867z" style="fill:rgb(86,32,201)"/><path d="M8.912616285856409,132.40022521670764L11.657296902301102,131.5862936360143L10.569051718862646,22.11079813309074zM36.098011240511575,123.13864173528815L37.56030906151152,122.53361284131655L33.654991996568974,1.543570930068185zM11.657296902301102,131.5862936360143L14.348942365304852,130.76709410407685L13.002764869163231,20.82424609872929zM34.483757647685266,123.80655794825323L36.098011240511575,123.13864173528815L32.390017879351305,3.54614899524412zM14.348942365304852,130.76709410407685L16.976915134306168,129.96725275981885L15.374586324899898,19.437075999716214zM32.72406359038695,124.53464072616619L34.483757647685266,123.80655794825323L30.982366817904246,5.523280449240454zM16.976915134306168,129.96725275981885L19.530656203961005,129.19002073081927L17.674316560406385,17.955320542183998zM30.82336936208922,125.22134729327037L32.72406359038695,124.53464072616619L29.437534747506884,7.466455228295569zM28.79195288199291,125.9495747293203L30.82336936208922,125.22134729327037L27.761639402829466,9.36730332693559zM19.530656203961005,129.19002073081927L21.99885147498337,128.38479998264108L19.89209313880216,16.38544797528552zM26.638186098440453,126.72167521187974L28.79195288199291,125.9495747293203L25.961472084399443,11.217565407957004zM21.99885147498337,128.38479998264108L24.3707794194176,127.53450494102664L22.018470568155053,14.734318899341261zM24.3707794194176,127.53450494102664L26.638186098440453,126.72167521187974L24.04442446654482,13.009183142148286z" style="fill:rgb(83,212,212)"/><path d="M-53.430239868962346,147.9972146405888L-58.539959969582824,140.25196777731247L-65.90061570420771,139.6098577701696z" style="fill:rgb(86,32,201)"/><path d="M-42.76246077443176,148.31271466550047L-58.539959969582824,140.25196777731247L-53.430239868962346,147.9972146405888z" style="fill:rgb(94,32,205)"/><path d="M-65.90061570420771,139.6098577701696L-58.539959969582824,140.25196777731247L-47.80500998872134,140.53116675842747z" style="fill:rgb(83,212,212)"/><path d="M-42.76246077443176,148.31271466550047L-47.80500998872134,140.53116675842747L-58.539959969582824,140.25196777731247z" style="fill:rgb(94,32,205)"/><path d="M-31.794120598468893,147.99347563563816L-47.80500998872134,140.53116675842747L-42.76246077443176,148.31271466550047z" style="fill:rgb(101,32,208)"/><path d="M-65.90061570420771,139.6098577701696L-47.80500998872134,140.53116675842747L-46.93879645796897,140.50310592220174z" style="fill:rgb(83,212,212)"/><path d="M63.26003676909196,110.34461230963825L67.43773143627028,118.57271589823533L63.64406211143926,53.33508017861364z" style="fill:rgb(247,158,158)"/><path d="M-20.580109259844452,147.03250787253896L-36.76387980266845,140.17332249008314L-31.794120598468893,147.99347563563816z" style="fill:rgb(108,33,211)"/><path d="M-31.794120598468893,147.99347563563816L-36.76387980266845,140.17332249008314L-47.80500998872134,140.53116675842747z" style="fill:rgb(101,32,208)"/><path d="M-9.178344382715103,145.42713234363814L-25.471886619238738,139.17155960950507L-20.580109259844452,147.03250787253896z" style="fill:rgb(116,34,214)"/><path d="M-20.580109259844452,147.03250787253896L-25.471886619238738,139.17155960950507L-36.76387980266845,140.17332249008314z" style="fill:rgb(108,33,211)"/><path d="M-36.85719207993888,140.17634413232304L-36.76387980266845,140.17332249008314L-35.02010981238987,140.01862337493262z" style="fill:rgb(83,212,212)"/><path d="M2.350699615239704,143.179116468204L-13.987419654040375,137.5233053022315L-9.178344382715103,145.42713234363814z" style="fill:rgb(123,36,216)"/><path d="M-9.178344382715103,145.42713234363814L-13.987419654040375,137.5233053022315L-25.471886619238738,139.17155960950507z" style="fill:rgb(116,34,214)"/><path d="M-26.44614570460769,139.25798277287547L-25.471886619238738,139.17155960950507L-24.03446574014911,138.96525912626174z" style="fill:rgb(83,212,212)"/><path d="M13.944536143612623,140.29487575055597L-2.3714984693412715,135.23053129666266L2.350699615239704,143.179116468204z" style="fill:rgb(131,38,218)"/><path d="M2.350699615239704,143.179116468204L-2.3714984693412715,135.23053129666266L-13.987419654040375,137.5233053022315z" style="fill:rgb(123,36,216)"/><path d="M-16.30163673006945,137.8554420467961L-13.987419654040375,137.5233053022315L-13.59178592464483,137.44521870765135z" style="fill:rgb(83,212,212)"/><path d="M25.53924182363152,136.78544838256724L9.31280023915067,132.29985060630187L13.944536143612623,140.29487575055597z" style="fill:rgb(138,40,220)"/><path d="M13.944536143612623,140.29487575055597L9.31280023915067,132.29985060630187L-2.3714984693412715,135.23053129666266z" style="fill:rgb(131,38,218)"/><path d="M37.07005816439339,132.66658215748467L21.000913262677276,128.7425425979725L25.53924182363152,136.78544838256724z" style="fill:rgb(146,43,221)"/><path d="M48.472082278293776,127.95856174756729L32.62741474007369,124.574635070032L37.07005816439339,132.66658215748467z" style="fill:rgb(153,46,222)"/><path d="M25.53924182363152,136.78544838256724L21.000913262677276,128.7425425979725L9.31280023915067,132.29985060630187z" style="fill:rgb(138,40,220)"/><path d="M59.680896576355025,122.68610706084391L44.12669173600777,119.81671471131469L48.472082278293776,127.95856174756729z" style="fill:rgb(160,49,222)"/><path d="M67.43773143627028,118.57271589823533L55.43362140696977,114.49383607108066L59.680896576355025,122.68610706084391z" style="fill:rgb(168,53,222)"/><path d="M8.912616285856409,132.40022521670764L9.31280023915067,132.29985060630187L11.657296902301102,131.5862936360143z" style="fill:rgb(83,212,212)"/><path d="M37.07005816439339,132.66658215748467L32.62741474007369,124.574635070032L21.000913262677276,128.7425425979725z" style="fill:rgb(146,43,221)"/><path d="M48.472082278293776,127.95856174756729L44.12669173600777,119.81671471131469L32.62741474007369,124.574635070032z" style="fill:rgb(153,46,222)"/><path d="M59.680896576355025,122.68610706084391L55.43362140696977,114.49383607108066L44.12669173600777,119.81671471131469z" style="fill:rgb(160,49,222)"/><path d="M67.43773143627028,118.57271589823533L63.26003676909196,110.34461230963825L55.43362140696977,114.49383607108066z" style="fill:rgb(168,53,222)"/><path d="M19.530656203961005,129.19002073081927L21.000913262677276,128.7425425979725L21.99885147498337,128.38479998264108zM30.82336936208922,125.22134729327037L32.62741474007369,124.574635070032L32.72406359038695,124.53464072616619zM43.21989403817687,120.19191820375478L44.12669173600777,119.81671471131469L55.43362140696977,114.49383607108066zM43.21989403817687,120.19191820375478L55.43362140696977,114.49383607108066L63.26003676909196,110.34461230963825z" style="fill:rgb(83,212,212)"/></svg>
