<?xml version="1.0" encoding="UTF-8"?>
<!-- Generated by jsxcad -->
<!DOCTYPE svg PUBLIC "-//W3C//DTD SVG 1.1 Tiny//EN" "http://www.w3.org/Graphics/SVG/1.1/DTD/svg11-tiny.dtd">
<svg viewBox="-250 -250 500 500" width="500" height="500" xmlns="http://www.w3.org/2000/svg"><path d="M-22.256855852233468,-112.06869974858887L-31.303926256094115,-108.51692609121277L-40.23876596018998,-104.62105865757786zM-3.9206360963255222,-118.09773838942094L-13.121116755357006,-115.26572665354786L-22.256855852233468,-112.06869974858887zM14.576812415894661,-122.6275671802011L-3.9206360963255222,-118.09773838942094L-22.256855852233468,-112.06869974858887zM14.576812415894661,-122.6275671802011L5.3202635778931215,-120.55484632979663L-3.9206360963255222,-118.09773838942094zM33.03525595056218,-125.5841100193407L23.82373869693522,-124.30685839268291L14.576812415894661,-122.6275671802011zM-40.23876596018998,-104.62105865757786L-44.908759137991844,-102.37667931327896L-47.24356572446473,-53.571581565692185zM-22.256855852233468,-112.06869974858887L-40.23876596018998,-104.62105865757786L-47.24356572446473,-53.571581565692185zM14.576812415894661,-122.6275671802011L-22.256855852233468,-112.06869974858887L-47.24356572446473,-53.571581565692185zM39.893439527837195,-77.43209308166938L33.03525595056218,-125.5841100193407L14.576812415894661,-122.6275671802011z" style="fill:rgb(83,212,212)"/><path d="M41.39585684149985,-117.80575361191165L37.881090677376925,-126.04333419267721L39.893439527837195,-77.43209308166938z" style="fill:rgb(247,158,158)"/><path d="M39.893439527837195,-77.43209308166938L37.881090677376925,-126.04333419267721L33.03525595056218,-125.5841100193407zM40.72495457590408,-73.09464566672217L14.576812415894661,-122.6275671802011L-47.24356572446473,-53.571581565692185z" style="fill:rgb(83,212,212)"/><path d="M39.893439527837195,-77.43209308166938L43.57858675619851,-69.12120947060802L41.39585684149985,-117.80575361191165z" style="fill:rgb(247,158,158)"/><path d="M40.72495457590408,-73.09464566672217L39.893439527837195,-77.43209308166938L14.576812415894661,-122.6275671802011zM-80.84499387341474,-21.22358247744402L-151.1784966762887,-2.374861563740109L-153.09363087201447,1.6907380761207498zM-153.09363087201447,1.6907380761207498L-156.18474703884937,9.388137857093877L-158.748250966777,17.118893634289837zM-80.84499387341474,-21.22358247744402L-153.09363087201447,1.6907380761207498L-158.748250966777,17.118893634289837zM-74.51778533336976,-23.375269617630842L-80.84499387341474,-21.22358247744402L-158.748250966777,17.118893634289837zM61.984363422035074,-61.366730920596936L-47.24356572446473,-53.571581565692185L-48.07724731436991,-48.87734028434917zM42.8284159781092,-69.23618936974393L40.72495457590408,-73.09464566672217L-47.24356572446473,-53.571581565692185z" style="fill:rgb(83,212,212)"/><path d="M40.72495457590408,-73.09464566672217L44.421605926678616,-64.77619276319435L43.57858675619851,-69.12120947060802z" style="fill:rgb(246,167,149)"/><path d="M-158.748250966777,17.118893634289837L-160.76514508842152,24.857983609101176L-162.2171944005064,32.57924556266108z" style="fill:rgb(83,212,212)"/><path d="M43.57858675619851,-69.12120947060802L39.893439527837195,-77.43209308166938L40.72495457590408,-73.09464566672217z" style="fill:rgb(246,167,149)"/><path d="M46.14151064711771,-66.01282826674232L42.8284159781092,-69.23618936974393L-47.24356572446473,-53.571581565692185zM50.55228247778748,-63.56024599467704L46.14151064711771,-66.01282826674232L-47.24356572446473,-53.571581565692185zM-20.28369939638665,-30.720817923682176L-14.060417402636157,-33.97494602326586L-48.07724731436991,-48.87734028434917zM-14.060417402636157,-33.97494602326586L-7.562194364771293,-36.517499903413594L-48.07724731436991,-48.87734028434917zM-26.06871060529108,-26.840386675282186L-20.28369939638665,-30.720817923682176L-48.07724731436991,-48.87734028434917zM-31.262088378063012,-22.434055967402145L-26.06871060529108,-26.840386675282186L-48.07724731436991,-48.87734028434917zM-158.748250966777,17.118893634289837L-162.2171944005064,32.57924556266108L-163.3595161516113,47.85816107812566zM55.900933736510126,-61.98668971562666L50.55228247778748,-63.56024599467704L-47.24356572446473,-53.571581565692185zM-35.723376152060645,-17.615688908213016L-31.262088378063012,-22.434055967402145L-48.07724731436991,-48.87734028434917zM-7.562194364771293,-36.517499903413594L61.984363422035074,-61.366730920596936L-48.07724731436991,-48.87734028434917zM-48.07724731436991,-48.87734028434917L-39.32815928858918,-12.510644752624904L-35.723376152060645,-17.615688908213016zM61.984363422035074,-61.366730920596936L55.900933736510126,-61.98668971562666L-47.24356572446473,-53.571581565692185zM-48.07724731436991,-48.87734028434917L-50.12466710310321,-43.98763898431478L-86.31139367726007,47.737317406164884z" style="fill:rgb(83,212,212)"/><path d="M-20.28369939638665,-30.720817923682176L-16.086017060423277,-22.63047658141046L-9.909901436441253,-25.86046352897027z" style="fill:rgb(167,52,222)"/><path d="M-14.060417402636157,-33.97494602326586L-9.909901436441253,-25.86046352897027L-3.4574414466132772,-28.37736019530102z" style="fill:rgb(147,43,221)"/><path d="M-26.06871060529108,-26.840386675282186L-21.823577071817407,-18.772099373733607L-16.086017060423277,-22.63047658141046z" style="fill:rgb(185,63,221)"/><path d="M-48.07724731436991,-48.87734028434917L-41.97110193390683,-7.253632843494807L-39.32815928858918,-12.510644752624904z" style="fill:rgb(83,212,212)"/><path d="M-7.562194364771293,-36.517499903413594L-3.4574414466132772,-28.37736019530102L3.102225303570173,-30.113248115276512z" style="fill:rgb(127,37,217)"/><path d="M-50.12466710310321,-43.98763898431478L-53.3176002640074,-39.09727106814371L-86.31139367726007,47.737317406164884z" style="fill:rgb(83,212,212)"/><path d="M-31.262088378063012,-22.434055967402145L-26.97037306270313,-14.38523544778312L-21.823577071817407,-18.772099373733607z" style="fill:rgb(202,76,217)"/><path d="M-9.909901436441253,-25.86046352897027L-14.060417402636157,-33.97494602326586L-20.28369939638665,-30.720817923682176z" style="fill:rgb(167,52,222)"/><path d="M-162.2171944005064,32.57924556266108L-163.0873127575933,40.25542527009939L-163.3595161516113,47.85816107812566z" style="fill:rgb(83,212,212)"/><path d="M-16.086017060423277,-22.63047658141046L-20.28369939638665,-30.720817923682176L-26.06871060529108,-26.840386675282186z" style="fill:rgb(185,63,221)"/><path d="M-3.4574414466132772,-28.37736019530102L-7.562194364771293,-36.517499903413594L-14.060417402636157,-33.97494602326586z" style="fill:rgb(147,43,221)"/><path d="M-0.9592491099382344,-38.27992645363952L3.102225303570173,-30.113248115276512L9.59609553457781,-31.01843436265879z" style="fill:rgb(107,33,211)"/><path d="M-53.3176002640074,-39.09727106814371L-57.53746912947369,-34.40526701654212L-86.31139367726007,47.737317406164884zM-48.07724731436991,-48.87734028434917L-43.56908971238786,-1.9861788819542174L-41.97110193390683,-7.253632843494807z" style="fill:rgb(83,212,212)"/><path d="M-21.823577071817407,-18.772099373733607L-26.06871060529108,-26.840386675282186L-31.262088378063012,-22.434055967402145z" style="fill:rgb(202,76,217)"/><path d="M-35.723376152060645,-17.615688908213016L-31.387112525310325,-9.583313877858654L-26.97037306270313,-14.38523544778312z" style="fill:rgb(217,91,210)"/><path d="M3.102225303570173,-30.113248115276512L-0.9592491099382344,-38.27992645363952L-7.562194364771293,-36.517499903413594z" style="fill:rgb(127,37,217)"/><path d="M-57.53746912947369,-34.40526701654212L-62.619141063152654,-30.105485513183506L-86.31139367726007,47.737317406164884zM-74.51778533336976,-23.375269617630842L-158.748250966777,17.118893634289837L-86.31139367726007,47.737317406164884z" style="fill:rgb(83,212,212)"/><path d="M5.574378704492422,-39.21183062401102L9.59609553457781,-31.01843436265879L15.85065562303981,-31.062835749736998z" style="fill:rgb(87,32,202)"/><path d="M-26.97037306270313,-14.38523544778312L-31.262088378063012,-22.434055967402145L-35.723376152060645,-17.615688908213016z" style="fill:rgb(217,91,210)"/><path d="M-62.619141063152654,-30.105485513183506L-68.35771295979049,-26.377063610209426L-86.31139367726007,47.737317406164884zM-68.35771295979049,-26.377063610209426L-74.51778533336976,-23.375269617630842L-86.31139367726007,47.737317406164884z" style="fill:rgb(83,212,212)"/><path d="M9.59609553457781,-31.01843436265879L5.574378704492422,-39.21183062401102L-0.9592491099382344,-38.27992645363952z" style="fill:rgb(107,33,211)"/><path d="M-48.07724731436991,-48.87734028434917L-44.06426240146671,3.1463512683531705L-43.56908971238786,-1.9861788819542174z" style="fill:rgb(83,212,212)"/><path d="M-39.32815928858918,-12.510644752624904L-34.950556624666014,-4.4913371971490585L-31.387112525310325,-9.583313877858654zM-31.387112525310325,-9.583313877858654L-35.723376152060645,-17.615688908213016L-39.32815928858918,-12.510644752624904z" style="fill:rgb(229,106,201)"/><path d="M11.864194555837502,-39.2823948143205L15.85065562303981,-31.062835749736998L21.69536553399475,-30.237230414643946z" style="fill:rgb(69,33,191)"/><path d="M15.85065562303981,-31.062835749736998L11.864194555837502,-39.2823948143205L5.574378704492422,-39.21183062401102z" style="fill:rgb(87,32,202)"/><path d="M-7.562194364771293,-36.517499903413594L-0.9592491099382344,-38.27992645363952L61.984363422035074,-61.366730920596936z" style="fill:rgb(83,212,212)"/><path d="M-41.97110193390683,-7.253632843494807L-37.55652665960592,0.7562783903927489L-34.950556624666014,-4.4913371971490585z" style="fill:rgb(238,122,189)"/><path d="M-0.9592491099382344,-38.27992645363952L5.574378704492422,-39.21183062401102L61.984363422035074,-61.366730920596936z" style="fill:rgb(83,212,212)"/><path d="M-34.950556624666014,-4.4913371971490585L-39.32815928858918,-12.510644752624904L-41.97110193390683,-7.253632843494807z" style="fill:rgb(238,122,189)"/><path d="M21.69536553399475,-30.237230414643946L17.738738577057685,-38.48162497551971L11.864194555837502,-39.2823948143205z" style="fill:rgb(69,33,191)"/><path d="M17.738738577057685,-38.48162497551971L21.69536553399475,-30.237230414643946L26.966521580482205,-28.55432166099011z" style="fill:rgb(52,37,178)"/><path d="M5.574378704492422,-39.21183062401102L11.864194555837502,-39.2823948143205L61.984363422035074,-61.366730920596936zM-158.748250966777,17.118893634289837L-163.3595161516113,47.85816107812566L-86.31139367726007,47.737317406164884z" style="fill:rgb(83,212,212)"/><path d="M-43.56908971238786,-1.9861788819542174L-39.12301588009541,6.018231033880222L-37.55652665960592,0.7562783903927489z" style="fill:rgb(244,138,176)"/><path d="M11.864194555837502,-39.2823948143205L17.738738577057685,-38.48162497551971L61.984363422035074,-61.366730920596936z" style="fill:rgb(83,212,212)"/><path d="M-37.55652665960592,0.7562783903927489L-41.97110193390683,-7.253632843494807L-43.56908971238786,-1.9861788819542174z" style="fill:rgb(244,138,176)"/><path d="M-48.07724731436991,-48.87734028434917L-79.64013731041892,46.58426818013544L-44.06426240146671,3.1463512683531705z" style="fill:rgb(83,212,212)"/><path d="M26.966521580482205,-28.55432166099011L23.03346978631954,-36.821445839529645L17.738738577057685,-38.48162497551971z" style="fill:rgb(52,37,178)"/><path d="M23.03346978631954,-36.821445839529645L26.966521580482205,-28.55432166099011L31.511322254219586,-26.0495248078362z" style="fill:rgb(37,44,163)"/><path d="M-163.3595161516113,47.85816107812566L-163.01936291091747,55.35803673267114L-162.0539616460246,62.72462636284754zM17.738738577057685,-38.48162497551971L23.03346978631954,-36.821445839529645L61.984363422035074,-61.366730920596936z" style="fill:rgb(83,212,212)"/><path d="M-44.06426240146671,3.1463512683531705L-39.59321109329086,11.149309038441004L-39.12301588009541,6.018231033880222zM-39.12301588009541,6.018231033880222L-43.56908971238786,-1.9861788819542174L-44.06426240146671,3.1463512683531705z" style="fill:rgb(247,154,162)"/><path d="M23.03346978631954,-36.821445839529645L27.594842001073772,-34.33652457685529L61.984363422035074,-61.366730920596936z" style="fill:rgb(83,212,212)"/><path d="M31.511322254219586,-26.0495248078362L27.594842001073772,-34.33652457685529L23.03346978631954,-36.821445839529645z" style="fill:rgb(37,44,163)"/><path d="M27.594842001073772,-34.33652457685529L31.511322254219586,-26.0495248078362L35.19235349150982,-22.781357901484203z" style="fill:rgb(25,53,148)"/><path d="M-48.07724731436991,-48.87734028434917L-86.31139367726007,47.737317406164884L-79.64013731041892,46.58426818013544zM27.594842001073772,-34.33652457685529L31.284831760726064,-31.084670088361992L61.984363422035074,-61.366730920596936z" style="fill:rgb(83,212,212)"/><path d="M-43.426948462196954,7.998157370712144L-38.93833474181268,16.003798221305967L-39.59321109329086,11.149309038441004zM-39.59321109329086,11.149309038441004L-44.06426240146671,3.1463512683531705L-43.426948462196954,7.998157370712144z" style="fill:rgb(246,169,146)"/><path d="M35.19235349150982,-22.781357901484203L31.284831760726064,-31.084670088361992L27.594842001073772,-34.33652457685529z" style="fill:rgb(25,53,148)"/><path d="M31.284831760726064,-31.084670088361992L35.19235349150982,-22.781357901484203L37.89211900732931,-18.831261970610914z" style="fill:rgb(16,65,132)"/><path d="M-163.3595161516113,47.85816107812566L-162.0539616460246,62.72462636284754L-86.31139367726007,47.737317406164884z" style="fill:rgb(83,212,212)"/><path d="M-41.65814460496542,12.426907841138988L-37.160146031162526,20.43937192858177L-38.93833474181268,16.003798221305967z" style="fill:rgb(242,183,130)"/><path d="M-161.20723198664948,66.53220634631354L-155.81718013114292,74.06923103274757L-81.40830487085444,55.56655535922707z" style="fill:rgb(127,37,217)"/><path d="M-38.93833474181268,16.003798221305967L-43.426948462196954,7.998157370712144L-41.65814460496542,12.426907841138988z" style="fill:rgb(242,183,130)"/><path d="M37.89211900732931,-18.831261970610914L33.985482570600354,-27.14671003112559L31.284831760726064,-31.084670088361992z" style="fill:rgb(16,65,132)"/><path d="M-162.0539616460246,62.72462636284754L-161.20723198664948,66.53220634631354L-86.31139367726007,47.737317406164884zM-79.64013731041892,46.58426818013544L-43.426948462196954,7.998157370712144L-44.06426240146671,3.1463512683531705z" style="fill:rgb(83,212,212)"/><path d="M-81.40830487085444,55.56655535922707L-86.31139367726007,47.737317406164884L-161.20723198664948,66.53220634631354z" style="fill:rgb(127,37,217)"/><path d="M-79.64013731041892,46.58426818013544L-41.65814460496542,12.426907841138988L-43.426948462196954,7.998157370712144zM-79.64013731041892,46.58426818013544L-38.79140520722416,16.298008886322545L-41.65814460496542,12.426907841138988zM165.17714365248116,-60.422675202988344L154.20799759396883,-84.21559138797883L75.37262533304953,-63.08844922083347z" style="fill:rgb(83,212,212)"/><path d="M-86.31139367726007,47.737317406164884L-81.40830487085444,55.56655535922707L-74.77910274156868,54.439569852426146z" style="fill:rgb(115,34,214)"/><path d="M159.945845123434,-74.48506282993803L156.40356789214965,-80.96924438112254L154.20799759396883,-84.21559138797883z" style="fill:rgb(83,212,212)"/><path d="M-79.64013731041892,46.58426818013544L-74.77910274156868,54.439569852426146L-68.44395951094823,54.41487656732726z" style="fill:rgb(92,32,204)"/><path d="M-79.64013731041892,46.58426818013544L-34.89388121958598,19.48919902461313L-38.79140520722416,16.298008886322545zM70.32539795713546,25.499433737103363L68.56336739711516,-61.73611417940366L61.984363422035074,-61.366730920596936z" style="fill:rgb(83,212,212)"/><path d="M-74.77910274156868,54.439569852426146L-79.64013731041892,46.58426818013544L-86.31139367726007,47.737317406164884z" style="fill:rgb(115,34,214)"/><path d="M70.32539795713546,25.499433737103363L75.37262533304953,-63.08844922083347L68.56336739711516,-61.73611417940366zM-79.64013731041892,46.58426818013544L-30.066258978645457,21.895261610011218L-34.89388121958598,19.48919902461313z" style="fill:rgb(83,212,212)"/><path d="M-68.44395951094823,54.41487656732726L-73.2694275256479,46.535139398657705L-79.64013731041892,46.58426818013544z" style="fill:rgb(92,32,204)"/><path d="M31.284831760726064,-31.084670088361992L70.32539795713546,25.499433737103363L61.984363422035074,-61.366730920596936z" style="fill:rgb(83,212,212)"/><path d="M-68.44395951094823,54.41487656732726L-62.63449105707233,55.50340319218593L-67.43211015640705,47.60183588636789zM-67.43211015640705,47.60183588636789L-73.2694275256479,46.535139398657705L-68.44395951094823,54.41487656732726z" style="fill:rgb(71,33,192)"/><path d="M-79.64013731041892,46.58426818013544L-24.441282810253007,23.432573845612488L-30.066258978645457,21.895261610011218zM-79.64013731041892,46.58426818013544L-73.2694275256479,46.535139398657705L-24.441282810253007,23.432573845612488z" style="fill:rgb(83,212,212)"/><path d="M-67.43211015640705,47.60183588636789L-62.63449105707233,55.50340319218593L-57.56916984768846,57.67809139343057z" style="fill:rgb(51,38,177)"/><path d="M165.17714365248116,-60.422675202988344L159.945845123434,-74.48506282993803L154.20799759396883,-84.21559138797883zM-73.2694275256479,46.535139398657705L-67.43211015640705,47.60183588636789L-24.441282810253007,23.432573845612488zM31.284831760726064,-31.084670088361992L33.985482570600354,-27.14671003112559L70.32539795713546,25.499433737103363z" style="fill:rgb(83,212,212)"/><path d="M-57.56916984768846,57.67809139343057L-62.347740894536834,49.7582467253236L-67.43211015640705,47.60183588636789z" style="fill:rgb(51,38,177)"/><path d="M-62.347740894536834,49.7582467253236L-57.56916984768846,57.67809139343057L-53.445702307843334,60.87282317767637z" style="fill:rgb(34,46,160)"/><path d="M33.985482570600354,-27.14671003112559L35.603528002519184,-22.6256313248219L70.32539795713546,25.499433737103363z" style="fill:rgb(83,212,212)"/><path d="M165.17714365248116,-60.422675202988344L168.15800982121016,-51.5659138210701L165.85533788679297,-58.7843953140927zM165.85533788679297,-58.7843953140927L162.87942709874102,-67.6294619991236L165.17714365248116,-60.422675202988344z" style="fill:rgb(246,166,149)"/><path d="M165.17714365248116,-60.422675202988344L162.87942709874102,-67.6294619991236L159.945845123434,-74.48506282993803z" style="fill:rgb(83,212,212)"/><path d="M-53.445702307843334,60.87282317767637L-58.21487009709444,52.93912008858578L-62.347740894536834,49.7582467253236z" style="fill:rgb(34,46,160)"/><path d="M-58.21487009709444,52.93912008858578L-53.445702307843334,60.87282317767637L-50.433234188639936,64.98249476337463z" style="fill:rgb(21,57,142)"/><path d="M35.603528002519184,-22.6256313248219L36.074773852078266,-17.64485408892847L70.32539795713546,25.499433737103363zM36.074773852078266,-17.64485408892847L35.36795659886156,-12.345571814398511L70.32539795713546,25.499433737103363z" style="fill:rgb(83,212,212)"/><path d="M-50.433234188639936,64.98249476337463L-55.20322829120875,57.04008315603912L-58.21487009709444,52.93912008858578z" style="fill:rgb(21,57,142)"/><path d="M166.81376721551908,-52.88766859237767L169.80461903079032,-44.02288309974331L168.15800982121016,-51.5659138210701zM168.15800982121016,-51.5659138210701L165.17714365248116,-60.422675202988344L166.81376721551908,-52.88766859237767z" style="fill:rgb(247,161,155)"/><path d="M35.36795659886156,-12.345571814398511L33.48774880045745,-6.883028492171751L70.32539795713546,25.499433737103363z" style="fill:rgb(83,212,212)"/><path d="M73.04290444127015,31.427912525206345L26.23569500346074,4.046920794537262L30.30642609530654,12.330868930749656z" style="fill:rgb(42,41,169)"/><path d="M33.48774880045745,-6.883028492171751L30.476505305463064,-1.421847138525739L70.32539795713546,25.499433737103363zM158.20814932609815,6.5344911353500015L165.17714365248116,-60.422675202988344L75.37262533304953,-63.08844922083347zM70.32539795713546,25.499433737103363L86.05517381331691,8.868476004107961L75.37262533304953,-63.08844922083347zM30.476505305463064,-1.421847138525739L26.414547384256043,3.8695167640175954L70.32539795713546,25.499433737103363zM26.414547384256043,3.8695167640175954L26.23569500346074,4.046920794537262L70.32539795713546,25.499433737103363z" style="fill:rgb(83,212,212)"/><path d="M167.76631137824512,-45.05020140028022L170.77238804851285,-36.18121684079794L169.80461903079032,-44.02288309974331zM169.80461903079032,-44.02288309974331L166.81376721551908,-52.88766859237767L167.76631137824512,-45.05020140028022z" style="fill:rgb(247,155,161)"/><path d="M167.76631137824512,-45.05020140028022L166.81376721551908,-52.88766859237767L165.17714365248116,-60.422675202988344zM-67.43211015640705,47.60183588636789L26.29168767259134,72.05588298256457L-24.441282810253007,23.432573845612488zM26.29168767259134,72.05588298256457L-18.180781512672713,24.04318505913107L-24.441282810253007,23.432573845612488zM-67.43211015640705,47.60183588636789L-62.347740894536834,49.7582467253236L26.29168767259134,72.05588298256457zM86.05517381331691,8.868476004107961L158.20814932609815,6.5344911353500015L75.37262533304953,-63.08844922083347zM26.29168767259134,72.05588298256457L-11.471170542708885,23.69817767752647L-18.180781512672713,24.04318505913107z" style="fill:rgb(83,212,212)"/><path d="M168.0144444766047,-36.93882190494224L171.04117393794422,-28.069590857119035L170.77238804851285,-36.18121684079794zM170.77238804851285,-36.18121684079794L167.76631137824512,-45.05020140028022L168.0144444766047,-36.93882190494224z" style="fill:rgb(246,149,166)"/><path d="M26.29168767259134,72.05588298256457L-4.517417142038551,22.39992503931661L-11.471170542708885,23.69817767752647zM167.54081570082653,-28.584909403941058L167.76631137824512,-45.05020140028022L165.17714365248116,-60.422675202988344zM26.29168767259134,72.05588298256457L22.846426737458113,7.408791285985972L21.418756128669706,8.824919260744235zM26.29168767259134,72.05588298256457L21.418756128669706,8.824919260744235L15.639271469306708,13.286998210939199zM26.29168767259134,72.05588298256457L2.4642352334011584,20.182969420437168L-4.517417142038551,22.39992503931661zM26.29168767259134,72.05588298256457L15.639271469306708,13.286998210939199L9.254430275725323,17.11347036626925zM26.29168767259134,72.05588298256457L9.254430275725323,17.11347036626925L2.4642352334011584,20.182969420437168z" style="fill:rgb(83,212,212)"/><path d="M73.04290444127015,31.427912525206345L70.32539795713546,25.499433737103363L26.23569500346074,4.046920794537262z" style="fill:rgb(42,41,169)"/><path d="M167.54081570082653,-28.584909403941058L170.59380924235688,-19.71948212611452L171.04117393794422,-28.069590857119035zM171.04117393794422,-28.069590857119035L168.0144444766047,-36.93882190494224L167.54081570082653,-28.584909403941058z" style="fill:rgb(245,143,172)"/><path d="M101.80973781652358,45.54485959736248L73.04290444127015,31.427912525206345L30.30642609530654,12.330868930749656z" style="fill:rgb(42,41,169)"/><path d="M167.54081570082653,-28.584909403941058L168.0144444766047,-36.93882190494224L167.76631137824512,-45.05020140028022z" style="fill:rgb(83,212,212)"/><path d="M73.04290444127015,31.427912525206345L88.66069427353032,14.847631585021057L86.05517381331691,8.868476004107961z" style="fill:rgb(212,85,213)"/><path d="M96.02914940973214,48.08741467704366L97.18340551395423,45.758930052724914L90.5493460028841,30.70668888088678z" style="fill:rgb(234,114,195)"/><path d="M93.100027962833,48.429471172847066L96.02914940973214,48.08741467704366L89.3673406426219,33.04711714430764z" style="fill:rgb(108,33,211)"/><path d="M88.66069427353032,14.847631585021057L73.04290444127015,31.427912525206345L88.31698036963081,29.629716433389483zM26.29168767259134,72.05588298256457L66.94384848424528,29.074715554706152L22.846426737458113,7.408791285985972z" style="fill:rgb(83,212,212)"/><path d="M86.05517381331691,8.868476004107961L70.32539795713546,25.499433737103363L73.04290444127015,31.427912525206345z" style="fill:rgb(212,85,213)"/><path d="M158.20814932609815,6.5344911353500015L167.54081570082653,-28.584909403941058L165.17714365248116,-60.422675202988344z" style="fill:rgb(83,212,212)"/><path d="M166.33149641503337,-20.02258297829945L169.4164480075413,-11.165068457346171L170.59380924235688,-19.71948212611452zM170.59380924235688,-19.71948212611452L167.54081570082653,-28.584909403941058L166.33149641503337,-20.02258297829945z" style="fill:rgb(244,137,177)"/><path d="M89.3673406426219,33.04711714430764L86.40084278891771,33.40997528795665L93.100027962833,48.429471172847066z" style="fill:rgb(108,33,211)"/><path d="M90.5493460028841,30.70668888088678L89.3673406426219,33.04711714430764L96.02914940973214,48.08741467704366z" style="fill:rgb(234,114,195)"/><path d="M-62.347740894536834,49.7582467253236L-58.21487009709444,52.93912008858578L64.1938348281523,104.08496087741729zM73.04290444127015,31.427912525206345L85.75795739561346,31.296450954063708L88.31698036963081,29.629716433389483z" style="fill:rgb(83,212,212)"/><path d="M85.75795739561346,31.296450954063708L86.8876758322656,33.8309495924276L89.43991779783383,32.16760357702749z" style="fill:rgb(181,61,221)"/><path d="M86.40084278891771,33.40997528795665L85.75795739561346,31.296450954063708L73.04290444127015,31.427912525206345z" style="fill:rgb(83,212,212)"/><path d="M103.5646405241864,51.82132467630505L104.71504653153454,49.47156629184026L98.15065042962156,34.37382257571549z" style="fill:rgb(234,114,195)"/><path d="M89.43991779783383,32.16760357702749L88.31698036963081,29.629716433389483L85.75795739561346,31.296450954063708z" style="fill:rgb(181,61,221)"/><path d="M115.10381623656595,22.371086260269962L86.05517381331691,8.868476004107961L88.66069427353032,14.847631585021057zM89.43991779783383,32.16760357702749L91.66891720380869,33.24691791686682L90.5493460028841,30.70668888088678z" style="fill:rgb(42,41,169)"/><path d="M117.60414274053203,28.424586435954254L88.66069427353032,14.847631585021057L88.31698036963081,29.629716433389483z" style="fill:rgb(83,212,212)"/><path d="M90.5493460028841,30.70668888088678L88.31698036963081,29.629716433389483L89.43991779783383,32.16760357702749z" style="fill:rgb(42,41,169)"/><path d="M100.6081922975133,52.16181830623939L103.5646405241864,51.82132467630505L96.97247455203089,36.73585155683198z" style="fill:rgb(108,33,211)"/><path d="M86.40084278891771,33.40997528795665L87.5314114151118,35.94469442279858L86.8876758322656,33.8309495924276zM86.8876758322656,33.8309495924276L85.75795739561346,31.296450954063708L86.40084278891771,33.40997528795665z" style="fill:rgb(245,172,143)"/><path d="M86.40084278891771,33.40997528795665L88.31698036963081,29.629716433389483L85.75795739561346,31.296450954063708zM86.40084278891771,33.40997528795665L73.04290444127015,31.427912525206345L93.31401818720614,34.961381010042324zM86.40084278891771,33.40997528795665L90.5493460028841,30.70668888088678L88.31698036963081,29.629716433389483zM-58.21487009709444,52.93912008858578L-55.20322829120875,57.04008315603912L64.1938348281523,104.08496087741729zM86.40084278891771,33.40997528795665L89.3673406426219,33.04711714430764L90.5493460028841,30.70668888088678z" style="fill:rgb(83,212,212)"/><path d="M164.37627122511896,-11.288628919027243L167.4989998723915,-2.4431660072473718L169.4164480075413,-11.165068457346171z" style="fill:rgb(242,131,182)"/><path d="M-53.445687434244974,61.918886121323766L-53.030702537752454,67.39851483866991L-28.17178495482327,134.83288784152492z" style="fill:rgb(83,212,212)"/><path d="M169.4164480075413,-11.165068457346171L166.33149641503337,-20.02258297829945L164.37627122511896,-11.288628919027243z" style="fill:rgb(242,131,182)"/><path d="M93.97790619710034,37.09731329429206L93.31401818720614,34.961381010042324L73.04290444127015,31.427912525206345zM164.37627122511896,-11.288628919027243L166.33149641503337,-20.02258297829945L167.54081570082653,-28.584909403941058zM90.5493460028841,30.70668888088678L89.3673406426219,33.04711714430764L93.31401818720614,34.961381010042324zM89.3673406426219,33.04711714430764L86.40084278891771,33.40997528795665L93.31401818720614,34.961381010042324z" style="fill:rgb(83,212,212)"/><path d="M96.97247455203089,36.73585155683198L93.97790619710034,37.09731329429206L100.6081922975133,52.16181830623939z" style="fill:rgb(108,33,211)"/><path d="M29.330184239054486,77.83453738939845L69.68560867601629,34.99210454137671L66.94384848424528,29.074715554706152z" style="fill:rgb(212,85,213)"/><path d="M98.15065042962156,34.37382257571549L96.97247455203089,36.73585155683198L103.5646405241864,51.82132467630505z" style="fill:rgb(234,114,195)"/><path d="M117.60414274053203,28.424586435954254L88.31698036963081,29.629716433389483L90.5493460028841,30.70668888088678zM-55.20322829120875,57.04008315603912L-53.445687434244974,61.918886121323766L64.1938348281523,104.08496087741729zM90.5493460028841,30.70668888088678L93.31401818720614,34.961381010042324L95.88795560865151,33.28221580304701z" style="fill:rgb(83,212,212)"/><path d="M93.31401818720614,34.961381010042324L94.43226506467998,37.50372629732282L96.99935266520497,35.828001715304836z" style="fill:rgb(181,61,221)"/><path d="M30.30642609530654,12.330868930749656L131.32062919286045,62.080732722039606L101.80973781652358,45.54485959736248zM88.66069427353032,14.847631585021057L117.60414274053203,28.424586435954254L115.10381623656595,22.371086260269962z" style="fill:rgb(42,41,169)"/><path d="M96.99935266520497,35.828001715304836L95.88795560865151,33.28221580304701L93.31401818720614,34.961381010042324z" style="fill:rgb(181,61,221)"/><path d="M96.99935266520497,35.828001715304836L99.258557715072,36.92194466522276L98.15065042962156,34.37382257571549zM98.15065042962156,34.37382257571549L95.88795560865151,33.28221580304701L96.99935266520497,35.828001715304836z" style="fill:rgb(42,41,169)"/><path d="M93.97790619710034,37.09731329429206L95.0969411347281,39.6398412499746L94.43226506467998,37.50372629732282zM94.43226506467998,37.50372629732282L93.31401818720614,34.961381010042324L93.97790619710034,37.09731329429206z" style="fill:rgb(245,172,143)"/><path d="M117.60414274053203,28.424586435954254L90.5493460028841,30.70668888088678L95.88795560865151,33.28221580304701z" style="fill:rgb(83,212,212)"/><path d="M164.83544512392328,6.406912145789076L167.4989998723915,-2.4431660072473718L164.37627122511896,-11.288628919027243z" style="fill:rgb(240,125,187)"/><path d="M93.97790619710034,37.09731329429206L95.88795560865151,33.28221580304701L93.31401818720614,34.961381010042324z" style="fill:rgb(83,212,212)"/><path d="M56.822389816811956,85.72026452410535L58.05495283460331,83.29793603992316L50.71713713800353,68.5880429597956z" style="fill:rgb(234,114,195)"/><path d="M93.97790619710034,37.09731329429206L73.04290444127015,31.427912525206345L101.80973781652358,45.54485959736248zM93.97790619710034,37.09731329429206L98.15065042962156,34.37382257571549L95.88795560865151,33.28221580304701z" style="fill:rgb(83,212,212)"/><path d="M53.88916714447021,86.02844875631683L56.822389816811956,85.72026452410535L49.454082854372494,71.02447518908333z" style="fill:rgb(108,33,211)"/><path d="M69.68560867601629,34.99210454137671L45.91927572368626,69.12241626316553L48.530650473187485,67.4178037738276zM95.88795560865151,33.28221580304701L98.15065042962156,34.37382257571549L117.60414274053203,28.424586435954254zM69.68560867601629,34.99210454137671L29.330184239054486,77.83453738939845L45.91927572368626,69.12241626316553zM93.97790619710034,37.09731329429206L96.97247455203089,36.73585155683198L98.15065042962156,34.37382257571549zM158.20814932609815,6.5344911353500015L164.37627122511896,-11.288628919027243L167.54081570082653,-28.584909403941058zM98.41365492121433,49.22602785593035L69.68560867601629,34.99210454137671L48.530650473187485,67.4178037738276zM86.05517381331691,8.868476004107961L115.10381623656595,22.371086260269962L158.20814932609815,6.5344911353500015z" style="fill:rgb(83,212,212)"/><path d="M164.37627122511896,-11.288628919027243L161.6690472957556,-2.422376676214896L164.83544512392328,6.406912145789076z" style="fill:rgb(240,125,187)"/><path d="M98.15065042962156,34.37382257571549L96.97247455203089,36.73585155683198L101.80973781652358,45.54485959736248z" style="fill:rgb(83,212,212)"/><path d="M49.454082854372494,71.02447518908333L46.48358424266695,71.35290024669517L53.88916714447021,86.02844875631683z" style="fill:rgb(108,33,211)"/><path d="M66.94384848424528,29.074715554706152L26.29168767259134,72.05588298256457L29.330184239054486,77.83453738939845z" style="fill:rgb(212,85,213)"/><path d="M96.97247455203089,36.73585155683198L93.97790619710034,37.09731329429206L101.80973781652358,45.54485959736248z" style="fill:rgb(83,212,212)"/><path d="M50.71713713800353,68.5880429597956L49.454082854372494,71.02447518908333L56.822389816811956,85.72026452410535z" style="fill:rgb(234,114,195)"/><path d="M98.15065042962156,34.37382257571549L101.80973781652358,45.54485959736248L117.60414274053203,28.424586435954254z" style="fill:rgb(83,212,212)"/><path d="M45.91927572368626,69.12241626316553L47.16797034090128,71.59976752482027L49.77229272288838,69.89870987811352zM49.77229272288838,69.89870987811352L48.530650473187485,67.4178037738276L45.91927572368626,69.12241626316553z" style="fill:rgb(181,61,221)"/><path d="M49.77229272288838,69.89870987811352L51.95571325600486,71.07097481465829L50.71713713800353,68.5880429597956zM50.71713713800353,68.5880429597956L48.530650473187485,67.4178037738276L49.77229272288838,69.89870987811352z" style="fill:rgb(42,41,169)"/><path d="M46.48358424266695,71.35290024669517L47.73360667666629,73.83004953978981L47.16797034090128,71.59976752482027zM47.16797034090128,71.59976752482027L45.91927572368626,69.12241626316553L46.48358424266695,71.35290024669517z" style="fill:rgb(245,172,143)"/><path d="M158.20814932609815,6.5344911353500015L161.42408312983315,15.34353713790418L164.83544512392328,6.406912145789076z" style="fill:rgb(237,120,191)"/><path d="M46.48358424266695,71.35290024669517L48.530650473187485,67.4178037738276L45.91927572368626,69.12241626316553zM46.48358424266695,71.35290024669517L45.91927572368626,69.12241626316553L29.330184239054486,77.83453738939845z" style="fill:rgb(83,212,212)"/><path d="M164.83544512392328,6.406912145789076L161.6690472957556,-2.422376676214896L158.20814932609815,6.5344911353500015z" style="fill:rgb(237,120,191)"/><path d="M46.48358424266695,71.35290024669517L50.71713713800353,68.5880429597956L48.530650473187485,67.4178037738276zM-62.347740894536834,49.7582467253236L64.1938348281523,104.08496087741729L26.29168767259134,72.05588298256457zM158.20814932609815,6.5344911353500015L161.6690472957556,-2.422376676214896L164.37627122511896,-11.288628919027243zM49.454082854372494,71.02447518908333L46.48358424266695,71.35290024669517L29.330184239054486,77.83453738939845zM46.48358424266695,71.35290024669517L49.454082854372494,71.02447518908333L50.71713713800353,68.5880429597956zM98.41365492121433,49.22602785593035L48.530650473187485,67.4178037738276L50.71713713800353,68.5880429597956z" style="fill:rgb(83,212,212)"/><path d="M70.18456489249493,93.04216611166918L71.41131785674911,90.57867402664584L64.1897134648923,75.79874536950389z" style="fill:rgb(234,114,195)"/><path d="M67.20129087741914,93.34642783028251L70.18456489249493,93.04216611166918L62.93235824963532,78.2770502227103z" style="fill:rgb(108,33,211)"/><path d="M49.454082854372494,71.02447518908333L29.330184239054486,77.83453738939845L61.948480190575324,74.59920779625477zM50.71713713800353,68.5880429597956L49.454082854372494,71.02447518908333L61.948480190575324,74.59920779625477zM-53.030702537752454,67.39851483866991L-56.31729900461345,136.0991355887334L-50.587799254096005,136.23683853667228z" style="fill:rgb(83,212,212)"/><path d="M153.9966679813284,15.538171565022814L157.26796603685682,24.323004935778695L161.42408312983315,15.34353713790418z" style="fill:rgb(234,114,195)"/><path d="M98.41365492121433,49.22602785593035L50.71713713800353,68.5880429597956L61.948480190575324,74.59920779625477z" style="fill:rgb(83,212,212)"/><path d="M161.42408312983315,15.34353713790418L158.20814932609815,6.5344911353500015L153.9966679813284,15.538171565022814z" style="fill:rgb(234,114,195)"/><path d="M52.87626634027672,84.20156110525392L113.62179939600594,18.782990567873203L84.5111758290554,5.325297671161221zM29.330184239054486,77.83453738939845L59.30896744540381,76.327324961902L61.948480190575324,74.59920779625477zM84.5111758290554,5.325297671161221L24.49061715563915,68.63057971346446L52.87626634027672,84.20156110525392zM59.9104473454312,78.60181895993468L59.30896744540381,76.327324961902L29.330184239054486,77.83453738939845z" style="fill:rgb(83,212,212)"/><path d="M62.93235824963532,78.2770502227103L59.9104473454312,78.60181895993468L67.20129087741914,93.34642783028251z" style="fill:rgb(108,33,211)"/><path d="M64.1897134648923,75.79874536950389L62.93235824963532,78.2770502227103L70.18456489249493,93.04216611166918z" style="fill:rgb(234,114,195)"/><path d="M-53.030702537752454,67.39851483866991L-50.587799254096005,136.23683853667228L-28.17178495482327,134.83288784152492z" style="fill:rgb(83,212,212)"/><path d="M59.30896744540381,76.327324961902L60.53861079453972,78.81681216936673L63.17092232489276,77.09235054810576z" style="fill:rgb(181,61,221)"/><path d="M98.41365492121433,49.22602785593035L61.948480190575324,74.59920779625477L64.1897134648923,75.79874536950389z" style="fill:rgb(83,212,212)"/><path d="M63.17092232489276,77.09235054810576L61.948480190575324,74.59920779625477L59.30896744540381,76.327324961902z" style="fill:rgb(181,61,221)"/><path d="M63.17092232489276,77.09235054810576L65.4088605028359,78.29388843355802L64.1897134648923,75.79874536950389zM64.1897134648923,75.79874536950389L61.948480190575324,74.59920779625477L63.17092232489276,77.09235054810576z" style="fill:rgb(42,41,169)"/><path d="M59.9104473454312,78.60181895993468L61.14129086670033,81.09101509775054L60.53861079453972,78.81681216936673z" style="fill:rgb(245,172,143)"/><path d="M57.56901986401034,93.49938449037431L24.49061715563915,68.63057971346446L29.330184239054486,77.83453738939845z" style="fill:rgb(42,41,169)"/><path d="M60.53861079453972,78.81681216936673L59.30896744540381,76.327324961902L59.9104473454312,78.60181895993468z" style="fill:rgb(245,172,143)"/><path d="M149.04265334955244,24.543029243813212L152.3750378733586,33.299818617418964L157.26796603685682,24.323004935778695z" style="fill:rgb(230,108,199)"/><path d="M59.9104473454312,78.60181895993468L61.948480190575324,74.59920779625477L59.30896744540381,76.327324961902z" style="fill:rgb(83,212,212)"/><path d="M117.60414274053203,28.424586435954254L113.62179939600594,18.782990567873203L52.87626634027672,84.20156110525392z" style="fill:rgb(212,85,213)"/><path d="M157.26796603685682,24.323004935778695L153.9966679813284,15.538171565022814L149.04265334955244,24.543029243813212z" style="fill:rgb(230,108,199)"/><path d="M59.9104473454312,78.60181895993468L64.1897134648923,75.79874536950389L61.948480190575324,74.59920779625477zM115.10381623656595,22.371086260269962L136.9652812508738,42.36656588129722L158.20814932609815,6.5344911353500015zM59.9104473454312,78.60181895993468L29.330184239054486,77.83453738939845L57.56901986401034,93.49938449037431z" style="fill:rgb(83,212,212)"/><path d="M131.32062919286045,62.080732722039606L99.19426828787144,39.5460212023497L101.80973781652358,45.54485959736248z" style="fill:rgb(42,41,169)"/><path d="M149.04265334955244,24.543029243813212L153.9966679813284,15.538171565022814L158.20814932609815,6.5344911353500015zM59.9104473454312,78.60181895993468L62.93235824963532,78.2770502227103L64.1897134648923,75.79874536950389zM64.1897134648923,75.79874536950389L57.56901986401034,93.49938449037431L98.41365492121433,49.22602785593035zM115.10381623656595,22.371086260269962L99.19426828787144,39.5460212023497L127.75018170526764,53.440332049544075zM-53.445687434244974,61.918886121323766L-28.17178495482327,134.83288784152492L64.1938348281523,104.08496087741729z" style="fill:rgb(83,212,212)"/><path d="M143.35932865746236,33.501920155483525L146.75835437584556,42.22701660179998L152.3750378733586,33.299818617418964z" style="fill:rgb(226,102,203)"/><path d="M64.1897134648923,75.79874536950389L62.93235824963532,78.2770502227103L57.56901986401034,93.49938449037431z" style="fill:rgb(83,212,212)"/><path d="M152.3750378733586,33.299818617418964L149.04265334955244,24.543029243813212L143.35932865746236,33.501920155483525z" style="fill:rgb(226,102,203)"/><path d="M62.93235824963532,78.2770502227103L59.9104473454312,78.60181895993468L57.56901986401034,93.49938449037431zM136.9652812508738,42.36656588129722L149.04265334955244,24.543029243813212L158.20814932609815,6.5344911353500015z" style="fill:rgb(83,212,212)"/><path d="M117.60414274053203,28.424586435954254L52.87626634027672,84.20156110525392L57.56901986401034,93.49938449037431z" style="fill:rgb(212,85,213)"/><path d="M-56.31729900461345,136.0991355887334L-51.19071910562289,143.93502730435551L-45.4972750445651,144.0924162881949z" style="fill:rgb(94,32,205)"/><path d="M136.9652812508738,42.36656588129722L140.43626066697593,51.05654589576256L146.75835437584556,42.22701660179998z" style="fill:rgb(222,96,207)"/><path d="M115.10381623656595,22.371086260269962L127.75018170526764,53.440332049544075L136.9652812508738,42.36656588129722z" style="fill:rgb(83,212,212)"/><path d="M-50.587799254096005,136.23683853667228L-45.4972750445651,144.0924162881949L-34.489409711720576,143.75231696931942z" style="fill:rgb(101,32,208)"/><path d="M146.75835437584556,42.22701660179998L143.35932865746236,33.501920155483525L136.9652812508738,42.36656588129722z" style="fill:rgb(222,96,207)"/><path d="M-45.4972750445651,144.0924162881949L-50.587799254096005,136.23683853667228L-56.31729900461345,136.0991355887334z" style="fill:rgb(94,32,205)"/><path d="M57.56901986401034,93.49938449037431L52.87626634027672,84.20156110525392L24.49061715563915,68.63057971346446zM131.32062919286045,62.080732722039606L127.75018170526764,53.440332049544075L99.19426828787144,39.5460212023497z" style="fill:rgb(42,41,169)"/><path d="M136.9652812508738,42.36656588129722L143.35932865746236,33.501920155483525L149.04265334955244,24.543029243813212z" style="fill:rgb(83,212,212)"/><path d="M129.8844366469919,51.087988847544764L133.43241638197736,59.73968190765292L140.43626066697593,51.05654589576256z" style="fill:rgb(217,91,210)"/><path d="M-39.506669642655886,135.8574233655264L-34.489409711720576,143.75231696931942L-23.233063419881404,142.76928884131536z" style="fill:rgb(108,33,211)"/><path d="M-34.489409711720576,143.75231696931942L-39.506669642655886,135.8574233655264L-50.587799254096005,136.23683853667228z" style="fill:rgb(101,32,208)"/><path d="M140.43626066697593,51.05654589576256L136.9652812508738,42.36656588129722L129.8844366469919,51.087988847544764z" style="fill:rgb(217,91,210)"/><path d="M127.75018170526764,53.440332049544075L131.32062919286045,62.080732722039606L133.43241638197736,59.73968190765292z" style="fill:rgb(212,85,213)"/><path d="M122.14616723779191,59.616961597943394L124.29255650656863,57.25126305885169L95.77322994997792,43.23915605465266zM64.1938348281523,104.08496087741729L54.62297568441846,87.66234964447285L26.29168767259134,72.05588298256457z" style="fill:rgb(83,212,212)"/><path d="M-28.17178495482327,134.83288784152492L-23.233063419881404,142.76928884131536L-11.786408069000998,141.14072561574886z" style="fill:rgb(116,34,214)"/><path d="M104.841078555205,75.90221791179236L122.14616723779191,59.616961597943394L95.77322994997792,43.23915605465266z" style="fill:rgb(83,212,212)"/><path d="M133.43241638197736,59.73968190765292L129.8844366469919,51.087988847544764L127.75018170526764,53.440332049544075z" style="fill:rgb(212,85,213)"/><path d="M64.1938348281523,104.08496087741729L95.77322994997792,43.23915605465266L54.62297568441846,87.66234964447285z" style="fill:rgb(83,212,212)"/><path d="M122.14616723779191,59.616961597943394L125.77579922981896,68.22750067791L127.89948778699741,65.87327016934704z" style="fill:rgb(212,85,213)"/><path d="M-23.233063419881404,142.76928884131536L-28.17178495482327,134.83288784152492L-39.506669642655886,135.8574233655264z" style="fill:rgb(108,33,211)"/><path d="M-50.587799254096005,136.23683853667228L-39.506669642655886,135.8574233655264L-28.17178495482327,134.83288784152492zM127.75018170526764,53.440332049544075L129.8844366469919,51.087988847544764L136.9652812508738,42.36656588129722z" style="fill:rgb(83,212,212)"/><path d="M117.5006414932092,76.47130364678158L125.77579922981896,68.22750067791L122.14616723779191,59.616961597943394z" style="fill:rgb(206,80,215)"/><path d="M127.89948778699741,65.87327016934704L124.29255650656863,57.25126305885169L122.14616723779191,59.616961597943394z" style="fill:rgb(212,85,213)"/><path d="M-16.641805430530628,133.16076720029588L-11.786408069000998,141.14072561574886L-0.21021614595045393,138.86849216782704z" style="fill:rgb(123,36,216)"/><path d="M-11.786408069000998,141.14072561574886L-16.641805430530628,133.16076720029588L-28.17178495482327,134.83288784152492z" style="fill:rgb(116,34,214)"/><path d="M64.1938348281523,104.08496087741729L104.841078555205,75.90221791179236L95.77322994997792,43.23915605465266z" style="fill:rgb(83,212,212)"/><path d="M122.14616723779191,59.616961597943394L113.78512296721875,67.90446171658766L117.5006414932092,76.47130364678158z" style="fill:rgb(206,80,215)"/><path d="M104.841078555205,75.90221791179236L108.6462279676018,84.4231717720529L117.5006414932092,76.47130364678158z" style="fill:rgb(200,75,217)"/><path d="M-4.978042813178638,130.8431028605264L-0.21021614595045393,138.86849216782704L11.432705384977863,135.95910149120323z" style="fill:rgb(131,38,218)"/><path d="M-0.21021614595045393,138.86849216782704L-4.978042813178638,130.8431028605264L-16.641805430530628,133.16076720029588z" style="fill:rgb(123,36,216)"/><path d="M117.5006414932092,76.47130364678158L113.78512296721875,67.90446171658766L104.841078555205,75.90221791179236z" style="fill:rgb(200,75,217)"/><path d="M-28.17178495482327,134.83288784152492L-16.641805430530628,133.16076720029588L-4.978042813178638,130.8431028605264z" style="fill:rgb(83,212,212)"/><path d="M95.35870783001454,83.56322915351438L99.25668465824019,92.03647631584026L108.6462279676018,84.4231717720529z" style="fill:rgb(194,70,219)"/><path d="M6.756097663722568,127.88662013237237L11.432705384977863,135.95910149120323L23.078086658698123,132.4237440131852z" style="fill:rgb(138,40,220)"/><path d="M104.841078555205,75.90221791179236L113.78512296721875,67.90446171658766L122.14616723779191,59.616961597943394z" style="fill:rgb(83,212,212)"/><path d="M11.432705384977863,135.95910149120323L6.756097663722568,127.88662013237237L-4.978042813178638,130.8431028605264z" style="fill:rgb(131,38,218)"/><path d="M85.38721276931463,90.84221446520579L89.38060848955404,99.26632289423631L99.25668465824019,92.03647631584026z" style="fill:rgb(188,65,220)"/><path d="M108.6462279676018,84.4231717720529L104.841078555205,75.90221791179236L95.35870783001454,83.56322915351438z" style="fill:rgb(194,70,219)"/><path d="M-28.17178495482327,134.83288784152492L-4.978042813178638,130.8431028605264L18.495701476034174,124.30275649651603z" style="fill:rgb(83,212,212)"/><path d="M18.495701476034174,124.30275649651603L23.078086658698123,132.4237440131852L34.660809748390115,128.27831032453437z" style="fill:rgb(146,43,221)"/><path d="M74.97992866871104,97.69620002009938L79.07070609022763,106.07013169351697L89.38060848955404,99.26632289423631z" style="fill:rgb(181,61,221)"/><path d="M30.17496651949714,120.10768282030224L34.660809748390115,128.27831032453437L46.115582342239634,123.54324662006869z" style="fill:rgb(153,46,222)"/><path d="M23.078086658698123,132.4237440131852L18.495701476034174,124.30275649651603L6.756097663722568,127.88662013237237z" style="fill:rgb(138,40,220)"/><path d="M64.1938348281523,104.08496087741729L68.38325449800084,112.40806204325523L79.07070609022763,106.07013169351697z" style="fill:rgb(175,57,222)"/><path d="M99.25668465824019,92.03647631584026L95.35870783001454,83.56322915351438L85.38721276931463,90.84221446520579z" style="fill:rgb(188,65,220)"/><path d="M41.727901369512374,115.32215605699733L46.115582342239634,123.54324662006869L57.37760696603646,118.24345461157904z" style="fill:rgb(160,49,222)"/><path d="M53.08897622802445,109.97141577894428L57.37760696603646,118.24345461157904L68.38325449800084,112.40806204325523z" style="fill:rgb(168,53,222)"/><path d="M-28.17178495482327,134.83288784152492L18.495701476034174,124.30275649651603L64.1938348281523,104.08496087741729zM-4.978042813178638,130.8431028605264L6.756097663722568,127.88662013237237L18.495701476034174,124.30275649651603z" style="fill:rgb(83,212,212)"/><path d="M34.660809748390115,128.27831032453437L30.17496651949714,120.10768282030224L18.495701476034174,124.30275649651603z" style="fill:rgb(146,43,221)"/><path d="M89.38060848955404,99.26632289423631L85.38721276931463,90.84221446520579L74.97992866871104,97.69620002009938z" style="fill:rgb(181,61,221)"/><path d="M85.38721276931463,90.84221446520579L95.35870783001454,83.56322915351438L104.841078555205,75.90221791179236z" style="fill:rgb(83,212,212)"/><path d="M46.115582342239634,123.54324662006869L41.727901369512374,115.32215605699733L30.17496651949714,120.10768282030224z" style="fill:rgb(153,46,222)"/><path d="M79.07070609022763,106.07013169351697L74.97992866871104,97.69620002009938L64.1938348281523,104.08496087741729z" style="fill:rgb(175,57,222)"/><path d="M57.37760696603646,118.24345461157904L53.08897622802445,109.97141577894428L41.727901369512374,115.32215605699733z" style="fill:rgb(160,49,222)"/><path d="M68.38325449800084,112.40806204325523L64.1938348281523,104.08496087741729L53.08897622802445,109.97141577894428z" style="fill:rgb(168,53,222)"/><path d="M64.1938348281523,104.08496087741729L85.38721276931463,90.84221446520579L104.841078555205,75.90221791179236zM18.495701476034174,124.30275649651603L30.17496651949714,120.10768282030224L41.727901369512374,115.32215605699733zM18.495701476034174,124.30275649651603L41.727901369512374,115.32215605699733L64.1938348281523,104.08496087741729zM64.1938348281523,104.08496087741729L74.97992866871104,97.69620002009938L85.38721276931463,90.84221446520579zM41.727901369512374,115.32215605699733L53.08897622802445,109.97141577894428L64.1938348281523,104.08496087741729z" style="fill:rgb(83,212,212)"/></svg>
