<?xml version="1.0" encoding="UTF-8"?>
<!-- Generated by jsxcad -->
<!DOCTYPE svg PUBLIC "-//W3C//DTD SVG 1.1 Tiny//EN" "http://www.w3.org/Graphics/SVG/1.1/DTD/svg11-tiny.dtd">
<svg viewBox="-250 -250 500 500" width="500" height="500" xmlns="http://www.w3.org/2000/svg"><path d="M-160.212315783337,44.37283852784888L-46.82904717648016,-96.08070049700176L-55.437064490588426,-91.54686044652465zM-160.212315783337,44.37283852784888L-38.062204300205416,-100.29224369165513L-46.82904717648016,-96.08070049700176zM-160.212315783337,44.37283852784888L-55.437064490588426,-91.54686044652465L-63.86352843973027,-86.7025533461618zM-160.212315783337,44.37283852784888L-29.159469429119113,-104.17007598820025L-38.062204300205416,-100.29224369165513zM-160.212315783337,44.37283852784888L-63.86352843973027,-86.7025533461618L-72.08591274657816,-81.5600507416457zM-160.212315783337,44.37283852784888L-20.144060567187726,-107.70319807822719L-29.159469429119113,-104.17007598820025zM-160.212315783337,44.37283852784888L-72.08591274657816,-81.5600507416457L-80.08184640741383,-76.1320751483185zM-160.212315783337,44.37283852784888L-11.039499908854976,-110.88097502973672L-20.144060567187726,-107.70319807822719zM-160.212315783337,44.37283852784888L-80.08184640741383,-76.1320751483185L-87.82906122638305,-70.43186874387177zM-160.212315783337,44.37283852784888L-1.8696719878682786,-113.69317617358566L-11.039499908854976,-110.88097502973672zM-160.212315783337,44.37283852784888L-87.82906122638305,-70.43186874387177L-95.30540726429977,-64.47320262796349zM-160.212315783337,44.37283852784888L7.341140164074853,-116.12997448335423L-1.8696719878682786,-113.69317617358566zM-160.212315783337,44.37283852784888L-95.30540726429977,-64.47320262796349L-102.48879828649032,-58.27041293761477zM-160.212315783337,44.37283852784888L16.568205183024663,-118.18193821732858L7.341140164074853,-116.12997448335423zM-160.212315783337,44.37283852784888L-102.48879828649032,-58.27041293761477L-109.35723136876821,-51.83847615595509zM-160.212315783337,44.37283852784888L25.786303171742354,-119.84006649690778L16.568205183024663,-118.18193821732858zM-160.212315783337,44.37283852784888L-109.35723136876821,-51.83847615595509L-115.88875110321001,-45.193038884403904zM-160.212315783337,44.37283852784888L34.96968708201526,-121.09580893887886L25.786303171742354,-119.84006649690778zM-160.212315783337,44.37283852784888L-115.88875110321001,-45.193038884403904L-122.06148874521554,-38.35046629781635zM-160.212315783337,44.37283852784888L44.0920434444559,-121.94114883356677L34.96968708201526,-121.09580893887886zM-160.212315783337,44.37283852784888L-122.06148874521554,-38.35046629781635L-127.85365674932764,-31.327904817209735zM-160.212315783337,44.37283852784888L53.12647062353543,-122.3685762279744L44.0920434444559,-121.94114883356677zM-160.212315783337,44.37283852784888L-127.85365674932764,-31.327904817209735L-133.2435791331335,-24.14332104904493zM-160.212315783337,44.37283852784888L62.04545447919372,-122.3712009462702L53.12647062353543,-122.3685762279744zM-160.212315783337,44.37283852784888L-133.2435791331335,-24.14332104904493L-138.20976444795596,-16.81556485407837zM-160.212315783337,44.37283852784888L70.82083968768973,-121.9428310457032L62.04545447919372,-122.3712009462702zM-160.212315783337,44.37283852784888L-138.20976444795596,-16.81556485407837L-142.73089257515812,-9.364413438069814zM-160.212315783337,44.37283852784888L79.42385233873867,-121.07799409185961L70.82083968768973,-121.9428310457032zM-160.212315783337,44.37283852784888L-142.73089257515812,-9.364413438069814L-146.78596901536469,-1.8106241171841657zM-160.212315783337,44.37283852784888L87.82508177996766,-119.77207312029473L79.42385233873867,-121.07799409185961zM-160.212315783337,44.37283852784888L-146.78596901536469,-1.8106241171841657L-150.3543253664468,5.824030963903035zM-160.212315783337,44.37283852784888L95.99452071115606,-118.02138673424422L87.82508177996766,-119.77207312029473zM-160.212315783337,44.37283852784888L-150.3543253664468,5.824030963903035L-153.41577699785702,13.516720511951005zM-160.212315783337,44.37283852784888L103.90159081166043,-115.82331135617866L95.99452071115606,-118.02138673424422zM-160.212315783337,44.37283852784888L-153.41577699785702,13.516720511951005L-155.9507510938055,21.243527251197374zM-160.212315783337,44.37283852784888L111.51518475183596,-113.1763745783007L103.90159081166043,-115.82331135617866zM-160.212315783337,44.37283852784888L-155.9507510938055,21.243527251197374L-157.94033237678335,28.97942633144444zM-160.212315783337,44.37283852784888L118.80375549468327,-110.08039108205078L111.51518475183596,-113.1763745783007zM-160.212315783337,44.37283852784888L-157.94033237678335,28.97942633144444L-159.3665171429839,36.69828197798891zM-160.212315783337,44.37283852784888L125.73540675220715,-106.5365958340745L118.80375549468327,-110.08039108205078zM-160.212315783337,44.37283852784888L132.27798481417383,-102.54780793624914L125.73540675220715,-106.5365958340745zM-160.212315783337,44.37283852784888L138.3992545704046,-98.11851521237855L132.27798481417383,-102.54780793624914zM-160.212315783337,44.37283852784888L-160.46198751068832,51.974755565292796L-160.1011985620644,59.474633960115476zM-160.212315783337,44.37283852784888L144.0670015870154,-93.2550680956392L138.3992545704046,-98.11851521237855zM-160.212315783337,44.37283852784888L-160.1011985620644,59.474633960115476L-159.11731051765366,66.842069805727zM-160.212315783337,44.37283852784888L149.24927524177346,-87.96583463106184L144.0670015870154,-93.2550680956392zM-160.212315783337,44.37283852784888L-159.11731051765366,66.842069805727L-157.49951312623926,74.0457506151919zM-160.212315783337,44.37283852784888L153.91458635669295,-82.26129487086479L149.24927524177346,-87.96583463106184zM-160.212315783337,44.37283852784888L-157.49951312623926,74.0457506151919L-155.23916131914564,81.05353760369579zM-160.212315783337,44.37283852784888L158.03211181502317,-76.1542181560293L153.91458635669295,-82.26129487086479zM-160.212315783337,44.37283852784888L-155.23916131914564,81.05353760369579L-152.3300231973862,87.83259152031219zM-160.212315783337,44.37283852784888L161.57201829086088,-69.65980539238771L158.03211181502317,-76.1542181560293zM-160.212315783337,44.37283852784888L-152.3300231973862,87.83259152031219L-148.7684850126759,94.3495629416696zM-160.212315783337,44.37283852784888L164.50572849886507,-62.79576239881826L161.57201829086088,-69.65980539238771zM-160.212315783337,44.37283852784888L-148.7684850126759,94.3495629416696L-144.55390215134798,100.57071337728792zM-160.212315783337,44.37283852784888L166.80619877747299,-55.58244528547747L164.50572849886507,-62.79576239881826zM-160.212315783337,44.37283852784888L-144.55390215134798,100.57071337728792L-139.68877516610414,106.46218319087939zM-160.212315783337,44.37283852784888L168.44830735729585,-48.04291964278437L166.80619877747299,-55.58244528547747zM-160.212315783337,44.37283852784888L-139.68877516610414,106.46218319087939L-134.1790808948357,111.99022528626075zM-160.212315783337,44.37283852784888L169.40923766481237,-40.203016916772846L168.44830735729585,-48.04291964278437zM-160.212315783337,44.37283852784888L-134.1790808948357,111.99022528626075L-128.03447123322817,117.12142176297425zM-160.212315783337,44.37283852784888L169.6687048466118,-32.09137356715403L169.40923766481237,-40.203016916772846z" style="fill:rgb(83,212,212)"/><path d="M167.4558604092834,-54.027316025592L166.80619877747299,-55.58244528547747L169.76104040364177,-46.80300792652149zM167.4558604092834,-54.027316025592L164.50572849886507,-62.79576239881826L166.80619877747299,-55.58244528547747z" style="fill:rgb(246,166,149)"/><path d="M-134.25975498275378,113.97466766307602L-144.55390215134798,100.57071337728792L-139.12812211230377,108.07199822295223z" style="fill:rgb(28,51,152)"/><path d="M-160.212315783337,44.37283852784888L-128.03447123322817,117.12142176297425L-121.26850198046405,121.82304435253998zM-160.212315783337,44.37283852784888L169.20946695346714,-23.739402673846868L169.6687048466118,-32.09137356715403z" style="fill:rgb(83,212,212)"/><path d="M-134.25975498275378,113.97466766307602L-139.68877516610414,106.46218319087939L-144.55390215134798,100.57071337728792z" style="fill:rgb(28,51,152)"/><path d="M-160.212315783337,44.37283852784888L-121.26850198046405,121.82304435253998L-113.89884845272012,126.06334635881727z" style="fill:rgb(83,212,212)"/><path d="M169.76104040364177,-46.80300792652149L168.44830735729585,-48.04291964278437L171.4128638159136,-39.25613009018416zM169.76104040364177,-46.80300792652149L166.80619877747299,-55.58244528547747L168.44830735729585,-48.04291964278437z" style="fill:rgb(247,161,155)"/><path d="M-128.7527968828393,119.51589287658331L-139.68877516610414,106.46218319087939L-134.25975498275378,113.97466766307602z" style="fill:rgb(32,47,158)"/><path d="M-160.212315783337,44.37283852784888L168.01766514887785,-15.181266516243541L169.20946695346714,-23.739402673846868zM-160.212315783337,44.37283852784888L-113.89884845272012,126.06334635881727L-105.94742675293233,129.8119037439453z" style="fill:rgb(83,212,212)"/><path d="M-128.7527968828393,119.51589287658331L-134.1790808948357,111.99022528626075L-139.68877516610414,106.46218319087939z" style="fill:rgb(32,47,158)"/><path d="M-160.212315783337,44.37283852784888L166.08314026375518,-6.45377108376009L168.01766514887785,-15.181266516243541z" style="fill:rgb(83,212,212)"/><path d="M171.4128638159136,-39.25613009018416L169.40923766481237,-40.203016916772846L172.38866270046452,-31.41266384755561zM171.4128638159136,-39.25613009018416L168.44830735729585,-48.04291964278437L169.40923766481237,-40.203016916772846z" style="fill:rgb(247,155,161)"/><path d="M-122.61713592095148,124.66233830111524L-134.1790808948357,111.99022528626075L-128.7527968828393,119.51589287658331z" style="fill:rgb(37,44,163)"/><path d="M-160.212315783337,44.37283852784888L-105.94742675293233,129.8119037439453L-97.44055103433352,133.03996315116956zM-160.212315783337,44.37283852784888L163.39981254260724,2.4037623311229193L166.08314026375518,-6.45377108376009zM-160.212315783337,44.37283852784888L-97.44055103433352,133.03996315116956L-88.40896239774665,135.72083265678964z" style="fill:rgb(83,212,212)"/><path d="M-122.61713592095148,124.66233830111524L-128.03447123322817,117.12142176297425L-134.1790808948357,111.99022528626075z" style="fill:rgb(37,44,163)"/><path d="M172.38866270046452,-31.41266384755561L169.6687048466118,-32.09137356715403L172.6683975085911,-23.30136822557217zM172.38866270046452,-31.41266384755561L169.40923766481237,-40.203016916772846L169.6687048466118,-32.09137356715403z" style="fill:rgb(246,149,166)"/><path d="M-160.212315783337,44.37283852784888L159.96604452345602,11.349682411726828L163.39981254260724,2.4037623311229193z" style="fill:rgb(83,212,212)"/><path d="M-115.86651668369554,129.38135531697256L-128.03447123322817,117.12142176297425L-122.61713592095148,124.66233830111524z" style="fill:rgb(42,41,169)"/><path d="M-160.212315783337,44.37283852784888L-88.40896239774665,135.72083265678964L-78.8878829475608,137.83024044530882zM-160.212315783337,44.37283852784888L155.78486969229624,20.340240390829933L159.96604452345602,11.349682411726828z" style="fill:rgb(83,212,212)"/><path d="M-115.86651668369554,129.38135531697256L-121.26850198046405,121.82304435253998L-128.03447123322817,117.12142176297425z" style="fill:rgb(42,41,169)"/><path d="M-160.212315783337,44.37283852784888L-78.8878829475608,137.83024044530882L-68.91691885330432,139.3467346581467z" style="fill:rgb(83,212,212)"/><path d="M172.6683975085911,-23.30136822557217L169.20946695346714,-23.739402673846868L172.23496887006468,-14.953749588681195zM172.6683975085911,-23.30136822557217L169.6687048466118,-32.09137356715403L169.20946695346714,-23.739402673846868z" style="fill:rgb(245,143,172)"/><path d="M-108.51875100473669,133.64127308828512L-121.26850198046405,121.82304435253998L-115.86651668369554,129.38135531697256z" style="fill:rgb(48,39,174)"/><path d="M-160.212315783337,44.37283852784888L150.8642752226534,29.329873676900398L155.78486969229624,20.340240390829933zM-160.212315783337,44.37283852784888L-68.91691885330432,139.3467346581467L-58.53995996964108,140.2519781425199zM-160.212315783337,44.37283852784888L145.21742822559312,38.2715381377893L150.8642752226534,29.329873676900398z" style="fill:rgb(83,212,212)"/><path d="M-108.51875100473669,133.64127308828512L-113.89884845272012,126.06334635881727L-121.26850198046405,121.82304435253998z" style="fill:rgb(48,39,174)"/><path d="M172.23496887006468,-14.953749588681195L168.01766514887785,-15.181266516243541L171.07465881406767,-6.404025330683742z" style="fill:rgb(244,137,177)"/><path d="M-160.212315783337,44.37283852784888L-58.53995996964108,140.2519781425199L-47.80500998872134,140.53116675842747z" style="fill:rgb(83,212,212)"/><path d="M172.23496887006468,-14.953749588681195L169.20946695346714,-23.739402673846868L168.01766514887785,-15.181266516243541z" style="fill:rgb(244,137,177)"/><path d="M-100.59587347666687,137.41173720649138L-113.89884845272012,126.06334635881727L-108.51875100473669,133.64127308828512z" style="fill:rgb(54,37,179)"/><path d="M-160.212315783337,44.37283852784888L138.86274749994524,47.11707937251725L145.21742822559312,38.2715381377893zM-160.212315783337,44.37283852784888L-47.80500998872134,140.53116675842747L-36.763877186388555,140.17333295549125zM-160.212315783337,44.37283852784888L131.8240347047261,55.81765832248209L138.86274749994524,47.11707937251725z" style="fill:rgb(83,212,212)"/><path d="M-100.59587347666687,137.41173720649138L-105.94742675293233,129.8119037439453L-113.89884845272012,126.06334635881727z" style="fill:rgb(54,37,179)"/><path d="M-160.212315783337,44.37283852784888L-36.763877186388555,140.17333295549125L-25.471881622002467,139.17156101290973z" style="fill:rgb(83,212,212)"/><path d="M171.07465881406767,-6.404025330683742L166.08314026375518,-6.45377108376009L169.17738234767404,2.310974970605089zM171.07465881406767,-6.404025330683742L168.01766514887785,-15.181266516243541L166.08314026375518,-6.45377108376009z" style="fill:rgb(242,131,182)"/><path d="M-160.212315783337,44.37283852784888L124.13043208938566,64.32420048440451L131.8240347047261,55.81765832248209z" style="fill:rgb(83,212,212)"/><path d="M-92.12423171404699,140.66405222223102L-105.94742675293233,129.8119037439453L-100.59587347666687,137.41173720649138z" style="fill:rgb(60,35,184)"/><path d="M-160.212315783337,44.37283852784888L-25.471881622002467,139.17156101290973L-13.987418335671453,137.5233053022315zM-160.212315783337,44.37283852784888L115.81635770821572,72.58787579671385L124.13043208938566,64.32420048440451zM-160.212315783337,44.37283852784888L-13.987418335671453,137.5233053022315L-2.3714984693412715,135.23053129666266zM-160.212315783337,44.37283852784888L106.92133892460163,80.56060549257701L115.81635770821572,72.58787579671385z" style="fill:rgb(83,212,212)"/><path d="M-92.12423171404699,140.66405222223102L-97.44055103433352,133.03996315116956L-105.94742675293233,129.8119037439453z" style="fill:rgb(60,35,184)"/><path d="M-160.212315783337,44.37283852784888L-2.3714984693412715,135.23053129666266L9.312798913164087,132.29985060630187z" style="fill:rgb(83,212,212)"/><path d="M169.17738234767404,2.310974970605089L163.39981254260724,2.4037623311229193L166.5371246360265,11.15194692043004zM169.17738234767404,2.310974970605089L166.08314026375518,-6.45377108376009L163.39981254260724,2.4037623311229193z" style="fill:rgb(240,125,187)"/><path d="M-160.212315783337,44.37283852784888L97.48973687359876,88.19557435700632L106.92133892460163,80.56060549257701z" style="fill:rgb(83,212,212)"/><path d="M-83.13455787259605,143.3715718289303L-97.44055103433352,133.03996315116956L-92.12423171404699,140.66405222223102z" style="fill:rgb(66,34,189)"/><path d="M-160.212315783337,44.37283852784888L9.312798913164087,132.29985060630187L21.000908162066622,128.7425545412932zM-160.212315783337,44.37283852784888L87.57042640039283,95.44773453499126L97.48973687359876,88.19557435700632zM-160.212315783337,44.37283852784888L21.000908162066622,128.7425545412932L32.627409750464054,124.57463634260289zM-160.212315783337,44.37283852784888L77.21639452384193,102.27431055055735L87.57042640039283,95.44773453499126zM-160.212315783337,44.37283852784888L32.627409750464054,124.57463634260289L44.12669173600777,119.81671471131469zM-160.212315783337,44.37283852784888L66.48423416949535,108.63529114125433L77.21639452384193,102.27431055055735zM-160.212315783337,44.37283852784888L44.12669173600777,119.81671471131469L55.43362197451043,114.49383724222565zM-160.212315783337,44.37283852784888L55.43362197451043,114.49383724222565L66.48423416949535,108.63529114125433z" style="fill:rgb(83,212,212)"/><path d="M-83.13455787259605,143.3715718289303L-88.40896239774665,135.72083265678964L-97.44055103433352,133.03996315116956z" style="fill:rgb(66,34,189)"/><path d="M166.5371246360265,11.15194692043004L159.96604452345602,11.349682411726828L163.1522506466466,20.077299467413013zM166.5371246360265,11.15194692043004L163.39981254260724,2.4037623311229193L159.96604452345602,11.349682411726828z" style="fill:rgb(237,120,191)"/><path d="M-73.66198775135676,145.5100544504603L-88.40896239774665,135.72083265678964L-83.13455787259605,143.3715718289303zM-73.66198775135676,145.5100544504603L-78.8878829475608,137.83024044530882L-88.40896239774665,135.72083265678964z" style="fill:rgb(73,33,193)"/><path d="M163.1522506466466,20.077299467413013L155.78486969229624,20.340240390829933L159.02573708129773,29.043381928662722zM163.1522506466466,20.077299467413013L159.96604452345602,11.349682411726828L155.78486969229624,20.340240390829933z" style="fill:rgb(234,114,195)"/><path d="M-63.74598381602735,147.0580561500328L-78.8878829475608,137.83024044530882L-73.66198775135676,145.5100544504603z" style="fill:rgb(79,32,198)"/><path d="M159.02573708129773,29.043381928662722L150.8642752226534,29.329873676900398L154.16549717122734,38.004774387716054z" style="fill:rgb(230,108,199)"/><path d="M-63.74598381602735,147.0580561500328L-68.91691885330432,139.3467346581467L-78.8878829475608,137.83024044530882z" style="fill:rgb(79,32,198)"/><path d="M-53.43023986901507,147.99722491672946L-68.91691885330432,139.3467346581467L-63.74598381602735,147.0580561500328z" style="fill:rgb(86,32,201)"/><path d="M159.02573708129773,29.043381928662722L155.78486969229624,20.340240390829933L150.8642752226534,29.329873676900398z" style="fill:rgb(230,108,199)"/><path d="M154.16549717122734,38.004774387716054L145.21742822559312,38.2715381377893L148.58449180297907,46.91461365210175z" style="fill:rgb(226,102,203)"/><path d="M-53.43023986901507,147.99722491672946L-58.53995996964108,140.2519781425199L-68.91691885330432,139.3467346581467z" style="fill:rgb(86,32,201)"/><path d="M-42.76246077443176,148.31271466550047L-58.53995996964108,140.2519781425199L-53.43023986901507,147.99722491672946z" style="fill:rgb(94,32,205)"/><path d="M154.16549717122734,38.004774387716054L150.8642752226534,29.329873676900398L145.21742822559312,38.2715381377893z" style="fill:rgb(226,102,203)"/><path d="M148.58449180297907,46.91461365210175L138.86274749994524,47.11707937251725L142.3009421983941,55.724976663711594z" style="fill:rgb(222,96,207)"/><path d="M-42.76246077443176,148.31271466550047L-47.80500998872134,140.53116675842747L-58.53995996964108,140.2519781425199z" style="fill:rgb(94,32,205)"/><path d="M-31.794115411264965,147.9934860102568L-47.80500998872134,140.53116675842747L-42.76246077443176,148.31271466550047z" style="fill:rgb(101,32,208)"/><path d="M148.58449180297907,46.91461365210175L145.21742822559312,38.2715381377893L138.86274749994524,47.11707937251725z" style="fill:rgb(222,96,207)"/><path d="M142.3009421983941,55.724976663711594L131.8240347047261,55.81765832248209L135.3383462352136,64.38727743010368z" style="fill:rgb(217,91,210)"/><path d="M-20.580104257226864,147.03251975953077L-36.763877186388555,140.17333295549125L-31.794115411264965,147.9934860102568z" style="fill:rgb(108,33,211)"/><path d="M-31.794115411264965,147.9934860102568L-36.763877186388555,140.17333295549125L-47.80500998872134,140.53116675842747z" style="fill:rgb(101,32,208)"/><path d="M142.3009421983941,55.724976663711594L138.86274749994524,47.11707937251725L131.8240347047261,55.81765832248209z" style="fill:rgb(217,91,210)"/><path d="M135.3383462352136,64.38727743010368L124.13043208938566,64.32420048440451L127.72548771602781,72.8527392702325z" style="fill:rgb(212,85,213)"/><path d="M-9.17834307587278,145.42713234363814L-25.471881622002467,139.17156101290973L-20.580104257226864,147.03251975953077z" style="fill:rgb(116,34,214)"/><path d="M-20.580104257226864,147.03251975953077L-25.471881622002467,139.17156101290973L-36.763877186388555,140.17333295549125z" style="fill:rgb(108,33,211)"/><path d="M135.3383462352136,64.38727743010368L131.8240347047261,55.81765832248209L124.13043208938566,64.32420048440451z" style="fill:rgb(212,85,213)"/><path d="M127.72548771602781,72.8527392702325L115.81635770821572,72.58787579671385L119.49637271833241,81.07285744309947z" style="fill:rgb(206,80,215)"/><path d="M2.350699615239704,143.179116468204L-13.987418335671453,137.5233053022315L-9.17834307587278,145.42713234363814z" style="fill:rgb(123,36,216)"/><path d="M-9.17834307587278,145.42713234363814L-13.987418335671453,137.5233053022315L-25.471881622002467,139.17156101290973z" style="fill:rgb(116,34,214)"/><path d="M127.72548771602781,72.8527392702325L124.13043208938566,64.32420048440451L115.81635770821572,72.58787579671385z" style="fill:rgb(206,80,215)"/><path d="M119.49637271833241,81.07285744309947L106.92133892460163,80.56060549257701L110.69002389825931,88.99989835711519z" style="fill:rgb(200,75,217)"/><path d="M13.944534829285642,140.29487575055597L-2.3714984693412715,135.23053129666266L2.350699615239704,143.179116468204z" style="fill:rgb(131,38,218)"/><path d="M2.350699615239704,143.179116468204L-2.3714984693412715,135.23053129666266L-13.987418335671453,137.5233053022315z" style="fill:rgb(123,36,216)"/><path d="M119.49637271833241,81.07285744309947L115.81635770821572,72.58787579671385L106.92133892460163,80.56060549257701z" style="fill:rgb(200,75,217)"/><path d="M110.69002389825931,88.99989835711519L97.48973687359876,88.19557435700632L101.35027203169949,96.58742714671375z" style="fill:rgb(194,70,219)"/><path d="M25.539236555476666,136.78545891906703L9.312798913164087,132.29985060630187L13.944534829285642,140.29487575055597z" style="fill:rgb(138,40,220)"/><path d="M13.944534829285642,140.29487575055597L9.312798913164087,132.29985060630187L-2.3714984693412715,135.23053129666266z" style="fill:rgb(131,38,218)"/><path d="M101.35027203169949,96.58742714671375L87.57042640039283,95.44773453499126L91.52539454239444,103.79077952228414z" style="fill:rgb(188,65,220)"/><path d="M110.69002389825931,88.99989835711519L106.92133892460163,80.56060549257701L97.48973687359876,88.19557435700632z" style="fill:rgb(194,70,219)"/><path d="M37.07005590194228,132.66658350082645L21.000908162066622,128.7425545412932L25.539236555476666,136.78545891906703z" style="fill:rgb(146,43,221)"/><path d="M91.52539454239444,103.79077952228414L77.21639452384193,102.27431055055735L81.26775239960314,110.56756011658459z" style="fill:rgb(181,61,221)"/><path d="M48.472082278293776,127.95856174756729L32.627409750464054,124.57463634260289L37.07005590194228,132.66658350082645z" style="fill:rgb(153,46,222)"/><path d="M25.539236555476666,136.78545891906703L21.000908162066622,128.7425545412932L9.312798913164087,132.29985060630187z" style="fill:rgb(138,40,220)"/><path d="M81.26775239960314,110.56756011658459L66.48423416949535,108.63529114125433L70.63326613052342,116.87815426107302z" style="fill:rgb(175,57,222)"/><path d="M101.35027203169949,96.58742714671375L97.48973687359876,88.19557435700632L87.57042640039283,95.44773453499126z" style="fill:rgb(188,65,220)"/><path d="M59.680897181980505,122.6861083047724L44.12669173600777,119.81671471131469L48.472082278293776,127.95856174756729z" style="fill:rgb(160,49,222)"/><path d="M70.63326613052342,116.87815426107302L55.43362197451043,114.49383724222565L59.680897181980505,122.6861083047724z" style="fill:rgb(168,53,222)"/><path d="M37.07005590194228,132.66658350082645L32.627409750464054,124.57463634260289L21.000908162066622,128.7425545412932z" style="fill:rgb(146,43,221)"/><path d="M91.52539454239444,103.79077952228414L87.57042640039283,95.44773453499126L77.21639452384193,102.27431055055735z" style="fill:rgb(181,61,221)"/><path d="M48.472082278293776,127.95856174756729L44.12669173600777,119.81671471131469L32.627409750464054,124.57463634260289z" style="fill:rgb(153,46,222)"/><path d="M81.26775239960314,110.56756011658459L77.21639452384193,102.27431055055735L66.48423416949535,108.63529114125433z" style="fill:rgb(175,57,222)"/><path d="M59.680897181980505,122.6861083047724L55.43362197451043,114.49383724222565L44.12669173600777,119.81671471131469z" style="fill:rgb(160,49,222)"/><path d="M70.63326613052342,116.87815426107302L66.48423416949535,108.63529114125433L55.43362197451043,114.49383724222565z" style="fill:rgb(168,53,222)"/></svg>
